<svg xmlns="http://www.w3.org/2000/svg" xmlns:xlink="http://www.w3.org/1999/xlink" width="1030" height="755" viewBox="0 0 1030 755">
  <defs>
    <linearGradient id="linear-gradient" x1="0.5" x2="0.5" y2="1" gradientUnits="objectBoundingBox">
      <stop offset="0" stop-color="#eaf2e1"/>
      <stop offset="0.562" stop-color="#f8f8f8"/>
      <stop offset="1" stop-color="#e6ebfb"/>
    </linearGradient>
    <linearGradient id="linear-gradient-2" x1="0.498" y1="0.932" x2="0.498" y2="0.121" gradientUnits="objectBoundingBox">
      <stop offset="0" stop-color="#0cabdf"/>
      <stop offset="1" stop-color="#4dd6e9"/>
    </linearGradient>
  </defs>
  <g id="Grupo_1088484" data-name="Grupo 1088484" transform="translate(-285 -7446.476)">
    <rect id="Rectángulo_381096" data-name="Rectángulo 381096" width="1030" height="755" transform="translate(285 7446.476)" fill="url(#linear-gradient)"/>
    <g id="Grupo_1088483" data-name="Grupo 1088483" transform="translate(-188 -5444.523)">
      <path id="Trazado_838697" data-name="Trazado 838697" d="M-105.851-5.546h-5.062v3.428h5.941V0h-8.578V-12.8h8.561v2.136h-5.924v3.05h5.063ZM-100.9-9.51V.519a3.4,3.4,0,0,1-.835,2.448,3.174,3.174,0,0,1-2.408.875,5.165,5.165,0,0,1-1.257-.149V1.679a4.768,4.768,0,0,0,.8.079q1.151,0,1.151-1.222V-9.51Zm-2.751-2.461a1.251,1.251,0,0,1,.382-.94,1.436,1.436,0,0,1,1.042-.369,1.436,1.436,0,0,1,1.042.369,1.251,1.251,0,0,1,.382.94,1.247,1.247,0,0,1-.391.949,1.443,1.443,0,0,1-1.033.369,1.443,1.443,0,0,1-1.033-.369A1.247,1.247,0,0,1-103.654-11.971ZM-94.54.176a4.668,4.668,0,0,1-3.406-1.283,4.561,4.561,0,0,1-1.314-3.419v-.246a5.745,5.745,0,0,1,.554-2.562,4.064,4.064,0,0,1,1.569-1.74,4.4,4.4,0,0,1,2.316-.611,3.947,3.947,0,0,1,3.072,1.23,5,5,0,0,1,1.121,3.489v1.037h-6.056a2.36,2.36,0,0,0,.743,1.494,2.245,2.245,0,0,0,1.569.563,2.742,2.742,0,0,0,2.294-1.063l1.248,1.4A3.813,3.813,0,0,1-92.377-.277,5.075,5.075,0,0,1-94.54.176Zm-.29-7.813a1.587,1.587,0,0,0-1.226.512,2.651,2.651,0,0,0-.6,1.466h3.533v-.2a1.891,1.891,0,0,0-.457-1.311A1.638,1.638,0,0,0-94.83-7.638Zm8.024-1.872.079,1.063a3.342,3.342,0,0,1,2.733-1.239,2.536,2.536,0,0,1,2.522,1.45,3.265,3.265,0,0,1,2.856-1.45,2.836,2.836,0,0,1,2.3.9,4.141,4.141,0,0,1,.756,2.711V0H-78.1V-6.064a1.811,1.811,0,0,0-.316-1.182,1.4,1.4,0,0,0-1.116-.374,1.585,1.585,0,0,0-1.582,1.09L-81.11,0h-2.54V-6.056a1.789,1.789,0,0,0-.325-1.2,1.416,1.416,0,0,0-1.107-.369,1.646,1.646,0,0,0-1.564.9V0h-2.54V-9.51Zm21.762,4.843a5.7,5.7,0,0,1-1,3.52A3.2,3.2,0,0,1-68.735.176a2.963,2.963,0,0,1-2.329-1V3.656H-73.6V-9.51h2.355l.088.932a2.985,2.985,0,0,1,2.408-1.107,3.22,3.22,0,0,1,2.733,1.3A5.858,5.858,0,0,1-65.043-4.8Zm-2.54-.185a3.743,3.743,0,0,0-.47-2.048A1.532,1.532,0,0,0-69.42-7.62a1.663,1.663,0,0,0-1.644.914v3.894a1.692,1.692,0,0,0,1.661.94Q-67.583-1.872-67.583-4.852ZM-60.79,0h-2.549V-13.5h2.549Zm1.7-4.843a5.64,5.64,0,0,1,.545-2.522,3.989,3.989,0,0,1,1.569-1.714A4.577,4.577,0,0,1-54.6-9.686,4.33,4.33,0,0,1-51.46-8.508a4.727,4.727,0,0,1,1.358,3.2l.018.65a4.97,4.97,0,0,1-1.222,3.511A4.247,4.247,0,0,1-54.584.176a4.268,4.268,0,0,1-3.283-1.318,5.058,5.058,0,0,1-1.226-3.586Zm2.54.18a3.555,3.555,0,0,0,.51,2.073,1.682,1.682,0,0,0,1.459.717,1.686,1.686,0,0,0,1.441-.709,3.89,3.89,0,0,0,.519-2.267,3.519,3.519,0,0,0-.519-2.06A1.686,1.686,0,0,0-54.6-7.638a1.658,1.658,0,0,0-1.441.726A3.955,3.955,0,0,0-56.553-4.662ZM-43.871,0V-12.8h3.938a5.98,5.98,0,0,1,3.019.76,5.3,5.3,0,0,1,2.079,2.162,6.669,6.669,0,0,1,.747,3.186V-6.1a6.688,6.688,0,0,1-.734,3.173,5.256,5.256,0,0,1-2.07,2.153A6.025,6.025,0,0,1-39.907,0Zm2.637-10.661v8.543h1.274A2.863,2.863,0,0,0-37.6-3.129a4.567,4.567,0,0,0,.835-2.892V-6.7a4.64,4.64,0,0,0-.809-2.958,2.854,2.854,0,0,0-2.364-1.006ZM-29.659,0h-2.549V-9.51h2.549Zm-2.7-11.971a1.251,1.251,0,0,1,.382-.94,1.436,1.436,0,0,1,1.042-.369,1.44,1.44,0,0,1,1.037.369,1.244,1.244,0,0,1,.387.94,1.247,1.247,0,0,1-.391.949,1.443,1.443,0,0,1-1.033.369,1.443,1.443,0,0,1-1.033-.369A1.247,1.247,0,0,1-32.357-11.971ZM-22.056,0a2.821,2.821,0,0,1-.255-.853A3.073,3.073,0,0,1-24.71.176a3.376,3.376,0,0,1-2.316-.809,2.6,2.6,0,0,1-.918-2.039,2.687,2.687,0,0,1,1.121-2.32,5.529,5.529,0,0,1,3.239-.817h1.169v-.545a1.567,1.567,0,0,0-.338-1.055,1.331,1.331,0,0,0-1.068-.4,1.513,1.513,0,0,0-1.006.308,1.045,1.045,0,0,0-.365.844h-2.54a2.551,2.551,0,0,1,.51-1.529,3.37,3.37,0,0,1,1.441-1.1,5.253,5.253,0,0,1,2.092-.4A4.15,4.15,0,0,1-20.9-8.8a3.09,3.09,0,0,1,1.033,2.483V-2.2A4.546,4.546,0,0,0-19.49-.149V0Zm-2.1-1.767a2.188,2.188,0,0,0,1.037-.25,1.645,1.645,0,0,0,.7-.672V-4.324h-.949q-1.907,0-2.03,1.318l-.009.149a1.017,1.017,0,0,0,.334.782A1.3,1.3,0,0,0-24.157-1.767Zm5.871-3.059A5.573,5.573,0,0,1-17.244-8.35a3.375,3.375,0,0,1,2.808-1.336A2.96,2.96,0,0,1-12-8.613l.105-.9h2.3V-.316a4.064,4.064,0,0,1-.567,2.171,3.641,3.641,0,0,1-1.6,1.406,5.608,5.608,0,0,1-2.408.483A5.215,5.215,0,0,1-16.2,3.327a3.619,3.619,0,0,1-1.5-1.077L-16.581.7a2.975,2.975,0,0,0,2.3,1.063A2.178,2.178,0,0,0-12.7,1.226a2.027,2.027,0,0,0,.563-1.534v-.51a2.938,2.938,0,0,1-2.312.993,3.366,3.366,0,0,1-2.773-1.34A5.572,5.572,0,0,1-18.286-4.72Zm2.54.189a3.47,3.47,0,0,0,.519,2.029,1.65,1.65,0,0,0,1.424.735,1.764,1.764,0,0,0,1.661-.871V-6.749a1.76,1.76,0,0,0-1.644-.871,1.66,1.66,0,0,0-1.437.748A3.911,3.911,0,0,0-15.746-4.636ZM-2.3-7.128a6.9,6.9,0,0,0-.914-.07,1.86,1.86,0,0,0-1.89.976V0h-2.54V-9.51h2.4l.07,1.134a2.354,2.354,0,0,1,2.118-1.31,2.662,2.662,0,0,1,.791.114ZM4.17,0a2.821,2.821,0,0,1-.255-.853A3.073,3.073,0,0,1,1.516.176,3.376,3.376,0,0,1-.8-.633a2.6,2.6,0,0,1-.918-2.039A2.687,2.687,0,0,1-.6-4.992,5.529,5.529,0,0,1,2.641-5.81H3.81v-.545a1.567,1.567,0,0,0-.338-1.055A1.331,1.331,0,0,0,2.4-7.8,1.513,1.513,0,0,0,1.4-7.5a1.045,1.045,0,0,0-.365.844h-2.54A2.551,2.551,0,0,1-1-8.183a3.37,3.37,0,0,1,1.441-1.1,5.253,5.253,0,0,1,2.092-.4A4.15,4.15,0,0,1,5.326-8.8,3.09,3.09,0,0,1,6.359-6.319V-2.2A4.546,4.546,0,0,0,6.737-.149V0ZM2.07-1.767a2.188,2.188,0,0,0,1.037-.25,1.645,1.645,0,0,0,.7-.672V-4.324H2.861q-1.907,0-2.03,1.318l-.009.149a1.017,1.017,0,0,0,.334.782A1.3,1.3,0,0,0,2.07-1.767ZM10.692-9.51l.079,1.063A3.342,3.342,0,0,1,13.5-9.686a2.536,2.536,0,0,1,2.522,1.45,3.265,3.265,0,0,1,2.856-1.45,2.836,2.836,0,0,1,2.3.9,4.141,4.141,0,0,1,.756,2.711V0H19.393V-6.064a1.811,1.811,0,0,0-.316-1.182A1.4,1.4,0,0,0,17.96-7.62a1.585,1.585,0,0,0-1.582,1.09L16.387,0h-2.54V-6.056a1.789,1.789,0,0,0-.325-1.2,1.416,1.416,0,0,0-1.107-.369,1.646,1.646,0,0,0-1.564.9V0H8.31V-9.51ZM29.4,0a2.821,2.821,0,0,1-.255-.853A3.073,3.073,0,0,1,26.75.176a3.376,3.376,0,0,1-2.316-.809,2.6,2.6,0,0,1-.918-2.039,2.687,2.687,0,0,1,1.121-2.32,5.529,5.529,0,0,1,3.239-.817h1.169v-.545a1.567,1.567,0,0,0-.338-1.055,1.331,1.331,0,0,0-1.068-.4,1.513,1.513,0,0,0-1.006.308,1.045,1.045,0,0,0-.365.844h-2.54a2.551,2.551,0,0,1,.51-1.529,3.37,3.37,0,0,1,1.441-1.1,5.253,5.253,0,0,1,2.092-.4A4.15,4.15,0,0,1,30.56-8.8a3.09,3.09,0,0,1,1.033,2.483V-2.2A4.546,4.546,0,0,0,31.97-.149V0ZM27.3-1.767a2.188,2.188,0,0,0,1.037-.25,1.645,1.645,0,0,0,.7-.672V-4.324h-.949q-1.907,0-2.03,1.318l-.009.149a1.017,1.017,0,0,0,.334.782A1.3,1.3,0,0,0,27.3-1.767ZM37.63-4.825a5.731,5.731,0,0,1,1-3.542,3.237,3.237,0,0,1,2.729-1.318,2.913,2.913,0,0,1,2.294,1.037V-13.5H46.2V0H43.906l-.123-1.011A2.989,2.989,0,0,1,41.339.176a3.228,3.228,0,0,1-2.694-1.323A5.916,5.916,0,0,1,37.63-4.825Zm2.54.189a3.754,3.754,0,0,0,.466,2.051,1.517,1.517,0,0,0,1.354.713,1.7,1.7,0,0,0,1.661-.995V-6.625a1.675,1.675,0,0,0-1.644-.995Q40.17-7.62,40.17-4.636ZM52.545.176A4.668,4.668,0,0,1,49.14-1.107a4.561,4.561,0,0,1-1.314-3.419v-.246a5.745,5.745,0,0,1,.554-2.562,4.064,4.064,0,0,1,1.569-1.74,4.4,4.4,0,0,1,2.316-.611,3.947,3.947,0,0,1,3.072,1.23,5,5,0,0,1,1.121,3.489v1.037H50.4a2.36,2.36,0,0,0,.743,1.494,2.245,2.245,0,0,0,1.569.563,2.742,2.742,0,0,0,2.294-1.063l1.248,1.4A3.813,3.813,0,0,1,54.708-.277,5.075,5.075,0,0,1,52.545.176Zm-.29-7.813a1.587,1.587,0,0,0-1.226.512,2.651,2.651,0,0,0-.6,1.466H53.96v-.2A1.891,1.891,0,0,0,53.5-7.174,1.638,1.638,0,0,0,52.255-7.638ZM65.184-4.509V0H62.547V-12.8H67.54a5.776,5.776,0,0,1,2.536.527,3.886,3.886,0,0,1,1.683,1.5,4.178,4.178,0,0,1,.589,2.21A3.674,3.674,0,0,1,71.06-5.594,5.363,5.363,0,0,1,67.5-4.509Zm0-2.136H67.54a2.316,2.316,0,0,0,1.6-.492,1.79,1.79,0,0,0,.549-1.406,2.111,2.111,0,0,0-.554-1.521,2.068,2.068,0,0,0-1.529-.6H65.184ZM79.4,0a2.821,2.821,0,0,1-.255-.853A3.073,3.073,0,0,1,76.75.176a3.376,3.376,0,0,1-2.316-.809,2.6,2.6,0,0,1-.918-2.039,2.687,2.687,0,0,1,1.121-2.32,5.529,5.529,0,0,1,3.239-.817h1.169v-.545a1.567,1.567,0,0,0-.338-1.055,1.331,1.331,0,0,0-1.068-.4,1.513,1.513,0,0,0-1.006.308,1.045,1.045,0,0,0-.365.844h-2.54a2.551,2.551,0,0,1,.51-1.529,3.37,3.37,0,0,1,1.441-1.1,5.253,5.253,0,0,1,2.092-.4,4.15,4.15,0,0,1,2.791.883,3.09,3.09,0,0,1,1.033,2.483V-2.2a4.546,4.546,0,0,0,.378,2.048V0ZM77.3-1.767a2.188,2.188,0,0,0,1.037-.25,1.645,1.645,0,0,0,.7-.672V-4.324H78.1q-1.907,0-2.03,1.318l-.009.149a1.017,1.017,0,0,0,.334.782A1.3,1.3,0,0,0,77.3-1.767ZM88.888-7.128a6.9,6.9,0,0,0-.914-.07,1.86,1.86,0,0,0-1.89.976V0h-2.54V-9.51h2.4l.07,1.134a2.354,2.354,0,0,1,2.118-1.31,2.662,2.662,0,0,1,.791.114ZM94.32.176a4.668,4.668,0,0,1-3.406-1.283A4.561,4.561,0,0,1,89.6-4.526v-.246a5.745,5.745,0,0,1,.554-2.562,4.064,4.064,0,0,1,1.569-1.74,4.4,4.4,0,0,1,2.316-.611,3.947,3.947,0,0,1,3.072,1.23,5,5,0,0,1,1.121,3.489v1.037H92.175a2.36,2.36,0,0,0,.743,1.494,2.245,2.245,0,0,0,1.569.563,2.742,2.742,0,0,0,2.294-1.063l1.248,1.4A3.813,3.813,0,0,1,96.482-.277,5.075,5.075,0,0,1,94.32.176Zm-.29-7.813a1.587,1.587,0,0,0-1.226.512,2.651,2.651,0,0,0-.6,1.466h3.533v-.2a1.891,1.891,0,0,0-.457-1.311A1.638,1.638,0,0,0,94.03-7.638Zm8.684-4.21V-9.51h1.626v1.863h-1.626V-2.9a1.133,1.133,0,0,0,.2.756,1.015,1.015,0,0,0,.773.229,4.051,4.051,0,0,0,.747-.062V-.053A5.229,5.229,0,0,1,102.9.176a2.425,2.425,0,0,1-2.725-2.7V-7.646H98.785V-9.51h1.389v-2.338Zm2.382,7a5.64,5.64,0,0,1,.545-2.522,3.989,3.989,0,0,1,1.569-1.714,4.577,4.577,0,0,1,2.377-.606,4.33,4.33,0,0,1,3.142,1.178,4.727,4.727,0,0,1,1.358,3.2l.018.65a4.97,4.97,0,0,1-1.222,3.511A4.247,4.247,0,0,1,109.6.176a4.268,4.268,0,0,1-3.283-1.318A5.058,5.058,0,0,1,105.1-4.729Zm2.54.18a3.555,3.555,0,0,0,.51,2.073,1.682,1.682,0,0,0,1.459.717,1.686,1.686,0,0,0,1.441-.709,3.89,3.89,0,0,0,.519-2.267,3.519,3.519,0,0,0-.519-2.06,1.686,1.686,0,0,0-1.459-.731,1.658,1.658,0,0,0-1.441.726A3.955,3.955,0,0,0,107.635-4.662Z" transform="translate(970.785 12950.26)" fill="#12263f"/>
      <path id="Trazado_838698" data-name="Trazado 838698" d="M5.424.192A4.552,4.552,0,0,1,2.96-.488,4.623,4.623,0,0,1,1.248-2.464,7.179,7.179,0,0,1,.624-5.6a7.179,7.179,0,0,1,.624-3.136A4.623,4.623,0,0,1,2.96-10.712a4.552,4.552,0,0,1,2.464-.68,4.541,4.541,0,0,1,2.472.68A4.642,4.642,0,0,1,9.6-8.736,7.179,7.179,0,0,1,10.224-5.6,7.179,7.179,0,0,1,9.6-2.464,4.642,4.642,0,0,1,7.9-.488,4.541,4.541,0,0,1,5.424.192ZM5.424-2a1.847,1.847,0,0,0,1.144-.368,2.41,2.41,0,0,0,.768-1.168A6.361,6.361,0,0,0,7.616-5.6a6.361,6.361,0,0,0-.28-2.064,2.41,2.41,0,0,0-.768-1.168A1.847,1.847,0,0,0,5.424-9.2,1.822,1.822,0,0,0,4.3-8.832a2.41,2.41,0,0,0-.768,1.168A6.361,6.361,0,0,0,3.248-5.6a6.361,6.361,0,0,0,.28,2.064A2.41,2.41,0,0,0,4.3-2.368,1.822,1.822,0,0,0,5.424-2Z" transform="translate(566.5 13447)" fill="#4c4c4c"/>
      <path id="Trazado_838699" data-name="Trazado 838699" d="M5.424.192A4.552,4.552,0,0,1,2.96-.488,4.623,4.623,0,0,1,1.248-2.464,7.179,7.179,0,0,1,.624-5.6a7.179,7.179,0,0,1,.624-3.136A4.623,4.623,0,0,1,2.96-10.712a4.552,4.552,0,0,1,2.464-.68,4.541,4.541,0,0,1,2.472.68A4.642,4.642,0,0,1,9.6-8.736,7.179,7.179,0,0,1,10.224-5.6,7.179,7.179,0,0,1,9.6-2.464,4.642,4.642,0,0,1,7.9-.488,4.541,4.541,0,0,1,5.424.192ZM5.424-2a1.847,1.847,0,0,0,1.144-.368,2.41,2.41,0,0,0,.768-1.168A6.361,6.361,0,0,0,7.616-5.6a6.361,6.361,0,0,0-.28-2.064,2.41,2.41,0,0,0-.768-1.168A1.847,1.847,0,0,0,5.424-9.2,1.822,1.822,0,0,0,4.3-8.832a2.41,2.41,0,0,0-.768,1.168A6.361,6.361,0,0,0,3.248-5.6a6.361,6.361,0,0,0,.28,2.064A2.41,2.41,0,0,0,4.3-2.368,1.822,1.822,0,0,0,5.424-2Z" transform="translate(1385.5 13447.154)" fill="#4c4c4c"/>
      <path id="Trazado_838700" data-name="Trazado 838700" d="M4.432.192A8.75,8.75,0,0,1,2.12-.12,6.2,6.2,0,0,1,.16-1.008L1.184-2.992a5.263,5.263,0,0,0,1.48.736,5.5,5.5,0,0,0,1.7.272A2.682,2.682,0,0,0,5.9-2.368a1.228,1.228,0,0,0,.56-1.072,1.353,1.353,0,0,0-.224-.768,1.41,1.41,0,0,0-.792-.512A5.625,5.625,0,0,0,3.856-4.9H.992l.576-6.3H8.4v2.08H2.5L3.84-10.3l-.4,4.5L2.1-6.992H4.464a6.62,6.62,0,0,1,2.68.456A3.143,3.143,0,0,1,8.624-5.3,3.42,3.42,0,0,1,9.088-3.52a3.539,3.539,0,0,1-.5,1.832A3.581,3.581,0,0,1,7.064-.328,5.839,5.839,0,0,1,4.432.192Z" transform="translate(566.5 13370)" fill="#4c4c4c"/>
      <path id="Trazado_838701" data-name="Trazado 838701" d="M2.352,0V-10.24l1.12,1.12H.112V-11.2H4.944V0ZM11.7.192a4.552,4.552,0,0,1-2.464-.68A4.623,4.623,0,0,1,7.52-2.464,7.179,7.179,0,0,1,6.9-5.6,7.179,7.179,0,0,1,7.52-8.736a4.623,4.623,0,0,1,1.712-1.976,4.552,4.552,0,0,1,2.464-.68,4.541,4.541,0,0,1,2.472.68,4.642,4.642,0,0,1,1.7,1.976A7.179,7.179,0,0,1,16.5-5.6a7.179,7.179,0,0,1-.624,3.136,4.642,4.642,0,0,1-1.7,1.976A4.541,4.541,0,0,1,11.7.192ZM11.7-2a1.847,1.847,0,0,0,1.144-.368,2.41,2.41,0,0,0,.768-1.168,6.361,6.361,0,0,0,.28-2.064,6.361,6.361,0,0,0-.28-2.064,2.41,2.41,0,0,0-.768-1.168A1.847,1.847,0,0,0,11.7-9.2a1.822,1.822,0,0,0-1.128.368A2.41,2.41,0,0,0,9.8-7.664,6.361,6.361,0,0,0,9.52-5.6,6.361,6.361,0,0,0,9.8-3.536a2.41,2.41,0,0,0,.768,1.168A1.822,1.822,0,0,0,11.7-2Z" transform="translate(1385.5 13412)" fill="#4c4c4c"/>
      <path id="Trazado_838702" data-name="Trazado 838702" d="M2.352,0V-10.24l1.12,1.12H.112V-11.2H4.944V0ZM11.7.192a4.552,4.552,0,0,1-2.464-.68A4.623,4.623,0,0,1,7.52-2.464,7.179,7.179,0,0,1,6.9-5.6,7.179,7.179,0,0,1,7.52-8.736a4.623,4.623,0,0,1,1.712-1.976,4.552,4.552,0,0,1,2.464-.68,4.541,4.541,0,0,1,2.472.68,4.642,4.642,0,0,1,1.7,1.976A7.179,7.179,0,0,1,16.5-5.6a7.179,7.179,0,0,1-.624,3.136,4.642,4.642,0,0,1-1.7,1.976A4.541,4.541,0,0,1,11.7.192ZM11.7-2a1.847,1.847,0,0,0,1.144-.368,2.41,2.41,0,0,0,.768-1.168,6.361,6.361,0,0,0,.28-2.064,6.361,6.361,0,0,0-.28-2.064,2.41,2.41,0,0,0-.768-1.168A1.847,1.847,0,0,0,11.7-9.2a1.822,1.822,0,0,0-1.128.368A2.41,2.41,0,0,0,9.8-7.664,6.361,6.361,0,0,0,9.52-5.6,6.361,6.361,0,0,0,9.8-3.536a2.41,2.41,0,0,0,.768,1.168A1.822,1.822,0,0,0,11.7-2Z" transform="translate(566.5 13294)" fill="#4c4c4c"/>
      <path id="Trazado_838703" data-name="Trazado 838703" d="M.528,0V-1.68l4.32-4.08A4.535,4.535,0,0,0,5.6-6.592a2.572,2.572,0,0,0,.328-.672,2.026,2.026,0,0,0,.088-.56A1.238,1.238,0,0,0,5.56-8.856a2.122,2.122,0,0,0-1.336-.36,3.121,3.121,0,0,0-1.3.272A2.536,2.536,0,0,0,1.9-8.1L.016-9.312a4.416,4.416,0,0,1,1.792-1.52,6,6,0,0,1,2.656-.56,5.428,5.428,0,0,1,2.184.408A3.39,3.39,0,0,1,8.1-9.84a2.971,2.971,0,0,1,.52,1.76A4.375,4.375,0,0,1,8.488-7a3.565,3.565,0,0,1-.544,1.128A8.607,8.607,0,0,1,6.752-4.544L3.168-1.168l-.5-.944h6.32V0ZM14.864.192A4.552,4.552,0,0,1,12.4-.488a4.623,4.623,0,0,1-1.712-1.976A7.179,7.179,0,0,1,10.064-5.6a7.179,7.179,0,0,1,.624-3.136A4.623,4.623,0,0,1,12.4-10.712a4.552,4.552,0,0,1,2.464-.68,4.541,4.541,0,0,1,2.472.68,4.642,4.642,0,0,1,1.7,1.976A7.179,7.179,0,0,1,19.664-5.6a7.179,7.179,0,0,1-.624,3.136,4.642,4.642,0,0,1-1.7,1.976A4.541,4.541,0,0,1,14.864.192Zm0-2.192a1.847,1.847,0,0,0,1.144-.368,2.41,2.41,0,0,0,.768-1.168,6.361,6.361,0,0,0,.28-2.064,6.361,6.361,0,0,0-.28-2.064,2.41,2.41,0,0,0-.768-1.168A1.847,1.847,0,0,0,14.864-9.2a1.822,1.822,0,0,0-1.128.368,2.41,2.41,0,0,0-.768,1.168,6.361,6.361,0,0,0-.28,2.064,6.361,6.361,0,0,0,.28,2.064,2.41,2.41,0,0,0,.768,1.168A1.822,1.822,0,0,0,14.864-2Z" transform="translate(1385.5 13363)" fill="#4c4c4c"/>
      <path id="Trazado_838704" data-name="Trazado 838704" d="M2.352,0V-10.24l1.12,1.12H.112V-11.2H4.944V0ZM10.7.192A8.75,8.75,0,0,1,8.392-.12a6.2,6.2,0,0,1-1.96-.888L7.456-2.992a5.263,5.263,0,0,0,1.48.736,5.5,5.5,0,0,0,1.7.272,2.682,2.682,0,0,0,1.536-.384,1.228,1.228,0,0,0,.56-1.072,1.353,1.353,0,0,0-.224-.768,1.41,1.41,0,0,0-.792-.512A5.625,5.625,0,0,0,10.128-4.9H7.264l.576-6.3h6.832v2.08h-5.9L10.112-10.3l-.4,4.5L8.368-6.992h2.368a6.62,6.62,0,0,1,2.68.456A3.143,3.143,0,0,1,14.9-5.3,3.42,3.42,0,0,1,15.36-3.52a3.539,3.539,0,0,1-.5,1.832,3.581,3.581,0,0,1-1.528,1.36A5.839,5.839,0,0,1,10.7.192Z" transform="translate(566.5 13217)" fill="#4c4c4c"/>
      <path id="Trazado_838705" data-name="Trazado 838705" d="M4.256.192A8.839,8.839,0,0,1,1.936-.12,5.99,5.99,0,0,1-.016-1.008L.992-2.992a5.241,5.241,0,0,0,1.488.736,5.575,5.575,0,0,0,1.712.272,2.682,2.682,0,0,0,1.536-.384,1.213,1.213,0,0,0,.56-1.056,1.187,1.187,0,0,0-.5-1.008,2.722,2.722,0,0,0-1.6-.368H3.008V-6.512l3.12-3.536.288.928H.544V-11.2h7.84v1.68L5.28-5.984,3.968-6.736H4.72a4.6,4.6,0,0,1,3.12.928A3.029,3.029,0,0,1,8.9-3.424a3.37,3.37,0,0,1-.5,1.768A3.578,3.578,0,0,1,6.88-.32,5.865,5.865,0,0,1,4.256.192Zm10.64,0a4.552,4.552,0,0,1-2.464-.68A4.623,4.623,0,0,1,10.72-2.464,7.179,7.179,0,0,1,10.1-5.6a7.179,7.179,0,0,1,.624-3.136,4.623,4.623,0,0,1,1.712-1.976,4.552,4.552,0,0,1,2.464-.68,4.541,4.541,0,0,1,2.472.68,4.642,4.642,0,0,1,1.7,1.976A7.179,7.179,0,0,1,19.7-5.6a7.179,7.179,0,0,1-.624,3.136,4.642,4.642,0,0,1-1.7,1.976A4.541,4.541,0,0,1,14.9.192ZM14.9-2a1.847,1.847,0,0,0,1.144-.368,2.41,2.41,0,0,0,.768-1.168,6.361,6.361,0,0,0,.28-2.064,6.361,6.361,0,0,0-.28-2.064,2.41,2.41,0,0,0-.768-1.168A1.847,1.847,0,0,0,14.9-9.2a1.822,1.822,0,0,0-1.128.368A2.41,2.41,0,0,0,13-7.664,6.361,6.361,0,0,0,12.72-5.6,6.361,6.361,0,0,0,13-3.536a2.41,2.41,0,0,0,.768,1.168A1.822,1.822,0,0,0,14.9-2Z" transform="translate(1385.5 13314)" fill="#4c4c4c"/>
      <path id="Trazado_838706" data-name="Trazado 838706" d="M.528,0V-1.68l4.32-4.08A4.535,4.535,0,0,0,5.6-6.592a2.572,2.572,0,0,0,.328-.672,2.026,2.026,0,0,0,.088-.56A1.238,1.238,0,0,0,5.56-8.856a2.122,2.122,0,0,0-1.336-.36,3.121,3.121,0,0,0-1.3.272A2.536,2.536,0,0,0,1.9-8.1L.016-9.312a4.416,4.416,0,0,1,1.792-1.52,6,6,0,0,1,2.656-.56,5.428,5.428,0,0,1,2.184.408A3.39,3.39,0,0,1,8.1-9.84a2.971,2.971,0,0,1,.52,1.76A4.375,4.375,0,0,1,8.488-7a3.565,3.565,0,0,1-.544,1.128A8.607,8.607,0,0,1,6.752-4.544L3.168-1.168l-.5-.944h6.32V0ZM14.864.192A4.552,4.552,0,0,1,12.4-.488a4.623,4.623,0,0,1-1.712-1.976A7.179,7.179,0,0,1,10.064-5.6a7.179,7.179,0,0,1,.624-3.136A4.623,4.623,0,0,1,12.4-10.712a4.552,4.552,0,0,1,2.464-.68,4.541,4.541,0,0,1,2.472.68,4.642,4.642,0,0,1,1.7,1.976A7.179,7.179,0,0,1,19.664-5.6a7.179,7.179,0,0,1-.624,3.136,4.642,4.642,0,0,1-1.7,1.976A4.541,4.541,0,0,1,14.864.192Zm0-2.192a1.847,1.847,0,0,0,1.144-.368,2.41,2.41,0,0,0,.768-1.168,6.361,6.361,0,0,0,.28-2.064,6.361,6.361,0,0,0-.28-2.064,2.41,2.41,0,0,0-.768-1.168A1.847,1.847,0,0,0,14.864-9.2a1.822,1.822,0,0,0-1.128.368,2.41,2.41,0,0,0-.768,1.168,6.361,6.361,0,0,0-.28,2.064,6.361,6.361,0,0,0,.28,2.064,2.41,2.41,0,0,0,.768,1.168A1.822,1.822,0,0,0,14.864-2Z" transform="translate(566.5 13140)" fill="#4c4c4c"/>
      <path id="Trazado_838707" data-name="Trazado 838707" d="M.5-2.352V-4.1l5.28-7.1H8.5L3.328-4.1,2.064-4.464H10.88v2.112ZM6.528,0V-2.352l.08-2.112v-2.1H9.056V0Zm9.92.192a4.552,4.552,0,0,1-2.464-.68,4.623,4.623,0,0,1-1.712-1.976A7.179,7.179,0,0,1,11.648-5.6a7.179,7.179,0,0,1,.624-3.136,4.623,4.623,0,0,1,1.712-1.976,4.552,4.552,0,0,1,2.464-.68,4.541,4.541,0,0,1,2.472.68,4.642,4.642,0,0,1,1.7,1.976A7.179,7.179,0,0,1,21.248-5.6a7.179,7.179,0,0,1-.624,3.136,4.642,4.642,0,0,1-1.7,1.976A4.541,4.541,0,0,1,16.448.192Zm0-2.192a1.847,1.847,0,0,0,1.144-.368,2.41,2.41,0,0,0,.768-1.168A6.361,6.361,0,0,0,18.64-5.6a6.361,6.361,0,0,0-.28-2.064,2.41,2.41,0,0,0-.768-1.168A1.847,1.847,0,0,0,16.448-9.2a1.822,1.822,0,0,0-1.128.368,2.41,2.41,0,0,0-.768,1.168,6.361,6.361,0,0,0-.28,2.064,6.361,6.361,0,0,0,.28,2.064,2.41,2.41,0,0,0,.768,1.168A1.822,1.822,0,0,0,16.448-2Z" transform="translate(1385.5 13265)" fill="#4c4c4c"/>
      <path id="Trazado_838708" data-name="Trazado 838708" d="M.528,0V-1.68l4.32-4.08A4.535,4.535,0,0,0,5.6-6.592a2.572,2.572,0,0,0,.328-.672,2.026,2.026,0,0,0,.088-.56A1.238,1.238,0,0,0,5.56-8.856a2.122,2.122,0,0,0-1.336-.36,3.121,3.121,0,0,0-1.3.272A2.536,2.536,0,0,0,1.9-8.1L.016-9.312a4.416,4.416,0,0,1,1.792-1.52,6,6,0,0,1,2.656-.56,5.428,5.428,0,0,1,2.184.408A3.39,3.39,0,0,1,8.1-9.84a2.971,2.971,0,0,1,.52,1.76A4.375,4.375,0,0,1,8.488-7a3.565,3.565,0,0,1-.544,1.128A8.607,8.607,0,0,1,6.752-4.544L3.168-1.168l-.5-.944h6.32V0ZM13.872.192A8.75,8.75,0,0,1,11.56-.12,6.2,6.2,0,0,1,9.6-1.008l1.024-1.984a5.263,5.263,0,0,0,1.48.736,5.5,5.5,0,0,0,1.7.272,2.682,2.682,0,0,0,1.536-.384A1.228,1.228,0,0,0,15.9-3.44a1.353,1.353,0,0,0-.224-.768,1.41,1.41,0,0,0-.792-.512A5.625,5.625,0,0,0,13.3-4.9H10.432l.576-6.3H17.84v2.08h-5.9L13.28-10.3l-.4,4.5L11.536-6.992H13.9a6.62,6.62,0,0,1,2.68.456,3.143,3.143,0,0,1,1.48,1.24,3.42,3.42,0,0,1,.464,1.776,3.539,3.539,0,0,1-.5,1.832A3.581,3.581,0,0,1,16.5-.328,5.839,5.839,0,0,1,13.872.192Z" transform="translate(566.5 13064)" fill="#4c4c4c"/>
      <path id="Trazado_838709" data-name="Trazado 838709" d="M4.432.192A8.75,8.75,0,0,1,2.12-.12,6.2,6.2,0,0,1,.16-1.008L1.184-2.992a5.263,5.263,0,0,0,1.48.736,5.5,5.5,0,0,0,1.7.272A2.682,2.682,0,0,0,5.9-2.368a1.228,1.228,0,0,0,.56-1.072,1.353,1.353,0,0,0-.224-.768,1.41,1.41,0,0,0-.792-.512A5.625,5.625,0,0,0,3.856-4.9H.992l.576-6.3H8.4v2.08H2.5L3.84-10.3l-.4,4.5L2.1-6.992H4.464a6.62,6.62,0,0,1,2.68.456A3.143,3.143,0,0,1,8.624-5.3,3.42,3.42,0,0,1,9.088-3.52a3.539,3.539,0,0,1-.5,1.832A3.581,3.581,0,0,1,7.064-.328,5.839,5.839,0,0,1,4.432.192Zm10.512,0a4.552,4.552,0,0,1-2.464-.68,4.623,4.623,0,0,1-1.712-1.976A7.179,7.179,0,0,1,10.144-5.6a7.179,7.179,0,0,1,.624-3.136,4.623,4.623,0,0,1,1.712-1.976,4.552,4.552,0,0,1,2.464-.68,4.541,4.541,0,0,1,2.472.68,4.642,4.642,0,0,1,1.7,1.976A7.179,7.179,0,0,1,19.744-5.6a7.179,7.179,0,0,1-.624,3.136,4.642,4.642,0,0,1-1.7,1.976A4.541,4.541,0,0,1,14.944.192Zm0-2.192a1.847,1.847,0,0,0,1.144-.368,2.41,2.41,0,0,0,.768-1.168,6.361,6.361,0,0,0,.28-2.064,6.361,6.361,0,0,0-.28-2.064,2.41,2.41,0,0,0-.768-1.168A1.847,1.847,0,0,0,14.944-9.2a1.822,1.822,0,0,0-1.128.368,2.41,2.41,0,0,0-.768,1.168,6.361,6.361,0,0,0-.28,2.064,6.361,6.361,0,0,0,.28,2.064,2.41,2.41,0,0,0,.768,1.168A1.822,1.822,0,0,0,14.944-2Z" transform="translate(1385.5 13216)" fill="#4c4c4c"/>
      <path id="Trazado_838710" data-name="Trazado 838710" d="M4.256.192A8.839,8.839,0,0,1,1.936-.12,5.99,5.99,0,0,1-.016-1.008L.992-2.992a5.241,5.241,0,0,0,1.488.736,5.575,5.575,0,0,0,1.712.272,2.682,2.682,0,0,0,1.536-.384,1.213,1.213,0,0,0,.56-1.056,1.187,1.187,0,0,0-.5-1.008,2.722,2.722,0,0,0-1.6-.368H3.008V-6.512l3.12-3.536.288.928H.544V-11.2h7.84v1.68L5.28-5.984,3.968-6.736H4.72a4.6,4.6,0,0,1,3.12.928A3.029,3.029,0,0,1,8.9-3.424a3.37,3.37,0,0,1-.5,1.768A3.578,3.578,0,0,1,6.88-.32,5.865,5.865,0,0,1,4.256.192Zm10.64,0a4.552,4.552,0,0,1-2.464-.68A4.623,4.623,0,0,1,10.72-2.464,7.179,7.179,0,0,1,10.1-5.6a7.179,7.179,0,0,1,.624-3.136,4.623,4.623,0,0,1,1.712-1.976,4.552,4.552,0,0,1,2.464-.68,4.541,4.541,0,0,1,2.472.68,4.642,4.642,0,0,1,1.7,1.976A7.179,7.179,0,0,1,19.7-5.6a7.179,7.179,0,0,1-.624,3.136,4.642,4.642,0,0,1-1.7,1.976A4.541,4.541,0,0,1,14.9.192ZM14.9-2a1.847,1.847,0,0,0,1.144-.368,2.41,2.41,0,0,0,.768-1.168,6.361,6.361,0,0,0,.28-2.064,6.361,6.361,0,0,0-.28-2.064,2.41,2.41,0,0,0-.768-1.168A1.847,1.847,0,0,0,14.9-9.2a1.822,1.822,0,0,0-1.128.368A2.41,2.41,0,0,0,13-7.664,6.361,6.361,0,0,0,12.72-5.6,6.361,6.361,0,0,0,13-3.536a2.41,2.41,0,0,0,.768,1.168A1.822,1.822,0,0,0,14.9-2Z" transform="translate(566.5 12987)" fill="#4c4c4c"/>
      <path id="Trazado_838711" data-name="Trazado 838711" d="M5.632.192a5.31,5.31,0,0,1-2.664-.64A4.255,4.255,0,0,1,1.232-2.32,6.831,6.831,0,0,1,.624-5.36a6.807,6.807,0,0,1,.728-3.28,4.975,4.975,0,0,1,2.016-2.048,6.089,6.089,0,0,1,2.968-.7,7.453,7.453,0,0,1,1.712.192,4.432,4.432,0,0,1,1.408.576L8.5-8.72A2.846,2.846,0,0,0,7.5-9.16a4.968,4.968,0,0,0-1.1-.12,3.05,3.05,0,0,0-2.3.88,3.62,3.62,0,0,0-.848,2.608q0,.288.008.64a3.532,3.532,0,0,0,.088.7l-.72-.672a3.316,3.316,0,0,1,.784-1.048,3.2,3.2,0,0,1,1.144-.64,4.712,4.712,0,0,1,1.464-.216,4.305,4.305,0,0,1,1.952.432A3.514,3.514,0,0,1,9.352-5.376a3.251,3.251,0,0,1,.52,1.84A3.443,3.443,0,0,1,9.3-1.56a3.753,3.753,0,0,1-1.52,1.3A4.92,4.92,0,0,1,5.632.192ZM5.488-1.744a2.243,2.243,0,0,0,.968-.2,1.538,1.538,0,0,0,.664-.584,1.626,1.626,0,0,0,.24-.88,1.546,1.546,0,0,0-.52-1.224,2.024,2.024,0,0,0-1.384-.456,2.227,2.227,0,0,0-1.008.216,1.713,1.713,0,0,0-.68.592,1.547,1.547,0,0,0-.248.872,1.557,1.557,0,0,0,.24.856,1.654,1.654,0,0,0,.672.592A2.344,2.344,0,0,0,5.488-1.744ZM15.616.192a4.552,4.552,0,0,1-2.464-.68A4.623,4.623,0,0,1,11.44-2.464,7.179,7.179,0,0,1,10.816-5.6a7.179,7.179,0,0,1,.624-3.136,4.623,4.623,0,0,1,1.712-1.976,4.552,4.552,0,0,1,2.464-.68,4.541,4.541,0,0,1,2.472.68,4.642,4.642,0,0,1,1.7,1.976A7.179,7.179,0,0,1,20.416-5.6a7.179,7.179,0,0,1-.624,3.136,4.642,4.642,0,0,1-1.7,1.976A4.541,4.541,0,0,1,15.616.192Zm0-2.192a1.847,1.847,0,0,0,1.144-.368,2.41,2.41,0,0,0,.768-1.168,6.361,6.361,0,0,0,.28-2.064,6.361,6.361,0,0,0-.28-2.064,2.41,2.41,0,0,0-.768-1.168A1.847,1.847,0,0,0,15.616-9.2a1.822,1.822,0,0,0-1.128.368,2.41,2.41,0,0,0-.768,1.168A6.361,6.361,0,0,0,13.44-5.6a6.361,6.361,0,0,0,.28,2.064,2.41,2.41,0,0,0,.768,1.168A1.822,1.822,0,0,0,15.616-2Z" transform="translate(1385.5 13175)" fill="#4c4c4c"/>
      <path id="Trazado_838712" data-name="Trazado 838712" d="M2.416,0,6.928-10.208,7.6-9.088H1.568L2.72-10.3v3.04H.416V-11.2H9.392v1.68L5.232,0ZM15.024.192a4.552,4.552,0,0,1-2.464-.68,4.623,4.623,0,0,1-1.712-1.976A7.179,7.179,0,0,1,10.224-5.6a7.179,7.179,0,0,1,.624-3.136,4.623,4.623,0,0,1,1.712-1.976,4.552,4.552,0,0,1,2.464-.68,4.541,4.541,0,0,1,2.472.68,4.642,4.642,0,0,1,1.7,1.976A7.179,7.179,0,0,1,19.824-5.6,7.179,7.179,0,0,1,19.2-2.464,4.642,4.642,0,0,1,17.5-.488,4.541,4.541,0,0,1,15.024.192Zm0-2.192a1.847,1.847,0,0,0,1.144-.368,2.41,2.41,0,0,0,.768-1.168,6.361,6.361,0,0,0,.28-2.064,6.361,6.361,0,0,0-.28-2.064,2.41,2.41,0,0,0-.768-1.168A1.847,1.847,0,0,0,15.024-9.2a1.822,1.822,0,0,0-1.128.368,2.41,2.41,0,0,0-.768,1.168,6.361,6.361,0,0,0-.28,2.064,6.361,6.361,0,0,0,.28,2.064A2.41,2.41,0,0,0,13.9-2.368,1.822,1.822,0,0,0,15.024-2Z" transform="translate(1385.5 13126)" fill="#4c4c4c"/>
      <path id="Trazado_838713" data-name="Trazado 838713" d="M5.264.192A6.585,6.585,0,0,1,2.8-.232a3.79,3.79,0,0,1-1.648-1.2A2.909,2.909,0,0,1,.56-3.248a2.736,2.736,0,0,1,.584-1.768,3.579,3.579,0,0,1,1.64-1.1A7.4,7.4,0,0,1,5.264-6.5a7.52,7.52,0,0,1,2.5.376,3.577,3.577,0,0,1,1.648,1.1A2.736,2.736,0,0,1,10-3.248a2.909,2.909,0,0,1-.592,1.816,3.785,3.785,0,0,1-1.656,1.2A6.7,6.7,0,0,1,5.264.192Zm0-1.9a2.492,2.492,0,0,0,1.544-.432,1.406,1.406,0,0,0,.568-1.184A1.385,1.385,0,0,0,6.808-4.5a2.526,2.526,0,0,0-1.544-.424,2.461,2.461,0,0,0-1.52.424,1.392,1.392,0,0,0-.56,1.176,1.414,1.414,0,0,0,.56,1.184A2.428,2.428,0,0,0,5.264-1.712Zm0-3.472A6.619,6.619,0,0,1,3-5.536,3.289,3.289,0,0,1,1.5-6.568,2.544,2.544,0,0,1,.96-8.192,2.725,2.725,0,0,1,1.5-9.9,3.5,3.5,0,0,1,3.024-11a5.975,5.975,0,0,1,2.24-.392A6.006,6.006,0,0,1,7.528-11a3.563,3.563,0,0,1,1.52,1.1,2.7,2.7,0,0,1,.552,1.7,2.544,2.544,0,0,1-.536,1.624A3.286,3.286,0,0,1,7.552-5.536,6.741,6.741,0,0,1,5.264-5.184Zm0-1.52a2.043,2.043,0,0,0,1.288-.368A1.209,1.209,0,0,0,7.024-8.08a1.226,1.226,0,0,0-.488-1.04,2.057,2.057,0,0,0-1.272-.368,2,2,0,0,0-1.248.368,1.234,1.234,0,0,0-.48,1.04A1.217,1.217,0,0,0,4-7.072,1.981,1.981,0,0,0,5.264-6.7Zm10.72,6.9a4.552,4.552,0,0,1-2.464-.68,4.623,4.623,0,0,1-1.712-1.976A7.179,7.179,0,0,1,11.184-5.6a7.179,7.179,0,0,1,.624-3.136,4.623,4.623,0,0,1,1.712-1.976,4.552,4.552,0,0,1,2.464-.68,4.541,4.541,0,0,1,2.472.68,4.642,4.642,0,0,1,1.7,1.976A7.179,7.179,0,0,1,20.784-5.6a7.179,7.179,0,0,1-.624,3.136,4.642,4.642,0,0,1-1.7,1.976A4.541,4.541,0,0,1,15.984.192Zm0-2.192a1.847,1.847,0,0,0,1.144-.368A2.41,2.41,0,0,0,17.9-3.536a6.361,6.361,0,0,0,.28-2.064,6.361,6.361,0,0,0-.28-2.064,2.41,2.41,0,0,0-.768-1.168A1.847,1.847,0,0,0,15.984-9.2a1.822,1.822,0,0,0-1.128.368,2.41,2.41,0,0,0-.768,1.168,6.361,6.361,0,0,0-.28,2.064,6.361,6.361,0,0,0,.28,2.064,2.41,2.41,0,0,0,.768,1.168A1.822,1.822,0,0,0,15.984-2Z" transform="translate(1385.5 13077)" fill="#4c4c4c"/>
      <path id="Trazado_838714" data-name="Trazado 838714" d="M4.56-11.392a5.3,5.3,0,0,1,2.672.64A4.277,4.277,0,0,1,8.96-8.888,6.82,6.82,0,0,1,9.568-5.84,6.807,6.807,0,0,1,8.84-2.56,4.988,4.988,0,0,1,6.832-.512a6.077,6.077,0,0,1-2.976.7A7.381,7.381,0,0,1,2.16,0,4.432,4.432,0,0,1,.752-.576l.96-1.9a2.846,2.846,0,0,0,.992.44,4.968,4.968,0,0,0,1.1.12A3.056,3.056,0,0,0,6.1-2.8,3.6,3.6,0,0,0,6.96-5.408q0-.288-.016-.64a5.269,5.269,0,0,0-.08-.7l.7.672A2.861,2.861,0,0,1,6.8-5.032a3.378,3.378,0,0,1-1.152.64,4.692,4.692,0,0,1-1.472.216,4.319,4.319,0,0,1-1.944-.432A3.5,3.5,0,0,1,.84-5.824a3.251,3.251,0,0,1-.52-1.84A3.433,3.433,0,0,1,.888-9.648a3.753,3.753,0,0,1,1.536-1.288A4.949,4.949,0,0,1,4.56-11.392Zm.16,1.936a2.23,2.23,0,0,0-.976.2,1.565,1.565,0,0,0-.656.576,1.615,1.615,0,0,0-.24.888,1.546,1.546,0,0,0,.52,1.224,2.024,2.024,0,0,0,1.384.456,2.24,2.24,0,0,0,1-.216,1.624,1.624,0,0,0,.68-.6,1.6,1.6,0,0,0,.24-.864,1.6,1.6,0,0,0-.232-.856,1.6,1.6,0,0,0-.664-.592A2.344,2.344,0,0,0,4.72-9.456ZM15.616.192a4.552,4.552,0,0,1-2.464-.68A4.623,4.623,0,0,1,11.44-2.464,7.179,7.179,0,0,1,10.816-5.6a7.179,7.179,0,0,1,.624-3.136,4.623,4.623,0,0,1,1.712-1.976,4.552,4.552,0,0,1,2.464-.68,4.541,4.541,0,0,1,2.472.68,4.642,4.642,0,0,1,1.7,1.976A7.179,7.179,0,0,1,20.416-5.6a7.179,7.179,0,0,1-.624,3.136,4.642,4.642,0,0,1-1.7,1.976A4.541,4.541,0,0,1,15.616.192Zm0-2.192a1.847,1.847,0,0,0,1.144-.368,2.41,2.41,0,0,0,.768-1.168,6.361,6.361,0,0,0,.28-2.064,6.361,6.361,0,0,0-.28-2.064,2.41,2.41,0,0,0-.768-1.168A1.847,1.847,0,0,0,15.616-9.2a1.822,1.822,0,0,0-1.128.368,2.41,2.41,0,0,0-.768,1.168A6.361,6.361,0,0,0,13.44-5.6a6.361,6.361,0,0,0,.28,2.064,2.41,2.41,0,0,0,.768,1.168A1.822,1.822,0,0,0,15.616-2Z" transform="translate(1385.5 13028)" fill="#4c4c4c"/>
      <path id="Trazado_838715" data-name="Trazado 838715" d="M2.352,0V-10.24l1.12,1.12H.112V-11.2H4.944V0ZM11.7.192a4.552,4.552,0,0,1-2.464-.68A4.623,4.623,0,0,1,7.52-2.464,7.179,7.179,0,0,1,6.9-5.6,7.179,7.179,0,0,1,7.52-8.736a4.623,4.623,0,0,1,1.712-1.976,4.552,4.552,0,0,1,2.464-.68,4.541,4.541,0,0,1,2.472.68,4.642,4.642,0,0,1,1.7,1.976A7.179,7.179,0,0,1,16.5-5.6a7.179,7.179,0,0,1-.624,3.136,4.642,4.642,0,0,1-1.7,1.976A4.541,4.541,0,0,1,11.7.192ZM11.7-2a1.847,1.847,0,0,0,1.144-.368,2.41,2.41,0,0,0,.768-1.168,6.361,6.361,0,0,0,.28-2.064,6.361,6.361,0,0,0-.28-2.064,2.41,2.41,0,0,0-.768-1.168A1.847,1.847,0,0,0,11.7-9.2a1.822,1.822,0,0,0-1.128.368A2.41,2.41,0,0,0,9.8-7.664,6.361,6.361,0,0,0,9.52-5.6,6.361,6.361,0,0,0,9.8-3.536a2.41,2.41,0,0,0,.768,1.168A1.822,1.822,0,0,0,11.7-2ZM22.56.192A4.552,4.552,0,0,1,20.1-.488a4.623,4.623,0,0,1-1.712-1.976A7.179,7.179,0,0,1,17.76-5.6a7.179,7.179,0,0,1,.624-3.136A4.623,4.623,0,0,1,20.1-10.712a4.552,4.552,0,0,1,2.464-.68,4.541,4.541,0,0,1,2.472.68,4.642,4.642,0,0,1,1.7,1.976A7.179,7.179,0,0,1,27.36-5.6a7.179,7.179,0,0,1-.624,3.136,4.642,4.642,0,0,1-1.7,1.976A4.541,4.541,0,0,1,22.56.192ZM22.56-2A1.847,1.847,0,0,0,23.7-2.368a2.41,2.41,0,0,0,.768-1.168,6.361,6.361,0,0,0,.28-2.064,6.361,6.361,0,0,0-.28-2.064A2.41,2.41,0,0,0,23.7-8.832,1.847,1.847,0,0,0,22.56-9.2a1.822,1.822,0,0,0-1.128.368,2.41,2.41,0,0,0-.768,1.168,6.361,6.361,0,0,0-.28,2.064,6.361,6.361,0,0,0,.28,2.064,2.41,2.41,0,0,0,.768,1.168A1.822,1.822,0,0,0,22.56-2Z" transform="translate(1385.5 12979)" fill="#4c4c4c"/>
      <path id="Trazado_838716" data-name="Trazado 838716" d="M-31.328-5.023H-36.1V0h-1.5V-11.375h7.047v1.227H-36.1v3.9h4.773ZM-25.1-7.156a4.331,4.331,0,0,0-.711-.055A1.9,1.9,0,0,0-27.742-6V0h-1.445V-8.453h1.406l.023.977a2.251,2.251,0,0,1,2.016-1.133A1.477,1.477,0,0,1-25.1-8.5ZM-20.414.156a3.693,3.693,0,0,1-2.8-1.129,4.19,4.19,0,0,1-1.078-3.02v-.266a5.073,5.073,0,0,1,.48-2.246,3.748,3.748,0,0,1,1.344-1.547,3.378,3.378,0,0,1,1.871-.559,3.166,3.166,0,0,1,2.563,1.086,4.7,4.7,0,0,1,.914,3.109v.6h-5.727a3,3,0,0,0,.73,2.02,2.3,2.3,0,0,0,1.777.77,2.517,2.517,0,0,0,1.3-.312,3.259,3.259,0,0,0,.93-.828l.883.688A3.55,3.55,0,0,1-20.414.156Zm-.18-7.578a1.928,1.928,0,0,0-1.469.637A3.1,3.1,0,0,0-22.8-5h4.234v-.109a2.753,2.753,0,0,0-.594-1.707A1.815,1.815,0,0,0-20.594-7.422Zm8.539,6.4A2.082,2.082,0,0,0-10.7-1.492a1.649,1.649,0,0,0,.641-1.172H-8.7a2.621,2.621,0,0,1-.5,1.383,3.293,3.293,0,0,1-1.23,1.047,3.55,3.55,0,0,1-1.629.391A3.482,3.482,0,0,1-14.8-1a4.59,4.59,0,0,1-1.02-3.152v-.242a5.089,5.089,0,0,1,.453-2.2,3.451,3.451,0,0,1,1.3-1.492,3.7,3.7,0,0,1,2-.531A3.39,3.39,0,0,1-9.7-7.758a3.043,3.043,0,0,1,1,2.211h-1.367a1.992,1.992,0,0,0-.621-1.348,1.932,1.932,0,0,0-1.379-.527,2.023,2.023,0,0,0-1.707.793,3.724,3.724,0,0,0-.605,2.293v.273a3.65,3.65,0,0,0,.6,2.25A2.033,2.033,0,0,0-12.055-1.023Zm10.2.188A3.07,3.07,0,0,1-4.328.156,2.628,2.628,0,0,1-6.387-.629,3.4,3.4,0,0,1-7.1-2.953v-5.5h1.445v5.461q0,1.922,1.563,1.922A2.163,2.163,0,0,0-1.891-2.3V-8.453H-.445V0H-1.82ZM5.258.156a3.693,3.693,0,0,1-2.8-1.129,4.19,4.19,0,0,1-1.078-3.02v-.266A5.073,5.073,0,0,1,1.863-6.5,3.748,3.748,0,0,1,3.207-8.051a3.378,3.378,0,0,1,1.871-.559A3.166,3.166,0,0,1,7.641-7.523a4.7,4.7,0,0,1,.914,3.109v.6H2.828a3,3,0,0,0,.73,2.02,2.3,2.3,0,0,0,1.777.77,2.517,2.517,0,0,0,1.3-.312,3.259,3.259,0,0,0,.93-.828l.883.688A3.55,3.55,0,0,1,5.258.156Zm-.18-7.578a1.928,1.928,0,0,0-1.469.637A3.1,3.1,0,0,0,2.875-5H7.109v-.109a2.753,2.753,0,0,0-.594-1.707A1.815,1.815,0,0,0,5.078-7.422Zm6.516-1.031.047,1.063a3.08,3.08,0,0,1,2.531-1.219q2.68,0,2.7,3.023V0H15.43V-5.594a1.946,1.946,0,0,0-.418-1.352,1.675,1.675,0,0,0-1.277-.437,2.086,2.086,0,0,0-1.234.375,2.546,2.546,0,0,0-.828.984V0H10.227V-8.453Zm10.852,7.43A2.082,2.082,0,0,0,23.8-1.492a1.649,1.649,0,0,0,.641-1.172H25.8a2.621,2.621,0,0,1-.5,1.383,3.293,3.293,0,0,1-1.23,1.047,3.55,3.55,0,0,1-1.629.391A3.482,3.482,0,0,1,19.7-1a4.59,4.59,0,0,1-1.02-3.152v-.242a5.089,5.089,0,0,1,.453-2.2,3.451,3.451,0,0,1,1.3-1.492,3.7,3.7,0,0,1,2-.531,3.39,3.39,0,0,1,2.363.852,3.043,3.043,0,0,1,1,2.211H24.438a1.992,1.992,0,0,0-.621-1.348,1.932,1.932,0,0,0-1.379-.527,2.023,2.023,0,0,0-1.707.793,3.724,3.724,0,0,0-.605,2.293v.273a3.65,3.65,0,0,0,.6,2.25A2.033,2.033,0,0,0,22.445-1.023ZM29,0H27.555V-8.453H29ZM27.438-10.7a.863.863,0,0,1,.215-.594.807.807,0,0,1,.637-.242.819.819,0,0,1,.641.242.854.854,0,0,1,.219.594.826.826,0,0,1-.219.586.834.834,0,0,1-.641.234.821.821,0,0,1-.637-.234A.834.834,0,0,1,27.438-10.7ZM36.531,0a3.036,3.036,0,0,1-.2-.891A3.225,3.225,0,0,1,33.922.156a2.984,2.984,0,0,1-2.051-.707,2.287,2.287,0,0,1-.8-1.793,2.39,2.39,0,0,1,1-2.051,4.733,4.733,0,0,1,2.824-.73H36.3v-.664A1.623,1.623,0,0,0,35.852-7a1.821,1.821,0,0,0-1.336-.449,2.107,2.107,0,0,0-1.3.391,1.151,1.151,0,0,0-.523.945H31.242a2,2,0,0,1,.449-1.223,3.066,3.066,0,0,1,1.219-.934A4.1,4.1,0,0,1,34.6-8.609a3.342,3.342,0,0,1,2.289.73,2.635,2.635,0,0,1,.859,2.012v3.891a4.757,4.757,0,0,0,.3,1.852V0Zm-2.4-1.1a2.54,2.54,0,0,0,1.289-.352,2.127,2.127,0,0,0,.883-.914V-4.1H35.172q-2.656,0-2.656,1.555a1.316,1.316,0,0,0,.453,1.063A1.742,1.742,0,0,0,34.133-1.1Z" transform="translate(838.527 13582.215)" fill="#12263f"/>
      <path id="Trazado_838717" data-name="Trazado 838717" d="M-77.043-4.453V0h-1.5V-11.375h4.2a4.215,4.215,0,0,1,2.926.953A3.231,3.231,0,0,1-70.363-7.9,3.189,3.189,0,0,1-71.4-5.348a4.4,4.4,0,0,1-2.965.895Zm0-1.227h2.7A2.7,2.7,0,0,0-72.5-6.247a2.075,2.075,0,0,0,.641-1.64A2.143,2.143,0,0,0-72.5-9.515a2.525,2.525,0,0,0-1.758-.634h-2.781ZM-69.16-4.3a4.993,4.993,0,0,1,.488-2.234A3.643,3.643,0,0,1-67.312-8.07a3.7,3.7,0,0,1,1.988-.539,3.565,3.565,0,0,1,2.793,1.2,4.6,4.6,0,0,1,1.066,3.18v.1a5.036,5.036,0,0,1-.473,2.215A3.589,3.589,0,0,1-63.289-.391a3.743,3.743,0,0,1-2.02.547,3.556,3.556,0,0,1-2.785-1.2A4.575,4.575,0,0,1-69.16-4.2Zm1.453.172a3.616,3.616,0,0,0,.652,2.258,2.088,2.088,0,0,0,1.746.852,2.075,2.075,0,0,0,1.75-.863A3.955,3.955,0,0,0-62.91-4.3a3.61,3.61,0,0,0-.66-2.254,2.1,2.1,0,0,0-1.754-.863,2.075,2.075,0,0,0-1.727.852A3.925,3.925,0,0,0-67.707-4.133Zm12.141-3.023a4.331,4.331,0,0,0-.711-.055A1.9,1.9,0,0,0-58.207-6V0h-1.445V-8.453h1.406l.023.977a2.251,2.251,0,0,1,2.016-1.133,1.477,1.477,0,0,1,.641.109ZM-51-1.023a2.082,2.082,0,0,0,1.352-.469A1.649,1.649,0,0,0-49-2.664h1.367a2.621,2.621,0,0,1-.5,1.383,3.293,3.293,0,0,1-1.23,1.047A3.55,3.55,0,0,1-51,.156,3.482,3.482,0,0,1-53.742-1a4.59,4.59,0,0,1-1.02-3.152v-.242a5.089,5.089,0,0,1,.453-2.2,3.451,3.451,0,0,1,1.3-1.492,3.7,3.7,0,0,1,2-.531,3.39,3.39,0,0,1,2.363.852,3.043,3.043,0,0,1,1,2.211H-49a1.992,1.992,0,0,0-.621-1.348A1.932,1.932,0,0,0-51-7.422a2.023,2.023,0,0,0-1.707.793,3.724,3.724,0,0,0-.605,2.293v.273a3.65,3.65,0,0,0,.6,2.25A2.033,2.033,0,0,0-51-1.023ZM-42.5.156A3.693,3.693,0,0,1-45.3-.973a4.19,4.19,0,0,1-1.078-3.02v-.266A5.073,5.073,0,0,1-45.9-6.5a3.748,3.748,0,0,1,1.344-1.547,3.378,3.378,0,0,1,1.871-.559,3.166,3.166,0,0,1,2.563,1.086,4.7,4.7,0,0,1,.914,3.109v.6h-5.727a3,3,0,0,0,.73,2.02,2.3,2.3,0,0,0,1.777.77,2.517,2.517,0,0,0,1.3-.312,3.259,3.259,0,0,0,.93-.828l.883.688A3.55,3.55,0,0,1-42.5.156Zm-.18-7.578a1.928,1.928,0,0,0-1.469.637A3.1,3.1,0,0,0-44.887-5h4.234v-.109a2.753,2.753,0,0,0-.594-1.707A1.815,1.815,0,0,0-42.684-7.422Zm6.516-1.031.047,1.063A3.08,3.08,0,0,1-33.59-8.609q2.68,0,2.7,3.023V0h-1.445V-5.594a1.946,1.946,0,0,0-.418-1.352,1.675,1.675,0,0,0-1.277-.437,2.086,2.086,0,0,0-1.234.375,2.546,2.546,0,0,0-.828.984V0h-1.445V-8.453Zm9.422-2.047v2.047h1.578v1.117h-1.578v5.249a1.173,1.173,0,0,0,.211.763.888.888,0,0,0,.719.254,3.5,3.5,0,0,0,.688-.094V0a4.215,4.215,0,0,1-1.109.155A1.8,1.8,0,0,1-27.7-.43a2.517,2.517,0,0,1-.492-1.664V-7.336H-29.73V-8.453h1.539V-10.5ZM-18.262,0a3.036,3.036,0,0,1-.2-.891A3.225,3.225,0,0,1-20.871.156a2.984,2.984,0,0,1-2.051-.707,2.287,2.287,0,0,1-.8-1.793,2.39,2.39,0,0,1,1-2.051,4.733,4.733,0,0,1,2.824-.73h1.406v-.664A1.623,1.623,0,0,0-18.941-7a1.821,1.821,0,0,0-1.336-.449,2.108,2.108,0,0,0-1.3.391,1.151,1.151,0,0,0-.523.945h-1.453A2,2,0,0,1-23.1-7.332a3.066,3.066,0,0,1,1.219-.934,4.1,4.1,0,0,1,1.691-.344,3.342,3.342,0,0,1,2.289.73,2.635,2.635,0,0,1,.859,2.012v3.891a4.757,4.757,0,0,0,.3,1.852V0Zm-2.4-1.1a2.54,2.54,0,0,0,1.289-.352,2.127,2.127,0,0,0,.883-.914V-4.1h-1.133q-2.656,0-2.656,1.555a1.316,1.316,0,0,0,.453,1.063A1.742,1.742,0,0,0-20.66-1.1Zm7.375-7.352V.977q0,2.437-2.211,2.438a2.7,2.7,0,0,1-.883-.14V2.125a2.794,2.794,0,0,0,.656.063.982.982,0,0,0,.738-.262,1.3,1.3,0,0,0,.254-.911V-8.453ZM-14.879-10.7a.867.867,0,0,1,.215-.59.79.79,0,0,1,.629-.246.819.819,0,0,1,.641.242.854.854,0,0,1,.219.594.826.826,0,0,1-.219.586.834.834,0,0,1-.641.234.808.808,0,0,1-.633-.234A.843.843,0,0,1-14.879-10.7ZM-7.449.156a3.693,3.693,0,0,1-2.8-1.129,4.19,4.19,0,0,1-1.078-3.02v-.266a5.073,5.073,0,0,1,.48-2.246A3.748,3.748,0,0,1-9.5-8.051a3.378,3.378,0,0,1,1.871-.559A3.166,3.166,0,0,1-5.066-7.523a4.7,4.7,0,0,1,.914,3.109v.6H-9.879a3,3,0,0,0,.73,2.02,2.3,2.3,0,0,0,1.777.77,2.517,2.517,0,0,0,1.3-.312,3.259,3.259,0,0,0,.93-.828l.883.688A3.55,3.55,0,0,1-7.449.156Zm-.18-7.578A1.928,1.928,0,0,0-9.1-6.785,3.1,3.1,0,0,0-9.832-5H-5.6v-.109a2.753,2.753,0,0,0-.594-1.707A1.815,1.815,0,0,0-7.629-7.422ZM6.7,0a3.036,3.036,0,0,1-.2-.891A3.225,3.225,0,0,1,4.09.156,2.984,2.984,0,0,1,2.039-.551a2.287,2.287,0,0,1-.8-1.793,2.39,2.39,0,0,1,1-2.051,4.733,4.733,0,0,1,2.824-.73H6.473v-.664A1.623,1.623,0,0,0,6.02-7a1.821,1.821,0,0,0-1.336-.449,2.107,2.107,0,0,0-1.3.391,1.151,1.151,0,0,0-.523.945H1.41a2,2,0,0,1,.449-1.223,3.066,3.066,0,0,1,1.219-.934A4.1,4.1,0,0,1,4.77-8.609a3.342,3.342,0,0,1,2.289.73,2.635,2.635,0,0,1,.859,2.012v3.891a4.757,4.757,0,0,0,.3,1.852V0ZM4.3-1.1A2.54,2.54,0,0,0,5.59-1.453a2.127,2.127,0,0,0,.883-.914V-4.1H5.34q-2.656,0-2.656,1.555a1.316,1.316,0,0,0,.453,1.063A1.742,1.742,0,0,0,4.3-1.1Zm9.273.078a2.082,2.082,0,0,0,1.352-.469,1.649,1.649,0,0,0,.641-1.172h1.367a2.621,2.621,0,0,1-.5,1.383A3.293,3.293,0,0,1,15.2-.234a3.55,3.55,0,0,1-1.629.391A3.482,3.482,0,0,1,10.828-1a4.59,4.59,0,0,1-1.02-3.152v-.242a5.089,5.089,0,0,1,.453-2.2,3.451,3.451,0,0,1,1.3-1.492,3.7,3.7,0,0,1,2-.531,3.39,3.39,0,0,1,2.363.852,3.043,3.043,0,0,1,1,2.211H15.566a1.992,1.992,0,0,0-.621-1.348,1.932,1.932,0,0,0-1.379-.527,2.023,2.023,0,0,0-1.707.793,3.724,3.724,0,0,0-.605,2.293v.273a3.65,3.65,0,0,0,.6,2.25A2.033,2.033,0,0,0,13.574-1.023Zm10.2.188A3.07,3.07,0,0,1,21.3.156a2.628,2.628,0,0,1-2.059-.785,3.4,3.4,0,0,1-.715-2.324v-5.5h1.445v5.461q0,1.922,1.563,1.922a2.163,2.163,0,0,0,2.2-1.234V-8.453h1.445V0H23.809Zm4.961-7.617.039.938a3.122,3.122,0,0,1,2.508-1.094A2.417,2.417,0,0,1,33.7-7.25a3.2,3.2,0,0,1,1.1-.984,3.242,3.242,0,0,1,1.6-.375q2.781,0,2.828,2.945V0H37.777V-5.578a1.941,1.941,0,0,0-.414-1.355,1.823,1.823,0,0,0-1.391-.449,1.917,1.917,0,0,0-1.336.48,1.949,1.949,0,0,0-.617,1.293V0H32.566V-5.539a1.613,1.613,0,0,0-1.8-1.844,1.934,1.934,0,0,0-1.945,1.211V0H27.371V-8.453ZM46.621-.836a3.07,3.07,0,0,1-2.477.992,2.628,2.628,0,0,1-2.059-.785,3.4,3.4,0,0,1-.715-2.324v-5.5h1.445v5.461q0,1.922,1.563,1.922a2.163,2.163,0,0,0,2.2-1.234V-8.453h1.445V0H46.652ZM51.793,0H50.348V-12h1.445Zm7.531,0a3.036,3.036,0,0,1-.2-.891A3.225,3.225,0,0,1,56.715.156a2.984,2.984,0,0,1-2.051-.707,2.287,2.287,0,0,1-.8-1.793,2.39,2.39,0,0,1,1-2.051,4.733,4.733,0,0,1,2.824-.73H59.1v-.664A1.623,1.623,0,0,0,58.645-7a1.821,1.821,0,0,0-1.336-.449,2.107,2.107,0,0,0-1.3.391,1.151,1.151,0,0,0-.523.945H54.035a2,2,0,0,1,.449-1.223A3.066,3.066,0,0,1,55.7-8.266a4.1,4.1,0,0,1,1.691-.344,3.342,3.342,0,0,1,2.289.73,2.635,2.635,0,0,1,.859,2.012v3.891a4.757,4.757,0,0,0,.3,1.852V0Zm-2.4-1.1a2.54,2.54,0,0,0,1.289-.352,2.127,2.127,0,0,0,.883-.914V-4.1H57.965q-2.656,0-2.656,1.555a1.316,1.316,0,0,0,.453,1.063A1.742,1.742,0,0,0,56.926-1.1Zm5.531-3.2a4.952,4.952,0,0,1,.922-3.129,2.915,2.915,0,0,1,2.414-1.184,2.932,2.932,0,0,1,2.352,1.016V-12H69.59V0H68.262l-.07-.906A2.943,2.943,0,0,1,65.777.156a2.887,2.887,0,0,1-2.395-1.2,5.008,5.008,0,0,1-.926-3.141Zm1.445.164a3.749,3.749,0,0,0,.594,2.25,1.92,1.92,0,0,0,1.641.813A2.109,2.109,0,0,0,68.145-2.3V-6.187a2.125,2.125,0,0,0-1.992-1.2,1.929,1.929,0,0,0-1.656.82A4.128,4.128,0,0,0,63.9-4.133ZM71.449-4.3a4.993,4.993,0,0,1,.488-2.234A3.643,3.643,0,0,1,73.3-8.07a3.7,3.7,0,0,1,1.988-.539,3.565,3.565,0,0,1,2.793,1.2,4.6,4.6,0,0,1,1.066,3.18v.1a5.036,5.036,0,0,1-.473,2.215A3.589,3.589,0,0,1,77.32-.391,3.743,3.743,0,0,1,75.3.156a3.556,3.556,0,0,1-2.785-1.2A4.575,4.575,0,0,1,71.449-4.2Zm1.453.172a3.616,3.616,0,0,0,.652,2.258,2.088,2.088,0,0,0,1.746.852,2.075,2.075,0,0,0,1.75-.863A3.955,3.955,0,0,0,77.7-4.3a3.61,3.61,0,0,0-.66-2.254,2.1,2.1,0,0,0-1.754-.863,2.075,2.075,0,0,0-1.727.852A3.925,3.925,0,0,0,72.9-4.133Z" transform="translate(1189 13582.215)" fill="#12263f"/>
      <path id="Trazado_838718" data-name="Trazado 838718" d="M0,0H732.766" transform="translate(624.138 13454.053)" fill="none" stroke="#707070" stroke-width="1"/>
      <path id="Trazado_838719" data-name="Trazado 838719" d="M0,0H732.766" transform="translate(624.138 13406.223)" fill="none" stroke="#707070" stroke-width="1"/>
      <path id="Trazado_838720" data-name="Trazado 838720" d="M0,0H732.766" transform="translate(624.138 13262.73)" fill="none" stroke="#707070" stroke-width="1"/>
      <path id="Trazado_838721" data-name="Trazado 838721" d="M0,0H732.766" transform="translate(624.138 13116.73)" fill="none" stroke="#707070" stroke-width="1"/>
      <path id="Trazado_838722" data-name="Trazado 838722" d="M0,0H732.766" transform="translate(624.138 13358.392)" fill="none" stroke="#707070" stroke-width="1"/>
      <path id="Trazado_838723" data-name="Trazado 838723" d="M0,0H732.766" transform="translate(624.138 13214.899)" fill="none" stroke="#707070" stroke-width="1"/>
      <path id="Trazado_838724" data-name="Trazado 838724" d="M0,0H732.766" transform="translate(624.138 13068.9)" fill="none" stroke="#707070" stroke-width="1"/>
      <path id="Trazado_838725" data-name="Trazado 838725" d="M0,0H732.766" transform="translate(624.138 13310.561)" fill="none" stroke="#707070" stroke-width="1"/>
      <path id="Trazado_838726" data-name="Trazado 838726" d="M0,0H732.766" transform="translate(624.138 13167.068)" fill="none" stroke="#707070" stroke-width="1"/>
      <path id="Trazado_838727" data-name="Trazado 838727" d="M0,0H732.766" transform="translate(624.138 13021.069)" fill="none" stroke="#707070" stroke-width="1"/>
      <path id="Trazado_838728" data-name="Trazado 838728" d="M0,0H732.766" transform="translate(624.138 12981.907)" fill="none" stroke="#707070" stroke-width="1"/>
      <path id="Trazado_838729" data-name="Trazado 838729" d="M0,0H35.963V412.221H0Z" transform="translate(668.135 13042.728)" fill="#28bee3"/>
      <path id="Trazado_838730" data-name="Trazado 838730" d="M0,0H35.963V317.877H0Z" transform="translate(791.546 13137.069)" fill="url(#linear-gradient-2)"/>
      <path id="Trazado_838731" data-name="Trazado 838731" d="M0,0H35.963V239.341H0Z" transform="translate(954.17 13213.946)" fill="#28bee3"/>
      <path id="Trazado_838732" data-name="Trazado 838732" d="M0,0H35.963V177.795H0Z" transform="translate(1119.096 13275.248)" fill="#28bee3"/>
      <path id="Trazado_838733" data-name="Trazado 838733" d="M0,0H35.963V97.395H0Z" transform="translate(1292.812 13357.551)" fill="#36c7e6"/>
      <path id="Trazado_838734" data-name="Trazado 838734" d="M10.344-5.43a6.853,6.853,0,0,1-.516,2.77A4.754,4.754,0,0,1,8.4-.773L10.289.711,8.8,2.031,6.375.086a5.126,5.126,0,0,1-.859.07,4.732,4.732,0,0,1-2.523-.68A4.515,4.515,0,0,1,1.273-2.465a6.67,6.67,0,0,1-.617-2.9V-5.93a6.831,6.831,0,0,1,.605-2.957,4.508,4.508,0,0,1,1.711-1.961A4.706,4.706,0,0,1,5.5-11.531a4.706,4.706,0,0,1,2.527.684A4.508,4.508,0,0,1,9.738-8.887a6.811,6.811,0,0,1,.605,2.949ZM7.969-5.945a4.787,4.787,0,0,0-.641-2.719A2.088,2.088,0,0,0,5.5-9.594a2.088,2.088,0,0,0-1.82.918,4.732,4.732,0,0,0-.648,2.691v.555a4.847,4.847,0,0,0,.641,2.7,2.082,2.082,0,0,0,1.844.961,2.064,2.064,0,0,0,1.813-.926,4.819,4.819,0,0,0,.641-2.7ZM17.3,0H15.047V-8.7l-2.7.836V-9.7l4.711-1.687H17.3Z" transform="translate(676.117 13490.711)" fill="#12263f"/>
      <path id="Trazado_838735" data-name="Trazado 838735" d="M10.344-5.43a6.853,6.853,0,0,1-.516,2.77A4.754,4.754,0,0,1,8.4-.773L10.289.711,8.8,2.031,6.375.086a5.126,5.126,0,0,1-.859.07,4.732,4.732,0,0,1-2.523-.68A4.515,4.515,0,0,1,1.273-2.465a6.67,6.67,0,0,1-.617-2.9V-5.93a6.831,6.831,0,0,1,.605-2.957,4.508,4.508,0,0,1,1.711-1.961A4.706,4.706,0,0,1,5.5-11.531a4.706,4.706,0,0,1,2.527.684A4.508,4.508,0,0,1,9.738-8.887a6.811,6.811,0,0,1,.605,2.949ZM7.969-5.945a4.787,4.787,0,0,0-.641-2.719A2.088,2.088,0,0,0,5.5-9.594a2.088,2.088,0,0,0-1.82.918,4.732,4.732,0,0,0-.648,2.691v.555a4.847,4.847,0,0,0,.641,2.7,2.082,2.082,0,0,0,1.844.961,2.064,2.064,0,0,0,1.813-.926,4.819,4.819,0,0,0,.641-2.7ZM19.617,0h-7.8V-1.547L15.5-5.469a9.078,9.078,0,0,0,1.121-1.445,2.322,2.322,0,0,0,.363-1.172A1.738,1.738,0,0,0,16.6-9.277a1.382,1.382,0,0,0-1.094-.434,1.49,1.49,0,0,0-1.207.527A2.089,2.089,0,0,0,13.859-7.8H11.594a3.729,3.729,0,0,1,.5-1.9,3.5,3.5,0,0,1,1.4-1.348,4.262,4.262,0,0,1,2.055-.488,4.036,4.036,0,0,1,2.73.844A2.985,2.985,0,0,1,19.25-8.3a3.825,3.825,0,0,1-.437,1.719,9.551,9.551,0,0,1-1.5,2.039L14.727-1.82h4.891Z" transform="translate(799.527 13490.711)" fill="#12263f"/>
      <path id="Trazado_838736" data-name="Trazado 838736" d="M10.344-5.43a6.853,6.853,0,0,1-.516,2.77A4.754,4.754,0,0,1,8.4-.773L10.289.711,8.8,2.031,6.375.086a5.126,5.126,0,0,1-.859.07,4.732,4.732,0,0,1-2.523-.68A4.515,4.515,0,0,1,1.273-2.465a6.67,6.67,0,0,1-.617-2.9V-5.93a6.831,6.831,0,0,1,.605-2.957,4.508,4.508,0,0,1,1.711-1.961A4.706,4.706,0,0,1,5.5-11.531a4.706,4.706,0,0,1,2.527.684A4.508,4.508,0,0,1,9.738-8.887a6.811,6.811,0,0,1,.605,2.949ZM7.969-5.945a4.787,4.787,0,0,0-.641-2.719A2.088,2.088,0,0,0,5.5-9.594a2.088,2.088,0,0,0-1.82.918,4.732,4.732,0,0,0-.648,2.691v.555a4.847,4.847,0,0,0,.641,2.7,2.082,2.082,0,0,0,1.844.961,2.064,2.064,0,0,0,1.813-.926,4.819,4.819,0,0,0,.641-2.7Zm6.148-.742h1.2a1.7,1.7,0,0,0,1.273-.43,1.574,1.574,0,0,0,.414-1.141,1.392,1.392,0,0,0-.41-1.07,1.59,1.59,0,0,0-1.129-.383,1.666,1.666,0,0,0-1.086.355,1.137,1.137,0,0,0-.437.926H11.688a2.777,2.777,0,0,1,.48-1.6,3.2,3.2,0,0,1,1.344-1.105,4.485,4.485,0,0,1,1.9-.4,4.253,4.253,0,0,1,2.828.863,2.945,2.945,0,0,1,1.023,2.379,2.394,2.394,0,0,1-.477,1.438,3.1,3.1,0,0,1-1.25,1.008,2.826,2.826,0,0,1,1.434,1.031,2.8,2.8,0,0,1,.473,1.625A2.994,2.994,0,0,1,18.34-.758a4.445,4.445,0,0,1-2.926.914,4.214,4.214,0,0,1-2.785-.9,2.934,2.934,0,0,1-1.082-2.375H13.8a1.308,1.308,0,0,0,.48,1.047,1.771,1.771,0,0,0,1.184.406A1.779,1.779,0,0,0,16.73-2.09a1.47,1.47,0,0,0,.457-1.129q0-1.7-1.875-1.7h-1.2Z" transform="translate(962.152 13490.711)" fill="#12263f"/>
      <path id="Trazado_838737" data-name="Trazado 838737" d="M10.344-5.43a6.853,6.853,0,0,1-.516,2.77A4.754,4.754,0,0,1,8.4-.773L10.289.711,8.8,2.031,6.375.086a5.126,5.126,0,0,1-.859.07,4.732,4.732,0,0,1-2.523-.68A4.515,4.515,0,0,1,1.273-2.465a6.67,6.67,0,0,1-.617-2.9V-5.93a6.831,6.831,0,0,1,.605-2.957,4.508,4.508,0,0,1,1.711-1.961A4.706,4.706,0,0,1,5.5-11.531a4.706,4.706,0,0,1,2.527.684A4.508,4.508,0,0,1,9.738-8.887a6.811,6.811,0,0,1,.605,2.949ZM7.969-5.945a4.787,4.787,0,0,0-.641-2.719A2.088,2.088,0,0,0,5.5-9.594a2.088,2.088,0,0,0-1.82.918,4.732,4.732,0,0,0-.648,2.691v.555a4.847,4.847,0,0,0,.641,2.7,2.082,2.082,0,0,0,1.844.961,2.064,2.064,0,0,0,1.813-.926,4.819,4.819,0,0,0,.641-2.7ZM18.5-4.281h1.289v1.82H18.5V0H16.242V-2.461H11.578l-.1-1.422,4.742-7.492H18.5Zm-4.773,0h2.516V-8.3l-.148.258Z" transform="translate(1128 13490.711)" fill="#12263f"/>
      <path id="Trazado_838738" data-name="Trazado 838738" d="M10.344-5.43a6.853,6.853,0,0,1-.516,2.77A4.754,4.754,0,0,1,8.4-.773L10.289.711,8.8,2.031,6.375.086a5.126,5.126,0,0,1-.859.07,4.732,4.732,0,0,1-2.523-.68A4.515,4.515,0,0,1,1.273-2.465a6.67,6.67,0,0,1-.617-2.9V-5.93a6.831,6.831,0,0,1,.605-2.957,4.508,4.508,0,0,1,1.711-1.961A4.706,4.706,0,0,1,5.5-11.531a4.706,4.706,0,0,1,2.527.684A4.508,4.508,0,0,1,9.738-8.887a6.811,6.811,0,0,1,.605,2.949ZM7.969-5.945a4.787,4.787,0,0,0-.641-2.719A2.088,2.088,0,0,0,5.5-9.594a2.088,2.088,0,0,0-1.82.918,4.732,4.732,0,0,0-.648,2.691v.555a4.847,4.847,0,0,0,.641,2.7,2.082,2.082,0,0,0,1.844.961,2.064,2.064,0,0,0,1.813-.926,4.819,4.819,0,0,0,.641-2.7Zm4.188.352.656-5.781h6.375v1.883H14.664l-.281,2.445a3.58,3.58,0,0,1,1.711-.43,3.279,3.279,0,0,1,2.547,1.008,4.026,4.026,0,0,1,.922,2.82A4.124,4.124,0,0,1,19.1-1.676,3.281,3.281,0,0,1,17.766-.324a4.158,4.158,0,0,1-2.047.48A4.416,4.416,0,0,1,13.8-.262,3.4,3.4,0,0,1,12.41-1.437a3.2,3.2,0,0,1-.543-1.727H14.1a1.669,1.669,0,0,0,.5,1.105,1.573,1.573,0,0,0,1.113.395,1.388,1.388,0,0,0,1.18-.551A2.551,2.551,0,0,0,17.3-3.773a2.11,2.11,0,0,0-.477-1.484,1.749,1.749,0,0,0-1.352-.516,1.954,1.954,0,0,0-1.3.422l-.219.2Z" transform="translate(1304.775 13490.711)" fill="#12263f"/>
      <path id="Trazado_838739" data-name="Trazado 838739" d="M0,0H123V16H0Z" transform="translate(668.5 13569)" fill="#28bee3"/>
      <path id="Trazado_838740" data-name="Trazado 838740" d="M0,0H123V16H0Z" transform="translate(970.5 13569)" fill="#f9bcab"/>
      <path id="Trazado_832997" data-name="Trazado 832997" d="M-12075.466,6357.6l325.333-145.067,323.2-117.333" transform="translate(12760.5 6938)" fill="none" stroke="#f9bcab" stroke-width="10"/>
    </g>
  </g>
</svg>
