<svg xmlns="http://www.w3.org/2000/svg" xmlns:xlink="http://www.w3.org/1999/xlink" width="470" height="272.45" viewBox="0 0 470 272.45">
  <defs>
    <linearGradient id="linear-gradient" x1="0.102" y1="0.237" x2="0.903" y2="0.997" gradientUnits="objectBoundingBox">
      <stop offset="0" stop-color="#fff"/>
      <stop offset="0.468" stop-color="#fcfcfd"/>
      <stop offset="0.84" stop-color="#f2f4f5"/>
      <stop offset="1" stop-color="#ebeef0"/>
    </linearGradient>
    <linearGradient id="linear-gradient-2" x1="0.219" y1="-0.662" x2="0.788" y2="1.688" xlink:href="#linear-gradient"/>
    <linearGradient id="linear-gradient-3" x1="0.06" y1="0.059" x2="0.95" y2="0.949" xlink:href="#linear-gradient"/>
    <linearGradient id="linear-gradient-4" x1="0.817" y1="1.85" x2="0.199" y2="-0.787" gradientUnits="objectBoundingBox">
      <stop offset="0" stop-color="#fe9037"/>
      <stop offset="0.308" stop-color="#fe8e34"/>
      <stop offset="0.554" stop-color="#fe862a"/>
      <stop offset="0.777" stop-color="#fe7919"/>
      <stop offset="0.987" stop-color="#fe6702"/>
      <stop offset="1" stop-color="#fe6600"/>
    </linearGradient>
    <linearGradient id="linear-gradient-5" x1="0.06" y1="0.059" x2="0.95" y2="0.949" xlink:href="#linear-gradient"/>
    <linearGradient id="linear-gradient-6" x1="0.218" y1="-0.665" x2="0.787" y2="1.685" xlink:href="#linear-gradient"/>
    <linearGradient id="linear-gradient-7" x1="0.817" y1="1.85" x2="0.199" y2="-0.787" gradientUnits="objectBoundingBox">
      <stop offset="0" stop-color="#8ac14a"/>
      <stop offset="0.306" stop-color="#87be48"/>
      <stop offset="0.55" stop-color="#7eb443"/>
      <stop offset="0.772" stop-color="#6ea33b"/>
      <stop offset="0.981" stop-color="#578c2f"/>
      <stop offset="1" stop-color="#55892e"/>
    </linearGradient>
    <linearGradient id="linear-gradient-8" x1="0.06" y1="0.059" x2="0.949" y2="0.949" xlink:href="#linear-gradient"/>
    <linearGradient id="linear-gradient-9" x1="0.219" y1="-0.665" x2="0.788" y2="1.685" xlink:href="#linear-gradient"/>
    <linearGradient id="linear-gradient-10" x1="0.817" y1="1.85" x2="0.198" y2="-0.787" gradientUnits="objectBoundingBox">
      <stop offset="0" stop-color="#28b5f5"/>
      <stop offset="0.294" stop-color="#26b2f2"/>
      <stop offset="0.527" stop-color="#20a8e9"/>
      <stop offset="0.741" stop-color="#1697d9"/>
      <stop offset="0.94" stop-color="#0780c4"/>
      <stop offset="1" stop-color="#0277bc"/>
    </linearGradient>
    <linearGradient id="linear-gradient-11" x1="0.059" y1="0.059" x2="0.949" y2="0.949" xlink:href="#linear-gradient"/>
    <linearGradient id="linear-gradient-12" x1="0.218" y1="-0.665" x2="0.788" y2="1.685" xlink:href="#linear-gradient"/>
    <linearGradient id="linear-gradient-13" x1="0.817" y1="1.85" x2="0.199" y2="-0.787" gradientUnits="objectBoundingBox">
      <stop offset="0" stop-color="#eb407a"/>
      <stop offset="0.348" stop-color="#e83d78"/>
      <stop offset="0.625" stop-color="#de3370"/>
      <stop offset="0.877" stop-color="#cd2364"/>
      <stop offset="1" stop-color="#c2185c"/>
    </linearGradient>
    <linearGradient id="linear-gradient-14" x1="52.517" y1="-0.2" x2="53.168" y2="1.215" xlink:href="#linear-gradient"/>
    <linearGradient id="linear-gradient-15" x1="0.172" y1="0.17" x2="0.838" y2="0.835" xlink:href="#linear-gradient"/>
    <linearGradient id="linear-gradient-16" x1="51.772" y1="-0.201" x2="52.423" y2="1.215" xlink:href="#linear-gradient"/>
    <linearGradient id="linear-gradient-17" x1="0.169" y1="0.169" x2="0.835" y2="0.835" xlink:href="#linear-gradient"/>
    <linearGradient id="linear-gradient-18" x1="56.032" y1="-0.2" x2="56.683" y2="1.215" xlink:href="#linear-gradient"/>
    <linearGradient id="linear-gradient-19" x1="0.169" y1="0.17" x2="0.835" y2="0.835" xlink:href="#linear-gradient"/>
    <linearGradient id="linear-gradient-20" x1="55.287" y1="-0.201" x2="55.938" y2="1.215" xlink:href="#linear-gradient"/>
    <linearGradient id="linear-gradient-21" x1="0.17" y1="0.169" x2="0.835" y2="0.835" xlink:href="#linear-gradient"/>
    <linearGradient id="linear-gradient-22" x1="-8.055" y1="-0.2" x2="-7.404" y2="1.215" xlink:href="#linear-gradient"/>
    <linearGradient id="linear-gradient-23" x1="171.193" y1="0.17" x2="171.858" y2="0.835" xlink:href="#linear-gradient"/>
    <linearGradient id="linear-gradient-24" x1="-8.055" y1="-0.201" x2="-7.404" y2="1.215" xlink:href="#linear-gradient"/>
    <linearGradient id="linear-gradient-25" x1="173.456" y1="0.169" x2="174.121" y2="0.835" xlink:href="#linear-gradient"/>
    <linearGradient id="linear-gradient-26" x1="-8.055" y1="-0.2" x2="-7.404" y2="1.215" xlink:href="#linear-gradient"/>
    <linearGradient id="linear-gradient-27" x1="160.53" y1="0.17" x2="161.195" y2="0.835" xlink:href="#linear-gradient"/>
    <linearGradient id="linear-gradient-28" x1="-8.055" y1="-0.201" x2="-7.404" y2="1.215" xlink:href="#linear-gradient"/>
    <linearGradient id="linear-gradient-29" x1="162.789" y1="0.169" x2="163.455" y2="0.835" xlink:href="#linear-gradient"/>
  </defs>
  <g id="Objects" transform="translate(-30 -29.5)">
    <g id="Grupo_1091535" data-name="Grupo 1091535" transform="translate(30 29.5)">
      <g id="Grupo_1091493" data-name="Grupo 1091493" transform="translate(70.602 60.984)">
        <path id="Trazado_838586" data-name="Trazado 838586" d="M133.5,179.475v-4.434a26.23,26.23,0,0,1,26.263-26.263H271.908a26.23,26.23,0,0,0,26.263-26.263V118.9" transform="translate(-133.5 -118.9)" fill="none" stroke="#666" stroke-miterlimit="10" stroke-width="0.5"/>
        <path id="Trazado_838587" data-name="Trazado 838587" d="M539.739,179.475v-4.434a26.23,26.23,0,0,0-26.263-26.263H401.263A26.23,26.23,0,0,1,375,122.515V118.9" transform="translate(-210.261 -118.9)" fill="none" stroke="#666" stroke-miterlimit="10" stroke-width="0.5"/>
        <path id="Trazado_838588" data-name="Trazado 838588" d="M297.9,179.475v-4.434a26.23,26.23,0,0,1,26.263-26.263h0a26.23,26.23,0,0,0,26.263-26.263V118.9" transform="translate(-185.755 -118.9)" fill="none" stroke="#666" stroke-miterlimit="10" stroke-width="0.5"/>
        <path id="Trazado_838589" data-name="Trazado 838589" d="M427.594,179.475v-4.434a26.23,26.23,0,0,0-26.263-26.263h-.068A26.23,26.23,0,0,1,375,122.515V118.9" transform="translate(-210.261 -118.9)" fill="none" stroke="#666" stroke-miterlimit="10" stroke-width="0.5"/>
      </g>
      <g id="Grupo_1091494" data-name="Grupo 1091494" transform="translate(206.623)">
        <path id="Trazado_838590" data-name="Trazado 838590" d="M385.357,90.416h-47.2a5.255,5.255,0,0,1-5.253-5.253V58.423A28.938,28.938,0,0,1,361.823,29.5h0a28.938,28.938,0,0,1,28.923,28.923V85.1A5.477,5.477,0,0,1,385.357,90.416Z" transform="translate(-332.9 -29.5)" fill="url(#linear-gradient)"/>
        <path id="Trazado_838591" data-name="Trazado 838591" d="M338.311,90.234a4.891,4.891,0,0,1-4.911-4.911V58.582a28.514,28.514,0,1,1,57.028,0V85.254a4.891,4.891,0,0,1-4.911,4.911h-47.2Z" transform="translate(-333.059 -29.659)" fill="#efefef"/>
      </g>
      <g id="Grupo_1091496" data-name="Grupo 1091496" transform="translate(202.598 30.628)">
        <g id="Grupo_1091495" data-name="Grupo 1091495">
          <path id="Trazado_838592" data-name="Trazado 838592" d="M391.19,90.362H328.705A1.689,1.689,0,0,1,327,88.657V76.105a1.689,1.689,0,0,1,1.705-1.705H391.19a1.689,1.689,0,0,1,1.705,1.705V88.657A1.648,1.648,0,0,1,391.19,90.362Z" transform="translate(-327 -74.4)" fill="url(#linear-gradient-2)"/>
          <path id="Trazado_838593" data-name="Trazado 838593" d="M328.964,90.18a1.368,1.368,0,0,1-1.364-1.364V76.264a1.368,1.368,0,0,1,1.364-1.364h62.485a1.368,1.368,0,0,1,1.364,1.364V88.816a1.368,1.368,0,0,1-1.364,1.364Z" transform="translate(-327.191 -74.559)" fill="#4d4d4d"/>
        </g>
      </g>
      <path id="Trazado_839182" data-name="Trazado 839182" d="M.328,0h.784V-4.088h.016L2.184,0h.9V-5.6H2.3v3.352H2.288L1.432-5.6H.328ZM3.512,0h.816l.16-1.1h1v-.016L5.648,0h.88L5.616-5.6H4.424Zm1.08-1.856.384-2.768h.016l.392,2.768ZM6.952,0H7.72V-4.24h.016L8.376,0h.736l.64-4.24h.016V0H10.6V-5.6H9.344l-.56,4.008H8.768L8.208-5.6H6.952Zm4.3,0h2.4V-.8h-1.52V-2.52h1.208v-.8H12.136V-4.8h1.52v-.8h-2.4Zm5.328.08a1.242,1.242,0,0,0,1.328-1.424,2.165,2.165,0,0,0-.968-1.792c-.576-.5-.76-.8-.76-1.208,0-.384.16-.536.44-.536s.44.152.44.552v.288H17.9v-.232c0-.9-.424-1.408-1.28-1.408A1.224,1.224,0,0,0,15.3-4.288a2.17,2.17,0,0,0,.976,1.744c.576.5.752.8.752,1.264,0,.416-.176.56-.456.56s-.456-.144-.456-.544v-.384h-.832v.32C15.288-.432,15.72.08,16.584.08ZM19.7.08c.864,0,1.312-.512,1.312-1.408V-5.6H20.16v4.336c0,.4-.168.544-.448.544s-.448-.144-.448-.544V-5.6h-.88v4.272C18.384-.432,18.832.08,19.7.08ZM21.632,0h.88V-2.4h.3c.4,0,.552.168.552.688V-.688a1.722,1.722,0,0,0,.08.688h.9a1.649,1.649,0,0,1-.1-.68v-.984c0-.632-.144-1.048-.584-1.184v-.016c.392-.16.576-.528.576-1.1v-.344c0-.864-.392-1.288-1.3-1.288h-1.3Zm.88-3.2V-4.8h.4c.312,0,.448.176.448.576v.432c0,.448-.2.592-.528.592ZM24.856,0h.784V-4.088h.016L26.712,0h.9V-5.6h-.784v3.352h-.016L25.96-5.6h-1.1ZM28.04,0h.816l.16-1.1h1v-.016L30.176,0h.88l-.912-5.6H28.952Zm1.08-1.856L29.5-4.624h.016l.392,2.768ZM31.48,0h.768V-4.24h.016L32.9,0h.736l.64-4.24H34.3V0h.832V-5.6H33.872l-.56,4.008H33.3L32.736-5.6H31.48Zm4.3,0h2.4V-.8h-1.52V-2.52h1.208v-.8H36.664V-4.8h1.52v-.8h-2.4Z" transform="translate(212.77 40.844)" fill="#fff"/>
      <path id="Trazado_839183" data-name="Trazado 839183" d="M.2.012c.324,0,.48-.165.48-.51V-2.1H.351V-.489c0,.138-.063.2-.2.2A.442.442,0,0,1,.048-.3V0A.792.792,0,0,0,.2.012ZM1.395.03A.466.466,0,0,0,1.9-.5V-1.6a.466.466,0,0,0-.5-.528.466.466,0,0,0-.5.528V-.5A.466.466,0,0,0,1.395.03Zm0-.3c-.105,0-.171-.057-.171-.207V-1.623c0-.15.066-.207.171-.207s.171.057.171.207V-.477C1.566-.327,1.5-.27,1.395-.27ZM2.118,0h.519a.446.446,0,0,0,.5-.5v-.18c0-.222-.069-.378-.246-.438v-.006c.147-.06.213-.2.213-.411v-.084c0-.324-.147-.483-.489-.483h-.5Zm.33-1.245V-1.8h.159c.117,0,.168.066.168.216v.117c0,.168-.075.222-.2.222Zm0,.945V-.945H2.6c.15,0,.213.06.213.255v.183c0,.156-.06.207-.171.207ZM3.81,0h.33V-.855H4.3c.33,0,.492-.183.492-.519v-.207c0-.336-.162-.519-.492-.519H3.81Zm.33-1.155V-1.8H4.3c.1,0,.162.048.162.2v.249c0,.15-.057.2-.162.2ZM5.445.03a.466.466,0,0,0,.5-.528V-1.6a.466.466,0,0,0-.5-.528.466.466,0,0,0-.5.528V-.5A.466.466,0,0,0,5.445.03Zm0-.3c-.105,0-.171-.057-.171-.207V-1.623c0-.15.066-.207.171-.207s.171.057.171.207V-.477C5.616-.327,5.55-.27,5.445-.27ZM6.6.03A.466.466,0,0,0,7.1-.5a.812.812,0,0,0-.363-.672c-.216-.189-.285-.3-.285-.453s.06-.2.165-.2.165.057.165.207v.108h.312V-1.6c0-.336-.159-.528-.48-.528a.459.459,0,0,0-.492.522.814.814,0,0,0,.366.654c.216.189.282.3.282.474,0,.156-.066.21-.171.21s-.171-.054-.171-.2V-.618H6.111V-.5C6.111-.162,6.273.03,6.6.03ZM7.284,0h.33V-2.1h-.33Zm.834,0h.33V-1.8h.345v-.3H7.773v.3h.345Zm.834,0h.33V-2.1h-.33Zm1.053.03a.466.466,0,0,0,.5-.528V-1.6a.466.466,0,0,0-.5-.528.466.466,0,0,0-.5.528V-.5A.466.466,0,0,0,10.005.03Zm0-.3c-.105,0-.171-.057-.171-.207V-1.623c0-.15.066-.207.171-.207s.171.057.171.207V-.477C10.176-.327,10.11-.27,10.005-.27Zm.723.27h.294V-1.533h.006L11.424,0h.339V-2.1h-.294V-.843h-.006L11.142-2.1h-.414Z" transform="translate(223.285 53.256)" fill="#666"/>
      <g id="Grupo_1091503" data-name="Grupo 1091503" transform="translate(37.518 120.74)">
        <g id="Grupo_1091502" data-name="Grupo 1091502" transform="translate(0 0.819)">
          <g id="Grupo_1091498" data-name="Grupo 1091498" transform="translate(3.956)">
            <g id="Grupo_1091497" data-name="Grupo 1091497">
              <path id="Trazado_838594" data-name="Trazado 838594" d="M143.325,265.41H96.053a5.255,5.255,0,0,1-5.253-5.253v-47.2a5.255,5.255,0,0,1,5.253-5.253h47.2a5.255,5.255,0,0,1,5.253,5.253v47.2A5.2,5.2,0,0,1,143.325,265.41Z" transform="translate(-90.8 -207.7)" fill="url(#linear-gradient-3)"/>
              <path id="Trazado_838595" data-name="Trazado 838595" d="M96.211,265.228a4.891,4.891,0,0,1-4.911-4.911v-47.2a4.891,4.891,0,0,1,4.911-4.911h47.2a4.891,4.891,0,0,1,4.911,4.911v47.2a4.891,4.891,0,0,1-4.911,4.911Z" transform="translate(-90.959 -207.859)" fill="#efefef"/>
            </g>
          </g>
          <g id="Grupo_1091500" data-name="Grupo 1091500" transform="translate(0 27.491)">
            <g id="Grupo_1091499" data-name="Grupo 1091499">
              <path id="Trazado_838596" data-name="Trazado 838596" d="M149.19,263.962H86.705A1.689,1.689,0,0,1,85,262.257V249.705A1.689,1.689,0,0,1,86.705,248H149.19a1.689,1.689,0,0,1,1.705,1.705v12.551A1.733,1.733,0,0,1,149.19,263.962Z" transform="translate(-85 -248)" fill="#efefef"/>
              <path id="Trazado_838597" data-name="Trazado 838597" d="M86.864,263.78a1.368,1.368,0,0,1-1.364-1.364V249.864a1.368,1.368,0,0,1,1.364-1.364h62.485a1.368,1.368,0,0,1,1.364,1.364v12.552a1.368,1.368,0,0,1-1.364,1.364Z" transform="translate(-85.159 -248.159)" fill="url(#linear-gradient-4)"/>
            </g>
          </g>
          <text id="name_surname" data-name="name surname" transform="translate(10.149 37.661)" fill="#efefef" font-size="8" font-family="BebasNeue-Regular, Bebas Neue"><tspan x="0" y="0">name surname</tspan></text>
          <g id="Grupo_1091501" data-name="Grupo 1091501" transform="translate(20.664 47.073)">
            <text id="Job_Position" data-name="Job Position" transform="translate(0 3)" fill="#666" font-size="3" font-family="BebasNeue-Regular, Bebas Neue"><tspan x="0" y="0">Job Position</tspan></text>
          </g>
        </g>
        <circle id="Elipse_6782" data-name="Elipse 6782" cx="0.887" cy="0.887" r="0.887" transform="translate(32.129)" fill="#efefef"/>
      </g>
      <g id="Grupo_1091505" data-name="Grupo 1091505" transform="translate(153.688 121.559)">
        <g id="Grupo_1091504" data-name="Grupo 1091504">
          <path id="Trazado_838598" data-name="Trazado 838598" d="M307.757,265.41h-47.2a5.255,5.255,0,0,1-5.253-5.253v-47.2a5.255,5.255,0,0,1,5.253-5.253h47.2a5.255,5.255,0,0,1,5.253,5.253v47.2A5.211,5.211,0,0,1,307.757,265.41Z" transform="translate(-255.3 -207.7)" fill="url(#linear-gradient-5)"/>
          <path id="Trazado_838599" data-name="Trazado 838599" d="M260.711,265.228a4.891,4.891,0,0,1-4.911-4.911v-47.2a4.891,4.891,0,0,1,4.911-4.911h47.2a4.891,4.891,0,0,1,4.911,4.911v47.2a4.891,4.891,0,0,1-4.911,4.911Z" transform="translate(-255.459 -207.859)" fill="#efefef"/>
        </g>
      </g>
      <g id="Grupo_1091506" data-name="Grupo 1091506" transform="translate(149.731 149.049)">
        <path id="Trazado_838600" data-name="Trazado 838600" d="M313.622,263.962H251.205a1.689,1.689,0,0,1-1.705-1.705V249.705A1.689,1.689,0,0,1,251.205,248H313.69a1.689,1.689,0,0,1,1.705,1.705v12.551A1.748,1.748,0,0,1,313.622,263.962Z" transform="translate(-249.5 -248)" fill="url(#linear-gradient-6)"/>
        <path id="Trazado_838601" data-name="Trazado 838601" d="M251.364,263.78A1.368,1.368,0,0,1,250,262.416V249.864a1.368,1.368,0,0,1,1.364-1.364h62.485a1.368,1.368,0,0,1,1.364,1.364v12.552a1.368,1.368,0,0,1-1.364,1.364Z" transform="translate(-249.659 -248.159)" fill="url(#linear-gradient-7)"/>
      </g>
      <path id="Trazado_839184" data-name="Trazado 839184" d="M.328,0h.784V-4.088h.016L2.184,0h.9V-5.6H2.3v3.352H2.288L1.432-5.6H.328ZM3.512,0h.816l.16-1.1h1v-.016L5.648,0h.88L5.616-5.6H4.424Zm1.08-1.856.384-2.768h.016l.392,2.768ZM6.952,0H7.72V-4.24h.016L8.376,0h.736l.64-4.24h.016V0H10.6V-5.6H9.344l-.56,4.008H8.768L8.208-5.6H6.952Zm4.3,0h2.4V-.8h-1.52V-2.52h1.208v-.8H12.136V-4.8h1.52v-.8h-2.4Zm5.328.08a1.242,1.242,0,0,0,1.328-1.424,2.165,2.165,0,0,0-.968-1.792c-.576-.5-.76-.8-.76-1.208,0-.384.16-.536.44-.536s.44.152.44.552v.288H17.9v-.232c0-.9-.424-1.408-1.28-1.408A1.224,1.224,0,0,0,15.3-4.288a2.17,2.17,0,0,0,.976,1.744c.576.5.752.8.752,1.264,0,.416-.176.56-.456.56s-.456-.144-.456-.544v-.384h-.832v.32C15.288-.432,15.72.08,16.584.08ZM19.7.08c.864,0,1.312-.512,1.312-1.408V-5.6H20.16v4.336c0,.4-.168.544-.448.544s-.448-.144-.448-.544V-5.6h-.88v4.272C18.384-.432,18.832.08,19.7.08ZM21.632,0h.88V-2.4h.3c.4,0,.552.168.552.688V-.688a1.722,1.722,0,0,0,.08.688h.9a1.649,1.649,0,0,1-.1-.68v-.984c0-.632-.144-1.048-.584-1.184v-.016c.392-.16.576-.528.576-1.1v-.344c0-.864-.392-1.288-1.3-1.288h-1.3Zm.88-3.2V-4.8h.4c.312,0,.448.176.448.576v.432c0,.448-.2.592-.528.592ZM24.856,0h.784V-4.088h.016L26.712,0h.9V-5.6h-.784v3.352h-.016L25.96-5.6h-1.1ZM28.04,0h.816l.16-1.1h1v-.016L30.176,0h.88l-.912-5.6H28.952Zm1.08-1.856L29.5-4.624h.016l.392,2.768ZM31.48,0h.768V-4.24h.016L32.9,0h.736l.64-4.24H34.3V0h.832V-5.6H33.872l-.56,4.008H33.3L32.736-5.6H31.48Zm4.3,0h2.4V-.8h-1.52V-2.52h1.208v-.8H36.664V-4.8h1.52v-.8h-2.4Z" transform="translate(159.859 159.22)" fill="#fff"/>
      <path id="Trazado_839185" data-name="Trazado 839185" d="M.2.012c.324,0,.48-.165.48-.51V-2.1H.351V-.489c0,.138-.063.2-.2.2A.442.442,0,0,1,.048-.3V0A.792.792,0,0,0,.2.012ZM1.395.03A.466.466,0,0,0,1.9-.5V-1.6a.466.466,0,0,0-.5-.528.466.466,0,0,0-.5.528V-.5A.466.466,0,0,0,1.395.03Zm0-.3c-.105,0-.171-.057-.171-.207V-1.623c0-.15.066-.207.171-.207s.171.057.171.207V-.477C1.566-.327,1.5-.27,1.395-.27ZM2.118,0h.519a.446.446,0,0,0,.5-.5v-.18c0-.222-.069-.378-.246-.438v-.006c.147-.06.213-.2.213-.411v-.084c0-.324-.147-.483-.489-.483h-.5Zm.33-1.245V-1.8h.159c.117,0,.168.066.168.216v.117c0,.168-.075.222-.2.222Zm0,.945V-.945H2.6c.15,0,.213.06.213.255v.183c0,.156-.06.207-.171.207ZM3.81,0h.33V-.855H4.3c.33,0,.492-.183.492-.519v-.207c0-.336-.162-.519-.492-.519H3.81Zm.33-1.155V-1.8H4.3c.1,0,.162.048.162.2v.249c0,.15-.057.2-.162.2ZM5.445.03a.466.466,0,0,0,.5-.528V-1.6a.466.466,0,0,0-.5-.528.466.466,0,0,0-.5.528V-.5A.466.466,0,0,0,5.445.03Zm0-.3c-.105,0-.171-.057-.171-.207V-1.623c0-.15.066-.207.171-.207s.171.057.171.207V-.477C5.616-.327,5.55-.27,5.445-.27ZM6.6.03A.466.466,0,0,0,7.1-.5a.812.812,0,0,0-.363-.672c-.216-.189-.285-.3-.285-.453s.06-.2.165-.2.165.057.165.207v.108h.312V-1.6c0-.336-.159-.528-.48-.528a.459.459,0,0,0-.492.522.814.814,0,0,0,.366.654c.216.189.282.3.282.474,0,.156-.066.21-.171.21s-.171-.054-.171-.2V-.618H6.111V-.5C6.111-.162,6.273.03,6.6.03ZM7.284,0h.33V-2.1h-.33Zm.834,0h.33V-1.8h.345v-.3H7.773v.3h.345Zm.834,0h.33V-2.1h-.33Zm1.053.03a.466.466,0,0,0,.5-.528V-1.6a.466.466,0,0,0-.5-.528.466.466,0,0,0-.5.528V-.5A.466.466,0,0,0,10.005.03Zm0-.3c-.105,0-.171-.057-.171-.207V-1.623c0-.15.066-.207.171-.207s.171.057.171.207V-.477C10.176-.327,10.11-.27,10.005-.27Zm.723.27h.294V-1.533h.006L11.424,0h.339V-2.1h-.294V-.843h-.006L11.142-2.1h-.414Z" transform="translate(170.374 171.632)" fill="#666"/>
      <path id="Trazado_839186" data-name="Trazado 839186" d="M.887,0A.887.887,0,1,1,0,.887.887.887,0,0,1,.887,0Z" transform="translate(181.861 120.74)" fill="#666"/>
      <g id="Grupo_1091508" data-name="Grupo 1091508" transform="translate(259.08 121.559)">
        <g id="Grupo_1091507" data-name="Grupo 1091507">
          <path id="Trazado_838602" data-name="Trazado 838602" d="M462.257,265.41h-47.2a5.255,5.255,0,0,1-5.253-5.253v-47.2a5.255,5.255,0,0,1,5.253-5.253h47.2a5.255,5.255,0,0,1,5.253,5.253v47.2A5.212,5.212,0,0,1,462.257,265.41Z" transform="translate(-409.8 -207.7)" fill="url(#linear-gradient-8)"/>
          <path id="Trazado_838603" data-name="Trazado 838603" d="M415.211,265.228a4.891,4.891,0,0,1-4.911-4.911v-47.2a4.891,4.891,0,0,1,4.911-4.911h47.2a4.891,4.891,0,0,1,4.911,4.911v47.2a4.891,4.891,0,0,1-4.911,4.911Z" transform="translate(-409.959 -207.859)" fill="#efefef"/>
        </g>
      </g>
      <g id="Grupo_1091510" data-name="Grupo 1091510" transform="translate(255.055 149.049)">
        <g id="Grupo_1091509" data-name="Grupo 1091509">
          <path id="Trazado_838604" data-name="Trazado 838604" d="M468.09,263.962H405.605a1.689,1.689,0,0,1-1.705-1.705V249.705A1.689,1.689,0,0,1,405.605,248H468.09a1.689,1.689,0,0,1,1.705,1.705v12.551A1.688,1.688,0,0,1,468.09,263.962Z" transform="translate(-403.9 -248)" fill="url(#linear-gradient-9)"/>
          <path id="Trazado_838605" data-name="Trazado 838605" d="M405.864,263.78a1.368,1.368,0,0,1-1.364-1.364V249.864a1.368,1.368,0,0,1,1.364-1.364h62.417a1.368,1.368,0,0,1,1.364,1.364v12.552a1.368,1.368,0,0,1-1.364,1.364Z" transform="translate(-404.091 -248.159)" fill="url(#linear-gradient-10)"/>
        </g>
      </g>
      <path id="Trazado_839187" data-name="Trazado 839187" d="M.328,0h.784V-4.088h.016L2.184,0h.9V-5.6H2.3v3.352H2.288L1.432-5.6H.328ZM3.512,0h.816l.16-1.1h1v-.016L5.648,0h.88L5.616-5.6H4.424Zm1.08-1.856.384-2.768h.016l.392,2.768ZM6.952,0H7.72V-4.24h.016L8.376,0h.736l.64-4.24h.016V0H10.6V-5.6H9.344l-.56,4.008H8.768L8.208-5.6H6.952Zm4.3,0h2.4V-.8h-1.52V-2.52h1.208v-.8H12.136V-4.8h1.52v-.8h-2.4Zm5.328.08a1.242,1.242,0,0,0,1.328-1.424,2.165,2.165,0,0,0-.968-1.792c-.576-.5-.76-.8-.76-1.208,0-.384.16-.536.44-.536s.44.152.44.552v.288H17.9v-.232c0-.9-.424-1.408-1.28-1.408A1.224,1.224,0,0,0,15.3-4.288a2.17,2.17,0,0,0,.976,1.744c.576.5.752.8.752,1.264,0,.416-.176.56-.456.56s-.456-.144-.456-.544v-.384h-.832v.32C15.288-.432,15.72.08,16.584.08ZM19.7.08c.864,0,1.312-.512,1.312-1.408V-5.6H20.16v4.336c0,.4-.168.544-.448.544s-.448-.144-.448-.544V-5.6h-.88v4.272C18.384-.432,18.832.08,19.7.08ZM21.632,0h.88V-2.4h.3c.4,0,.552.168.552.688V-.688a1.722,1.722,0,0,0,.08.688h.9a1.649,1.649,0,0,1-.1-.68v-.984c0-.632-.144-1.048-.584-1.184v-.016c.392-.16.576-.528.576-1.1v-.344c0-.864-.392-1.288-1.3-1.288h-1.3Zm.88-3.2V-4.8h.4c.312,0,.448.176.448.576v.432c0,.448-.2.592-.528.592ZM24.856,0h.784V-4.088h.016L26.712,0h.9V-5.6h-.784v3.352h-.016L25.96-5.6h-1.1ZM28.04,0h.816l.16-1.1h1v-.016L30.176,0h.88l-.912-5.6H28.952Zm1.08-1.856L29.5-4.624h.016l.392,2.768ZM31.48,0h.768V-4.24h.016L32.9,0h.736l.64-4.24H34.3V0h.832V-5.6H33.872l-.56,4.008H33.3L32.736-5.6H31.48Zm4.3,0h2.4V-.8h-1.52V-2.52h1.208v-.8H36.664V-4.8h1.52v-.8h-2.4Z" transform="translate(265.228 159.22)" fill="#fff"/>
      <path id="Trazado_839188" data-name="Trazado 839188" d="M.2.012c.324,0,.48-.165.48-.51V-2.1H.351V-.489c0,.138-.063.2-.2.2A.442.442,0,0,1,.048-.3V0A.792.792,0,0,0,.2.012ZM1.395.03A.466.466,0,0,0,1.9-.5V-1.6a.466.466,0,0,0-.5-.528.466.466,0,0,0-.5.528V-.5A.466.466,0,0,0,1.395.03Zm0-.3c-.105,0-.171-.057-.171-.207V-1.623c0-.15.066-.207.171-.207s.171.057.171.207V-.477C1.566-.327,1.5-.27,1.395-.27ZM2.118,0h.519a.446.446,0,0,0,.5-.5v-.18c0-.222-.069-.378-.246-.438v-.006c.147-.06.213-.2.213-.411v-.084c0-.324-.147-.483-.489-.483h-.5Zm.33-1.245V-1.8h.159c.117,0,.168.066.168.216v.117c0,.168-.075.222-.2.222Zm0,.945V-.945H2.6c.15,0,.213.06.213.255v.183c0,.156-.06.207-.171.207ZM3.81,0h.33V-.855H4.3c.33,0,.492-.183.492-.519v-.207c0-.336-.162-.519-.492-.519H3.81Zm.33-1.155V-1.8H4.3c.1,0,.162.048.162.2v.249c0,.15-.057.2-.162.2ZM5.445.03a.466.466,0,0,0,.5-.528V-1.6a.466.466,0,0,0-.5-.528.466.466,0,0,0-.5.528V-.5A.466.466,0,0,0,5.445.03Zm0-.3c-.105,0-.171-.057-.171-.207V-1.623c0-.15.066-.207.171-.207s.171.057.171.207V-.477C5.616-.327,5.55-.27,5.445-.27ZM6.6.03A.466.466,0,0,0,7.1-.5a.812.812,0,0,0-.363-.672c-.216-.189-.285-.3-.285-.453s.06-.2.165-.2.165.057.165.207v.108h.312V-1.6c0-.336-.159-.528-.48-.528a.459.459,0,0,0-.492.522.814.814,0,0,0,.366.654c.216.189.282.3.282.474,0,.156-.066.21-.171.21s-.171-.054-.171-.2V-.618H6.111V-.5C6.111-.162,6.273.03,6.6.03ZM7.284,0h.33V-2.1h-.33Zm.834,0h.33V-1.8h.345v-.3H7.773v.3h.345Zm.834,0h.33V-2.1h-.33Zm1.053.03a.466.466,0,0,0,.5-.528V-1.6a.466.466,0,0,0-.5-.528.466.466,0,0,0-.5.528V-.5A.466.466,0,0,0,10.005.03Zm0-.3c-.105,0-.171-.057-.171-.207V-1.623c0-.15.066-.207.171-.207s.171.057.171.207V-.477C10.176-.327,10.11-.27,10.005-.27Zm.723.27h.294V-1.533h.006L11.424,0h.339V-2.1h-.294V-.843h-.006L11.142-2.1h-.414Z" transform="translate(275.743 171.632)" fill="#666"/>
      <path id="Trazado_838606" data-name="Trazado 838606" d="M452.574,207.383a.887.887,0,1,1-.887-.887A.823.823,0,0,1,452.574,207.383Z" transform="translate(-163.752 -85.756)" fill="#666"/>
      <g id="Grupo_1091512" data-name="Grupo 1091512" transform="translate(371.293 121.559)">
        <g id="Grupo_1091511" data-name="Grupo 1091511">
          <path id="Trazado_838607" data-name="Trazado 838607" d="M626.757,265.41h-47.2a5.255,5.255,0,0,1-5.253-5.253v-47.2a5.255,5.255,0,0,1,5.253-5.253h47.2a5.255,5.255,0,0,1,5.253,5.253v47.2A5.255,5.255,0,0,1,626.757,265.41Z" transform="translate(-574.3 -207.7)" fill="url(#linear-gradient-11)"/>
          <path id="Trazado_838608" data-name="Trazado 838608" d="M579.711,265.228a4.891,4.891,0,0,1-4.911-4.911v-47.2a4.891,4.891,0,0,1,4.911-4.911h47.2a4.891,4.891,0,0,1,4.911,4.911v47.2a4.891,4.891,0,0,1-4.911,4.911Z" transform="translate(-574.459 -207.859)" fill="#efefef"/>
        </g>
      </g>
      <g id="Grupo_1091513" data-name="Grupo 1091513" transform="translate(367.269 149.049)">
        <path id="Trazado_838609" data-name="Trazado 838609" d="M632.59,263.962H570.105a1.689,1.689,0,0,1-1.705-1.705V249.705A1.689,1.689,0,0,1,570.105,248H632.59a1.689,1.689,0,0,1,1.705,1.705v12.551A1.733,1.733,0,0,1,632.59,263.962Z" transform="translate(-568.4 -248)" fill="url(#linear-gradient-12)"/>
        <path id="Trazado_838610" data-name="Trazado 838610" d="M570.264,263.78a1.368,1.368,0,0,1-1.364-1.364V249.864a1.368,1.368,0,0,1,1.364-1.364h62.485a1.368,1.368,0,0,1,1.364,1.364v12.552a1.368,1.368,0,0,1-1.364,1.364Z" transform="translate(-568.559 -248.159)" fill="url(#linear-gradient-13)"/>
      </g>
      <path id="Trazado_839189" data-name="Trazado 839189" d="M.328,0h.784V-4.088h.016L2.184,0h.9V-5.6H2.3v3.352H2.288L1.432-5.6H.328ZM3.512,0h.816l.16-1.1h1v-.016L5.648,0h.88L5.616-5.6H4.424Zm1.08-1.856.384-2.768h.016l.392,2.768ZM6.952,0H7.72V-4.24h.016L8.376,0h.736l.64-4.24h.016V0H10.6V-5.6H9.344l-.56,4.008H8.768L8.208-5.6H6.952Zm4.3,0h2.4V-.8h-1.52V-2.52h1.208v-.8H12.136V-4.8h1.52v-.8h-2.4Zm5.328.08a1.242,1.242,0,0,0,1.328-1.424,2.165,2.165,0,0,0-.968-1.792c-.576-.5-.76-.8-.76-1.208,0-.384.16-.536.44-.536s.44.152.44.552v.288H17.9v-.232c0-.9-.424-1.408-1.28-1.408A1.224,1.224,0,0,0,15.3-4.288a2.17,2.17,0,0,0,.976,1.744c.576.5.752.8.752,1.264,0,.416-.176.56-.456.56s-.456-.144-.456-.544v-.384h-.832v.32C15.288-.432,15.72.08,16.584.08ZM19.7.08c.864,0,1.312-.512,1.312-1.408V-5.6H20.16v4.336c0,.4-.168.544-.448.544s-.448-.144-.448-.544V-5.6h-.88v4.272C18.384-.432,18.832.08,19.7.08ZM21.632,0h.88V-2.4h.3c.4,0,.552.168.552.688V-.688a1.722,1.722,0,0,0,.08.688h.9a1.649,1.649,0,0,1-.1-.68v-.984c0-.632-.144-1.048-.584-1.184v-.016c.392-.16.576-.528.576-1.1v-.344c0-.864-.392-1.288-1.3-1.288h-1.3Zm.88-3.2V-4.8h.4c.312,0,.448.176.448.576v.432c0,.448-.2.592-.528.592ZM24.856,0h.784V-4.088h.016L26.712,0h.9V-5.6h-.784v3.352h-.016L25.96-5.6h-1.1ZM28.04,0h.816l.16-1.1h1v-.016L30.176,0h.88l-.912-5.6H28.952Zm1.08-1.856L29.5-4.624h.016l.392,2.768ZM31.48,0h.768V-4.24h.016L32.9,0h.736l.64-4.24H34.3V0h.832V-5.6H33.872l-.56,4.008H33.3L32.736-5.6H31.48Zm4.3,0h2.4V-.8h-1.52V-2.52h1.208v-.8H36.664V-4.8h1.52v-.8h-2.4Z" transform="translate(377.42 159.22)" fill="#fff"/>
      <path id="Trazado_839190" data-name="Trazado 839190" d="M.2.012c.324,0,.48-.165.48-.51V-2.1H.351V-.489c0,.138-.063.2-.2.2A.442.442,0,0,1,.048-.3V0A.792.792,0,0,0,.2.012ZM1.395.03A.466.466,0,0,0,1.9-.5V-1.6a.466.466,0,0,0-.5-.528.466.466,0,0,0-.5.528V-.5A.466.466,0,0,0,1.395.03Zm0-.3c-.105,0-.171-.057-.171-.207V-1.623c0-.15.066-.207.171-.207s.171.057.171.207V-.477C1.566-.327,1.5-.27,1.395-.27ZM2.118,0h.519a.446.446,0,0,0,.5-.5v-.18c0-.222-.069-.378-.246-.438v-.006c.147-.06.213-.2.213-.411v-.084c0-.324-.147-.483-.489-.483h-.5Zm.33-1.245V-1.8h.159c.117,0,.168.066.168.216v.117c0,.168-.075.222-.2.222Zm0,.945V-.945H2.6c.15,0,.213.06.213.255v.183c0,.156-.06.207-.171.207ZM3.81,0h.33V-.855H4.3c.33,0,.492-.183.492-.519v-.207c0-.336-.162-.519-.492-.519H3.81Zm.33-1.155V-1.8H4.3c.1,0,.162.048.162.2v.249c0,.15-.057.2-.162.2ZM5.445.03a.466.466,0,0,0,.5-.528V-1.6a.466.466,0,0,0-.5-.528.466.466,0,0,0-.5.528V-.5A.466.466,0,0,0,5.445.03Zm0-.3c-.105,0-.171-.057-.171-.207V-1.623c0-.15.066-.207.171-.207s.171.057.171.207V-.477C5.616-.327,5.55-.27,5.445-.27ZM6.6.03A.466.466,0,0,0,7.1-.5a.812.812,0,0,0-.363-.672c-.216-.189-.285-.3-.285-.453s.06-.2.165-.2.165.057.165.207v.108h.312V-1.6c0-.336-.159-.528-.48-.528a.459.459,0,0,0-.492.522.814.814,0,0,0,.366.654c.216.189.282.3.282.474,0,.156-.066.21-.171.21s-.171-.054-.171-.2V-.618H6.111V-.5C6.111-.162,6.273.03,6.6.03ZM7.284,0h.33V-2.1h-.33Zm.834,0h.33V-1.8h.345v-.3H7.773v.3h.345Zm.834,0h.33V-2.1h-.33Zm1.053.03a.466.466,0,0,0,.5-.528V-1.6a.466.466,0,0,0-.5-.528.466.466,0,0,0-.5.528V-.5A.466.466,0,0,0,10.005.03Zm0-.3c-.105,0-.171-.057-.171-.207V-1.623c0-.15.066-.207.171-.207s.171.057.171.207V-.477C10.176-.327,10.11-.27,10.005-.27Zm.723.27h.294V-1.533h.006L11.424,0h.339V-2.1h-.294V-.843h-.006L11.142-2.1h-.414Z" transform="translate(387.935 171.632)" fill="#666"/>
      <path id="Trazado_839191" data-name="Trazado 839191" d="M.887,0A.887.887,0,1,1,0,.887.887.887,0,0,1,.887,0Z" transform="translate(399.261 120.74)" fill="#666"/>
      <g id="Grupo_1091514" data-name="Grupo 1091514" transform="translate(117.875 198.232)">
        <path id="Trazado_838611" data-name="Trazado 838611" d="M207.029,350.933h58.6a4.251,4.251,0,0,0,4.229-4.229V324.329a4.251,4.251,0,0,0-4.229-4.229h-58.6a4.251,4.251,0,0,0-4.229,4.229V346.7A4.207,4.207,0,0,0,207.029,350.933Z" transform="translate(-202.8 -320.1)" fill="url(#linear-gradient-14)"/>
        <path id="Trazado_838612" data-name="Trazado 838612" d="M207.188,350.751a3.931,3.931,0,0,1-3.888-3.888V324.488a3.886,3.886,0,0,1,3.888-3.888h58.6a3.931,3.931,0,0,1,3.888,3.888v22.374a3.886,3.886,0,0,1-3.888,3.888Z" transform="translate(-202.959 -320.259)" fill="#efefef"/>
      </g>
      <path id="Trazado_839192" data-name="Trazado 839192" d="M.246,0H.834V-3.066H.846L1.638,0h.678V-4.2H1.728v2.514H1.716L1.074-4.2H.246ZM2.634,0h.612l.12-.822h.75V-.834L4.236,0H4.9L4.212-4.2H3.318Zm.81-1.392.288-2.076h.012l.294,2.076ZM5.214,0H5.79V-3.18H5.8L6.282,0h.552l.48-3.18h.012V0H7.95V-4.2H7.008l-.42,3.006H6.576L6.156-4.2H5.214ZM8.442,0h1.8V-.6H9.1V-1.89h.906v-.6H9.1V-3.6h1.14v-.6h-1.8Zm4,.06a.932.932,0,0,0,1-1.068,1.624,1.624,0,0,0-.726-1.344c-.432-.378-.57-.6-.57-.906,0-.288.12-.4.33-.4s.33.114.33.414v.216h.624V-3.2c0-.672-.318-1.056-.96-1.056a.918.918,0,0,0-.984,1.044,1.628,1.628,0,0,0,.732,1.308c.432.378.564.6.564.948,0,.312-.132.42-.342.42s-.342-.108-.342-.408v-.288h-.624V-1C11.466-.324,11.79.06,12.438.06Zm2.334,0c.648,0,.984-.384.984-1.056V-4.2H15.12V-.948c0,.3-.126.408-.336.408s-.336-.108-.336-.408V-4.2h-.66V-1C13.788-.324,14.124.06,14.772.06ZM16.224,0h.66V-1.8h.228c.3,0,.414.126.414.516v.768a1.292,1.292,0,0,0,.06.516h.672a1.237,1.237,0,0,1-.072-.51v-.738c0-.474-.108-.786-.438-.888v-.012c.294-.12.432-.4.432-.828v-.258c0-.648-.294-.966-.978-.966h-.978Zm.66-2.4V-3.6h.3c.234,0,.336.132.336.432v.324c0,.336-.15.444-.4.444ZM18.642,0h.588V-3.066h.012L20.034,0h.678V-4.2h-.588v2.514h-.012L19.47-4.2h-.828ZM21.03,0h.612l.12-.822h.75V-.834l.12.834h.66l-.684-4.2h-.894Zm.81-1.392.288-2.076h.012l.294,2.076ZM23.61,0h.576V-3.18H24.2L24.678,0h.552l.48-3.18h.012V0h.624V-4.2H25.4l-.42,3.006h-.012L24.552-4.2H23.61Zm3.228,0h1.8V-.6H27.5V-1.89H28.4v-.6H27.5V-3.6h1.14v-.6h-1.8Z" transform="translate(123.024 211.268)" fill="#4d4d4d"/>
      <path id="Trazado_839193" data-name="Trazado 839193" d="M.2.012c.324,0,.48-.165.48-.51V-2.1H.351V-.489c0,.138-.063.2-.2.2A.442.442,0,0,1,.048-.3V0A.792.792,0,0,0,.2.012ZM1.395.03A.466.466,0,0,0,1.9-.5V-1.6a.466.466,0,0,0-.5-.528.466.466,0,0,0-.5.528V-.5A.466.466,0,0,0,1.395.03Zm0-.3c-.105,0-.171-.057-.171-.207V-1.623c0-.15.066-.207.171-.207s.171.057.171.207V-.477C1.566-.327,1.5-.27,1.395-.27ZM2.118,0h.519a.446.446,0,0,0,.5-.5v-.18c0-.222-.069-.378-.246-.438v-.006c.147-.06.213-.2.213-.411v-.084c0-.324-.147-.483-.489-.483h-.5Zm.33-1.245V-1.8h.159c.117,0,.168.066.168.216v.117c0,.168-.075.222-.2.222Zm0,.945V-.945H2.6c.15,0,.213.06.213.255v.183c0,.156-.06.207-.171.207ZM3.81,0h.33V-.855H4.3c.33,0,.492-.183.492-.519v-.207c0-.336-.162-.519-.492-.519H3.81Zm.33-1.155V-1.8H4.3c.1,0,.162.048.162.2v.249c0,.15-.057.2-.162.2ZM5.445.03a.466.466,0,0,0,.5-.528V-1.6a.466.466,0,0,0-.5-.528.466.466,0,0,0-.5.528V-.5A.466.466,0,0,0,5.445.03Zm0-.3c-.105,0-.171-.057-.171-.207V-1.623c0-.15.066-.207.171-.207s.171.057.171.207V-.477C5.616-.327,5.55-.27,5.445-.27ZM6.6.03A.466.466,0,0,0,7.1-.5a.812.812,0,0,0-.363-.672c-.216-.189-.285-.3-.285-.453s.06-.2.165-.2.165.057.165.207v.108h.312V-1.6c0-.336-.159-.528-.48-.528a.459.459,0,0,0-.492.522.814.814,0,0,0,.366.654c.216.189.282.3.282.474,0,.156-.066.21-.171.21s-.171-.054-.171-.2V-.618H6.111V-.5C6.111-.162,6.273.03,6.6.03ZM7.284,0h.33V-2.1h-.33Zm.834,0h.33V-1.8h.345v-.3H7.773v.3h.345Zm.834,0h.33V-2.1h-.33Zm1.053.03a.466.466,0,0,0,.5-.528V-1.6a.466.466,0,0,0-.5-.528.466.466,0,0,0-.5.528V-.5A.466.466,0,0,0,10.005.03Zm0-.3c-.105,0-.171-.057-.171-.207V-1.623c0-.15.066-.207.171-.207s.171.057.171.207V-.477C10.176-.327,10.11-.27,10.005-.27Zm.723.27h.294V-1.533h.006L11.424,0h.339V-2.1h-.294V-.843h-.006L11.142-2.1h-.414Z" transform="translate(135.255 218.123)" fill="#9bcb66"/>
      <g id="Grupo_1091515" data-name="Grupo 1091515" transform="translate(166.649 202.871)">
        <circle id="Elipse_6785" data-name="Elipse 6785" cx="11.051" cy="11.051" r="11.051" fill="url(#linear-gradient-15)"/>
        <path id="Trazado_838613" data-name="Trazado 838613" d="M285.51,348.819a10.71,10.71,0,1,1,10.71-10.71A10.728,10.728,0,0,1,285.51,348.819Z" transform="translate(-274.459 -327.059)" fill="#dbdbdb"/>
      </g>
      <g id="Grupo_1091516" data-name="Grupo 1091516" transform="translate(142.842 241.617)">
        <path id="Trazado_838614" data-name="Trazado 838614" d="M243.629,414.533h58.6a4.251,4.251,0,0,0,4.229-4.229V387.929a4.251,4.251,0,0,0-4.229-4.229h-58.6a4.251,4.251,0,0,0-4.229,4.229V410.3A4.207,4.207,0,0,0,243.629,414.533Z" transform="translate(-239.4 -383.7)" fill="url(#linear-gradient-16)"/>
        <path id="Trazado_838615" data-name="Trazado 838615" d="M243.788,414.351a3.931,3.931,0,0,1-3.888-3.888V388.088a3.886,3.886,0,0,1,3.888-3.888h58.6a3.931,3.931,0,0,1,3.888,3.888v22.374a3.931,3.931,0,0,1-3.888,3.888Z" transform="translate(-239.559 -383.859)" fill="#efefef"/>
      </g>
      <path id="Trazado_839194" data-name="Trazado 839194" d="M.246,0H.834V-3.066H.846L1.638,0h.678V-4.2H1.728v2.514H1.716L1.074-4.2H.246ZM2.634,0h.612l.12-.822h.75V-.834L4.236,0H4.9L4.212-4.2H3.318Zm.81-1.392.288-2.076h.012l.294,2.076ZM5.214,0H5.79V-3.18H5.8L6.282,0h.552l.48-3.18h.012V0H7.95V-4.2H7.008l-.42,3.006H6.576L6.156-4.2H5.214ZM8.442,0h1.8V-.6H9.1V-1.89h.906v-.6H9.1V-3.6h1.14v-.6h-1.8Zm4,.06a.932.932,0,0,0,1-1.068,1.624,1.624,0,0,0-.726-1.344c-.432-.378-.57-.6-.57-.906,0-.288.12-.4.33-.4s.33.114.33.414v.216h.624V-3.2c0-.672-.318-1.056-.96-1.056a.918.918,0,0,0-.984,1.044,1.628,1.628,0,0,0,.732,1.308c.432.378.564.6.564.948,0,.312-.132.42-.342.42s-.342-.108-.342-.408v-.288h-.624V-1C11.466-.324,11.79.06,12.438.06Zm2.334,0c.648,0,.984-.384.984-1.056V-4.2H15.12V-.948c0,.3-.126.408-.336.408s-.336-.108-.336-.408V-4.2h-.66V-1C13.788-.324,14.124.06,14.772.06ZM16.224,0h.66V-1.8h.228c.3,0,.414.126.414.516v.768a1.292,1.292,0,0,0,.06.516h.672a1.237,1.237,0,0,1-.072-.51v-.738c0-.474-.108-.786-.438-.888v-.012c.294-.12.432-.4.432-.828v-.258c0-.648-.294-.966-.978-.966h-.978Zm.66-2.4V-3.6h.3c.234,0,.336.132.336.432v.324c0,.336-.15.444-.4.444ZM18.642,0h.588V-3.066h.012L20.034,0h.678V-4.2h-.588v2.514h-.012L19.47-4.2h-.828ZM21.03,0h.612l.12-.822h.75V-.834l.12.834h.66l-.684-4.2h-.894Zm.81-1.392.288-2.076h.012l.294,2.076ZM23.61,0h.576V-3.18H24.2L24.678,0h.552l.48-3.18h.012V0h.624V-4.2H25.4l-.42,3.006h-.012L24.552-4.2H23.61Zm3.228,0h1.8V-.6H27.5V-1.89H28.4v-.6H27.5V-3.6h1.14v-.6h-1.8Z" transform="translate(148.001 254.651)" fill="#4d4d4d"/>
      <path id="Trazado_839195" data-name="Trazado 839195" d="M.2.012c.324,0,.48-.165.48-.51V-2.1H.351V-.489c0,.138-.063.2-.2.2A.442.442,0,0,1,.048-.3V0A.792.792,0,0,0,.2.012ZM1.395.03A.466.466,0,0,0,1.9-.5V-1.6a.466.466,0,0,0-.5-.528.466.466,0,0,0-.5.528V-.5A.466.466,0,0,0,1.395.03Zm0-.3c-.105,0-.171-.057-.171-.207V-1.623c0-.15.066-.207.171-.207s.171.057.171.207V-.477C1.566-.327,1.5-.27,1.395-.27ZM2.118,0h.519a.446.446,0,0,0,.5-.5v-.18c0-.222-.069-.378-.246-.438v-.006c.147-.06.213-.2.213-.411v-.084c0-.324-.147-.483-.489-.483h-.5Zm.33-1.245V-1.8h.159c.117,0,.168.066.168.216v.117c0,.168-.075.222-.2.222Zm0,.945V-.945H2.6c.15,0,.213.06.213.255v.183c0,.156-.06.207-.171.207ZM3.81,0h.33V-.855H4.3c.33,0,.492-.183.492-.519v-.207c0-.336-.162-.519-.492-.519H3.81Zm.33-1.155V-1.8H4.3c.1,0,.162.048.162.2v.249c0,.15-.057.2-.162.2ZM5.445.03a.466.466,0,0,0,.5-.528V-1.6a.466.466,0,0,0-.5-.528.466.466,0,0,0-.5.528V-.5A.466.466,0,0,0,5.445.03Zm0-.3c-.105,0-.171-.057-.171-.207V-1.623c0-.15.066-.207.171-.207s.171.057.171.207V-.477C5.616-.327,5.55-.27,5.445-.27ZM6.6.03A.466.466,0,0,0,7.1-.5a.812.812,0,0,0-.363-.672c-.216-.189-.285-.3-.285-.453s.06-.2.165-.2.165.057.165.207v.108h.312V-1.6c0-.336-.159-.528-.48-.528a.459.459,0,0,0-.492.522.814.814,0,0,0,.366.654c.216.189.282.3.282.474,0,.156-.066.21-.171.21s-.171-.054-.171-.2V-.618H6.111V-.5C6.111-.162,6.273.03,6.6.03ZM7.284,0h.33V-2.1h-.33Zm.834,0h.33V-1.8h.345v-.3H7.773v.3h.345Zm.834,0h.33V-2.1h-.33Zm1.053.03a.466.466,0,0,0,.5-.528V-1.6a.466.466,0,0,0-.5-.528.466.466,0,0,0-.5.528V-.5A.466.466,0,0,0,10.005.03Zm0-.3c-.105,0-.171-.057-.171-.207V-1.623c0-.15.066-.207.171-.207s.171.057.171.207V-.477C10.176-.327,10.11-.27,10.005-.27Zm.723.27h.294V-1.533h.006L11.424,0h.339V-2.1h-.294V-.843h-.006L11.142-2.1h-.414Z" transform="translate(160.232 261.506)" fill="#9bcb66"/>
      <g id="Grupo_1091517" data-name="Grupo 1091517" transform="translate(191.684 246.255)">
        <circle id="Elipse_6786" data-name="Elipse 6786" cx="11.051" cy="11.051" r="11.051" fill="url(#linear-gradient-17)"/>
        <path id="Trazado_838616" data-name="Trazado 838616" d="M322.21,412.419a10.71,10.71,0,1,1,10.71-10.71A10.728,10.728,0,0,1,322.21,412.419Z" transform="translate(-311.159 -390.659)" fill="#dbdbdb"/>
      </g>
      <g id="Grupo_1091518" data-name="Grupo 1091518" transform="translate(188.205 178.518)">
        <line id="Línea_3993" data-name="Línea 3993" y2="62.621" transform="translate(12.006 0.614)" fill="none" stroke="#666" stroke-miterlimit="10" stroke-width="0.5"/>
        <path id="Trazado_838617" data-name="Trazado 838617" d="M318.16,292.1v23.671a11.441,11.441,0,0,1-11.46,11.46h0" transform="translate(-306.154 -291.486)" fill="none" stroke="#666" stroke-miterlimit="10" stroke-width="0.5"/>
        <path id="Trazado_838618" data-name="Trazado 838618" d="M323.791,291.746a.546.546,0,1,1-.546-.546A.587.587,0,0,1,323.791,291.746Z" transform="translate(-311.24 -291.2)" fill="#666"/>
        <path id="Trazado_838619" data-name="Trazado 838619" d="M306.991,343.246a.546.546,0,1,1-.546-.546A.587.587,0,0,1,306.991,343.246Z" transform="translate(-305.9 -307.569)" fill="#666"/>
        <path id="Trazado_838620" data-name="Trazado 838620" d="M323.791,383.546a.546.546,0,1,1-.546-.546A.538.538,0,0,1,323.791,383.546Z" transform="translate(-311.24 -320.379)" fill="#666"/>
      </g>
      <g id="Grupo_1091519" data-name="Grupo 1091519" transform="translate(0 198.232)">
        <path id="Trazado_838621" data-name="Trazado 838621" d="M34.229,350.933h58.6a4.251,4.251,0,0,0,4.229-4.229V324.329a4.251,4.251,0,0,0-4.229-4.229h-58.6A4.251,4.251,0,0,0,30,324.329V346.7A4.207,4.207,0,0,0,34.229,350.933Z" transform="translate(-30 -320.1)" fill="url(#linear-gradient-18)"/>
        <path id="Trazado_838622" data-name="Trazado 838622" d="M34.388,350.751a3.931,3.931,0,0,1-3.888-3.888V324.488a3.886,3.886,0,0,1,3.888-3.888h58.6a3.931,3.931,0,0,1,3.888,3.888v22.374a3.886,3.886,0,0,1-3.888,3.888Z" transform="translate(-30.159 -320.259)" fill="#efefef"/>
      </g>
      <path id="Trazado_839196" data-name="Trazado 839196" d="M.246,0H.834V-3.066H.846L1.638,0h.678V-4.2H1.728v2.514H1.716L1.074-4.2H.246ZM2.634,0h.612l.12-.822h.75V-.834L4.236,0H4.9L4.212-4.2H3.318Zm.81-1.392.288-2.076h.012l.294,2.076ZM5.214,0H5.79V-3.18H5.8L6.282,0h.552l.48-3.18h.012V0H7.95V-4.2H7.008l-.42,3.006H6.576L6.156-4.2H5.214ZM8.442,0h1.8V-.6H9.1V-1.89h.906v-.6H9.1V-3.6h1.14v-.6h-1.8Zm4,.06a.932.932,0,0,0,1-1.068,1.624,1.624,0,0,0-.726-1.344c-.432-.378-.57-.6-.57-.906,0-.288.12-.4.33-.4s.33.114.33.414v.216h.624V-3.2c0-.672-.318-1.056-.96-1.056a.918.918,0,0,0-.984,1.044,1.628,1.628,0,0,0,.732,1.308c.432.378.564.6.564.948,0,.312-.132.42-.342.42s-.342-.108-.342-.408v-.288h-.624V-1C11.466-.324,11.79.06,12.438.06Zm2.334,0c.648,0,.984-.384.984-1.056V-4.2H15.12V-.948c0,.3-.126.408-.336.408s-.336-.108-.336-.408V-4.2h-.66V-1C13.788-.324,14.124.06,14.772.06ZM16.224,0h.66V-1.8h.228c.3,0,.414.126.414.516v.768a1.292,1.292,0,0,0,.06.516h.672a1.237,1.237,0,0,1-.072-.51v-.738c0-.474-.108-.786-.438-.888v-.012c.294-.12.432-.4.432-.828v-.258c0-.648-.294-.966-.978-.966h-.978Zm.66-2.4V-3.6h.3c.234,0,.336.132.336.432v.324c0,.336-.15.444-.4.444ZM18.642,0h.588V-3.066h.012L20.034,0h.678V-4.2h-.588v2.514h-.012L19.47-4.2h-.828ZM21.03,0h.612l.12-.822h.75V-.834l.12.834h.66l-.684-4.2h-.894Zm.81-1.392.288-2.076h.012l.294,2.076ZM23.61,0h.576V-3.18H24.2L24.678,0h.552l.48-3.18h.012V0h.624V-4.2H25.4l-.42,3.006h-.012L24.552-4.2H23.61Zm3.228,0h1.8V-.6H27.5V-1.89H28.4v-.6H27.5V-3.6h1.14v-.6h-1.8Z" transform="translate(5.156 211.268)" fill="#4d4d4d"/>
      <path id="Trazado_839197" data-name="Trazado 839197" d="M.2.012c.324,0,.48-.165.48-.51V-2.1H.351V-.489c0,.138-.063.2-.2.2A.442.442,0,0,1,.048-.3V0A.792.792,0,0,0,.2.012ZM1.395.03A.466.466,0,0,0,1.9-.5V-1.6a.466.466,0,0,0-.5-.528.466.466,0,0,0-.5.528V-.5A.466.466,0,0,0,1.395.03Zm0-.3c-.105,0-.171-.057-.171-.207V-1.623c0-.15.066-.207.171-.207s.171.057.171.207V-.477C1.566-.327,1.5-.27,1.395-.27ZM2.118,0h.519a.446.446,0,0,0,.5-.5v-.18c0-.222-.069-.378-.246-.438v-.006c.147-.06.213-.2.213-.411v-.084c0-.324-.147-.483-.489-.483h-.5Zm.33-1.245V-1.8h.159c.117,0,.168.066.168.216v.117c0,.168-.075.222-.2.222Zm0,.945V-.945H2.6c.15,0,.213.06.213.255v.183c0,.156-.06.207-.171.207ZM3.81,0h.33V-.855H4.3c.33,0,.492-.183.492-.519v-.207c0-.336-.162-.519-.492-.519H3.81Zm.33-1.155V-1.8H4.3c.1,0,.162.048.162.2v.249c0,.15-.057.2-.162.2ZM5.445.03a.466.466,0,0,0,.5-.528V-1.6a.466.466,0,0,0-.5-.528.466.466,0,0,0-.5.528V-.5A.466.466,0,0,0,5.445.03Zm0-.3c-.105,0-.171-.057-.171-.207V-1.623c0-.15.066-.207.171-.207s.171.057.171.207V-.477C5.616-.327,5.55-.27,5.445-.27ZM6.6.03A.466.466,0,0,0,7.1-.5a.812.812,0,0,0-.363-.672c-.216-.189-.285-.3-.285-.453s.06-.2.165-.2.165.057.165.207v.108h.312V-1.6c0-.336-.159-.528-.48-.528a.459.459,0,0,0-.492.522.814.814,0,0,0,.366.654c.216.189.282.3.282.474,0,.156-.066.21-.171.21s-.171-.054-.171-.2V-.618H6.111V-.5C6.111-.162,6.273.03,6.6.03ZM7.284,0h.33V-2.1h-.33Zm.834,0h.33V-1.8h.345v-.3H7.773v.3h.345Zm.834,0h.33V-2.1h-.33Zm1.053.03a.466.466,0,0,0,.5-.528V-1.6a.466.466,0,0,0-.5-.528.466.466,0,0,0-.5.528V-.5A.466.466,0,0,0,10.005.03Zm0-.3c-.105,0-.171-.057-.171-.207V-1.623c0-.15.066-.207.171-.207s.171.057.171.207V-.477C10.176-.327,10.11-.27,10.005-.27Zm.723.27h.294V-1.533h.006L11.424,0h.339V-2.1h-.294V-.843h-.006L11.142-2.1h-.414Z" transform="translate(17.387 218.123)" fill="#fe9700"/>
      <g id="Grupo_1091520" data-name="Grupo 1091520" transform="translate(48.842 202.871)">
        <circle id="Elipse_6787" data-name="Elipse 6787" cx="11.051" cy="11.051" r="11.051" fill="url(#linear-gradient-19)"/>
        <path id="Trazado_838623" data-name="Trazado 838623" d="M112.81,348.819a10.71,10.71,0,1,1,10.71-10.71A10.728,10.728,0,0,1,112.81,348.819Z" transform="translate(-101.759 -327.059)" fill="#dbdbdb"/>
      </g>
      <g id="Grupo_1091521" data-name="Grupo 1091521" transform="translate(24.967 241.617)">
        <path id="Trazado_838624" data-name="Trazado 838624" d="M70.829,414.533h58.6a4.251,4.251,0,0,0,4.229-4.229V387.929a4.251,4.251,0,0,0-4.229-4.229h-58.6a4.251,4.251,0,0,0-4.229,4.229V410.3A4.207,4.207,0,0,0,70.829,414.533Z" transform="translate(-66.6 -383.7)" fill="url(#linear-gradient-20)"/>
        <path id="Trazado_838625" data-name="Trazado 838625" d="M70.988,414.351a3.931,3.931,0,0,1-3.888-3.888V388.088a3.886,3.886,0,0,1,3.888-3.888h58.6a3.931,3.931,0,0,1,3.888,3.888v22.374a3.931,3.931,0,0,1-3.888,3.888Z" transform="translate(-66.759 -383.859)" fill="#efefef"/>
      </g>
      <path id="Trazado_839198" data-name="Trazado 839198" d="M.246,0H.834V-3.066H.846L1.638,0h.678V-4.2H1.728v2.514H1.716L1.074-4.2H.246ZM2.634,0h.612l.12-.822h.75V-.834L4.236,0H4.9L4.212-4.2H3.318Zm.81-1.392.288-2.076h.012l.294,2.076ZM5.214,0H5.79V-3.18H5.8L6.282,0h.552l.48-3.18h.012V0H7.95V-4.2H7.008l-.42,3.006H6.576L6.156-4.2H5.214ZM8.442,0h1.8V-.6H9.1V-1.89h.906v-.6H9.1V-3.6h1.14v-.6h-1.8Zm4,.06a.932.932,0,0,0,1-1.068,1.624,1.624,0,0,0-.726-1.344c-.432-.378-.57-.6-.57-.906,0-.288.12-.4.33-.4s.33.114.33.414v.216h.624V-3.2c0-.672-.318-1.056-.96-1.056a.918.918,0,0,0-.984,1.044,1.628,1.628,0,0,0,.732,1.308c.432.378.564.6.564.948,0,.312-.132.42-.342.42s-.342-.108-.342-.408v-.288h-.624V-1C11.466-.324,11.79.06,12.438.06Zm2.334,0c.648,0,.984-.384.984-1.056V-4.2H15.12V-.948c0,.3-.126.408-.336.408s-.336-.108-.336-.408V-4.2h-.66V-1C13.788-.324,14.124.06,14.772.06ZM16.224,0h.66V-1.8h.228c.3,0,.414.126.414.516v.768a1.292,1.292,0,0,0,.06.516h.672a1.237,1.237,0,0,1-.072-.51v-.738c0-.474-.108-.786-.438-.888v-.012c.294-.12.432-.4.432-.828v-.258c0-.648-.294-.966-.978-.966h-.978Zm.66-2.4V-3.6h.3c.234,0,.336.132.336.432v.324c0,.336-.15.444-.4.444ZM18.642,0h.588V-3.066h.012L20.034,0h.678V-4.2h-.588v2.514h-.012L19.47-4.2h-.828ZM21.03,0h.612l.12-.822h.75V-.834l.12.834h.66l-.684-4.2h-.894Zm.81-1.392.288-2.076h.012l.294,2.076ZM23.61,0h.576V-3.18H24.2L24.678,0h.552l.48-3.18h.012V0h.624V-4.2H25.4l-.42,3.006h-.012L24.552-4.2H23.61Zm3.228,0h1.8V-.6H27.5V-1.89H28.4v-.6H27.5V-3.6h1.14v-.6h-1.8Z" transform="translate(30.133 254.651)" fill="#4d4d4d"/>
      <path id="Trazado_839199" data-name="Trazado 839199" d="M.2.012c.324,0,.48-.165.48-.51V-2.1H.351V-.489c0,.138-.063.2-.2.2A.442.442,0,0,1,.048-.3V0A.792.792,0,0,0,.2.012ZM1.395.03A.466.466,0,0,0,1.9-.5V-1.6a.466.466,0,0,0-.5-.528.466.466,0,0,0-.5.528V-.5A.466.466,0,0,0,1.395.03Zm0-.3c-.105,0-.171-.057-.171-.207V-1.623c0-.15.066-.207.171-.207s.171.057.171.207V-.477C1.566-.327,1.5-.27,1.395-.27ZM2.118,0h.519a.446.446,0,0,0,.5-.5v-.18c0-.222-.069-.378-.246-.438v-.006c.147-.06.213-.2.213-.411v-.084c0-.324-.147-.483-.489-.483h-.5Zm.33-1.245V-1.8h.159c.117,0,.168.066.168.216v.117c0,.168-.075.222-.2.222Zm0,.945V-.945H2.6c.15,0,.213.06.213.255v.183c0,.156-.06.207-.171.207ZM3.81,0h.33V-.855H4.3c.33,0,.492-.183.492-.519v-.207c0-.336-.162-.519-.492-.519H3.81Zm.33-1.155V-1.8H4.3c.1,0,.162.048.162.2v.249c0,.15-.057.2-.162.2ZM5.445.03a.466.466,0,0,0,.5-.528V-1.6a.466.466,0,0,0-.5-.528.466.466,0,0,0-.5.528V-.5A.466.466,0,0,0,5.445.03Zm0-.3c-.105,0-.171-.057-.171-.207V-1.623c0-.15.066-.207.171-.207s.171.057.171.207V-.477C5.616-.327,5.55-.27,5.445-.27ZM6.6.03A.466.466,0,0,0,7.1-.5a.812.812,0,0,0-.363-.672c-.216-.189-.285-.3-.285-.453s.06-.2.165-.2.165.057.165.207v.108h.312V-1.6c0-.336-.159-.528-.48-.528a.459.459,0,0,0-.492.522.814.814,0,0,0,.366.654c.216.189.282.3.282.474,0,.156-.066.21-.171.21s-.171-.054-.171-.2V-.618H6.111V-.5C6.111-.162,6.273.03,6.6.03ZM7.284,0h.33V-2.1h-.33Zm.834,0h.33V-1.8h.345v-.3H7.773v.3h.345Zm.834,0h.33V-2.1h-.33Zm1.053.03a.466.466,0,0,0,.5-.528V-1.6a.466.466,0,0,0-.5-.528.466.466,0,0,0-.5.528V-.5A.466.466,0,0,0,10.005.03Zm0-.3c-.105,0-.171-.057-.171-.207V-1.623c0-.15.066-.207.171-.207s.171.057.171.207V-.477C10.176-.327,10.11-.27,10.005-.27Zm.723.27h.294V-1.533h.006L11.424,0h.339V-2.1h-.294V-.843h-.006L11.142-2.1h-.414Z" transform="translate(42.364 261.506)" fill="#fe9700"/>
      <g id="Grupo_1091522" data-name="Grupo 1091522" transform="translate(73.808 246.255)">
        <circle id="Elipse_6788" data-name="Elipse 6788" cx="11.051" cy="11.051" r="11.051" fill="url(#linear-gradient-21)"/>
        <path id="Trazado_838626" data-name="Trazado 838626" d="M149.41,412.419a10.71,10.71,0,1,1,10.71-10.71A10.728,10.728,0,0,1,149.41,412.419Z" transform="translate(-138.359 -390.659)" fill="#dbdbdb"/>
      </g>
      <g id="Grupo_1091523" data-name="Grupo 1091523" transform="translate(70.329 178.518)">
        <line id="Línea_3994" data-name="Línea 3994" y2="62.621" transform="translate(12.006 0.614)" fill="none" stroke="#666" stroke-miterlimit="10" stroke-width="0.5"/>
        <path id="Trazado_838627" data-name="Trazado 838627" d="M145.36,292.1v23.671a11.441,11.441,0,0,1-11.46,11.46h0" transform="translate(-133.354 -291.486)" fill="none" stroke="#666" stroke-miterlimit="10" stroke-width="0.5"/>
        <path id="Trazado_838628" data-name="Trazado 838628" d="M150.991,291.746a.546.546,0,1,1-.546-.546A.538.538,0,0,1,150.991,291.746Z" transform="translate(-138.44 -291.2)" fill="#666"/>
        <circle id="Elipse_6789" data-name="Elipse 6789" cx="0.546" cy="0.546" r="0.546" transform="translate(0 35.131)" fill="#666"/>
        <path id="Trazado_838629" data-name="Trazado 838629" d="M150.991,383.546a.538.538,0,0,1-.546.546.587.587,0,0,1-.546-.546.538.538,0,0,1,.546-.546A.587.587,0,0,1,150.991,383.546Z" transform="translate(-138.44 -320.379)" fill="#666"/>
      </g>
      <g id="Grupo_1091524" data-name="Grupo 1091524" transform="translate(285.07 198.232)">
        <path id="Trazado_838630" data-name="Trazado 838630" d="M510.726,350.933h-58.6A4.251,4.251,0,0,1,447.9,346.7V324.329a4.251,4.251,0,0,1,4.229-4.229h58.6a4.251,4.251,0,0,1,4.229,4.229V346.7A4.207,4.207,0,0,1,510.726,350.933Z" transform="translate(-447.9 -320.1)" fill="url(#linear-gradient-22)"/>
        <path id="Trazado_838631" data-name="Trazado 838631" d="M452.288,350.751a3.931,3.931,0,0,1-3.888-3.888V324.488a3.886,3.886,0,0,1,3.888-3.888h58.6a3.931,3.931,0,0,1,3.888,3.888v22.374a3.886,3.886,0,0,1-3.888,3.888Z" transform="translate(-448.059 -320.259)" fill="#efefef"/>
      </g>
      <path id="Trazado_839200" data-name="Trazado 839200" d="M.246,0H.834V-3.066H.846L1.638,0h.678V-4.2H1.728v2.514H1.716L1.074-4.2H.246ZM2.634,0h.612l.12-.822h.75V-.834L4.236,0H4.9L4.212-4.2H3.318Zm.81-1.392.288-2.076h.012l.294,2.076ZM5.214,0H5.79V-3.18H5.8L6.282,0h.552l.48-3.18h.012V0H7.95V-4.2H7.008l-.42,3.006H6.576L6.156-4.2H5.214ZM8.442,0h1.8V-.6H9.1V-1.89h.906v-.6H9.1V-3.6h1.14v-.6h-1.8Zm4,.06a.932.932,0,0,0,1-1.068,1.624,1.624,0,0,0-.726-1.344c-.432-.378-.57-.6-.57-.906,0-.288.12-.4.33-.4s.33.114.33.414v.216h.624V-3.2c0-.672-.318-1.056-.96-1.056a.918.918,0,0,0-.984,1.044,1.628,1.628,0,0,0,.732,1.308c.432.378.564.6.564.948,0,.312-.132.42-.342.42s-.342-.108-.342-.408v-.288h-.624V-1C11.466-.324,11.79.06,12.438.06Zm2.334,0c.648,0,.984-.384.984-1.056V-4.2H15.12V-.948c0,.3-.126.408-.336.408s-.336-.108-.336-.408V-4.2h-.66V-1C13.788-.324,14.124.06,14.772.06ZM16.224,0h.66V-1.8h.228c.3,0,.414.126.414.516v.768a1.292,1.292,0,0,0,.06.516h.672a1.237,1.237,0,0,1-.072-.51v-.738c0-.474-.108-.786-.438-.888v-.012c.294-.12.432-.4.432-.828v-.258c0-.648-.294-.966-.978-.966h-.978Zm.66-2.4V-3.6h.3c.234,0,.336.132.336.432v.324c0,.336-.15.444-.4.444ZM18.642,0h.588V-3.066h.012L20.034,0h.678V-4.2h-.588v2.514h-.012L19.47-4.2h-.828ZM21.03,0h.612l.12-.822h.75V-.834l.12.834h.66l-.684-4.2h-.894Zm.81-1.392.288-2.076h.012l.294,2.076ZM23.61,0h.576V-3.18H24.2L24.678,0h.552l.48-3.18h.012V0h.624V-4.2H25.4l-.42,3.006h-.012L24.552-4.2H23.61Zm3.228,0h1.8V-.6H27.5V-1.89H28.4v-.6H27.5V-3.6h1.14v-.6h-1.8Z" transform="translate(310.655 211.268)" fill="#4d4d4d"/>
      <path id="Trazado_839201" data-name="Trazado 839201" d="M.2.012c.324,0,.48-.165.48-.51V-2.1H.351V-.489c0,.138-.063.2-.2.2A.442.442,0,0,1,.048-.3V0A.792.792,0,0,0,.2.012ZM1.395.03A.466.466,0,0,0,1.9-.5V-1.6a.466.466,0,0,0-.5-.528.466.466,0,0,0-.5.528V-.5A.466.466,0,0,0,1.395.03Zm0-.3c-.105,0-.171-.057-.171-.207V-1.623c0-.15.066-.207.171-.207s.171.057.171.207V-.477C1.566-.327,1.5-.27,1.395-.27ZM2.118,0h.519a.446.446,0,0,0,.5-.5v-.18c0-.222-.069-.378-.246-.438v-.006c.147-.06.213-.2.213-.411v-.084c0-.324-.147-.483-.489-.483h-.5Zm.33-1.245V-1.8h.159c.117,0,.168.066.168.216v.117c0,.168-.075.222-.2.222Zm0,.945V-.945H2.6c.15,0,.213.06.213.255v.183c0,.156-.06.207-.171.207ZM3.81,0h.33V-.855H4.3c.33,0,.492-.183.492-.519v-.207c0-.336-.162-.519-.492-.519H3.81Zm.33-1.155V-1.8H4.3c.1,0,.162.048.162.2v.249c0,.15-.057.2-.162.2ZM5.445.03a.466.466,0,0,0,.5-.528V-1.6a.466.466,0,0,0-.5-.528.466.466,0,0,0-.5.528V-.5A.466.466,0,0,0,5.445.03Zm0-.3c-.105,0-.171-.057-.171-.207V-1.623c0-.15.066-.207.171-.207s.171.057.171.207V-.477C5.616-.327,5.55-.27,5.445-.27ZM6.6.03A.466.466,0,0,0,7.1-.5a.812.812,0,0,0-.363-.672c-.216-.189-.285-.3-.285-.453s.06-.2.165-.2.165.057.165.207v.108h.312V-1.6c0-.336-.159-.528-.48-.528a.459.459,0,0,0-.492.522.814.814,0,0,0,.366.654c.216.189.282.3.282.474,0,.156-.066.21-.171.21s-.171-.054-.171-.2V-.618H6.111V-.5C6.111-.162,6.273.03,6.6.03ZM7.284,0h.33V-2.1h-.33Zm.834,0h.33V-1.8h.345v-.3H7.773v.3h.345Zm.834,0h.33V-2.1h-.33Zm1.053.03a.466.466,0,0,0,.5-.528V-1.6a.466.466,0,0,0-.5-.528.466.466,0,0,0-.5.528V-.5A.466.466,0,0,0,10.005.03Zm0-.3c-.105,0-.171-.057-.171-.207V-1.623c0-.15.066-.207.171-.207s.171.057.171.207V-.477C10.176-.327,10.11-.27,10.005-.27Zm.723.27h.294V-1.533h.006L11.424,0h.339V-2.1h-.294V-.843h-.006L11.142-2.1h-.414Z" transform="translate(310.654 218.123)" fill="#03a8f4"/>
      <g id="Grupo_1091525" data-name="Grupo 1091525" transform="translate(281.25 202.871)">
        <circle id="Elipse_6790" data-name="Elipse 6790" cx="11.051" cy="11.051" r="11.051" fill="url(#linear-gradient-23)"/>
        <circle id="Elipse_6791" data-name="Elipse 6791" cx="10.71" cy="10.71" r="10.71" transform="translate(0.341 0.341)" fill="#dbdbdb"/>
      </g>
      <g id="Grupo_1091526" data-name="Grupo 1091526" transform="translate(260.103 241.617)">
        <path id="Trazado_838632" data-name="Trazado 838632" d="M474.126,414.533h-58.6A4.251,4.251,0,0,1,411.3,410.3V387.929a4.251,4.251,0,0,1,4.229-4.229h58.6a4.251,4.251,0,0,1,4.229,4.229V410.3A4.207,4.207,0,0,1,474.126,414.533Z" transform="translate(-411.3 -383.7)" fill="url(#linear-gradient-24)"/>
        <path id="Trazado_838633" data-name="Trazado 838633" d="M415.688,414.351a3.931,3.931,0,0,1-3.888-3.888V388.088a3.886,3.886,0,0,1,3.888-3.888h58.6a3.931,3.931,0,0,1,3.888,3.888v22.374a3.931,3.931,0,0,1-3.888,3.888Z" transform="translate(-411.459 -383.859)" fill="#efefef"/>
      </g>
      <path id="Trazado_839202" data-name="Trazado 839202" d="M.246,0H.834V-3.066H.846L1.638,0h.678V-4.2H1.728v2.514H1.716L1.074-4.2H.246ZM2.634,0h.612l.12-.822h.75V-.834L4.236,0H4.9L4.212-4.2H3.318Zm.81-1.392.288-2.076h.012l.294,2.076ZM5.214,0H5.79V-3.18H5.8L6.282,0h.552l.48-3.18h.012V0H7.95V-4.2H7.008l-.42,3.006H6.576L6.156-4.2H5.214ZM8.442,0h1.8V-.6H9.1V-1.89h.906v-.6H9.1V-3.6h1.14v-.6h-1.8Zm4,.06a.932.932,0,0,0,1-1.068,1.624,1.624,0,0,0-.726-1.344c-.432-.378-.57-.6-.57-.906,0-.288.12-.4.33-.4s.33.114.33.414v.216h.624V-3.2c0-.672-.318-1.056-.96-1.056a.918.918,0,0,0-.984,1.044,1.628,1.628,0,0,0,.732,1.308c.432.378.564.6.564.948,0,.312-.132.42-.342.42s-.342-.108-.342-.408v-.288h-.624V-1C11.466-.324,11.79.06,12.438.06Zm2.334,0c.648,0,.984-.384.984-1.056V-4.2H15.12V-.948c0,.3-.126.408-.336.408s-.336-.108-.336-.408V-4.2h-.66V-1C13.788-.324,14.124.06,14.772.06ZM16.224,0h.66V-1.8h.228c.3,0,.414.126.414.516v.768a1.292,1.292,0,0,0,.06.516h.672a1.237,1.237,0,0,1-.072-.51v-.738c0-.474-.108-.786-.438-.888v-.012c.294-.12.432-.4.432-.828v-.258c0-.648-.294-.966-.978-.966h-.978Zm.66-2.4V-3.6h.3c.234,0,.336.132.336.432v.324c0,.336-.15.444-.4.444ZM18.642,0h.588V-3.066h.012L20.034,0h.678V-4.2h-.588v2.514h-.012L19.47-4.2h-.828ZM21.03,0h.612l.12-.822h.75V-.834l.12.834h.66l-.684-4.2h-.894Zm.81-1.392.288-2.076h.012l.294,2.076ZM23.61,0h.576V-3.18H24.2L24.678,0h.552l.48-3.18h.012V0h.624V-4.2H25.4l-.42,3.006h-.012L24.552-4.2H23.61Zm3.228,0h1.8V-.6H27.5V-1.89H28.4v-.6H27.5V-3.6h1.14v-.6h-1.8Z" transform="translate(285.677 254.651)" fill="#4d4d4d"/>
      <path id="Trazado_839203" data-name="Trazado 839203" d="M.2.012c.324,0,.48-.165.48-.51V-2.1H.351V-.489c0,.138-.063.2-.2.2A.442.442,0,0,1,.048-.3V0A.792.792,0,0,0,.2.012ZM1.395.03A.466.466,0,0,0,1.9-.5V-1.6a.466.466,0,0,0-.5-.528.466.466,0,0,0-.5.528V-.5A.466.466,0,0,0,1.395.03Zm0-.3c-.105,0-.171-.057-.171-.207V-1.623c0-.15.066-.207.171-.207s.171.057.171.207V-.477C1.566-.327,1.5-.27,1.395-.27ZM2.118,0h.519a.446.446,0,0,0,.5-.5v-.18c0-.222-.069-.378-.246-.438v-.006c.147-.06.213-.2.213-.411v-.084c0-.324-.147-.483-.489-.483h-.5Zm.33-1.245V-1.8h.159c.117,0,.168.066.168.216v.117c0,.168-.075.222-.2.222Zm0,.945V-.945H2.6c.15,0,.213.06.213.255v.183c0,.156-.06.207-.171.207ZM3.81,0h.33V-.855H4.3c.33,0,.492-.183.492-.519v-.207c0-.336-.162-.519-.492-.519H3.81Zm.33-1.155V-1.8H4.3c.1,0,.162.048.162.2v.249c0,.15-.057.2-.162.2ZM5.445.03a.466.466,0,0,0,.5-.528V-1.6a.466.466,0,0,0-.5-.528.466.466,0,0,0-.5.528V-.5A.466.466,0,0,0,5.445.03Zm0-.3c-.105,0-.171-.057-.171-.207V-1.623c0-.15.066-.207.171-.207s.171.057.171.207V-.477C5.616-.327,5.55-.27,5.445-.27ZM6.6.03A.466.466,0,0,0,7.1-.5a.812.812,0,0,0-.363-.672c-.216-.189-.285-.3-.285-.453s.06-.2.165-.2.165.057.165.207v.108h.312V-1.6c0-.336-.159-.528-.48-.528a.459.459,0,0,0-.492.522.814.814,0,0,0,.366.654c.216.189.282.3.282.474,0,.156-.066.21-.171.21s-.171-.054-.171-.2V-.618H6.111V-.5C6.111-.162,6.273.03,6.6.03ZM7.284,0h.33V-2.1h-.33Zm.834,0h.33V-1.8h.345v-.3H7.773v.3h.345Zm.834,0h.33V-2.1h-.33Zm1.053.03a.466.466,0,0,0,.5-.528V-1.6a.466.466,0,0,0-.5-.528.466.466,0,0,0-.5.528V-.5A.466.466,0,0,0,10.005.03Zm0-.3c-.105,0-.171-.057-.171-.207V-1.623c0-.15.066-.207.171-.207s.171.057.171.207V-.477C10.176-.327,10.11-.27,10.005-.27Zm.723.27h.294V-1.533h.006L11.424,0h.339V-2.1h-.294V-.843h-.006L11.142-2.1h-.414Z" transform="translate(285.677 261.506)" fill="#03a8f4"/>
      <g id="Grupo_1091527" data-name="Grupo 1091527" transform="translate(256.215 246.255)">
        <circle id="Elipse_6792" data-name="Elipse 6792" cx="11.051" cy="11.051" r="11.051" fill="url(#linear-gradient-25)"/>
        <path id="Trazado_838634" data-name="Trazado 838634" d="M416.81,412.419a10.71,10.71,0,1,1,10.71-10.71A10.728,10.728,0,0,1,416.81,412.419Z" transform="translate(-405.759 -390.659)" fill="#dbdbdb"/>
      </g>
      <g id="Grupo_1091528" data-name="Grupo 1091528" transform="translate(269.244 178.518)">
        <line id="Línea_3995" data-name="Línea 3995" y2="62.621" transform="translate(0.546 0.614)" fill="none" stroke="#666" stroke-miterlimit="10" stroke-width="0.5"/>
        <path id="Trazado_838635" data-name="Trazado 838635" d="M425.5,292.1v23.671a11.441,11.441,0,0,0,11.46,11.46h0" transform="translate(-424.954 -291.486)" fill="none" stroke="#666" stroke-miterlimit="10" stroke-width="0.5"/>
        <path id="Trazado_838636" data-name="Trazado 838636" d="M424.7,291.746a.546.546,0,1,0,.546-.546A.587.587,0,0,0,424.7,291.746Z" transform="translate(-424.7 -291.2)" fill="#666"/>
        <path id="Trazado_838637" data-name="Trazado 838637" d="M441.5,343.246a.546.546,0,1,0,.546-.546A.587.587,0,0,0,441.5,343.246Z" transform="translate(-430.04 -307.569)" fill="#666"/>
        <path id="Trazado_838638" data-name="Trazado 838638" d="M424.7,383.546a.546.546,0,1,0,.546-.546A.538.538,0,0,0,424.7,383.546Z" transform="translate(-424.7 -320.379)" fill="#666"/>
      </g>
      <g id="Grupo_1091529" data-name="Grupo 1091529" transform="translate(402.945 198.232)">
        <path id="Trazado_838639" data-name="Trazado 838639" d="M683.526,350.933h-58.6A4.251,4.251,0,0,1,620.7,346.7V324.329a4.251,4.251,0,0,1,4.229-4.229h58.6a4.25,4.25,0,0,1,4.229,4.229V346.7A4.207,4.207,0,0,1,683.526,350.933Z" transform="translate(-620.7 -320.1)" fill="url(#linear-gradient-26)"/>
        <path id="Trazado_838640" data-name="Trazado 838640" d="M625.088,350.751a3.931,3.931,0,0,1-3.888-3.888V324.488a3.886,3.886,0,0,1,3.888-3.888h58.6a3.931,3.931,0,0,1,3.888,3.888v22.374a3.886,3.886,0,0,1-3.888,3.888Z" transform="translate(-620.859 -320.259)" fill="#efefef"/>
      </g>
      <path id="Trazado_839204" data-name="Trazado 839204" d="M.246,0H.834V-3.066H.846L1.638,0h.678V-4.2H1.728v2.514H1.716L1.074-4.2H.246ZM2.634,0h.612l.12-.822h.75V-.834L4.236,0H4.9L4.212-4.2H3.318Zm.81-1.392.288-2.076h.012l.294,2.076ZM5.214,0H5.79V-3.18H5.8L6.282,0h.552l.48-3.18h.012V0H7.95V-4.2H7.008l-.42,3.006H6.576L6.156-4.2H5.214ZM8.442,0h1.8V-.6H9.1V-1.89h.906v-.6H9.1V-3.6h1.14v-.6h-1.8Zm4,.06a.932.932,0,0,0,1-1.068,1.624,1.624,0,0,0-.726-1.344c-.432-.378-.57-.6-.57-.906,0-.288.12-.4.33-.4s.33.114.33.414v.216h.624V-3.2c0-.672-.318-1.056-.96-1.056a.918.918,0,0,0-.984,1.044,1.628,1.628,0,0,0,.732,1.308c.432.378.564.6.564.948,0,.312-.132.42-.342.42s-.342-.108-.342-.408v-.288h-.624V-1C11.466-.324,11.79.06,12.438.06Zm2.334,0c.648,0,.984-.384.984-1.056V-4.2H15.12V-.948c0,.3-.126.408-.336.408s-.336-.108-.336-.408V-4.2h-.66V-1C13.788-.324,14.124.06,14.772.06ZM16.224,0h.66V-1.8h.228c.3,0,.414.126.414.516v.768a1.292,1.292,0,0,0,.06.516h.672a1.237,1.237,0,0,1-.072-.51v-.738c0-.474-.108-.786-.438-.888v-.012c.294-.12.432-.4.432-.828v-.258c0-.648-.294-.966-.978-.966h-.978Zm.66-2.4V-3.6h.3c.234,0,.336.132.336.432v.324c0,.336-.15.444-.4.444ZM18.642,0h.588V-3.066h.012L20.034,0h.678V-4.2h-.588v2.514h-.012L19.47-4.2h-.828ZM21.03,0h.612l.12-.822h.75V-.834l.12.834h.66l-.684-4.2h-.894Zm.81-1.392.288-2.076h.012l.294,2.076ZM23.61,0h.576V-3.18H24.2L24.678,0h.552l.48-3.18h.012V0h.624V-4.2H25.4l-.42,3.006h-.012L24.552-4.2H23.61Zm3.228,0h1.8V-.6H27.5V-1.89H28.4v-.6H27.5V-3.6h1.14v-.6h-1.8Z" transform="translate(428.523 211.268)" fill="#4d4d4d"/>
      <path id="Trazado_839205" data-name="Trazado 839205" d="M.2.012c.324,0,.48-.165.48-.51V-2.1H.351V-.489c0,.138-.063.2-.2.2A.442.442,0,0,1,.048-.3V0A.792.792,0,0,0,.2.012ZM1.395.03A.466.466,0,0,0,1.9-.5V-1.6a.466.466,0,0,0-.5-.528.466.466,0,0,0-.5.528V-.5A.466.466,0,0,0,1.395.03Zm0-.3c-.105,0-.171-.057-.171-.207V-1.623c0-.15.066-.207.171-.207s.171.057.171.207V-.477C1.566-.327,1.5-.27,1.395-.27ZM2.118,0h.519a.446.446,0,0,0,.5-.5v-.18c0-.222-.069-.378-.246-.438v-.006c.147-.06.213-.2.213-.411v-.084c0-.324-.147-.483-.489-.483h-.5Zm.33-1.245V-1.8h.159c.117,0,.168.066.168.216v.117c0,.168-.075.222-.2.222Zm0,.945V-.945H2.6c.15,0,.213.06.213.255v.183c0,.156-.06.207-.171.207ZM3.81,0h.33V-.855H4.3c.33,0,.492-.183.492-.519v-.207c0-.336-.162-.519-.492-.519H3.81Zm.33-1.155V-1.8H4.3c.1,0,.162.048.162.2v.249c0,.15-.057.2-.162.2ZM5.445.03a.466.466,0,0,0,.5-.528V-1.6a.466.466,0,0,0-.5-.528.466.466,0,0,0-.5.528V-.5A.466.466,0,0,0,5.445.03Zm0-.3c-.105,0-.171-.057-.171-.207V-1.623c0-.15.066-.207.171-.207s.171.057.171.207V-.477C5.616-.327,5.55-.27,5.445-.27ZM6.6.03A.466.466,0,0,0,7.1-.5a.812.812,0,0,0-.363-.672c-.216-.189-.285-.3-.285-.453s.06-.2.165-.2.165.057.165.207v.108h.312V-1.6c0-.336-.159-.528-.48-.528a.459.459,0,0,0-.492.522.814.814,0,0,0,.366.654c.216.189.282.3.282.474,0,.156-.066.21-.171.21s-.171-.054-.171-.2V-.618H6.111V-.5C6.111-.162,6.273.03,6.6.03ZM7.284,0h.33V-2.1h-.33Zm.834,0h.33V-1.8h.345v-.3H7.773v.3h.345Zm.834,0h.33V-2.1h-.33Zm1.053.03a.466.466,0,0,0,.5-.528V-1.6a.466.466,0,0,0-.5-.528.466.466,0,0,0-.5.528V-.5A.466.466,0,0,0,10.005.03Zm0-.3c-.105,0-.171-.057-.171-.207V-1.623c0-.15.066-.207.171-.207s.171.057.171.207V-.477C10.176-.327,10.11-.27,10.005-.27Zm.723.27h.294V-1.533h.006L11.424,0h.339V-2.1h-.294V-.843h-.006L11.142-2.1h-.414Z" transform="translate(428.523 218.123)" fill="#e81d62"/>
      <g id="Grupo_1091530" data-name="Grupo 1091530" transform="translate(399.057 202.871)">
        <circle id="Elipse_6793" data-name="Elipse 6793" cx="11.051" cy="11.051" r="11.051" fill="url(#linear-gradient-27)"/>
        <path id="Trazado_838641" data-name="Trazado 838641" d="M626.21,348.819a10.71,10.71,0,1,1,10.71-10.71A10.728,10.728,0,0,1,626.21,348.819Z" transform="translate(-615.159 -327.059)" fill="#dbdbdb"/>
      </g>
      <g id="Grupo_1091531" data-name="Grupo 1091531" transform="translate(377.978 241.617)">
        <path id="Trazado_838642" data-name="Trazado 838642" d="M646.926,414.533h-58.6A4.251,4.251,0,0,1,584.1,410.3V387.929a4.251,4.251,0,0,1,4.229-4.229h58.6a4.251,4.251,0,0,1,4.229,4.229V410.3A4.207,4.207,0,0,1,646.926,414.533Z" transform="translate(-584.1 -383.7)" fill="url(#linear-gradient-28)"/>
        <path id="Trazado_838643" data-name="Trazado 838643" d="M588.488,414.351a3.931,3.931,0,0,1-3.888-3.888V388.088a3.886,3.886,0,0,1,3.888-3.888h58.6a3.931,3.931,0,0,1,3.888,3.888v22.374a3.931,3.931,0,0,1-3.888,3.888Z" transform="translate(-584.259 -383.859)" fill="#efefef"/>
      </g>
      <path id="Trazado_839206" data-name="Trazado 839206" d="M.246,0H.834V-3.066H.846L1.638,0h.678V-4.2H1.728v2.514H1.716L1.074-4.2H.246ZM2.634,0h.612l.12-.822h.75V-.834L4.236,0H4.9L4.212-4.2H3.318Zm.81-1.392.288-2.076h.012l.294,2.076ZM5.214,0H5.79V-3.18H5.8L6.282,0h.552l.48-3.18h.012V0H7.95V-4.2H7.008l-.42,3.006H6.576L6.156-4.2H5.214ZM8.442,0h1.8V-.6H9.1V-1.89h.906v-.6H9.1V-3.6h1.14v-.6h-1.8Zm4,.06a.932.932,0,0,0,1-1.068,1.624,1.624,0,0,0-.726-1.344c-.432-.378-.57-.6-.57-.906,0-.288.12-.4.33-.4s.33.114.33.414v.216h.624V-3.2c0-.672-.318-1.056-.96-1.056a.918.918,0,0,0-.984,1.044,1.628,1.628,0,0,0,.732,1.308c.432.378.564.6.564.948,0,.312-.132.42-.342.42s-.342-.108-.342-.408v-.288h-.624V-1C11.466-.324,11.79.06,12.438.06Zm2.334,0c.648,0,.984-.384.984-1.056V-4.2H15.12V-.948c0,.3-.126.408-.336.408s-.336-.108-.336-.408V-4.2h-.66V-1C13.788-.324,14.124.06,14.772.06ZM16.224,0h.66V-1.8h.228c.3,0,.414.126.414.516v.768a1.292,1.292,0,0,0,.06.516h.672a1.237,1.237,0,0,1-.072-.51v-.738c0-.474-.108-.786-.438-.888v-.012c.294-.12.432-.4.432-.828v-.258c0-.648-.294-.966-.978-.966h-.978Zm.66-2.4V-3.6h.3c.234,0,.336.132.336.432v.324c0,.336-.15.444-.4.444ZM18.642,0h.588V-3.066h.012L20.034,0h.678V-4.2h-.588v2.514h-.012L19.47-4.2h-.828ZM21.03,0h.612l.12-.822h.75V-.834l.12.834h.66l-.684-4.2h-.894Zm.81-1.392.288-2.076h.012l.294,2.076ZM23.61,0h.576V-3.18H24.2L24.678,0h.552l.48-3.18h.012V0h.624V-4.2H25.4l-.42,3.006h-.012L24.552-4.2H23.61Zm3.228,0h1.8V-.6H27.5V-1.89H28.4v-.6H27.5V-3.6h1.14v-.6h-1.8Z" transform="translate(403.546 254.651)" fill="#4d4d4d"/>
      <path id="Trazado_839207" data-name="Trazado 839207" d="M.2.012c.324,0,.48-.165.48-.51V-2.1H.351V-.489c0,.138-.063.2-.2.2A.442.442,0,0,1,.048-.3V0A.792.792,0,0,0,.2.012ZM1.395.03A.466.466,0,0,0,1.9-.5V-1.6a.466.466,0,0,0-.5-.528.466.466,0,0,0-.5.528V-.5A.466.466,0,0,0,1.395.03Zm0-.3c-.105,0-.171-.057-.171-.207V-1.623c0-.15.066-.207.171-.207s.171.057.171.207V-.477C1.566-.327,1.5-.27,1.395-.27ZM2.118,0h.519a.446.446,0,0,0,.5-.5v-.18c0-.222-.069-.378-.246-.438v-.006c.147-.06.213-.2.213-.411v-.084c0-.324-.147-.483-.489-.483h-.5Zm.33-1.245V-1.8h.159c.117,0,.168.066.168.216v.117c0,.168-.075.222-.2.222Zm0,.945V-.945H2.6c.15,0,.213.06.213.255v.183c0,.156-.06.207-.171.207ZM3.81,0h.33V-.855H4.3c.33,0,.492-.183.492-.519v-.207c0-.336-.162-.519-.492-.519H3.81Zm.33-1.155V-1.8H4.3c.1,0,.162.048.162.2v.249c0,.15-.057.2-.162.2ZM5.445.03a.466.466,0,0,0,.5-.528V-1.6a.466.466,0,0,0-.5-.528.466.466,0,0,0-.5.528V-.5A.466.466,0,0,0,5.445.03Zm0-.3c-.105,0-.171-.057-.171-.207V-1.623c0-.15.066-.207.171-.207s.171.057.171.207V-.477C5.616-.327,5.55-.27,5.445-.27ZM6.6.03A.466.466,0,0,0,7.1-.5a.812.812,0,0,0-.363-.672c-.216-.189-.285-.3-.285-.453s.06-.2.165-.2.165.057.165.207v.108h.312V-1.6c0-.336-.159-.528-.48-.528a.459.459,0,0,0-.492.522.814.814,0,0,0,.366.654c.216.189.282.3.282.474,0,.156-.066.21-.171.21s-.171-.054-.171-.2V-.618H6.111V-.5C6.111-.162,6.273.03,6.6.03ZM7.284,0h.33V-2.1h-.33Zm.834,0h.33V-1.8h.345v-.3H7.773v.3h.345Zm.834,0h.33V-2.1h-.33Zm1.053.03a.466.466,0,0,0,.5-.528V-1.6a.466.466,0,0,0-.5-.528.466.466,0,0,0-.5.528V-.5A.466.466,0,0,0,10.005.03Zm0-.3c-.105,0-.171-.057-.171-.207V-1.623c0-.15.066-.207.171-.207s.171.057.171.207V-.477C10.176-.327,10.11-.27,10.005-.27Zm.723.27h.294V-1.533h.006L11.424,0h.339V-2.1h-.294V-.843h-.006L11.142-2.1h-.414Z" transform="translate(403.546 261.506)" fill="#e81d62"/>
      <g id="Grupo_1091532" data-name="Grupo 1091532" transform="translate(374.09 246.255)">
        <circle id="Elipse_6794" data-name="Elipse 6794" cx="11.051" cy="11.051" r="11.051" fill="url(#linear-gradient-29)"/>
        <path id="Trazado_838644" data-name="Trazado 838644" d="M589.61,412.419a10.71,10.71,0,1,1,10.71-10.71A10.728,10.728,0,0,1,589.61,412.419Z" transform="translate(-578.559 -390.659)" fill="#dbdbdb"/>
      </g>
      <g id="Grupo_1091533" data-name="Grupo 1091533" transform="translate(387.119 178.518)">
        <line id="Línea_3996" data-name="Línea 3996" y2="62.621" transform="translate(0.546 0.614)" fill="none" stroke="#666" stroke-miterlimit="10" stroke-width="0.5"/>
        <path id="Trazado_838645" data-name="Trazado 838645" d="M598.3,292.1v23.671a11.441,11.441,0,0,0,11.46,11.46h0" transform="translate(-597.754 -291.486)" fill="none" stroke="#666" stroke-miterlimit="10" stroke-width="0.5"/>
        <path id="Trazado_838646" data-name="Trazado 838646" d="M597.5,291.746a.546.546,0,1,0,.546-.546A.538.538,0,0,0,597.5,291.746Z" transform="translate(-597.5 -291.2)" fill="#666"/>
        <circle id="Elipse_6795" data-name="Elipse 6795" cx="0.546" cy="0.546" r="0.546" transform="translate(11.46 35.131)" fill="#666"/>
        <path id="Trazado_838647" data-name="Trazado 838647" d="M597.5,383.546a.546.546,0,1,0,.546-.546A.538.538,0,0,0,597.5,383.546Z" transform="translate(-597.5 -320.379)" fill="#666"/>
      </g>
      <g id="user_man_account_22_" transform="translate(225.313 6.958)">
        <g id="Grupo_1091534" data-name="Grupo 1091534">
          <path id="Trazado_838648" data-name="Trazado 838648" d="M380.628,49.932a10.192,10.192,0,0,1-10.164,10.232,10.087,10.087,0,0,1-7.981-3.888c-.068-.068-.136-.136-.136-.2a10.068,10.068,0,0,1-2.046-6.139,10.218,10.218,0,0,1,19.032-5.184A11.651,11.651,0,0,1,380.628,49.932Z" transform="translate(-360.3 -39.7)" fill="#4d4d4d"/>
          <path id="Trazado_838649" data-name="Trazado 838649" d="M379.107,57.942a9.594,9.594,0,0,1-15.007,0,7.826,7.826,0,0,1,6.276-5.866,3.261,3.261,0,1,1,4.5-3,3.189,3.189,0,0,1-2.046,3A7.641,7.641,0,0,1,379.107,57.942Z" transform="translate(-361.508 -41.639)" fill="#fff"/>
        </g>
      </g>
      <path id="Trazado_838650" data-name="Trazado 838650" d="M301.407,230.742a9.594,9.594,0,0,1-15.007,0,7.826,7.826,0,0,1,6.276-5.866,3.261,3.261,0,1,1,4.5-3,3.189,3.189,0,0,1-2.046,3A7.826,7.826,0,0,1,301.407,230.742Z" transform="translate(-111.497 -89.606)" fill="#8ac14a"/>
      <path id="Trazado_838651" data-name="Trazado 838651" d="M137.407,230.742a9.594,9.594,0,0,1-15.007,0,7.826,7.826,0,0,1,6.276-5.866,3.261,3.261,0,1,1,4.5-3,3.189,3.189,0,0,1-2.046,3A7.826,7.826,0,0,1,137.407,230.742Z" transform="translate(-59.37 -89.606)" fill="#fe9700"/>
      <path id="Trazado_838652" data-name="Trazado 838652" d="M456.307,230.742a9.594,9.594,0,0,1-15.007,0,7.826,7.826,0,0,1,6.276-5.866A3.254,3.254,0,0,1,448.8,218.6a3.232,3.232,0,0,1,3.274,3.274,3.189,3.189,0,0,1-2.046,3A7.738,7.738,0,0,1,456.307,230.742Z" transform="translate(-160.732 -89.606)" fill="#03a8f4"/>
      <path id="Trazado_838653" data-name="Trazado 838653" d="M622.407,230.742a9.595,9.595,0,0,1-15.007,0,7.826,7.826,0,0,1,6.276-5.866,3.261,3.261,0,1,1,4.5-3,3.189,3.189,0,0,1-2.046,3A7.826,7.826,0,0,1,622.407,230.742Z" transform="translate(-213.528 -89.606)" fill="#eb407a"/>
      <path id="Trazado_838654" data-name="Trazado 838654" d="M634.124,343.173a7.217,7.217,0,0,1-5.662,2.729,7.428,7.428,0,0,1-5.662-2.729,5.759,5.759,0,0,1,4.707-4.366,2.394,2.394,0,0,1-1.5-2.251,2.456,2.456,0,1,1,4.911,0,2.394,2.394,0,0,1-1.5,2.251A5.759,5.759,0,0,1,634.124,343.173Z" transform="translate(-218.423 -126.318)" fill="#bababa"/>
      <path id="Trazado_838655" data-name="Trazado 838655" d="M597.724,407.473a7.217,7.217,0,0,1-5.662,2.729,7.428,7.428,0,0,1-5.662-2.729,5.759,5.759,0,0,1,4.707-4.366,2.394,2.394,0,0,1-1.5-2.251,2.456,2.456,0,1,1,4.911,0,2.394,2.394,0,0,1-1.5,2.251A5.669,5.669,0,0,1,597.724,407.473Z" transform="translate(-206.853 -146.756)" fill="#bababa"/>
      <path id="Trazado_838656" data-name="Trazado 838656" d="M461.624,343.173a7.217,7.217,0,0,1-5.662,2.729,7.428,7.428,0,0,1-5.662-2.729,5.759,5.759,0,0,1,4.707-4.366,2.394,2.394,0,0,1-1.5-2.251,2.456,2.456,0,1,1,4.911,0,2.394,2.394,0,0,1-1.5,2.251A5.759,5.759,0,0,1,461.624,343.173Z" transform="translate(-163.593 -126.318)" fill="#bababa"/>
      <path id="Trazado_838657" data-name="Trazado 838657" d="M293.924,343.173a7.217,7.217,0,0,1-5.662,2.729,7.428,7.428,0,0,1-5.662-2.729,5.759,5.759,0,0,1,4.707-4.366,2.394,2.394,0,0,1-1.5-2.251,2.456,2.456,0,1,1,4.911,0,2.394,2.394,0,0,1-1.5,2.251A5.759,5.759,0,0,1,293.924,343.173Z" transform="translate(-110.289 -126.318)" fill="#bababa"/>
      <path id="Trazado_838658" data-name="Trazado 838658" d="M425.224,407.473a7.217,7.217,0,0,1-5.662,2.729,7.428,7.428,0,0,1-5.662-2.729,5.759,5.759,0,0,1,4.707-4.366,2.394,2.394,0,0,1-1.5-2.251,2.456,2.456,0,1,1,4.911,0,2.394,2.394,0,0,1-1.5,2.251A5.669,5.669,0,0,1,425.224,407.473Z" transform="translate(-152.023 -146.756)" fill="#bababa"/>
      <path id="Trazado_838659" data-name="Trazado 838659" d="M330.724,407.473a7.217,7.217,0,0,1-5.662,2.729,7.428,7.428,0,0,1-5.662-2.729,5.759,5.759,0,0,1,4.707-4.366,2.394,2.394,0,0,1-1.5-2.251,2.456,2.456,0,1,1,4.911,0,2.394,2.394,0,0,1-1.5,2.251A5.669,5.669,0,0,1,330.724,407.473Z" transform="translate(-121.986 -146.756)" fill="#bababa"/>
      <path id="Trazado_838660" data-name="Trazado 838660" d="M120.924,343.173a7.217,7.217,0,0,1-5.662,2.729,7.428,7.428,0,0,1-5.662-2.729,5.759,5.759,0,0,1,4.707-4.366,2.394,2.394,0,0,1-1.5-2.251,2.456,2.456,0,1,1,4.911,0,2.394,2.394,0,0,1-1.5,2.251A5.759,5.759,0,0,1,120.924,343.173Z" transform="translate(-55.301 -126.318)" fill="#bababa"/>
      <path id="Trazado_838661" data-name="Trazado 838661" d="M157.724,407.473a7.217,7.217,0,0,1-5.662,2.729,7.428,7.428,0,0,1-5.662-2.729,5.759,5.759,0,0,1,4.707-4.366,2.394,2.394,0,0,1-1.5-2.251,2.456,2.456,0,1,1,4.911,0,2.394,2.394,0,0,1-1.5,2.251A5.669,5.669,0,0,1,157.724,407.473Z" transform="translate(-66.998 -146.756)" fill="#bababa"/>
    </g>
  </g>
</svg>
