<svg xmlns="http://www.w3.org/2000/svg" width="471.842" height="312.813" viewBox="0 0 471.842 312.813">
  <g id="OBJECTS" transform="translate(-42.965 -24.919)">
    <g id="Grupo_1091626" data-name="Grupo 1091626" transform="translate(42.426 27.3)">
      <g id="Grupo_1091545" data-name="Grupo 1091545" transform="translate(201.263)">
        <g id="Grupo_1091541" data-name="Grupo 1091541" transform="translate(3.911)">
          <circle id="Elipse_6796" data-name="Elipse 6796" cx="26.789" cy="26.789" r="26.789" transform="translate(4.987 4.987)" fill="none" stroke="#110537" stroke-linecap="round" stroke-linejoin="round" stroke-miterlimit="10" stroke-width="0.75"/>
          <g id="Grupo_1091537" data-name="Grupo 1091537" transform="translate(0 31.776)">
            <g id="Grupo_1091536" data-name="Grupo 1091536">
              <path id="Trazado_838662" data-name="Trazado 838662" d="M419.6,71.9v.855" transform="translate(-356.047 -71.9)" fill="none" stroke="#110537" stroke-linecap="round" stroke-linejoin="round" stroke-width="0.75"/>
              <path id="Trazado_838663" data-name="Trazado 838663" d="M393.839,75.155A31.742,31.742,0,0,1,330.5,74.3" transform="translate(-330.429 -72.59)" fill="none" stroke="#110537" stroke-linecap="round" stroke-linejoin="round" stroke-width="0.75" stroke-dasharray="2.415 2.415"/>
              <path id="Trazado_838664" data-name="Trazado 838664" d="M330.4,72.755V71.9" transform="translate(-330.4 -71.9)" fill="none" stroke="#110537" stroke-linecap="round" stroke-linejoin="round" stroke-width="0.75"/>
            </g>
          </g>
          <path id="Trazado_838665" data-name="Trazado 838665" d="M330.4,59.076a31.776,31.776,0,0,1,63.553,0" transform="translate(-330.4 -27.3)" fill="none" stroke="#fdc307" stroke-linejoin="round" stroke-miterlimit="10" stroke-width="4.762"/>
          <g id="Grupo_1091540" data-name="Grupo 1091540" transform="translate(18.453 13.893)">
            <g id="Grupo_1091539" data-name="Grupo 1091539">
              <path id="Trazado_838666" data-name="Trazado 838666" d="M382.946,79.841V90.1H356.3V79.841a6.355,6.355,0,0,1,6.341-6.341h4.845l2.707,3.491L372.9,73.5h3.7A6.355,6.355,0,0,1,382.946,79.841Z" transform="translate(-356.3 -54.477)" fill="none" stroke="#110537" stroke-linecap="round" stroke-linejoin="round" stroke-miterlimit="10" stroke-width="0.75"/>
              <g id="Grupo_1091538" data-name="Grupo 1091538" transform="translate(5.771 27.359)">
                <line id="Línea_3997" data-name="Línea 3997" y1="8.265" fill="none" stroke="#110537" stroke-linecap="round" stroke-linejoin="round" stroke-miterlimit="10" stroke-width="0.75"/>
                <line id="Línea_3998" data-name="Línea 3998" y1="8.265" transform="translate(15.104)" fill="none" stroke="#110537" stroke-linecap="round" stroke-linejoin="round" stroke-miterlimit="10" stroke-width="0.75"/>
              </g>
              <path id="Trazado_838667" data-name="Trazado 838667" d="M379.108,53.711V57.2a6.783,6.783,0,0,1-3.562,5.985,7.1,7.1,0,0,1-3.206.784,6.716,6.716,0,0,1-2.137-.356,6.918,6.918,0,0,1-4.7-6.484V53.64a6.842,6.842,0,0,1,6.84-6.84,7.094,7.094,0,0,1,4.845,1.995A7.7,7.7,0,0,1,379.108,53.711Z" transform="translate(-358.945 -46.8)" fill="none" stroke="#110537" stroke-linecap="round" stroke-linejoin="round" stroke-miterlimit="10" stroke-width="0.75"/>
              <path id="Trazado_838668" data-name="Trazado 838668" d="M379.108,57.591,375.973,54.1c-3.491,2.28-7.41,0-7.41,0L365.5,57.591" transform="translate(-358.945 -48.899)" fill="none" stroke="#110537" stroke-linecap="round" stroke-linejoin="round" stroke-miterlimit="10" stroke-width="0.75"/>
              <path id="Trazado_838669" data-name="Trazado 838669" d="M377.315,69.8v2.636l-2.707,3.491L371.9,72.436V70.3a6.716,6.716,0,0,0,2.137.356A6.246,6.246,0,0,0,377.315,69.8Z" transform="translate(-360.785 -53.413)" fill="none" stroke="#110537" stroke-linecap="round" stroke-linejoin="round" stroke-miterlimit="10" stroke-width="0.75"/>
            </g>
          </g>
        </g>
        <g id="Grupo_1091544" data-name="Grupo 1091544" transform="translate(0 69.427)">
          <g id="Grupo_1091542" data-name="Grupo 1091542">
            <text id="NAME_SURNAME" data-name="NAME SURNAME" transform="translate(0 6)" fill="#fdc307" font-size="6" font-family="OpenSans-Bold, Open Sans" font-weight="700"><tspan x="0" y="0">NAME SURNAME</tspan></text>
          </g>
          <g id="Grupo_1091543" data-name="Grupo 1091543" transform="translate(17.044 11.891)">
            <text id="JOB_POSITION" data-name="JOB POSITION" transform="translate(0 2)" fill="#110537" font-size="2" font-family="OpenSans, Open Sans"><tspan x="0" y="0">JOB POSITION</tspan></text>
          </g>
        </g>
        <path id="Trazado_838670" data-name="Trazado 838670" d="M376.955,119.5H370.4l3.277,3.99Z" transform="translate(-337.99 -53.81)" fill="#fdc307"/>
      </g>
      <g id="Grupo_1091548" data-name="Grupo 1091548" transform="translate(99.158 90.199)">
        <g id="Grupo_1091547" data-name="Grupo 1091547">
          <path id="Trazado_838671" data-name="Trazado 838671" d="M184.2,181.779V168.1H456.08v13.68" transform="translate(-182.348 -157.983)" fill="none" stroke="#110537" stroke-linecap="round" stroke-linejoin="round" stroke-miterlimit="10" stroke-width="0.75" stroke-dasharray="2.381"/>
          <line id="Línea_3999" data-name="Línea 3999" y2="23.797" transform="translate(137.792)" fill="none" stroke="#110537" stroke-linecap="round" stroke-linejoin="round" stroke-miterlimit="10" stroke-width="0.75" stroke-dasharray="2.381"/>
          <g id="Grupo_1091546" data-name="Grupo 1091546" transform="translate(0 8.265)">
            <circle id="Elipse_6797" data-name="Elipse 6797" cx="1.852" cy="1.852" r="1.852" fill="#fff" stroke="#110537" stroke-linecap="round" stroke-linejoin="round" stroke-miterlimit="10" stroke-width="0.75"/>
            <circle id="Elipse_6798" data-name="Elipse 6798" cx="1.852" cy="1.852" r="1.852" transform="translate(135.94)" fill="#fff" stroke="#110537" stroke-linecap="round" stroke-linejoin="round" stroke-miterlimit="10" stroke-width="0.75"/>
            <circle id="Elipse_6799" data-name="Elipse 6799" cx="1.852" cy="1.852" r="1.852" transform="translate(271.88)" fill="#fff" stroke="#110537" stroke-linecap="round" stroke-linejoin="round" stroke-miterlimit="10" stroke-width="0.75"/>
          </g>
        </g>
      </g>
      <g id="Grupo_1091558" data-name="Grupo 1091558" transform="translate(64.062 106.515)">
        <g id="Grupo_1091554" data-name="Grupo 1091554" transform="translate(0 0)">
          <circle id="Elipse_6800" data-name="Elipse 6800" cx="26.789" cy="26.789" r="26.789" transform="translate(0 37.885) rotate(-45)" fill="none" stroke="#110537" stroke-linecap="round" stroke-linejoin="round" stroke-miterlimit="10" stroke-width="0.75"/>
          <g id="Grupo_1091550" data-name="Grupo 1091550" transform="translate(6.098 37.903)">
            <g id="Grupo_1091549" data-name="Grupo 1091549">
              <path id="Trazado_838672" data-name="Trazado 838672" d="M230.1,230v.855" transform="translate(-166.547 -230)" fill="none" stroke="#110537" stroke-linecap="round" stroke-linejoin="round" stroke-width="0.75"/>
              <path id="Trazado_838673" data-name="Trazado 838673" d="M204.339,233.255A31.742,31.742,0,0,1,141,232.4" transform="translate(-140.929 -230.69)" fill="none" stroke="#110537" stroke-linecap="round" stroke-linejoin="round" stroke-width="0.75" stroke-dasharray="2.415 2.415"/>
              <path id="Trazado_838674" data-name="Trazado 838674" d="M140.9,230.855V230" transform="translate(-140.9 -230)" fill="none" stroke="#110537" stroke-linecap="round" stroke-linejoin="round" stroke-width="0.75"/>
            </g>
          </g>
          <path id="Trazado_838675" data-name="Trazado 838675" d="M140.9,217.176a31.776,31.776,0,1,1,63.553,0" transform="translate(-134.802 -179.273)" fill="none" stroke="#108bbf" stroke-linejoin="round" stroke-miterlimit="10" stroke-width="4.762"/>
          <g id="Grupo_1091553" data-name="Grupo 1091553" transform="translate(24.551 20.02)">
            <g id="Grupo_1091552" data-name="Grupo 1091552">
              <path id="Trazado_838676" data-name="Trazado 838676" d="M193.446,237.941V248.2H166.8v-10.26a6.355,6.355,0,0,1,6.341-6.341h4.845l2.707,3.491L183.4,231.6h3.7A6.355,6.355,0,0,1,193.446,237.941Z" transform="translate(-166.8 -212.577)" fill="none" stroke="#110537" stroke-linecap="round" stroke-linejoin="round" stroke-miterlimit="10" stroke-width="0.75"/>
              <g id="Grupo_1091551" data-name="Grupo 1091551" transform="translate(5.771 27.359)">
                <line id="Línea_4000" data-name="Línea 4000" y1="8.265" fill="none" stroke="#110537" stroke-linecap="round" stroke-linejoin="round" stroke-miterlimit="10" stroke-width="0.75"/>
                <line id="Línea_4001" data-name="Línea 4001" y1="8.265" transform="translate(15.104)" fill="none" stroke="#110537" stroke-linecap="round" stroke-linejoin="round" stroke-miterlimit="10" stroke-width="0.75"/>
              </g>
              <path id="Trazado_838677" data-name="Trazado 838677" d="M189.508,211.811V215.3a6.783,6.783,0,0,1-3.562,5.985,7.1,7.1,0,0,1-3.206.784,6.716,6.716,0,0,1-2.137-.356,6.918,6.918,0,0,1-4.7-6.484V211.74a6.842,6.842,0,0,1,6.84-6.84,7.094,7.094,0,0,1,4.845,1.995A7.338,7.338,0,0,1,189.508,211.811Z" transform="translate(-169.416 -204.9)" fill="none" stroke="#110537" stroke-linecap="round" stroke-linejoin="round" stroke-miterlimit="10" stroke-width="0.75"/>
              <path id="Trazado_838678" data-name="Trazado 838678" d="M189.508,215.691l-3.135-3.491c-3.491,2.28-7.41,0-7.41,0l-3.064,3.491" transform="translate(-169.416 -206.999)" fill="none" stroke="#110537" stroke-linecap="round" stroke-linejoin="round" stroke-miterlimit="10" stroke-width="0.75"/>
              <path id="Trazado_838679" data-name="Trazado 838679" d="M187.815,227.9v2.636l-2.707,3.491-2.707-3.491V228.4a6.716,6.716,0,0,0,2.137.356A6.245,6.245,0,0,0,187.815,227.9Z" transform="translate(-171.285 -211.513)" fill="none" stroke="#110537" stroke-linecap="round" stroke-linejoin="round" stroke-miterlimit="10" stroke-width="0.75"/>
            </g>
          </g>
        </g>
        <g id="Grupo_1091557" data-name="Grupo 1091557" transform="translate(2.173 75.545)">
          <g id="Grupo_1091555" data-name="Grupo 1091555">
            <path id="Trazado_839210" data-name="Trazado 839210" d="M4.339,0H3.185L1.321-3.24H1.295q.012.2.021.407l.018.409.018.409V0H.539V-4.283H1.685l1.86,3.208h.021q-.006-.2-.015-.4t-.016-.393q-.007-.2-.013-.393V-4.283h.817Zm3.7,0L7.729-1.02H6.167L5.856,0H4.878L6.39-4.3H7.5L9.018,0ZM7.512-1.781l-.311-1q-.029-.1-.078-.256t-.1-.319q-.048-.163-.078-.283-.029.12-.081.3T6.771-3L6.7-2.777l-.308,1ZM11.37,0,10.339-3.36h-.026q.006.12.019.362t.025.514q.012.272.012.492V0H9.557V-4.283h1.236l1.014,3.275h.018L12.9-4.283h1.236V0h-.847V-2.027q0-.2.007-.466t.019-.5l.018-.359h-.026L12.2,0Zm6.311,0H15.214V-4.283h2.467v.744H16.122v.94h1.45v.744h-1.45v1.1h1.559Zm4.98-1.189a1.179,1.179,0,0,1-.185.662,1.182,1.182,0,0,1-.538.434,2.159,2.159,0,0,1-.857.152,3.181,3.181,0,0,1-.435-.029,2.81,2.81,0,0,1-.407-.086A2.4,2.4,0,0,1,19.869-.2v-.844q.3.135.633.243a2.064,2.064,0,0,0,.65.108.921.921,0,0,0,.359-.059.409.409,0,0,0,.2-.161.447.447,0,0,0,.062-.234.386.386,0,0,0-.108-.275,1.139,1.139,0,0,0-.3-.214q-.189-.1-.426-.214-.149-.07-.325-.171a1.846,1.846,0,0,1-.334-.248,1.175,1.175,0,0,1-.259-.356,1.147,1.147,0,0,1-.1-.5,1.185,1.185,0,0,1,.176-.656,1.121,1.121,0,0,1,.5-.417,1.891,1.891,0,0,1,.772-.145,2.56,2.56,0,0,1,.637.078,4.068,4.068,0,0,1,.634.224l-.293.706a5.111,5.111,0,0,0-.53-.186,1.756,1.756,0,0,0-.478-.066.7.7,0,0,0-.29.054.4.4,0,0,0-.182.152.418.418,0,0,0-.062.227A.38.38,0,0,0,20.9-2.9a.937.937,0,0,0,.27.2q.18.1.45.226a3.551,3.551,0,0,1,.561.324,1.217,1.217,0,0,1,.359.4A1.15,1.15,0,0,1,22.661-1.189Zm4.263-3.094v2.771a1.635,1.635,0,0,1-.195.8,1.388,1.388,0,0,1-.589.564,2.111,2.111,0,0,1-.992.208,1.783,1.783,0,0,1-1.295-.434,1.53,1.53,0,0,1-.445-1.148v-2.76h.905v2.622a1.027,1.027,0,0,0,.217.744.878.878,0,0,0,.642.214,1,1,0,0,0,.485-.1.614.614,0,0,0,.274-.316,1.446,1.446,0,0,0,.088-.545V-4.283Zm2.3,0a2.8,2.8,0,0,1,.962.141,1.1,1.1,0,0,1,.564.425A1.293,1.293,0,0,1,30.932-3a1.12,1.12,0,0,1-.111.513,1.169,1.169,0,0,1-.293.372,1.731,1.731,0,0,1-.393.249L31.395,0H30.387L29.364-1.644h-.483V0h-.908V-4.283Zm-.064.744h-.275v1.157h.293a1.071,1.071,0,0,0,.646-.151.527.527,0,0,0,.195-.444.469.469,0,0,0-.209-.434A1.271,1.271,0,0,0,29.156-3.539ZM35.733,0H34.579L32.716-3.24h-.026q.012.2.021.407l.018.409.018.409V0h-.812V-4.283h1.146l1.86,3.208h.021q-.006-.2-.015-.4t-.016-.393q-.007-.2-.013-.393V-4.283h.817Zm3.7,0-.311-1.02H37.562L37.251,0h-.979l1.512-4.3h1.11L40.412,0Zm-.527-1.781-.311-1q-.029-.1-.078-.256t-.1-.319q-.048-.163-.078-.283-.029.12-.081.3t-.1.335l-.067.226-.308,1ZM42.765,0,41.733-3.36h-.026q.006.12.019.362t.025.514q.012.272.012.492V0h-.812V-4.283h1.236L43.2-1.008h.018l1.075-3.275H45.53V0h-.847V-2.027q0-.2.007-.466T44.71-3l.018-.359H44.7L43.6,0Zm6.311,0H46.608V-4.283h2.467v.744H47.517v.94h1.45v.744h-1.45v1.1h1.559Z" transform="translate(0 6)" fill="#108bbf"/>
          </g>
          <g id="Grupo_1091556" data-name="Grupo 1091556" transform="translate(17.044 11.89)">
            <text id="JOB_POSITION-2" data-name="JOB POSITION" transform="translate(0 2)" fill="#110537" font-size="2" font-family="OpenSans, Open Sans"><tspan x="0" y="0">JOB POSITION</tspan></text>
          </g>
        </g>
        <path id="Trazado_838680" data-name="Trazado 838680" d="M187.455,277.6H180.9l3.277,3.99Z" transform="translate(-146.303 -205.783)" fill="#108bbf"/>
      </g>
      <g id="Grupo_1091568" data-name="Grupo 1091568" transform="translate(336.291 112.091)">
        <g id="Grupo_1091564" data-name="Grupo 1091564" transform="translate(3.41 0)">
          <circle id="Elipse_6801" data-name="Elipse 6801" cx="26.789" cy="26.789" r="26.789" transform="matrix(0.234, -0.972, 0.972, 0.234, 0, 52.099)" fill="none" stroke="#110537" stroke-linecap="round" stroke-linejoin="round" stroke-miterlimit="10" stroke-width="0.75"/>
          <g id="Grupo_1091560" data-name="Grupo 1091560" transform="translate(0.559 32.327)">
            <g id="Grupo_1091559" data-name="Grupo 1091559">
              <path id="Trazado_838681" data-name="Trazado 838681" d="M609.1,230v.855" transform="translate(-545.619 -230)" fill="none" stroke="#110537" stroke-linecap="round" stroke-linejoin="round" stroke-width="0.75"/>
              <path id="Trazado_838682" data-name="Trazado 838682" d="M583.439,233.255A31.742,31.742,0,0,1,520.1,232.4" transform="translate(-520.029 -230.69)" fill="none" stroke="#110537" stroke-linecap="round" stroke-linejoin="round" stroke-width="0.75" stroke-dasharray="2.415 2.415"/>
              <path id="Trazado_838683" data-name="Trazado 838683" d="M520,230.855V230" transform="translate(-520 -230)" fill="none" stroke="#110537" stroke-linecap="round" stroke-linejoin="round" stroke-width="0.75"/>
            </g>
          </g>
          <path id="Trazado_838684" data-name="Trazado 838684" d="M519.9,217.176a31.776,31.776,0,1,1,63.553,0" transform="translate(-519.413 -184.849)" fill="none" stroke="#108bbf" stroke-linejoin="round" stroke-miterlimit="10" stroke-width="4.762"/>
          <g id="Grupo_1091563" data-name="Grupo 1091563" transform="translate(18.94 14.444)">
            <g id="Grupo_1091562" data-name="Grupo 1091562">
              <path id="Trazado_838685" data-name="Trazado 838685" d="M572.446,237.941V248.2H545.8v-10.26a6.355,6.355,0,0,1,6.341-6.341h4.845l2.707,3.491L562.4,231.6h3.7A6.355,6.355,0,0,1,572.446,237.941Z" transform="translate(-545.8 -212.577)" fill="none" stroke="#110537" stroke-linecap="round" stroke-linejoin="round" stroke-miterlimit="10" stroke-width="0.75"/>
              <g id="Grupo_1091561" data-name="Grupo 1091561" transform="translate(5.771 27.359)">
                <line id="Línea_4002" data-name="Línea 4002" y1="8.265" fill="none" stroke="#110537" stroke-linecap="round" stroke-linejoin="round" stroke-miterlimit="10" stroke-width="0.75"/>
                <line id="Línea_4003" data-name="Línea 4003" y1="8.265" transform="translate(15.104)" fill="none" stroke="#110537" stroke-linecap="round" stroke-linejoin="round" stroke-miterlimit="10" stroke-width="0.75"/>
              </g>
              <path id="Trazado_838686" data-name="Trazado 838686" d="M568.608,211.811V215.3a6.783,6.783,0,0,1-3.562,5.985,7.1,7.1,0,0,1-3.206.784,6.716,6.716,0,0,1-2.137-.356,6.918,6.918,0,0,1-4.7-6.484V211.74a6.841,6.841,0,0,1,6.84-6.84,7.1,7.1,0,0,1,4.845,1.995A7.7,7.7,0,0,1,568.608,211.811Z" transform="translate(-548.445 -204.9)" fill="none" stroke="#110537" stroke-linecap="round" stroke-linejoin="round" stroke-miterlimit="10" stroke-width="0.75"/>
              <path id="Trazado_838687" data-name="Trazado 838687" d="M568.608,215.691l-3.135-3.491c-3.491,2.28-7.41,0-7.41,0L555,215.691" transform="translate(-548.445 -206.999)" fill="none" stroke="#110537" stroke-linecap="round" stroke-linejoin="round" stroke-miterlimit="10" stroke-width="0.75"/>
              <path id="Trazado_838688" data-name="Trazado 838688" d="M566.915,227.9v2.636l-2.707,3.491-2.707-3.491V228.4a6.715,6.715,0,0,0,2.137.356A6.427,6.427,0,0,0,566.915,227.9Z" transform="translate(-550.314 -211.513)" fill="none" stroke="#110537" stroke-linecap="round" stroke-linejoin="round" stroke-miterlimit="10" stroke-width="0.75"/>
            </g>
          </g>
        </g>
        <g id="Grupo_1091567" data-name="Grupo 1091567" transform="translate(0 69.969)">
          <g id="Grupo_1091565" data-name="Grupo 1091565" opacity="0.8">
            <path id="Trazado_839209" data-name="Trazado 839209" d="M4.339,0H3.185L1.321-3.24H1.295q.012.2.021.407l.018.409.018.409V0H.539V-4.283H1.685l1.86,3.208h.021q-.006-.2-.015-.4t-.016-.393q-.007-.2-.013-.393V-4.283h.817Zm3.7,0L7.729-1.02H6.167L5.856,0H4.878L6.39-4.3H7.5L9.018,0ZM7.512-1.781l-.311-1q-.029-.1-.078-.256t-.1-.319q-.048-.163-.078-.283-.029.12-.081.3T6.771-3L6.7-2.777l-.308,1ZM11.37,0,10.339-3.36h-.026q.006.12.019.362t.025.514q.012.272.012.492V0H9.557V-4.283h1.236l1.014,3.275h.018L12.9-4.283h1.236V0h-.847V-2.027q0-.2.007-.466t.019-.5l.018-.359h-.026L12.2,0Zm6.311,0H15.214V-4.283h2.467v.744H16.122v.94h1.45v.744h-1.45v1.1h1.559Zm4.98-1.189a1.179,1.179,0,0,1-.185.662,1.182,1.182,0,0,1-.538.434,2.159,2.159,0,0,1-.857.152,3.181,3.181,0,0,1-.435-.029,2.81,2.81,0,0,1-.407-.086A2.4,2.4,0,0,1,19.869-.2v-.844q.3.135.633.243a2.064,2.064,0,0,0,.65.108.921.921,0,0,0,.359-.059.409.409,0,0,0,.2-.161.447.447,0,0,0,.062-.234.386.386,0,0,0-.108-.275,1.139,1.139,0,0,0-.3-.214q-.189-.1-.426-.214-.149-.07-.325-.171a1.846,1.846,0,0,1-.334-.248,1.175,1.175,0,0,1-.259-.356,1.147,1.147,0,0,1-.1-.5,1.185,1.185,0,0,1,.176-.656,1.121,1.121,0,0,1,.5-.417,1.891,1.891,0,0,1,.772-.145,2.56,2.56,0,0,1,.637.078,4.068,4.068,0,0,1,.634.224l-.293.706a5.111,5.111,0,0,0-.53-.186,1.756,1.756,0,0,0-.478-.066.7.7,0,0,0-.29.054.4.4,0,0,0-.182.152.418.418,0,0,0-.062.227A.38.38,0,0,0,20.9-2.9a.937.937,0,0,0,.27.2q.18.1.45.226a3.551,3.551,0,0,1,.561.324,1.217,1.217,0,0,1,.359.4A1.15,1.15,0,0,1,22.661-1.189Zm4.263-3.094v2.771a1.635,1.635,0,0,1-.195.8,1.388,1.388,0,0,1-.589.564,2.111,2.111,0,0,1-.992.208,1.783,1.783,0,0,1-1.295-.434,1.53,1.53,0,0,1-.445-1.148v-2.76h.905v2.622a1.027,1.027,0,0,0,.217.744.878.878,0,0,0,.642.214,1,1,0,0,0,.485-.1.614.614,0,0,0,.274-.316,1.446,1.446,0,0,0,.088-.545V-4.283Zm2.3,0a2.8,2.8,0,0,1,.962.141,1.1,1.1,0,0,1,.564.425A1.293,1.293,0,0,1,30.932-3a1.12,1.12,0,0,1-.111.513,1.169,1.169,0,0,1-.293.372,1.731,1.731,0,0,1-.393.249L31.395,0H30.387L29.364-1.644h-.483V0h-.908V-4.283Zm-.064.744h-.275v1.157h.293a1.071,1.071,0,0,0,.646-.151.527.527,0,0,0,.195-.444.469.469,0,0,0-.209-.434A1.271,1.271,0,0,0,29.156-3.539ZM35.733,0H34.579L32.716-3.24h-.026q.012.2.021.407l.018.409.018.409V0h-.812V-4.283h1.146l1.86,3.208h.021q-.006-.2-.015-.4t-.016-.393q-.007-.2-.013-.393V-4.283h.817Zm3.7,0-.311-1.02H37.562L37.251,0h-.979l1.512-4.3h1.11L40.412,0Zm-.527-1.781-.311-1q-.029-.1-.078-.256t-.1-.319q-.048-.163-.078-.283-.029.12-.081.3t-.1.335l-.067.226-.308,1ZM42.765,0,41.733-3.36h-.026q.006.12.019.362t.025.514q.012.272.012.492V0h-.812V-4.283h1.236L43.2-1.008h.018l1.075-3.275H45.53V0h-.847V-2.027q0-.2.007-.466T44.71-3l.018-.359H44.7L43.6,0Zm6.311,0H46.608V-4.283h2.467v.744H47.517v.94h1.45v.744h-1.45v1.1h1.559Z" transform="translate(0 6)" fill="#108bbf"/>
          </g>
          <g id="Grupo_1091566" data-name="Grupo 1091566" transform="translate(17.045 11.89)">
            <text id="JOB_POSITION-3" data-name="JOB POSITION" transform="translate(0 2)" fill="#110537" font-size="2" font-family="OpenSans, Open Sans"><tspan x="0" y="0">JOB POSITION</tspan></text>
          </g>
        </g>
        <path id="Trazado_838689" data-name="Trazado 838689" d="M566.455,277.6H559.9l3.277,3.99Z" transform="translate(-527.504 -211.359)" fill="#108bbf"/>
      </g>
      <g id="Grupo_1091578" data-name="Grupo 1091578" transform="translate(199.079 106.527)">
        <g id="Grupo_1091574" data-name="Grupo 1091574" transform="translate(0 0)">
          <circle id="Elipse_6802" data-name="Elipse 6802" cx="26.789" cy="26.789" r="26.789" transform="translate(0 37.885) rotate(-45)" fill="none" stroke="#110537" stroke-linecap="round" stroke-linejoin="round" stroke-miterlimit="10" stroke-width="0.75"/>
          <g id="Grupo_1091570" data-name="Grupo 1091570" transform="translate(6.095 37.892)">
            <g id="Grupo_1091569" data-name="Grupo 1091569">
              <path id="Trazado_838690" data-name="Trazado 838690" d="M419.6,230v.855" transform="translate(-356.047 -230)" fill="none" stroke="#110537" stroke-linecap="round" stroke-linejoin="round" stroke-width="0.75"/>
              <path id="Trazado_838691" data-name="Trazado 838691" d="M393.839,233.255A31.742,31.742,0,0,1,330.5,232.4" transform="translate(-330.429 -230.69)" fill="none" stroke="#110537" stroke-linecap="round" stroke-linejoin="round" stroke-width="0.75" stroke-dasharray="2.415 2.415"/>
              <path id="Trazado_838692" data-name="Trazado 838692" d="M330.4,230.855V230" transform="translate(-330.4 -230)" fill="none" stroke="#110537" stroke-linecap="round" stroke-linejoin="round" stroke-width="0.75"/>
            </g>
          </g>
          <path id="Trazado_838693" data-name="Trazado 838693" d="M330.4,217.176a31.776,31.776,0,0,1,63.553,0" transform="translate(-324.305 -179.285)" fill="none" stroke="#108bbf" stroke-linejoin="round" stroke-miterlimit="10" stroke-width="4.762"/>
          <g id="Grupo_1091573" data-name="Grupo 1091573" transform="translate(24.548 19.225)">
            <g id="Grupo_1091572" data-name="Grupo 1091572">
              <path id="Trazado_838694" data-name="Trazado 838694" d="M382.946,237.941V248.2H356.3v-10.26a6.348,6.348,0,0,1,4.7-6.127,6.074,6.074,0,0,1,1.639-.214h4.845l2.707,3.491L372.9,231.6h3.7a6.075,6.075,0,0,1,1.639.214A6.348,6.348,0,0,1,382.946,237.941Z" transform="translate(-356.3 -211.793)" fill="none" stroke="#110537" stroke-linecap="round" stroke-linejoin="round" stroke-miterlimit="10" stroke-width="0.75"/>
              <g id="Grupo_1091571" data-name="Grupo 1091571" transform="translate(5.771 28.143)">
                <line id="Línea_4004" data-name="Línea 4004" y1="8.265" fill="none" stroke="#110537" stroke-linecap="round" stroke-linejoin="round" stroke-miterlimit="10" stroke-width="0.75"/>
                <line id="Línea_4005" data-name="Línea 4005" y1="8.265" transform="translate(15.104)" fill="none" stroke="#110537" stroke-linecap="round" stroke-linejoin="round" stroke-miterlimit="10" stroke-width="0.75"/>
              </g>
              <path id="Trazado_838695" data-name="Trazado 838695" d="M379.108,214.546v2.28a6.783,6.783,0,0,1-3.562,5.985,6.933,6.933,0,0,1-3.206.855,7.073,7.073,0,0,1-2.137-.356,6.918,6.918,0,0,1-4.7-6.484v-2.351c2.066-.427,4.987-4.275,4.987-4.275S374.05,214.546,379.108,214.546Z" transform="translate(-358.945 -205.64)" fill="none" stroke="#110537" stroke-linecap="round" stroke-linejoin="round" stroke-miterlimit="10" stroke-width="0.75"/>
              <path id="Trazado_838696" data-name="Trazado 838696" d="M377.315,227.9v2.636l-2.707,3.491-2.707-3.491V228.4a7.074,7.074,0,0,0,2.137.356A6.245,6.245,0,0,0,377.315,227.9Z" transform="translate(-360.785 -210.729)" fill="none" stroke="#110537" stroke-linecap="round" stroke-linejoin="round" stroke-miterlimit="10" stroke-width="0.75"/>
              <path id="Trazado_838697" data-name="Trazado 838697" d="M365.285,216.2c-.071,0-.214.071-.285.071" transform="translate(-358.801 -207.365)" fill="none" stroke="#110537" stroke-linecap="round" stroke-linejoin="round" stroke-miterlimit="10" stroke-width="0.75"/>
              <path id="Trazado_838698" data-name="Trazado 838698" d="M385.027,216.3H384.6" transform="translate(-364.437 -207.394)" fill="none" stroke="#110537" stroke-linecap="round" stroke-linejoin="round" stroke-miterlimit="10" stroke-width="0.75"/>
              <path id="Trazado_838699" data-name="Trazado 838699" d="M380.171,212.35v11.471a6.073,6.073,0,0,0-1.639-.214h-3.7v-2.636a6.783,6.783,0,0,0,3.562-5.985v-2.28c-5.059,0-8.621-4.275-8.621-4.275s-2.921,3.776-4.987,4.275v2.351a6.918,6.918,0,0,0,4.7,6.484v2.137h-4.845a6.072,6.072,0,0,0-1.639.214V212.421a8.605,8.605,0,0,1,8.621-8.621,8.514,8.514,0,0,1,8.55,8.55Z" transform="translate(-358.226 -203.8)" fill="none" stroke="#110537" stroke-linecap="round" stroke-linejoin="round" stroke-miterlimit="10" stroke-width="0.75"/>
              <line id="Línea_4006" data-name="Línea 4006" transform="translate(4.702 20.02)" fill="none" stroke="#110537" stroke-linecap="round" stroke-linejoin="round" stroke-miterlimit="10" stroke-width="0.75"/>
            </g>
          </g>
        </g>
        <g id="Grupo_1091577" data-name="Grupo 1091577" transform="translate(2.184 75.534)">
          <g id="Grupo_1091575" data-name="Grupo 1091575">
            <path id="Trazado_839208" data-name="Trazado 839208" d="M4.339,0H3.185L1.321-3.24H1.295q.012.2.021.407l.018.409.018.409V0H.539V-4.283H1.685l1.86,3.208h.021q-.006-.2-.015-.4t-.016-.393q-.007-.2-.013-.393V-4.283h.817Zm3.7,0L7.729-1.02H6.167L5.856,0H4.878L6.39-4.3H7.5L9.018,0ZM7.512-1.781l-.311-1q-.029-.1-.078-.256t-.1-.319q-.048-.163-.078-.283-.029.12-.081.3T6.771-3L6.7-2.777l-.308,1ZM11.37,0,10.339-3.36h-.026q.006.12.019.362t.025.514q.012.272.012.492V0H9.557V-4.283h1.236l1.014,3.275h.018L12.9-4.283h1.236V0h-.847V-2.027q0-.2.007-.466t.019-.5l.018-.359h-.026L12.2,0Zm6.311,0H15.214V-4.283h2.467v.744H16.122v.94h1.45v.744h-1.45v1.1h1.559Zm4.98-1.189a1.179,1.179,0,0,1-.185.662,1.182,1.182,0,0,1-.538.434,2.159,2.159,0,0,1-.857.152,3.181,3.181,0,0,1-.435-.029,2.81,2.81,0,0,1-.407-.086A2.4,2.4,0,0,1,19.869-.2v-.844q.3.135.633.243a2.064,2.064,0,0,0,.65.108.921.921,0,0,0,.359-.059.409.409,0,0,0,.2-.161.447.447,0,0,0,.062-.234.386.386,0,0,0-.108-.275,1.139,1.139,0,0,0-.3-.214q-.189-.1-.426-.214-.149-.07-.325-.171a1.846,1.846,0,0,1-.334-.248,1.175,1.175,0,0,1-.259-.356,1.147,1.147,0,0,1-.1-.5,1.185,1.185,0,0,1,.176-.656,1.121,1.121,0,0,1,.5-.417,1.891,1.891,0,0,1,.772-.145,2.56,2.56,0,0,1,.637.078,4.068,4.068,0,0,1,.634.224l-.293.706a5.111,5.111,0,0,0-.53-.186,1.756,1.756,0,0,0-.478-.066.7.7,0,0,0-.29.054.4.4,0,0,0-.182.152.418.418,0,0,0-.062.227A.38.38,0,0,0,20.9-2.9a.937.937,0,0,0,.27.2q.18.1.45.226a3.551,3.551,0,0,1,.561.324,1.217,1.217,0,0,1,.359.4A1.15,1.15,0,0,1,22.661-1.189Zm4.263-3.094v2.771a1.635,1.635,0,0,1-.195.8,1.388,1.388,0,0,1-.589.564,2.111,2.111,0,0,1-.992.208,1.783,1.783,0,0,1-1.295-.434,1.53,1.53,0,0,1-.445-1.148v-2.76h.905v2.622a1.027,1.027,0,0,0,.217.744.878.878,0,0,0,.642.214,1,1,0,0,0,.485-.1.614.614,0,0,0,.274-.316,1.446,1.446,0,0,0,.088-.545V-4.283Zm2.3,0a2.8,2.8,0,0,1,.962.141,1.1,1.1,0,0,1,.564.425A1.293,1.293,0,0,1,30.932-3a1.12,1.12,0,0,1-.111.513,1.169,1.169,0,0,1-.293.372,1.731,1.731,0,0,1-.393.249L31.395,0H30.387L29.364-1.644h-.483V0h-.908V-4.283Zm-.064.744h-.275v1.157h.293a1.071,1.071,0,0,0,.646-.151.527.527,0,0,0,.195-.444.469.469,0,0,0-.209-.434A1.271,1.271,0,0,0,29.156-3.539ZM35.733,0H34.579L32.716-3.24h-.026q.012.2.021.407l.018.409.018.409V0h-.812V-4.283h1.146l1.86,3.208h.021q-.006-.2-.015-.4t-.016-.393q-.007-.2-.013-.393V-4.283h.817Zm3.7,0-.311-1.02H37.562L37.251,0h-.979l1.512-4.3h1.11L40.412,0Zm-.527-1.781-.311-1q-.029-.1-.078-.256t-.1-.319q-.048-.163-.078-.283-.029.12-.081.3t-.1.335l-.067.226-.308,1ZM42.765,0,41.733-3.36h-.026q.006.12.019.362t.025.514q.012.272.012.492V0h-.812V-4.283h1.236L43.2-1.008h.018l1.075-3.275H45.53V0h-.847V-2.027q0-.2.007-.466T44.71-3l.018-.359H44.7L43.6,0Zm6.311,0H46.608V-4.283h2.467v.744H47.517v.94h1.45v.744h-1.45v1.1h1.559Z" transform="translate(0 6)" fill="#108bbf"/>
          </g>
          <g id="Grupo_1091576" data-name="Grupo 1091576" transform="translate(17.044 11.89)">
            <text id="JOB_POSITION-4" data-name="JOB POSITION" transform="translate(0 2)" fill="#110537" font-size="2" font-family="OpenSans, Open Sans"><tspan x="0" y="0">JOB POSITION</tspan></text>
          </g>
        </g>
        <path id="Trazado_838700" data-name="Trazado 838700" d="M376.955,277.6H370.4l3.277,3.99Z" transform="translate(-335.806 -205.795)" fill="#108bbf"/>
      </g>
      <g id="Grupo_1091585" data-name="Grupo 1091585" transform="translate(33.824 201.701)">
        <g id="Grupo_1091581" data-name="Grupo 1091581" transform="translate(1.852 1.71)">
          <g id="Grupo_1091580" data-name="Grupo 1091580">
            <g id="Grupo_1091579" data-name="Grupo 1091579">
              <path id="Trazado_838701" data-name="Trazado 838701" d="M92.5,340.651V326.9H362.6" transform="translate(-92.5 -316.854)" fill="none" stroke="#110537" stroke-linecap="round" stroke-linejoin="round" stroke-miterlimit="10" stroke-width="0.75" stroke-dasharray="2.381"/>
              <line id="Línea_4007" data-name="Línea 4007" y2="10.046" transform="translate(66.26)" fill="none" stroke="#110537" stroke-linecap="round" stroke-linejoin="round" stroke-miterlimit="10" stroke-width="0.75" stroke-dasharray="2.381"/>
            </g>
          </g>
        </g>
        <circle id="Elipse_6803" data-name="Elipse 6803" cx="1.852" cy="1.852" r="1.852" transform="translate(0 9.903)" fill="#fff" stroke="#110537" stroke-linecap="round" stroke-linejoin="round" stroke-miterlimit="10" stroke-width="0.75"/>
        <g id="Grupo_1091584" data-name="Grupo 1091584" transform="translate(271.951 1.71)">
          <g id="Grupo_1091583" data-name="Grupo 1091583">
            <g id="Grupo_1091582" data-name="Grupo 1091582">
              <path id="Trazado_838702" data-name="Trazado 838702" d="M471.6,326.9H604.049v13.751" transform="translate(-471.6 -316.854)" fill="none" stroke="#110537" stroke-linecap="round" stroke-linejoin="round" stroke-miterlimit="10" stroke-width="0.75" stroke-dasharray="2.381"/>
              <line id="Línea_4008" data-name="Línea 4008" y2="10.046" transform="translate(66.189)" fill="none" stroke="#110537" stroke-linecap="round" stroke-linejoin="round" stroke-miterlimit="10" stroke-width="0.75" stroke-dasharray="2.381"/>
            </g>
          </g>
        </g>
        <line id="Línea_4009" data-name="Línea 4009" y2="11.756" transform="translate(203.126)" fill="none" stroke="#110537" stroke-linecap="round" stroke-linejoin="round" stroke-miterlimit="10" stroke-width="0.75" stroke-dasharray="2.381"/>
        <line id="Línea_4010" data-name="Línea 4010" y2="11.685" transform="translate(136.011 11.756)" fill="none" stroke="#110537" stroke-linecap="round" stroke-linejoin="round" stroke-miterlimit="10" stroke-width="0.75" stroke-dasharray="2.381"/>
        <line id="Línea_4011" data-name="Línea 4011" y2="10.687" transform="translate(270.241 11.756)" fill="none" stroke="#110537" stroke-linecap="round" stroke-linejoin="round" stroke-miterlimit="10" stroke-width="0.75" stroke-dasharray="2.381"/>
        <circle id="Elipse_6804" data-name="Elipse 6804" cx="1.852" cy="1.852" r="1.852" transform="translate(134.159 9.903)" fill="#fff" stroke="#110537" stroke-linecap="round" stroke-linejoin="round" stroke-miterlimit="10" stroke-width="0.75"/>
        <circle id="Elipse_6805" data-name="Elipse 6805" cx="1.852" cy="1.852" r="1.852" transform="translate(268.246 9.903)" fill="#fff" stroke="#110537" stroke-linecap="round" stroke-linejoin="round" stroke-miterlimit="10" stroke-width="0.75"/>
        <circle id="Elipse_6806" data-name="Elipse 6806" cx="1.852" cy="1.852" r="1.852" transform="translate(402.548 9.903)" fill="#fff" stroke="#110537" stroke-linecap="round" stroke-linejoin="round" stroke-miterlimit="10" stroke-width="0.75"/>
      </g>
      <g id="Grupo_1091595" data-name="Grupo 1091595" transform="translate(0 226.068)">
        <g id="Grupo_1091591" data-name="Grupo 1091591" transform="translate(3.9)">
          <circle id="Elipse_6807" data-name="Elipse 6807" cx="26.789" cy="26.789" r="26.789" transform="translate(1.141 54.113) rotate(-81.06)" fill="none" stroke="#110537" stroke-linecap="round" stroke-linejoin="round" stroke-miterlimit="10" stroke-width="0.75"/>
          <g id="Grupo_1091587" data-name="Grupo 1091587" transform="translate(0.071 31.776)">
            <g id="Grupo_1091586" data-name="Grupo 1091586">
              <path id="Trazado_838703" data-name="Trazado 838703" d="M137.1,389.2v.855" transform="translate(-73.619 -389.2)" fill="none" stroke="#110537" stroke-linecap="round" stroke-linejoin="round" stroke-width="0.75"/>
              <path id="Trazado_838704" data-name="Trazado 838704" d="M111.339,392.455A31.742,31.742,0,0,1,48,391.6" transform="translate(-48 -389.89)" fill="none" stroke="#110537" stroke-linecap="round" stroke-linejoin="round" stroke-width="0.75" stroke-dasharray="2.415 2.415"/>
              <path id="Trazado_838705" data-name="Trazado 838705" d="M48,390.055V389.2" transform="translate(-48 -389.2)" fill="none" stroke="#110537" stroke-linecap="round" stroke-linejoin="round" stroke-width="0.75"/>
            </g>
          </g>
          <path id="Trazado_838706" data-name="Trazado 838706" d="M47.9,376.376a31.776,31.776,0,1,1,63.553,0" transform="translate(-47.9 -344.6)" fill="none" stroke="#fc0263" stroke-linejoin="round" stroke-miterlimit="10" stroke-width="4.762"/>
          <g id="Grupo_1091590" data-name="Grupo 1091590" transform="translate(18.453 13.038)">
            <g id="Grupo_1091589" data-name="Grupo 1091589">
              <path id="Trazado_838707" data-name="Trazado 838707" d="M100.447,397.241V407.5H73.8v-10.26a6.348,6.348,0,0,1,4.7-6.127,6.072,6.072,0,0,1,1.639-.214h4.845l2.707,3.491L90.4,390.9h3.7a6.072,6.072,0,0,1,1.639.214A6.348,6.348,0,0,1,100.447,397.241Z" transform="translate(-73.8 -370.951)" fill="none" stroke="#110537" stroke-linecap="round" stroke-linejoin="round" stroke-miterlimit="10" stroke-width="0.75"/>
              <g id="Grupo_1091588" data-name="Grupo 1091588" transform="translate(5.771 28.285)">
                <line id="Línea_4012" data-name="Línea 4012" y1="8.265" fill="none" stroke="#110537" stroke-linecap="round" stroke-linejoin="round" stroke-miterlimit="10" stroke-width="0.75"/>
                <line id="Línea_4013" data-name="Línea 4013" y1="8.265" transform="translate(15.104)" fill="none" stroke="#110537" stroke-linecap="round" stroke-linejoin="round" stroke-miterlimit="10" stroke-width="0.75"/>
              </g>
              <path id="Trazado_838708" data-name="Trazado 838708" d="M96.608,373.846v2.28a6.783,6.783,0,0,1-3.562,5.985,6.934,6.934,0,0,1-3.206.855,7.074,7.074,0,0,1-2.137-.356,6.918,6.918,0,0,1-4.7-6.484v-2.351c2.066-.428,4.987-4.275,4.987-4.275S91.55,373.846,96.608,373.846Z" transform="translate(-76.445 -364.798)" fill="none" stroke="#110537" stroke-linecap="round" stroke-linejoin="round" stroke-miterlimit="10" stroke-width="0.75"/>
              <path id="Trazado_838709" data-name="Trazado 838709" d="M94.815,387.2v2.636l-2.707,3.491L89.4,389.836V387.7a7.075,7.075,0,0,0,2.137.356A6.773,6.773,0,0,0,94.815,387.2Z" transform="translate(-78.285 -369.887)" fill="none" stroke="#110537" stroke-linecap="round" stroke-linejoin="round" stroke-miterlimit="10" stroke-width="0.75"/>
              <path id="Trazado_838710" data-name="Trazado 838710" d="M82.785,375.5c-.071,0-.214.071-.285.071" transform="translate(-76.301 -366.523)" fill="none" stroke="#110537" stroke-linecap="round" stroke-linejoin="round" stroke-miterlimit="10" stroke-width="0.75"/>
              <path id="Trazado_838711" data-name="Trazado 838711" d="M102.527,375.5H102.1" transform="translate(-81.937 -366.523)" fill="none" stroke="#110537" stroke-linecap="round" stroke-linejoin="round" stroke-miterlimit="10" stroke-width="0.75"/>
              <path id="Trazado_838712" data-name="Trazado 838712" d="M97.642,371.521v11.471A6.073,6.073,0,0,0,96,382.778H92.227v-2.636a6.782,6.782,0,0,0,3.562-5.985v-2.28c-5.059,0-8.621-4.275-8.621-4.275s-2.921,3.776-4.987,4.275v2.351a6.918,6.918,0,0,0,4.7,6.484v2.137H82.039a6.075,6.075,0,0,0-1.639.214V371.521a8.605,8.605,0,0,1,8.621-8.621,8.507,8.507,0,0,1,6.056,2.494A8.868,8.868,0,0,1,97.642,371.521Z" transform="translate(-75.698 -362.9)" fill="none" stroke="#110537" stroke-linecap="round" stroke-linejoin="round" stroke-miterlimit="10" stroke-width="0.75"/>
              <line id="Línea_4014" data-name="Línea 4014" transform="translate(4.702 20.163)" fill="none" stroke="#110537" stroke-linecap="round" stroke-linejoin="round" stroke-miterlimit="10" stroke-width="0.75"/>
            </g>
          </g>
        </g>
        <g id="Grupo_1091594" data-name="Grupo 1091594" transform="translate(0 69.473)">
          <g id="Grupo_1091592" data-name="Grupo 1091592">
            <path id="Trazado_839211" data-name="Trazado 839211" d="M4.339,0H3.185L1.321-3.24H1.295q.012.2.021.407l.018.409.018.409V0H.539V-4.283H1.685l1.86,3.208h.021q-.006-.2-.015-.4t-.016-.393q-.007-.2-.013-.393V-4.283h.817Zm3.7,0L7.729-1.02H6.167L5.856,0H4.878L6.39-4.3H7.5L9.018,0ZM7.512-1.781l-.311-1q-.029-.1-.078-.256t-.1-.319q-.048-.163-.078-.283-.029.12-.081.3T6.771-3L6.7-2.777l-.308,1ZM11.37,0,10.339-3.36h-.026q.006.12.019.362t.025.514q.012.272.012.492V0H9.557V-4.283h1.236l1.014,3.275h.018L12.9-4.283h1.236V0h-.847V-2.027q0-.2.007-.466t.019-.5l.018-.359h-.026L12.2,0Zm6.311,0H15.214V-4.283h2.467v.744H16.122v.94h1.45v.744h-1.45v1.1h1.559Zm4.98-1.189a1.179,1.179,0,0,1-.185.662,1.182,1.182,0,0,1-.538.434,2.159,2.159,0,0,1-.857.152,3.181,3.181,0,0,1-.435-.029,2.81,2.81,0,0,1-.407-.086A2.4,2.4,0,0,1,19.869-.2v-.844q.3.135.633.243a2.064,2.064,0,0,0,.65.108.921.921,0,0,0,.359-.059.409.409,0,0,0,.2-.161.447.447,0,0,0,.062-.234.386.386,0,0,0-.108-.275,1.139,1.139,0,0,0-.3-.214q-.189-.1-.426-.214-.149-.07-.325-.171a1.846,1.846,0,0,1-.334-.248,1.175,1.175,0,0,1-.259-.356,1.147,1.147,0,0,1-.1-.5,1.185,1.185,0,0,1,.176-.656,1.121,1.121,0,0,1,.5-.417,1.891,1.891,0,0,1,.772-.145,2.56,2.56,0,0,1,.637.078,4.068,4.068,0,0,1,.634.224l-.293.706a5.111,5.111,0,0,0-.53-.186,1.756,1.756,0,0,0-.478-.066.7.7,0,0,0-.29.054.4.4,0,0,0-.182.152.418.418,0,0,0-.062.227A.38.38,0,0,0,20.9-2.9a.937.937,0,0,0,.27.2q.18.1.45.226a3.551,3.551,0,0,1,.561.324,1.217,1.217,0,0,1,.359.4A1.15,1.15,0,0,1,22.661-1.189Zm4.263-3.094v2.771a1.635,1.635,0,0,1-.195.8,1.388,1.388,0,0,1-.589.564,2.111,2.111,0,0,1-.992.208,1.783,1.783,0,0,1-1.295-.434,1.53,1.53,0,0,1-.445-1.148v-2.76h.905v2.622a1.027,1.027,0,0,0,.217.744.878.878,0,0,0,.642.214,1,1,0,0,0,.485-.1.614.614,0,0,0,.274-.316,1.446,1.446,0,0,0,.088-.545V-4.283Zm2.3,0a2.8,2.8,0,0,1,.962.141,1.1,1.1,0,0,1,.564.425A1.293,1.293,0,0,1,30.932-3a1.12,1.12,0,0,1-.111.513,1.169,1.169,0,0,1-.293.372,1.731,1.731,0,0,1-.393.249L31.395,0H30.387L29.364-1.644h-.483V0h-.908V-4.283Zm-.064.744h-.275v1.157h.293a1.071,1.071,0,0,0,.646-.151.527.527,0,0,0,.195-.444.469.469,0,0,0-.209-.434A1.271,1.271,0,0,0,29.156-3.539ZM35.733,0H34.579L32.716-3.24h-.026q.012.2.021.407l.018.409.018.409V0h-.812V-4.283h1.146l1.86,3.208h.021q-.006-.2-.015-.4t-.016-.393q-.007-.2-.013-.393V-4.283h.817Zm3.7,0-.311-1.02H37.562L37.251,0h-.979l1.512-4.3h1.11L40.412,0Zm-.527-1.781-.311-1q-.029-.1-.078-.256t-.1-.319q-.048-.163-.078-.283-.029.12-.081.3t-.1.335l-.067.226-.308,1ZM42.765,0,41.733-3.36h-.026q.006.12.019.362t.025.514q.012.272.012.492V0h-.812V-4.283h1.236L43.2-1.008h.018l1.075-3.275H45.53V0h-.847V-2.027q0-.2.007-.466T44.71-3l.018-.359H44.7L43.6,0Zm6.311,0H46.608V-4.283h2.467v.744H47.517v.94h1.45v.744h-1.45v1.1h1.559Z" transform="translate(0 6)" fill="#fc0263"/>
          </g>
          <g id="Grupo_1091593" data-name="Grupo 1091593" transform="translate(17.044 11.891)">
            <text id="JOB_POSITION-5" data-name="JOB POSITION" transform="translate(0 2)" fill="#110537" font-size="2" font-family="OpenSans, Open Sans"><tspan x="0" y="0">JOB POSITION</tspan></text>
          </g>
        </g>
        <path id="Trazado_838713" data-name="Trazado 838713" d="M94.455,436.9H87.9l3.277,3.99Z" transform="translate(-55.501 -371.139)" fill="#fc0263"/>
      </g>
      <g id="Grupo_1091605" data-name="Grupo 1091605" transform="translate(402.526 226.068)">
        <g id="Grupo_1091601" data-name="Grupo 1091601" transform="translate(3.921)">
          <circle id="Elipse_6808" data-name="Elipse 6808" cx="26.789" cy="26.789" r="26.789" transform="translate(4.987 4.987)" fill="none" stroke="#110537" stroke-linecap="round" stroke-linejoin="round" stroke-miterlimit="10" stroke-width="0.75"/>
          <g id="Grupo_1091597" data-name="Grupo 1091597" transform="translate(0 31.776)">
            <g id="Grupo_1091596" data-name="Grupo 1091596">
              <path id="Trazado_838714" data-name="Trazado 838714" d="M702.1,389.2v.855" transform="translate(-638.547 -389.2)" fill="none" stroke="#110537" stroke-linecap="round" stroke-linejoin="round" stroke-width="0.75"/>
              <path id="Trazado_838715" data-name="Trazado 838715" d="M676.339,392.455A31.742,31.742,0,0,1,613,391.6" transform="translate(-612.929 -389.89)" fill="none" stroke="#110537" stroke-linecap="round" stroke-linejoin="round" stroke-width="0.75" stroke-dasharray="2.415 2.415"/>
              <path id="Trazado_838716" data-name="Trazado 838716" d="M612.9,390.055V389.2" transform="translate(-612.9 -389.2)" fill="none" stroke="#110537" stroke-linecap="round" stroke-linejoin="round" stroke-width="0.75"/>
            </g>
          </g>
          <path id="Trazado_838717" data-name="Trazado 838717" d="M612.9,376.376a31.776,31.776,0,1,1,63.553,0" transform="translate(-612.9 -344.6)" fill="none" stroke="#fc0263" stroke-linejoin="round" stroke-miterlimit="10" stroke-width="4.762"/>
          <g id="Grupo_1091600" data-name="Grupo 1091600" transform="translate(18.453 13.964)">
            <g id="Grupo_1091599" data-name="Grupo 1091599">
              <path id="Trazado_838718" data-name="Trazado 838718" d="M665.446,397.241V407.5H638.8v-10.26a6.355,6.355,0,0,1,6.341-6.341h4.845l2.707,3.491L655.4,390.9h3.7A6.355,6.355,0,0,1,665.446,397.241Z" transform="translate(-638.8 -371.877)" fill="none" stroke="#110537" stroke-linecap="round" stroke-linejoin="round" stroke-miterlimit="10" stroke-width="0.75"/>
              <g id="Grupo_1091598" data-name="Grupo 1091598" transform="translate(5.771 27.359)">
                <line id="Línea_4015" data-name="Línea 4015" y1="8.265" fill="none" stroke="#110537" stroke-linecap="round" stroke-linejoin="round" stroke-miterlimit="10" stroke-width="0.75"/>
                <line id="Línea_4016" data-name="Línea 4016" y1="8.265" transform="translate(15.104)" fill="none" stroke="#110537" stroke-linecap="round" stroke-linejoin="round" stroke-miterlimit="10" stroke-width="0.75"/>
              </g>
              <path id="Trazado_838719" data-name="Trazado 838719" d="M661.608,371.111V374.6a6.782,6.782,0,0,1-3.562,5.985,7.1,7.1,0,0,1-3.206.784,6.716,6.716,0,0,1-2.137-.356,6.918,6.918,0,0,1-4.7-6.484V371.04a6.842,6.842,0,0,1,6.84-6.84,7.094,7.094,0,0,1,4.845,1.995A7.7,7.7,0,0,1,661.608,371.111Z" transform="translate(-641.445 -364.2)" fill="none" stroke="#110537" stroke-linecap="round" stroke-linejoin="round" stroke-miterlimit="10" stroke-width="0.75"/>
              <path id="Trazado_838720" data-name="Trazado 838720" d="M661.608,374.891l-3.135-3.491c-3.491,2.28-7.41,0-7.41,0L648,374.891" transform="translate(-641.445 -366.27)" fill="none" stroke="#110537" stroke-linecap="round" stroke-linejoin="round" stroke-miterlimit="10" stroke-width="0.75"/>
              <path id="Trazado_838721" data-name="Trazado 838721" d="M659.815,387.2v2.636l-2.707,3.491-2.707-3.491V387.7a6.718,6.718,0,0,0,2.138.356A6.994,6.994,0,0,0,659.815,387.2Z" transform="translate(-643.285 -370.813)" fill="none" stroke="#110537" stroke-linecap="round" stroke-linejoin="round" stroke-miterlimit="10" stroke-width="0.75"/>
            </g>
          </g>
        </g>
        <g id="Grupo_1091604" data-name="Grupo 1091604" transform="translate(0 69.473)">
          <g id="Grupo_1091602" data-name="Grupo 1091602">
            <path id="Trazado_839214" data-name="Trazado 839214" d="M4.339,0H3.185L1.321-3.24H1.295q.012.2.021.407l.018.409.018.409V0H.539V-4.283H1.685l1.86,3.208h.021q-.006-.2-.015-.4t-.016-.393q-.007-.2-.013-.393V-4.283h.817Zm3.7,0L7.729-1.02H6.167L5.856,0H4.878L6.39-4.3H7.5L9.018,0ZM7.512-1.781l-.311-1q-.029-.1-.078-.256t-.1-.319q-.048-.163-.078-.283-.029.12-.081.3T6.771-3L6.7-2.777l-.308,1ZM11.37,0,10.339-3.36h-.026q.006.12.019.362t.025.514q.012.272.012.492V0H9.557V-4.283h1.236l1.014,3.275h.018L12.9-4.283h1.236V0h-.847V-2.027q0-.2.007-.466t.019-.5l.018-.359h-.026L12.2,0Zm6.311,0H15.214V-4.283h2.467v.744H16.122v.94h1.45v.744h-1.45v1.1h1.559Zm4.98-1.189a1.179,1.179,0,0,1-.185.662,1.182,1.182,0,0,1-.538.434,2.159,2.159,0,0,1-.857.152,3.181,3.181,0,0,1-.435-.029,2.81,2.81,0,0,1-.407-.086A2.4,2.4,0,0,1,19.869-.2v-.844q.3.135.633.243a2.064,2.064,0,0,0,.65.108.921.921,0,0,0,.359-.059.409.409,0,0,0,.2-.161.447.447,0,0,0,.062-.234.386.386,0,0,0-.108-.275,1.139,1.139,0,0,0-.3-.214q-.189-.1-.426-.214-.149-.07-.325-.171a1.846,1.846,0,0,1-.334-.248,1.175,1.175,0,0,1-.259-.356,1.147,1.147,0,0,1-.1-.5,1.185,1.185,0,0,1,.176-.656,1.121,1.121,0,0,1,.5-.417,1.891,1.891,0,0,1,.772-.145,2.56,2.56,0,0,1,.637.078,4.068,4.068,0,0,1,.634.224l-.293.706a5.111,5.111,0,0,0-.53-.186,1.756,1.756,0,0,0-.478-.066.7.7,0,0,0-.29.054.4.4,0,0,0-.182.152.418.418,0,0,0-.062.227A.38.38,0,0,0,20.9-2.9a.937.937,0,0,0,.27.2q.18.1.45.226a3.551,3.551,0,0,1,.561.324,1.217,1.217,0,0,1,.359.4A1.15,1.15,0,0,1,22.661-1.189Zm4.263-3.094v2.771a1.635,1.635,0,0,1-.195.8,1.388,1.388,0,0,1-.589.564,2.111,2.111,0,0,1-.992.208,1.783,1.783,0,0,1-1.295-.434,1.53,1.53,0,0,1-.445-1.148v-2.76h.905v2.622a1.027,1.027,0,0,0,.217.744.878.878,0,0,0,.642.214,1,1,0,0,0,.485-.1.614.614,0,0,0,.274-.316,1.446,1.446,0,0,0,.088-.545V-4.283Zm2.3,0a2.8,2.8,0,0,1,.962.141,1.1,1.1,0,0,1,.564.425A1.293,1.293,0,0,1,30.932-3a1.12,1.12,0,0,1-.111.513,1.169,1.169,0,0,1-.293.372,1.731,1.731,0,0,1-.393.249L31.395,0H30.387L29.364-1.644h-.483V0h-.908V-4.283Zm-.064.744h-.275v1.157h.293a1.071,1.071,0,0,0,.646-.151.527.527,0,0,0,.195-.444.469.469,0,0,0-.209-.434A1.271,1.271,0,0,0,29.156-3.539ZM35.733,0H34.579L32.716-3.24h-.026q.012.2.021.407l.018.409.018.409V0h-.812V-4.283h1.146l1.86,3.208h.021q-.006-.2-.015-.4t-.016-.393q-.007-.2-.013-.393V-4.283h.817Zm3.7,0-.311-1.02H37.562L37.251,0h-.979l1.512-4.3h1.11L40.412,0Zm-.527-1.781-.311-1q-.029-.1-.078-.256t-.1-.319q-.048-.163-.078-.283-.029.12-.081.3t-.1.335l-.067.226-.308,1ZM42.765,0,41.733-3.36h-.026q.006.12.019.362t.025.514q.012.272.012.492V0h-.812V-4.283h1.236L43.2-1.008h.018l1.075-3.275H45.53V0h-.847V-2.027q0-.2.007-.466T44.71-3l.018-.359H44.7L43.6,0Zm6.311,0H46.608V-4.283h2.467v.744H47.517v.94h1.45v.744h-1.45v1.1h1.559Z" transform="translate(0 6)" fill="#fc0263"/>
          </g>
          <g id="Grupo_1091603" data-name="Grupo 1091603" transform="translate(17.045 11.89)">
            <text id="JOB_POSITION-6" data-name="JOB POSITION" transform="translate(0 2)" fill="#110537" font-size="2" font-family="OpenSans, Open Sans"><tspan x="0" y="0">JOB POSITION</tspan></text>
          </g>
        </g>
        <path id="Trazado_838722" data-name="Trazado 838722" d="M659.455,436.9H652.9l3.277,3.99Z" transform="translate(-620.48 -371.139)" fill="#fc0263"/>
      </g>
      <g id="Grupo_1091615" data-name="Grupo 1091615" transform="translate(134.175 226.068)">
        <g id="Grupo_1091611" data-name="Grupo 1091611" transform="translate(3.955)">
          <circle id="Elipse_6809" data-name="Elipse 6809" cx="26.789" cy="26.789" r="26.789" transform="matrix(0.162, -0.987, 0.987, 0.162, 0.93, 53.924)" fill="none" stroke="#110537" stroke-linecap="round" stroke-linejoin="round" stroke-miterlimit="10" stroke-width="0.75"/>
          <g id="Grupo_1091607" data-name="Grupo 1091607" transform="translate(0 31.776)">
            <g id="Grupo_1091606" data-name="Grupo 1091606">
              <path id="Trazado_838723" data-name="Trazado 838723" d="M325.4,389.2v.855" transform="translate(-261.919 -389.2)" fill="none" stroke="#110537" stroke-linecap="round" stroke-linejoin="round" stroke-width="0.75"/>
              <path id="Trazado_838724" data-name="Trazado 838724" d="M299.739,392.455A31.742,31.742,0,0,1,236.4,391.6" transform="translate(-236.329 -389.89)" fill="none" stroke="#110537" stroke-linecap="round" stroke-linejoin="round" stroke-width="0.75" stroke-dasharray="2.415 2.415"/>
              <path id="Trazado_838725" data-name="Trazado 838725" d="M236.3,390.055V389.2" transform="translate(-236.3 -389.2)" fill="none" stroke="#110537" stroke-linecap="round" stroke-linejoin="round" stroke-width="0.75"/>
            </g>
          </g>
          <path id="Trazado_838726" data-name="Trazado 838726" d="M236.3,376.376a31.776,31.776,0,0,1,63.553,0" transform="translate(-236.3 -344.6)" fill="none" stroke="#fc0263" stroke-linejoin="round" stroke-miterlimit="10" stroke-width="4.762"/>
          <g id="Grupo_1091610" data-name="Grupo 1091610" transform="translate(18.382 13.964)">
            <g id="Grupo_1091609" data-name="Grupo 1091609">
              <path id="Trazado_838727" data-name="Trazado 838727" d="M288.746,397.241V407.5H262.1v-10.26a6.355,6.355,0,0,1,6.341-6.341h4.845l2.707,3.491L278.7,390.9h3.7A6.355,6.355,0,0,1,288.746,397.241Z" transform="translate(-262.1 -371.877)" fill="none" stroke="#110537" stroke-linecap="round" stroke-linejoin="round" stroke-miterlimit="10" stroke-width="0.75"/>
              <g id="Grupo_1091608" data-name="Grupo 1091608" transform="translate(5.842 27.359)">
                <line id="Línea_4017" data-name="Línea 4017" y1="8.265" fill="none" stroke="#110537" stroke-linecap="round" stroke-linejoin="round" stroke-miterlimit="10" stroke-width="0.75"/>
                <line id="Línea_4018" data-name="Línea 4018" y1="8.265" transform="translate(15.033)" fill="none" stroke="#110537" stroke-linecap="round" stroke-linejoin="round" stroke-miterlimit="10" stroke-width="0.75"/>
              </g>
              <path id="Trazado_838728" data-name="Trazado 838728" d="M284.908,371.111V374.6a6.783,6.783,0,0,1-3.562,5.985,7.1,7.1,0,0,1-3.206.784,6.716,6.716,0,0,1-2.137-.356,6.918,6.918,0,0,1-4.7-6.484V371.04a6.842,6.842,0,0,1,6.84-6.84,7.094,7.094,0,0,1,4.845,1.995A7.7,7.7,0,0,1,284.908,371.111Z" transform="translate(-264.745 -364.2)" fill="none" stroke="#110537" stroke-linecap="round" stroke-linejoin="round" stroke-miterlimit="10" stroke-width="0.75"/>
              <path id="Trazado_838729" data-name="Trazado 838729" d="M284.908,374.891l-3.135-3.491c-3.491,2.28-7.41,0-7.41,0l-3.064,3.491" transform="translate(-264.745 -366.27)" fill="none" stroke="#110537" stroke-linecap="round" stroke-linejoin="round" stroke-miterlimit="10" stroke-width="0.75"/>
              <path id="Trazado_838730" data-name="Trazado 838730" d="M283.215,387.2v2.636l-2.707,3.491-2.707-3.491V387.7a6.717,6.717,0,0,0,2.137.356A7.227,7.227,0,0,0,283.215,387.2Z" transform="translate(-266.614 -370.813)" fill="none" stroke="#110537" stroke-linecap="round" stroke-linejoin="round" stroke-miterlimit="10" stroke-width="0.75"/>
            </g>
          </g>
        </g>
        <g id="Grupo_1091614" data-name="Grupo 1091614" transform="translate(0 69.474)">
          <g id="Grupo_1091612" data-name="Grupo 1091612">
            <path id="Trazado_839212" data-name="Trazado 839212" d="M4.339,0H3.185L1.321-3.24H1.295q.012.2.021.407l.018.409.018.409V0H.539V-4.283H1.685l1.86,3.208h.021q-.006-.2-.015-.4t-.016-.393q-.007-.2-.013-.393V-4.283h.817Zm3.7,0L7.729-1.02H6.167L5.856,0H4.878L6.39-4.3H7.5L9.018,0ZM7.512-1.781l-.311-1q-.029-.1-.078-.256t-.1-.319q-.048-.163-.078-.283-.029.12-.081.3T6.771-3L6.7-2.777l-.308,1ZM11.37,0,10.339-3.36h-.026q.006.12.019.362t.025.514q.012.272.012.492V0H9.557V-4.283h1.236l1.014,3.275h.018L12.9-4.283h1.236V0h-.847V-2.027q0-.2.007-.466t.019-.5l.018-.359h-.026L12.2,0Zm6.311,0H15.214V-4.283h2.467v.744H16.122v.94h1.45v.744h-1.45v1.1h1.559Zm4.98-1.189a1.179,1.179,0,0,1-.185.662,1.182,1.182,0,0,1-.538.434,2.159,2.159,0,0,1-.857.152,3.181,3.181,0,0,1-.435-.029,2.81,2.81,0,0,1-.407-.086A2.4,2.4,0,0,1,19.869-.2v-.844q.3.135.633.243a2.064,2.064,0,0,0,.65.108.921.921,0,0,0,.359-.059.409.409,0,0,0,.2-.161.447.447,0,0,0,.062-.234.386.386,0,0,0-.108-.275,1.139,1.139,0,0,0-.3-.214q-.189-.1-.426-.214-.149-.07-.325-.171a1.846,1.846,0,0,1-.334-.248,1.175,1.175,0,0,1-.259-.356,1.147,1.147,0,0,1-.1-.5,1.185,1.185,0,0,1,.176-.656,1.121,1.121,0,0,1,.5-.417,1.891,1.891,0,0,1,.772-.145,2.56,2.56,0,0,1,.637.078,4.068,4.068,0,0,1,.634.224l-.293.706a5.111,5.111,0,0,0-.53-.186,1.756,1.756,0,0,0-.478-.066.7.7,0,0,0-.29.054.4.4,0,0,0-.182.152.418.418,0,0,0-.062.227A.38.38,0,0,0,20.9-2.9a.937.937,0,0,0,.27.2q.18.1.45.226a3.551,3.551,0,0,1,.561.324,1.217,1.217,0,0,1,.359.4A1.15,1.15,0,0,1,22.661-1.189Zm4.263-3.094v2.771a1.635,1.635,0,0,1-.195.8,1.388,1.388,0,0,1-.589.564,2.111,2.111,0,0,1-.992.208,1.783,1.783,0,0,1-1.295-.434,1.53,1.53,0,0,1-.445-1.148v-2.76h.905v2.622a1.027,1.027,0,0,0,.217.744.878.878,0,0,0,.642.214,1,1,0,0,0,.485-.1.614.614,0,0,0,.274-.316,1.446,1.446,0,0,0,.088-.545V-4.283Zm2.3,0a2.8,2.8,0,0,1,.962.141,1.1,1.1,0,0,1,.564.425A1.293,1.293,0,0,1,30.932-3a1.12,1.12,0,0,1-.111.513,1.169,1.169,0,0,1-.293.372,1.731,1.731,0,0,1-.393.249L31.395,0H30.387L29.364-1.644h-.483V0h-.908V-4.283Zm-.064.744h-.275v1.157h.293a1.071,1.071,0,0,0,.646-.151.527.527,0,0,0,.195-.444.469.469,0,0,0-.209-.434A1.271,1.271,0,0,0,29.156-3.539ZM35.733,0H34.579L32.716-3.24h-.026q.012.2.021.407l.018.409.018.409V0h-.812V-4.283h1.146l1.86,3.208h.021q-.006-.2-.015-.4t-.016-.393q-.007-.2-.013-.393V-4.283h.817Zm3.7,0-.311-1.02H37.562L37.251,0h-.979l1.512-4.3h1.11L40.412,0Zm-.527-1.781-.311-1q-.029-.1-.078-.256t-.1-.319q-.048-.163-.078-.283-.029.12-.081.3t-.1.335l-.067.226-.308,1ZM42.765,0,41.733-3.36h-.026q.006.12.019.362t.025.514q.012.272.012.492V0h-.812V-4.283h1.236L43.2-1.008h.018l1.075-3.275H45.53V0h-.847V-2.027q0-.2.007-.466T44.71-3l.018-.359H44.7L43.6,0Zm6.311,0H46.608V-4.283h2.467v.744H47.517v.94h1.45v.744h-1.45v1.1h1.559Z" transform="translate(0 6)" fill="#fc0263"/>
          </g>
          <g id="Grupo_1091613" data-name="Grupo 1091613" transform="translate(17.044 11.89)">
            <text id="JOB_POSITION-7" data-name="JOB POSITION" transform="translate(0 2)" fill="#110537" font-size="2" font-family="OpenSans, Open Sans"><tspan x="0" y="0">JOB POSITION</tspan></text>
          </g>
        </g>
        <path id="Trazado_838731" data-name="Trazado 838731" d="M282.783,436.9H276.3l3.206,3.99Z" transform="translate(-243.846 -371.139)" fill="#fc0263"/>
      </g>
      <g id="Grupo_1091625" data-name="Grupo 1091625" transform="translate(268.218 225.53)">
        <g id="Grupo_1091621" data-name="Grupo 1091621" transform="translate(3.368 0)">
          <circle id="Elipse_6810" data-name="Elipse 6810" cx="26.789" cy="26.789" r="26.789" transform="matrix(0.234, -0.972, 0.972, 0.234, 0, 52.099)" fill="none" stroke="#110537" stroke-linecap="round" stroke-linejoin="round" stroke-miterlimit="10" stroke-width="0.75"/>
          <g id="Grupo_1091617" data-name="Grupo 1091617" transform="translate(0.56 32.314)">
            <g id="Grupo_1091616" data-name="Grupo 1091616">
              <path id="Trazado_838732" data-name="Trazado 838732" d="M513.6,389.2v.855" transform="translate(-450.047 -389.2)" fill="none" stroke="#110537" stroke-linecap="round" stroke-linejoin="round" stroke-width="0.75"/>
              <path id="Trazado_838733" data-name="Trazado 838733" d="M487.839,392.455A31.742,31.742,0,0,1,424.5,391.6" transform="translate(-424.429 -389.89)" fill="none" stroke="#110537" stroke-linecap="round" stroke-linejoin="round" stroke-width="0.75" stroke-dasharray="2.415 2.415"/>
              <path id="Trazado_838734" data-name="Trazado 838734" d="M424.4,390.055V389.2" transform="translate(-424.4 -389.2)" fill="none" stroke="#110537" stroke-linecap="round" stroke-linejoin="round" stroke-width="0.75"/>
            </g>
          </g>
          <path id="Trazado_838735" data-name="Trazado 838735" d="M424.4,376.376a31.776,31.776,0,1,1,63.553,0" transform="translate(-423.84 -344.062)" fill="none" stroke="#fc0263" stroke-linejoin="round" stroke-miterlimit="10" stroke-width="4.762"/>
          <g id="Grupo_1091620" data-name="Grupo 1091620" transform="translate(19.013 13.576)">
            <g id="Grupo_1091619" data-name="Grupo 1091619">
              <path id="Trazado_838736" data-name="Trazado 838736" d="M476.946,397.241V407.5H450.3v-10.26a6.348,6.348,0,0,1,4.7-6.127,6.072,6.072,0,0,1,1.639-.214h4.845l2.707,3.491L466.9,390.9h3.7a6.073,6.073,0,0,1,1.639.214A6.348,6.348,0,0,1,476.946,397.241Z" transform="translate(-450.3 -370.951)" fill="none" stroke="#110537" stroke-linecap="round" stroke-linejoin="round" stroke-miterlimit="10" stroke-width="0.75"/>
              <g id="Grupo_1091618" data-name="Grupo 1091618" transform="translate(5.771 28.285)">
                <line id="Línea_4019" data-name="Línea 4019" y1="8.265" fill="none" stroke="#110537" stroke-linecap="round" stroke-linejoin="round" stroke-miterlimit="10" stroke-width="0.75"/>
                <line id="Línea_4020" data-name="Línea 4020" y1="8.265" transform="translate(15.104)" fill="none" stroke="#110537" stroke-linecap="round" stroke-linejoin="round" stroke-miterlimit="10" stroke-width="0.75"/>
              </g>
              <path id="Trazado_838737" data-name="Trazado 838737" d="M473.008,373.846v2.28a6.783,6.783,0,0,1-3.562,5.985,6.933,6.933,0,0,1-3.206.855,7.075,7.075,0,0,1-2.137-.356,6.918,6.918,0,0,1-4.7-6.484v-2.351c2.066-.428,4.987-4.275,4.987-4.275S467.95,373.846,473.008,373.846Z" transform="translate(-452.916 -364.798)" fill="none" stroke="#110537" stroke-linecap="round" stroke-linejoin="round" stroke-miterlimit="10" stroke-width="0.75"/>
              <path id="Trazado_838738" data-name="Trazado 838738" d="M471.315,387.2v2.636l-2.707,3.491-2.707-3.491V387.7a7.075,7.075,0,0,0,2.137.356A6.994,6.994,0,0,0,471.315,387.2Z" transform="translate(-454.785 -369.887)" fill="none" stroke="#110537" stroke-linecap="round" stroke-linejoin="round" stroke-miterlimit="10" stroke-width="0.75"/>
              <path id="Trazado_838739" data-name="Trazado 838739" d="M459.285,375.5c-.071,0-.214.071-.285.071" transform="translate(-452.801 -366.523)" fill="none" stroke="#110537" stroke-linecap="round" stroke-linejoin="round" stroke-miterlimit="10" stroke-width="0.75"/>
              <path id="Trazado_838740" data-name="Trazado 838740" d="M479.027,375.5H478.6" transform="translate(-458.437 -366.523)" fill="none" stroke="#110537" stroke-linecap="round" stroke-linejoin="round" stroke-miterlimit="10" stroke-width="0.75"/>
              <path id="Trazado_838741" data-name="Trazado 838741" d="M474.071,371.521v11.471a6.073,6.073,0,0,0-1.639-.214h-3.7v-2.636a6.782,6.782,0,0,0,3.562-5.985v-2.28c-5.059,0-8.621-4.275-8.621-4.275s-2.921,3.776-4.987,4.275v2.351a6.918,6.918,0,0,0,4.7,6.484v2.137h-4.845a6.074,6.074,0,0,0-1.639.214V371.521a8.605,8.605,0,0,1,8.621-8.621,8.507,8.507,0,0,1,6.056,2.494A8.8,8.8,0,0,1,474.071,371.521Z" transform="translate(-452.198 -362.9)" fill="none" stroke="#110537" stroke-linecap="round" stroke-linejoin="round" stroke-miterlimit="10" stroke-width="0.75"/>
              <line id="Línea_4021" data-name="Línea 4021" transform="translate(4.702 20.163)" fill="none" stroke="#110537" stroke-linecap="round" stroke-linejoin="round" stroke-miterlimit="10" stroke-width="0.75"/>
            </g>
          </g>
        </g>
        <g id="Grupo_1091624" data-name="Grupo 1091624" transform="translate(0 70.011)">
          <g id="Grupo_1091622" data-name="Grupo 1091622">
            <path id="Trazado_839213" data-name="Trazado 839213" d="M4.339,0H3.185L1.321-3.24H1.295q.012.2.021.407l.018.409.018.409V0H.539V-4.283H1.685l1.86,3.208h.021q-.006-.2-.015-.4t-.016-.393q-.007-.2-.013-.393V-4.283h.817Zm3.7,0L7.729-1.02H6.167L5.856,0H4.878L6.39-4.3H7.5L9.018,0ZM7.512-1.781l-.311-1q-.029-.1-.078-.256t-.1-.319q-.048-.163-.078-.283-.029.12-.081.3T6.771-3L6.7-2.777l-.308,1ZM11.37,0,10.339-3.36h-.026q.006.12.019.362t.025.514q.012.272.012.492V0H9.557V-4.283h1.236l1.014,3.275h.018L12.9-4.283h1.236V0h-.847V-2.027q0-.2.007-.466t.019-.5l.018-.359h-.026L12.2,0Zm6.311,0H15.214V-4.283h2.467v.744H16.122v.94h1.45v.744h-1.45v1.1h1.559Zm4.98-1.189a1.179,1.179,0,0,1-.185.662,1.182,1.182,0,0,1-.538.434,2.159,2.159,0,0,1-.857.152,3.181,3.181,0,0,1-.435-.029,2.81,2.81,0,0,1-.407-.086A2.4,2.4,0,0,1,19.869-.2v-.844q.3.135.633.243a2.064,2.064,0,0,0,.65.108.921.921,0,0,0,.359-.059.409.409,0,0,0,.2-.161.447.447,0,0,0,.062-.234.386.386,0,0,0-.108-.275,1.139,1.139,0,0,0-.3-.214q-.189-.1-.426-.214-.149-.07-.325-.171a1.846,1.846,0,0,1-.334-.248,1.175,1.175,0,0,1-.259-.356,1.147,1.147,0,0,1-.1-.5,1.185,1.185,0,0,1,.176-.656,1.121,1.121,0,0,1,.5-.417,1.891,1.891,0,0,1,.772-.145,2.56,2.56,0,0,1,.637.078,4.068,4.068,0,0,1,.634.224l-.293.706a5.111,5.111,0,0,0-.53-.186,1.756,1.756,0,0,0-.478-.066.7.7,0,0,0-.29.054.4.4,0,0,0-.182.152.418.418,0,0,0-.062.227A.38.38,0,0,0,20.9-2.9a.937.937,0,0,0,.27.2q.18.1.45.226a3.551,3.551,0,0,1,.561.324,1.217,1.217,0,0,1,.359.4A1.15,1.15,0,0,1,22.661-1.189Zm4.263-3.094v2.771a1.635,1.635,0,0,1-.195.8,1.388,1.388,0,0,1-.589.564,2.111,2.111,0,0,1-.992.208,1.783,1.783,0,0,1-1.295-.434,1.53,1.53,0,0,1-.445-1.148v-2.76h.905v2.622a1.027,1.027,0,0,0,.217.744.878.878,0,0,0,.642.214,1,1,0,0,0,.485-.1.614.614,0,0,0,.274-.316,1.446,1.446,0,0,0,.088-.545V-4.283Zm2.3,0a2.8,2.8,0,0,1,.962.141,1.1,1.1,0,0,1,.564.425A1.293,1.293,0,0,1,30.932-3a1.12,1.12,0,0,1-.111.513,1.169,1.169,0,0,1-.293.372,1.731,1.731,0,0,1-.393.249L31.395,0H30.387L29.364-1.644h-.483V0h-.908V-4.283Zm-.064.744h-.275v1.157h.293a1.071,1.071,0,0,0,.646-.151.527.527,0,0,0,.195-.444.469.469,0,0,0-.209-.434A1.271,1.271,0,0,0,29.156-3.539ZM35.733,0H34.579L32.716-3.24h-.026q.012.2.021.407l.018.409.018.409V0h-.812V-4.283h1.146l1.86,3.208h.021q-.006-.2-.015-.4t-.016-.393q-.007-.2-.013-.393V-4.283h.817Zm3.7,0-.311-1.02H37.562L37.251,0h-.979l1.512-4.3h1.11L40.412,0Zm-.527-1.781-.311-1q-.029-.1-.078-.256t-.1-.319q-.048-.163-.078-.283-.029.12-.081.3t-.1.335l-.067.226-.308,1ZM42.765,0,41.733-3.36h-.026q.006.12.019.362t.025.514q.012.272.012.492V0h-.812V-4.283h1.236L43.2-1.008h.018l1.075-3.275H45.53V0h-.847V-2.027q0-.2.007-.466T44.71-3l.018-.359H44.7L43.6,0Zm6.311,0H46.608V-4.283h2.467v.744H47.517v.94h1.45v.744h-1.45v1.1h1.559Z" transform="translate(0 6)" fill="#fc0263"/>
          </g>
          <g id="Grupo_1091623" data-name="Grupo 1091623" transform="translate(17.044 11.891)">
            <text id="JOB_POSITION-8" data-name="JOB POSITION" transform="translate(0 2)" fill="#110537" font-size="2" font-family="OpenSans, Open Sans"><tspan x="0" y="0">JOB POSITION</tspan></text>
          </g>
        </g>
        <path id="Trazado_838742" data-name="Trazado 838742" d="M470.955,436.9H464.4l3.277,3.99Z" transform="translate(-431.973 -370.601)" fill="#fc0263"/>
      </g>
    </g>
  </g>
</svg>
