<svg xmlns="http://www.w3.org/2000/svg" xmlns:xlink="http://www.w3.org/1999/xlink" width="1030" height="480" viewBox="0 0 1030 480">
  <defs>
    <linearGradient id="linear-gradient" x1="0.5" x2="0.5" y2="1" gradientUnits="objectBoundingBox">
      <stop offset="0" stop-color="#eaf2e1"/>
      <stop offset="0.562" stop-color="#f8f8f8"/>
      <stop offset="1" stop-color="#e6ebfb"/>
    </linearGradient>
  </defs>
  <g id="Grupo_1091530" data-name="Grupo 1091530" transform="translate(-285 -10378.436)">
    <rect id="Rectángulo_381122" data-name="Rectángulo 381122" width="1030" height="480" transform="translate(285 10378.436)" fill="url(#linear-gradient)"/>
    <g id="Grupo_1088525" data-name="Grupo 1088525" transform="translate(-216.406 6903.131)">
      <path id="Trazado_720216" data-name="Trazado 720216" d="M341.18,437.234s-152.688-93.962-57.867-150.143,169.765,16.753,221.594,11.379c65.6-6.8,93.975-109.136,192.048-109.234,111.589-.11,193.491,40.448,149.864,137.041-32.178,71.243,189,12.9,156.517,112.341Z" transform="translate(314.802 3403.921)" fill="#dee4f0"/>
      <path id="Trazado_720217" data-name="Trazado 720217" d="M1024.4,1223.362c-14.974-2.41-26.278,2.835-37.149,1.327-8.667-1.2-13.185-9.972-24.834-12.456a48.445,48.445,0,0,0,7.542-5.165c3-2.887,7.3-8.661,0-8.889-5.255-.163-9.348,8.588-11.231,13.514a35.942,35.942,0,0,0-5.626-.006c2.4-7.748,7.093-22.749,8.24-25.63,1.561-3.921-4.994-16.994-12.721-2.322-5.419,10.292-1.738,22.182.943,28.366a43.221,43.221,0,0,0-6.022,1.43c-6.386-14.565-26.7-56.1-48.714-50.934-24,5.626,27.422,33.545,40.392,54.245-10.595,4.911-19.905,10.877-36,6.521-42.766-11.579-46.159,14.472-46.159,14.472l191.117.066A25.873,25.873,0,0,0,1024.4,1223.362Z" transform="translate(-232.613 2615.059)" fill="#acd29a"/>
      <g id="Grupo_1017813" data-name="Grupo 1017813" transform="translate(684.191 3569.295)">
        <path id="Trazado_720218" data-name="Trazado 720218" d="M1383.433,966.769c.2,1.84,2.8,1.773,5.741,1.333s2.18.333,6.317.253,5.514-1.494,5.7-2.091c.161-.531-1.845-.905-3.993-1.353-.27-.055-.541-.114-.812-.173-2.422-.531-4.072-2.275-6.179-3.777-2-1.421-3.341-7.939-3.341-7.939l-5.88-.035s1.848,5.894,2.809,7.944c.567,1.205-.036,2.753-.226,3.914A7.156,7.156,0,0,0,1383.433,966.769Z" transform="translate(-1327.825 -791.383)" fill="#ffb07b"/>
        <path id="Trazado_720219" data-name="Trazado 720219" d="M1397.7,1009.789c2.94-.442,2.181.332,6.316.252s5.516-1.493,5.7-2.091c.161-.53-1.845-.906-3.992-1.353l-.025.041a11.584,11.584,0,0,1-6.029,1.287c-2.784-.185-5.654-1.25-7.577-1.394a7.308,7.308,0,0,0-.13,1.925C1392.161,1010.3,1394.763,1010.229,1397.7,1009.789Z" transform="translate(-1336.357 -833.072)" fill="#365da4"/>
        <path id="Trazado_720220" data-name="Trazado 720220" d="M1184.428,959.9c.128,1.846,2.731,1.878,5.686,1.548s2.167.414,6.3.491,5.566-1.285,5.77-1.875c.181-.524-1.809-.974-3.939-1.5-.267-.065-.536-.134-.8-.2-2.4-.621-3.984-2.427-6.033-4.006-1.941-1.5-.344-7.7-.344-7.7l-4.461-2.107s-.614,6.4-.943,9.632a37.3,37.3,0,0,1-1.03,3.809A7.3,7.3,0,0,0,1184.428,959.9Z" transform="translate(-1174.786 -784.811)" fill="#ffb07b"/>
        <path id="Trazado_720221" data-name="Trazado 720221" d="M1190.115,1008.713c2.955-.33,2.166.413,6.3.489s5.568-1.284,5.77-1.874c.181-.524-1.809-.974-3.938-1.5l-.026.039a11.588,11.588,0,0,1-6.073,1.06c-2.776-.291-5.6-1.462-7.517-1.678a7.21,7.21,0,0,0-.206,1.919C1184.557,1009.01,1187.158,1009.042,1190.115,1008.713Z" transform="translate(-1174.786 -832.072)" fill="#365da4"/>
        <path id="Trazado_720222" data-name="Trazado 720222" d="M1197.111,588.4s-1.236,5.983-2.474,36.327a98.007,98.007,0,0,0-3.96,12.488c-1.665,6.87-2.84,35.535-2.84,35.535a3.465,3.465,0,0,0,2.679,1.078,5.83,5.83,0,0,0,2.927-.623s11.575-37.545,17.209-52.121,8.935-35.389,8.935-35.389Z" transform="translate(-1177.448 -505.425)" fill="#2b478b"/>
        <path id="Trazado_720223" data-name="Trazado 720223" d="M1292.59,573.2s.913,6.041,10.257,34.936a97.934,97.934,0,0,0,.609,13.087c.817,7.022,10.276,34.666,10.276,34.666a5.8,5.8,0,0,0,3.141-.06A9.915,9.915,0,0,0,1320,654.31s-3.627-39.512-3.387-55.138-3.87-36.294-3.87-36.294Z" transform="translate(-1259.004 -487.657)" fill="#2b478b"/>
        <path id="Trazado_720224" data-name="Trazado 720224" d="M1259.38,225.02a8.471,8.471,0,0,0-4.535-1.1,2.146,2.146,0,0,1,.988-.41,7.1,7.1,0,0,0-2.565.534c-10.69-4.744-13.205,11.218-13.163,14.958s-.146,8.033-5.754,11.1c-11.035,6.044-2.575,17.982-2.575,17.982-1.986,5.7,5.367,12.681,5.367,12.681-.125-3.027,13.768-22.31,21.258-26.709,1.9-2.511,2.754-7.072,2.818-7.431a19.833,19.833,0,0,1-1.825,6.759C1265.819,248.04,1263.261,227.49,1259.38,225.02Z" transform="translate(-1209.245 -223.167)" fill="#c65447"/>
        <path id="Trazado_720225" data-name="Trazado 720225" d="M1320.662,315.544c.038.017-3.5,1.856-6.169,1.128-2.507-.683-4.145-3.934-4.11-3.941,1.062-.211,1.367-1.67,1.346-7.937l.478.094,7.781,1.541.289.057s-.183,2.539-.19,4.931c0,.506.007,1.005.025,1.472C1320.164,314.277,1320.319,315.382,1320.662,315.544Z" transform="translate(-1272.857 -286.719)" fill="#ffb07b"/>
        <path id="Trazado_720226" data-name="Trazado 720226" d="M1325.752,313.065c0,.506,0,1,.025,1.472-4.525-.182-7.134-5.357-8.118-7.626l7.994,1.167.29.057S1325.76,310.672,1325.752,313.065Z" transform="translate(-1278.523 -288.367)" fill="#ea8e50"/>
        <path id="Trazado_720227" data-name="Trazado 720227" d="M1304.3,242.96a23.733,23.733,0,0,1-2.934-6.935c-.405-2.282.758-10.742,9.259-9.524a11.547,11.547,0,0,1,4.79,1.811c1.846,1.247,4.51,3.938,1.531,11.32l-.773,2.494Z" transform="translate(-1265.783 -225.669)" fill="#c65447"/>
        <path id="Trazado_720228" data-name="Trazado 720228" d="M1323.178,263.942s-10.59-1.4-9.618-7.983.263-11.2,7.066-10.581,7.744,3.321,7.953,5.6S1325.957,264.137,1323.178,263.942Z" transform="translate(-1275.283 -240.417)" fill="#ffb07b"/>
        <path id="Trazado_720229" data-name="Trazado 720229" d="M1314.748,241.793s-4.044,7.29-8.654,7.77-6.359-1-6.359-1a12.713,12.713,0,0,0,5.219-6.815S1313.113,237.793,1314.748,241.793Z" transform="translate(-1264.568 -236.276)" fill="#c65447"/>
        <path id="Trazado_720230" data-name="Trazado 720230" d="M1363.87,246.918a9.439,9.439,0,0,1,2.182,3.8c.276,1.754,0,5.24,1.021,5.273,0,0,2.963-4.923.955-8.257C1365.9,244.2,1363.87,246.918,1363.87,246.918Z" transform="translate(-1314.502 -240.881)" fill="#c65447"/>
        <path id="Trazado_720231" data-name="Trazado 720231" d="M1269.782,540.72c-2.221-4.707-8.4-8.6-13.6-8.6a15.457,15.457,0,0,0-9.858,3.447,2.6,2.6,0,0,1-4.17-1.475l-4.555-21.166a5.716,5.716,0,0,0-6.791-4.385L1157.089,524.4a5.586,5.586,0,0,0-4.286,6.635l15.847,73.636a5.794,5.794,0,0,0,3.914,4.305l-.968.275h2.862l.023,0a5.813,5.813,0,0,0,1.059-.127l1.605-.345h0l18.919-4.072a3.571,3.571,0,0,0,1.949-5.831,15.331,15.331,0,1,1,25.679-4.065,2.437,2.437,0,0,0,.718,2.873l-1.1.539h2.557a2.528,2.528,0,0,0,.59-.055l22.591-4.862a5.719,5.719,0,0,0,4.387-6.794l-4.527-21.036a2.678,2.678,0,0,1,3.285-3.157,15.347,15.347,0,0,0,17.592-21.595Z" transform="translate(-1150.073 -445.247)" fill="#d86713"/>
        <path id="Trazado_720232" data-name="Trazado 720232" d="M1244.418,532.117a15.457,15.457,0,0,0-9.858,3.447,2.6,2.6,0,0,1-4.169-1.475l-4.555-21.166a5.716,5.716,0,0,0-6.792-4.385L1145.327,524.4a5.586,5.586,0,0,0-4.285,6.635l15.849,73.636a5.8,5.8,0,0,0,6.89,4.449L1184.3,604.7a3.57,3.57,0,0,0,1.95-5.831,15.331,15.331,0,1,1,25.68-4.065,2.446,2.446,0,0,0,2.762,3.355l22.59-4.862a5.718,5.718,0,0,0,4.387-6.794l-4.527-21.036a2.679,2.679,0,0,1,3.286-3.157,15.347,15.347,0,0,0,17.591-21.6C1255.8,536.013,1249.623,532.118,1244.418,532.117Z" transform="translate(-1140.916 -445.247)" fill="#f1a34f"/>
        <path id="Trazado_720233" data-name="Trazado 720233" d="M1486.53,489.057s4.6.754,5.8,3.744-.478,5.015-1.125,5.008a2.888,2.888,0,0,1-2.469-2.036C1488.157,494.222,1486.53,489.057,1486.53,489.057Z" transform="translate(-1410.002 -430.181)" fill="#ffb07b"/>
        <path id="Trazado_720234" data-name="Trazado 720234" d="M1200.66,549.315s5.161-.007,7.018,3.044.383,5.567-.326,5.676a3.2,3.2,0,0,1-3.067-1.779C1203.372,554.666,1200.66,549.315,1200.66,549.315Z" transform="translate(-1187.431 -477.097)" fill="#ffb07b"/>
        <path id="Trazado_720235" data-name="Trazado 720235" d="M1241.974,376.905c-.457-.1-2.458-.333-5-.733-4.685-.736-11.218-2.03-13.411-4.052-.594-.549-1.977-3.57-3.414-7.033A65.729,65.729,0,0,0,1219,383.11l-31.673,6.817c2.714-5.491,6.918-12.3,6.13-17.808-.292-2.043-1.411-4.845-1.83-7.994-.035-.271-.064-.541-.089-.816-4.442,3.656-9.573,7.691-9.7,8.5-.2,1.352,3.253,16.326,3.253,16.326-.859,1.977-4.588,1.561-4.588,1.561-3.5-2.5-8.637-16.64-8.224-19.774s13.156-20.991,16.241-25.259c3.047-4.217,14.171-4.112,14.44-4.11h0c8.847,5.312,9.645.9,9.645.9s7.981,1.518,9.355,3.875,7.386,20.239,7.811,20.868c.891,1.317,15.432,6.585,15.693,8.11S1243.278,377.182,1241.974,376.905Z" transform="translate(-1165.317 -314.559)" fill="#80bdcc"/>
        <path id="Trazado_720236" data-name="Trazado 720236" d="M1251.348,467.584,1240.3,469.95c2.75-5.476,6.365-12.294,5.575-17.769-.3-2.044-.958-4.463-1.278-7.626-.031-.305-.083-1.222-.083-1.222s7.82,6.155,7.958,12.816A66.823,66.823,0,0,1,1251.348,467.584Z" transform="translate(-1218.296 -394.581)" fill="#5f9aa8"/>
        <path id="Trazado_720237" data-name="Trazado 720237" d="M1405.646,443.708c-4.743-.737-11.358-2.031-13.577-4.054-.6-.549-2-3.574-3.457-7.041,0,0-.509-5.574.947-5.365s3.6,10.094,5.13,10.718C1396.06,438.526,1403.628,441.431,1405.646,443.708Z" transform="translate(-1333.699 -382.054)" fill="#5f9aa8"/>
      </g>
      <g id="man_2_" transform="translate(805.441 3627.456)">
        <g id="Grupo_1017814" data-name="Grupo 1017814" transform="translate(120.168 110.366)">
          <path id="Trazado_720238" data-name="Trazado 720238" d="M2467.926,1436.173c-.669,2.253-3.755,3.755-4.174,6.508a6.009,6.009,0,0,1-1.34,3.106H2452.8c.1-.53.517-1.1,1.767-1.372,2.667-.584,3.676-3.82,3.51-6.823-.071-1.259-.037-2.695.024-3.937.086-1.719.225-3.071.225-3.071l5.674-1.334.6.766.571.735S2468.591,1433.921,2467.926,1436.173Z" transform="translate(-2403.732 -1330.712)" fill="#2c3a64"/>
          <path id="Trazado_720239" data-name="Trazado 720239" d="M2250.636,1471.645h-19.443a3.906,3.906,0,0,1,2.449-1.22c2.994-.486,8.174-2.223,9.329-6.046.038-.122.073-.249.1-.377.916-4.087,7.594,1.252,7.594,1.252s.02.162.05.442A20.912,20.912,0,0,1,2250.636,1471.645Z" transform="translate(-2231.193 -1356.571)" fill="#2c3a64"/>
          <path id="Trazado_720240" data-name="Trazado 720240" d="M2245.85,1008.61s1.013,12.647,2.2,27.85c1.619,20.653,3.566,46.022,3.758,50.828.332,8.345,1.67,21.693,1.67,21.693s3.168,3.171,9.512,1.834a218.437,218.437,0,0,0,7.268-39.217c.023-.33.049-.663.074-1,1.5-20.525,3.836-63.745,3.836-63.745Z" transform="translate(-2242.605 -1001.852)" fill="#35488b"/>
          <path id="Trazado_720241" data-name="Trazado 720241" d="M2245.85,1008.61s1.013,12.648,2.2,27.851l22.208,35.138c.023-.331.049-.663.074-1,1.5-20.526,3.836-63.746,3.836-63.746Z" transform="translate(-2242.605 -1001.85)" fill="#2c3a64"/>
          <path id="Trazado_720242" data-name="Trazado 720242" d="M2266.75,992.507s18.271,45.806,30.287,67.332,15.769,27.534,15.769,27.534,6.883-2.753,7.509-4.63c0,0-4.6-41.558-12.64-51.688-4.547-5.724-9.887-22.9-10.138-28.911s-1.626-17.9-1.626-17.9Z" transform="translate(-2258.876 -984.247)" fill="#35488b"/>
        </g>
        <path id="Trazado_720243" data-name="Trazado 720243" d="M2292.124,649.1a53.56,53.56,0,0,1-.84-7.641l9.271-7.471c-.344,10.273,6.239,15.214,6.239,15.214s-12.354,6.081-19.5,3.829A17.083,17.083,0,0,1,2292.124,649.1Z" transform="translate(-2154.706 -601.18)" fill="#935c2f"/>
        <path id="Trazado_720244" data-name="Trazado 720244" d="M2287.339,598.358s11.8,1.959,12.9-5.4,3.375-12.07-4.107-13.632-9.371,1.027-10.34,3.395S2284.3,597.659,2287.339,598.358Z" transform="translate(-2152.949 -558.248)" fill="#a16d3c"/>
        <g id="Grupo_1017815" data-name="Grupo 1017815" transform="translate(80.793 50.777)">
          <path id="Trazado_720245" data-name="Trazado 720245" d="M2065.543,720.591l-2.509-1.555a6.35,6.35,0,0,0-8.479-1.75s-2.118,1.351-.7,2.481,1.038.492,3.008,2.13,4.517,2.223,6.16,1.32l2.109-.2Z" transform="translate(-2053.367 -716.079)" fill="#a16d3c"/>
          <path id="Trazado_720246" data-name="Trazado 720246" d="M2093.942,720.135c.648-2.024.955-2.2.955-2.2s20.306,2.4,22.222,2.541,28.5-5.336,28.5-5.336l12.552,15.243s-37.01,1.4-41.855.942c-8-.75-22.521-8.2-22.521-8.2A5.931,5.931,0,0,1,2093.942,720.135Z" transform="translate(-2084.746 -715.138)" fill="#d3782f"/>
        </g>
        <path id="Trazado_720247" data-name="Trazado 720247" d="M2277.426,757.388c.038.786-1.585,1.65-2.289,1.967a49.324,49.324,0,0,1-15.814,4.564c-6.618.678-14.436-.809-17.116-.774a1.15,1.15,0,0,1-.751-.285c-.18-.144-.323-8.225-.18-18.415,0-.393,0-.824.035-1.217v-.142c.01-1.061.029-2.139.049-3.228.068-2.977.181-6.035.308-9.074.2-4.479.461-8.88.829-12.78a73.785,73.785,0,0,1,1.5-10.1,24.643,24.643,0,0,1,7.723-12.337l2.466-2.179a11.706,11.706,0,0,0,7.689-.93c2.823-1.395,5.9-2.9,6.4-2.539,3.812,2.849,6.378,9.317,7.695,17.538a90.851,90.851,0,0,1,1.034,14.5q-.012,2.963-.183,6a197.839,197.839,0,0,0,.392,25.742C2277.313,755.275,2277.4,756.526,2277.426,757.388Z" transform="translate(-2118.829 -644.681)" fill="#e69d43"/>
        <path id="Trazado_720248" data-name="Trazado 720248" d="M1794.092,499.619,1719.5,487.774a5.814,5.814,0,0,0-6.655,4.83l-3.3,20.789a24.431,24.431,0,0,0,.091,3.669l2.687.4a3.429,3.429,0,0,0,.466.069h0a3.552,3.552,0,0,0,1.5-.2,15.372,15.372,0,1,1-5.5,25.482,2.422,2.422,0,0,0-1.456-.687h0l-2.812-.423-3.5,25.36a5.734,5.734,0,0,0,4.763,6.562l21.308,3.384a2.685,2.685,0,0,1,1.763,4.215,15.387,15.387,0,0,0,13.822,24.268c5.2-.373,11.083-4.739,12.97-9.6a15.5,15.5,0,0,0,.345-10.466,2.6,2.6,0,0,1,2.889-3.364l21.439,3.4a5.732,5.732,0,0,0,6.561-4.761l11.857-74.669A5.6,5.6,0,0,0,1794.092,499.619Z" transform="translate(-1698.194 -487.285)" fill="#4a75cb"/>
        <path id="Trazado_720249" data-name="Trazado 720249" d="M2269.052,768.313s-5.718,26.681-27.183,32.625c.066-2.978.18-6.036.309-9.074.192-4.479.46-8.881.828-12.78a7.125,7.125,0,0,1,1.072-.46C2251.36,776.222,2269.052,768.313,2269.052,768.313Z" transform="translate(-2119.337 -705.762)" fill="#d3782f"/>
        <path id="Trazado_720250" data-name="Trazado 720250" d="M1743.2,594a15.492,15.492,0,0,0,.346-10.465,2.6,2.6,0,0,1,2.888-3.365l21.44,3.406a5.735,5.735,0,0,0,6.561-4.762l11.858-74.67a5.6,5.6,0,0,0-4.652-6.409L1707.051,485.9a5.815,5.815,0,0,0-6.654,4.83l-3.3,20.79a3.581,3.581,0,0,0,4.747,3.934,15.372,15.372,0,1,1-5.5,25.481,2.453,2.453,0,0,0-4.137,1.368l-3.635,22.882a5.736,5.736,0,0,0,4.763,6.563l21.309,3.384a2.685,2.685,0,0,1,1.763,4.214,15.389,15.389,0,0,0,13.821,24.269C1735.435,603.236,1741.313,598.871,1743.2,594Z" transform="translate(-1688.5 -485.822)" fill="#699dee"/>
        <g id="Grupo_1017816" data-name="Grupo 1017816" transform="translate(79.034 49.201)">
          <path id="Trazado_720251" data-name="Trazado 720251" d="M2059.45,800.571l-3.068-.507a7.572,7.572,0,0,0-9.589-2.221s-2.417,1.352-.819,2.617,1.173.568,3.386,2.4,5.095,2.56,6.968,1.666l2.392-.125Z" transform="translate(-2045.428 -777.281)" fill="#a16d3c"/>
          <path id="Trazado_720252" data-name="Trazado 720252" d="M2098.138,732.87c.1-2.257,1.3-2.5,1.3-2.5s23.232-1.537,25.234-1.926,20.507-15.718,20.507-15.718,7.153-6.431,12.169-4.26c4.355,1.886,5.718,5.605,5.938,9.027a9.941,9.941,0,0,1-5.74,9.618c-8.307,3.88-24.927,11.5-28.712,12.156-8.423,1.463-30.071-3.225-30.071-3.225A7.082,7.082,0,0,1,2098.138,732.87Z" transform="translate(-2086.463 -708.021)" fill="#e69d43"/>
        </g>
        <path id="Trazado_720253" data-name="Trazado 720253" d="M2278.878,562.98a6.881,6.881,0,0,1-1.666-9.065,18.234,18.234,0,0,0,9.115,0c5.351-1.249,10.136.52,10.763,2.393,0,0,2.079.833,2.289,3.954s-6.053,12.955-6.053,12.955-1.336-1.665-.972-2.809,1.508-3.694.1-3.694-1.873,2.081-2.445,1.249.467-4.319-1.2-4.891S2280.752,564.032,2278.878,562.98Z" transform="translate(-2146.031 -538.512)" fill="#2c3a64"/>
      </g>
      <path id="Trazado_720254" data-name="Trazado 720254" d="M1193.01,1126.383l-21.085-95.731h5.8a2.507,2.507,0,0,0,2.5-2.5v-3.233a2.507,2.507,0,0,0-2.5-2.5h-73.623a2.508,2.508,0,0,0-2.5,2.5v3.233a2.508,2.508,0,0,0,2.5,2.5h7.473l-21.086,95.731a2.39,2.39,0,1,0,4.667,1.034l21.312-96.764h50.559l21.313,96.764a2.4,2.4,0,0,0,2.849,1.823h0A2.4,2.4,0,0,0,1193.01,1126.383Z" transform="translate(-417.421 2723.859)" fill="#c3e0f4"/>
      <g id="Grupo_1017817" data-name="Grupo 1017817" transform="translate(817.136 3790.81)">
        <path id="Trazado_720255" data-name="Trazado 720255" d="M2058.885,1224.349c-7.8-7.493-35.9,39.778-35.9,39.778S2066.689,1231.842,2058.885,1224.349Z" transform="translate(-1960.614 -1223.544)" fill="#acd29a"/>
        <path id="Trazado_720256" data-name="Trazado 720256" d="M1838.643,1325.073c-6.909-2.764-28.988,20.514-33.96,25.889a109.842,109.842,0,0,0-12.552-.914c-34.963-.624-50.822,15.21-50.822,15.21l97.53.331s-8.64-10.971-33.149-14.49c5.988-2.828,23.7-11.065,30.143-12.648C1843.639,1336.53,1846.446,1328.193,1838.643,1325.073Z" transform="translate(-1741.31 -1302.415)" fill="#acd29a"/>
      </g>
      <g id="Grupo_1017818" data-name="Grupo 1017818" transform="translate(775.644 3765.955)">
        <path id="Trazado_720257" data-name="Trazado 720257" d="M1717.26,1111.61h-21.05a3.58,3.58,0,0,0-3.141,5.3c1.272,2.3-3.2,22.251-12.633,22.772a15.372,15.372,0,0,1-13.4-24.2,2.453,2.453,0,0,0-2-3.871h-23.169a5.734,5.734,0,0,0-5.734,5.735s-2.1,24.867-3.886,23.975a15.293,15.293,0,0,0-6.06-1.592h-.02c-.259-.013-.519-.021-.78-.021s-4.076-.066-4.076-.066l-.579,30.731,3.312.036c3.149-.094,5.882-.389,8.314-1.629a2.6,2.6,0,0,1,3.776,2.326v21.709a5.732,5.732,0,0,0,5.732,5.731h75.6a5.6,5.6,0,0,0,5.6-5.6v-75.522A5.813,5.813,0,0,0,1717.26,1111.61Z" transform="translate(-1605.942 -1111.544)" fill="#d86713"/>
        <path id="Trazado_720258" data-name="Trazado 720258" d="M1565.876,1169.781a15.5,15.5,0,0,0,10.389-1.3,2.6,2.6,0,0,1,3.777,2.325v21.708a5.733,5.733,0,0,0,5.732,5.733h75.605a5.6,5.6,0,0,0,5.6-5.6v-75.522a5.815,5.815,0,0,0-5.815-5.815h-21.05a3.579,3.579,0,0,0-3.14,5.3,15.373,15.373,0,1,1-26.029-1.433,2.452,2.452,0,0,0-2-3.87h-23.168a5.733,5.733,0,0,0-5.734,5.734v21.573a2.685,2.685,0,0,1-3.887,2.4,15.388,15.388,0,0,0-21.8,17.457C1555.542,1163.56,1560.773,1168.683,1565.876,1169.781Z" transform="translate(-1553.923 -1111.311)" fill="#f1a34f"/>
      </g>
      <path id="Trazado_720259" data-name="Trazado 720259" d="M544.757,1368.094l13.588.1s-.473-3.288-9.62-4.136h0c-3.546-9.85-13.965-36.349-23.01-35.1-8.932,1.239,12.221,25.55,20.828,35a21.538,21.538,0,0,0-3.4.27c-2.073-4.128-6.183-9.963-12.781-9.7-7.02.282,2.544,6.693,9.129,10.631a16.229,16.229,0,0,0-5.137,2.852l10.248.074c.121.067.186.1.186.1S544.778,1368.158,544.757,1368.094Z" transform="translate(23.931 2485.227)" fill="#acd29a"/>
      <g id="Grupo_1017821" data-name="Grupo 1017821" transform="translate(545.53 3635.583)">
        <g id="Grupo_1017819" data-name="Grupo 1017819" transform="translate(11.699 69.369)">
          <path id="Trazado_720260" data-name="Trazado 720260" d="M830.293,1009.96l2.01,1.632s5.5-1.972,6.741,4.563c0,0,.33,2.785-1.434,2.791s-1.036-.3-3.535-.231-4.569-1.244-4.935-3.272l-1.2-1.718Z" transform="translate(-770.283 -971.4)" fill="#ea8e50"/>
          <path id="Trazado_720261" data-name="Trazado 720261" d="M627.319,877.882c1.6-1.675,1.475-2.913,1.475-2.913s-18.574-15.207-20.458-16.446c-1.283-.844-14.962-12.971-21.357-20.364-3.171-3.667-7.1-2.244-11.6-.954l-3.7,1.061c-4.469,1.282-5.632,7.534-1.965,10.572,10.329,8.555,27.511,18.178,30.725,20.2,7.981,5.021,23.6,10.986,23.6,10.986A9.885,9.885,0,0,0,627.319,877.882Z" transform="translate(-567.537 -835.82)" fill="#1e3d70"/>
        </g>
        <path id="Trazado_720262" data-name="Trazado 720262" d="M914.83,1447.01a14,14,0,0,0,11.414,1.592s5.569-1.268,6.79,1.509c0,0-8.541,4.339-10.7,5.526a25.814,25.814,0,0,0-4.53,3.4,2.24,2.24,0,0,1-3.243-.251c-.376-.461-.806-1.012-1.277-1.65-1.317-1.785-4.386-7.549-4.386-7.549Z" transform="translate(-821.61 -1242.305)" fill="#233862"/>
        <path id="Trazado_720263" data-name="Trazado 720263" d="M700.837,1156.788s-2.745,6.329-9.081,5.166c0,0-12.929-10.677-21.8-21.769a49.3,49.3,0,0,1-6.774-10.585c-5.88-13.616-21.754-33.923-31.845-44.215l25.249-9.135s8.087,16.269,18.848,36.253C683.192,1126.9,692.333,1143.228,700.837,1156.788Z" transform="translate(-605.513 -953.642)" fill="#2b478b"/>
        <path id="Trazado_720264" data-name="Trazado 720264" d="M675.437,1112.5l-5.478,27.683a49.333,49.333,0,0,1-6.773-10.585c-5.881-13.617-21.753-33.924-31.845-44.216l25.249-9.134S664.677,1092.519,675.437,1112.5Z" transform="translate(-605.513 -953.643)" fill="#233862"/>
        <path id="Trazado_720265" data-name="Trazado 720265" d="M705.047,1453.5s-.275,5.05,5.847,5.723c0,0,3.5.019,3.509,3.233l-17.793.056a13.831,13.831,0,0,1-.642-4.075c-.1-2.13,2.067-7.706,2.067-7.706Z" transform="translate(-655.827 -1245.2)" fill="#233862"/>
        <path id="Trazado_720266" data-name="Trazado 720266" d="M621.725,1072.311s11.248,12.36,18.388,34.626c3.884,12.116-7.121,42.576-9.266,53.159,0,0-7.383.627-12.431-1.325,0,0-.383-21.859,2.569-38.706,1.652-9.429-14.81-20.167-22-37.2-4.893-11.589,1.06-11.392,8.376-11.671Z" transform="translate(-578.931 -949.703)" fill="#2b478b"/>
        <path id="Trazado_720267" data-name="Trazado 720267" d="M582.275,773.59c-6.258,3.533-19.07.275-19.07.275s5.2-5.949,2.839-15.528l4.913,2.5,5.278,2.68a43.919,43.919,0,0,1,.578,4.731c.06.782.115,1.656.152,2.612A16.424,16.424,0,0,1,582.275,773.59Z" transform="translate(-552.465 -706.124)" fill="#ffb07b"/>
        <path id="Trazado_720268" data-name="Trazado 720268" d="M588.644,871.184c0,1.1-1.267,1.626-1.536,1.68-2.523.462-9.572,3.2-15.921,3.831a50.916,50.916,0,0,1-15.762-1.066c-.722-.145-2.417-.6-2.538-1.294-.151-.755-21.033-42.571-4.8-60.533.382-.421,3.586.338,6.517,1.034a12.041,12.041,0,0,0,7.406-.605l2.748,1.445c3.374,1.881,9.76,8.563,10.508,13.805.379,2.666,1.9,4.641,2.345,6.986q.246,1.3.5,2.541.5,2.43,1.029,4.627c.955,3.965,1.962,7.378,2.952,10.327,1.053,3.131,2.086,5.735,3.009,7.914,1.2,2.825,2.208,4.936,2.84,6.552A8.066,8.066,0,0,1,588.644,871.184Z" transform="translate(-535.887 -749.214)" fill="#2a4e96"/>
        <path id="Trazado_720269" data-name="Trazado 720269" d="M610.247,918.324c-29.478-13.889-39.687-40.557-39.687-40.557s23.951,8.835,29.858,11.135q.5,2.429,1.028,4.627c.955,3.966,1.963,7.379,2.952,10.328,1.053,3.131,2.086,5.736,3.009,7.913C608.6,914.6,609.615,916.708,610.247,918.324Z" transform="translate(-558.191 -799.109)" fill="#1e3d70"/>
        <path id="Trazado_720270" data-name="Trazado 720270" d="M754.626,612.217l-6.314-20.022a3.58,3.58,0,0,0-4.382-2.371h0c-.094.027-.186.058-.278.093l-2.214.739s-3.465,3.57-5.954,4.29c-7.648,2.213-14.907-1.863-17.7-9.32-3.1-8.293.5-17.4,8.833-20.029,2.852-.9,8.466.777,8.466.777l2.254-.749a2.445,2.445,0,0,0,1.627-3.079l-6.95-22.037a5.718,5.718,0,0,0-7.174-3.734l-20.521,6.472a2.678,2.678,0,0,1-3.45-2.976,15.347,15.347,0,0,0-23.144-15.5c-4.479,2.652-7.78,9.166-7.3,14.348a15.45,15.45,0,0,0,4.353,9.493,2.6,2.6,0,0,1-1.08,4.289l-20.648,6.512a5.716,5.716,0,0,0-3.731,7.171L672,638.5a5.586,5.586,0,0,0,7.006,3.647l71.834-22.654A5.8,5.8,0,0,0,754.626,612.217Z" transform="translate(-619.305 -522.539)" fill="#4a75cb"/>
        <path id="Trazado_720271" data-name="Trazado 720271" d="M660.557,542.409a15.446,15.446,0,0,0,4.353,9.492,2.6,2.6,0,0,1-1.08,4.289L643.182,562.7a5.717,5.717,0,0,0-3.733,7.172l22.679,71.913a5.586,5.586,0,0,0,7.006,3.647l71.834-22.655a5.8,5.8,0,0,0,3.786-7.274l-6.314-20.022a3.571,3.571,0,0,0-5.988-1.4,15.331,15.331,0,1,1-6.444-25.187,2.447,2.447,0,0,0,3.082-3.064l-6.95-22.037a5.718,5.718,0,0,0-7.173-3.734l-20.522,6.472A2.678,2.678,0,0,1,691,543.56a15.347,15.347,0,0,0-23.144-15.5C663.373,530.713,660.072,537.227,660.557,542.409Z" transform="translate(-611.619 -525.099)" fill="#699dee"/>
        <g id="Grupo_1017820" data-name="Grupo 1017820" transform="translate(8.414 70.688)">
          <path id="Trazado_720272" data-name="Trazado 720272" d="M823.009,1024.007l2.547.934s5.1-3.607,8.277,2.259c0,0,1.148,2.561-.67,3.118s-1.157.032-3.713.884-5.074.238-6.04-1.588l-1.731-1.269Z" transform="translate(-762.12 -983.529)" fill="#ffb07b"/>
          <path id="Trazado_720273" data-name="Trazado 720273" d="M615.684,885.857c.942-2.457,1.372-3.57,1.372-3.57s-19.248-15.689-21.209-17.036c-1.337-.916-14.641-10.862-21.128-18.612a13.576,13.576,0,0,0-13.2-4.573l-4.04.847a6.009,6.009,0,0,0-2.68,10.443c10.659,9.138,28.637,19.736,31.989,21.941,8.322,5.474,26.728,13.141,26.728,13.141A4.745,4.745,0,0,0,615.684,885.857Z" transform="translate(-552.699 -841.776)" fill="#2a4e96"/>
        </g>
        <path id="Trazado_720274" data-name="Trazado 720274" d="M588.954,777.017c-6.153.345-10.155-4.735-10.155-4.735a48.871,48.871,0,0,0,4.3-2.676l5.278,2.681A43.877,43.877,0,0,1,588.954,777.017Z" transform="translate(-564.606 -714.898)" fill="#ea8e50"/>
        <path id="Trazado_720275" data-name="Trazado 720275" d="M571.257,719.34s-9.324,6.692-13.4.821-8.028-8.962-2.247-13.482,8.506-3.093,10.344-1.464S573.577,717.448,571.257,719.34Z" transform="translate(-544.286 -663.539)" fill="#ffb07b"/>
        <path id="Trazado_720276" data-name="Trazado 720276" d="M537.353,673.285a14.98,14.98,0,0,0-1.087-3.844s-.585,2.424-5.015,2.089-11.451.436-13.791,5.484q-.224.482-.4.991a11.7,11.7,0,0,1-.526-2.8,8.617,8.617,0,0,0,0,4.891h0c-.012.079-.023.159-.035.238-.977.827-1.8,3.4-1.8,3.4a3.079,3.079,0,0,1,1.656-1.472c-.02,3.928,1.573,7.767,4.369,8.911,4.089,1.672,4.056.4,8.168,3.124,0,0,1.1-1.369.351-2.288s-3.594-2.256-2.006-3.594,2.173.166,2.758-.752-2.34-3.594,1.421-6.1S537.687,675.542,537.353,673.285Z" transform="translate(-514.702 -636.912)" fill="#233862"/>
      </g>
      <path id="Trazado_720277" data-name="Trazado 720277" d="M1462.817,1348.392s-4.715-6.97-12.094-6.409c-2.243.171-5.888.718-10.121,1.3-3.193-11.141-11.992-37.627-23.863-39.116-12.121-1.522,11.6,27.93,21.3,39.462-1.768.234-3.605.461-5.46.662-5.136-5.484-14.086-13.608-21.56-12.984-7.491.626,6.536,8.372,16.659,13.44-6.212.465-12.1.413-15.7-.978-8.815-3.409-16.916,4.623-16.916,4.623Z" transform="translate(-654.596 2504.535)" fill="#82b378"/>
    </g>
    <g id="Grupo_1088530" data-name="Grupo 1088530">
      <path id="Trazado_833966" data-name="Trazado 833966" d="M181.818,0C282.234,0,363.636,81.513,363.636,182.064s-81.4,182.064-181.818,182.064S0,282.615,0,182.064,81.4,0,181.818,0Z" transform="translate(863 10432.708)" fill="#c1cdf5"/>
      <path id="Trazado_838788" data-name="Trazado 838788" d="M146.683,0c81.011,0,146.683,65.562,146.683,146.437S227.694,292.875,146.683,292.875,0,227.313,0,146.437,65.672,0,146.683,0Z" transform="translate(896.415 10497.081)" fill="#cadeb4"/>
      <path id="Trazado_838789" data-name="Trazado 838789" d="M125.061,0c69.07,0,125.061,55.332,125.061,123.587S194.131,247.175,125.061,247.175,0,191.843,0,123.587,55.992,0,125.061,0Z" transform="translate(917.545 10545.239)" fill="#a7bb91"/>
      <path id="Trazado_838790" data-name="Trazado 838790" d="M85.5,0A85.5,85.5,0,1,1,0,85.5,85.5,85.5,0,0,1,85.5,0Z" transform="translate(956.858 10620.915)" fill="#f1ece6"/>
      <g id="Grupo_1084654" data-name="Grupo 1084654" transform="translate(1263 10789.956) rotate(180)">
        <rect id="Rectángulo_379584" data-name="Rectángulo 379584" width="17.199" height="336.118" transform="translate(8.354 0)" fill="#727997"/>
        <path id="Polígono_11" data-name="Polígono 11" d="M16.953,0,33.907,26.536H0Z" transform="translate(33.907 357.248) rotate(180)" fill="#727997"/>
      </g>
      <g id="Grupo_1088527" data-name="Grupo 1088527" transform="translate(-12)">
        <rect id="Rectángulo_379842" data-name="Rectángulo 379842" width="81.848" height="29.061" rx="14.531" transform="translate(1011 10687)" fill="#12263f"/>
        <path id="Trazado_838795" data-name="Trazado 838795" d="M3.6-3.859V0H.859V-11.375H5.4a5.287,5.287,0,0,1,2.309.48A3.621,3.621,0,0,1,9.262-9.527a3.734,3.734,0,0,1,.551,2.012,3.291,3.291,0,0,1-1.191,2.66,4.943,4.943,0,0,1-3.27,1Zm0-2.117H5.4a1.7,1.7,0,0,0,1.215-.4A1.48,1.48,0,0,0,7.031-7.5,1.83,1.83,0,0,0,6.6-8.773,1.522,1.522,0,0,0,5.43-9.258H3.6ZM13.93,0H11.289V-12H13.93Zm6.383,0a2.973,2.973,0,0,1-.25-.758,2.448,2.448,0,0,1-2.031.914A3,3,0,0,1,16-.566a2.3,2.3,0,0,1-.836-1.816A2.364,2.364,0,0,1,16.18-4.461a5.174,5.174,0,0,1,2.953-.7h.813v-.448q0-1.17-1.008-1.17A.824.824,0,0,0,18-5.855H15.367a2.36,2.36,0,0,1,1.043-1.99,4.383,4.383,0,0,1,2.66-.765,3.843,3.843,0,0,1,2.555.789,2.743,2.743,0,0,1,.961,2.164v3.742a3.832,3.832,0,0,0,.359,1.781V0ZM18.664-1.719a1.469,1.469,0,0,0,.816-.211,1.322,1.322,0,0,0,.465-.477V-3.758H19.18q-1.375,0-1.375,1.234a.754.754,0,0,0,.242.582A.876.876,0,0,0,18.664-1.719Zm7.8-6.734.086.992a2.867,2.867,0,0,1,2.414-1.148,2.412,2.412,0,0,1,1.973.789,3.757,3.757,0,0,1,.676,2.375V0H28.969V-5.336a1.426,1.426,0,0,0-.258-.941,1.193,1.193,0,0,0-.937-.3,1.256,1.256,0,0,0-1.148.609V0H23.992V-8.453Z" transform="translate(1036 10707)" fill="#fff"/>
      </g>
      <g id="Grupo_1088529" data-name="Grupo 1088529">
        <rect id="Rectángulo_379844" data-name="Rectángulo 379844" width="105.848" height="31.061" rx="15.531" transform="translate(987 10502)" fill="#12263f"/>
        <path id="Trazado_838793" data-name="Trazado 838793" d="M-28.656-3.859V0H-31.4V-11.375h4.539a5.287,5.287,0,0,1,2.309.48A3.621,3.621,0,0,1-23-9.527a3.734,3.734,0,0,1,.551,2.012,3.291,3.291,0,0,1-1.191,2.66,4.943,4.943,0,0,1-3.27,1Zm0-2.117h1.8a1.7,1.7,0,0,0,1.215-.4A1.48,1.48,0,0,0-25.227-7.5a1.83,1.83,0,0,0-.43-1.273,1.522,1.522,0,0,0-1.172-.484h-1.828Zm12.664-.094-.867-.062a1.558,1.558,0,0,0-1.594.781V0h-2.633V-8.453h2.469l.086,1.086A2.039,2.039,0,0,1-16.68-8.609a2.567,2.567,0,0,1,.734.094Zm.336,1.766a4.989,4.989,0,0,1,.492-2.254,3.52,3.52,0,0,1,1.414-1.52,4.259,4.259,0,0,1,2.164-.531A3.887,3.887,0,0,1-8.594-7.434,4.512,4.512,0,0,1-7.5-4.234v.094A4.378,4.378,0,0,1-8.6-1,3.9,3.9,0,0,1-11.57.156a3.942,3.942,0,0,1-2.9-1.082,4.232,4.232,0,0,1-1.18-2.934Zm2.633.164a3.145,3.145,0,0,0,.367,1.719,1.223,1.223,0,0,0,1.086.547q1.406,0,1.438-2.164V-4.3q0-2.273-1.453-2.273-1.32,0-1.43,1.961Zm9.945.453,1.406-4.766h2.82L-2.3,1.414l-.148.359A2.617,2.617,0,0,1-5.039,3.414a4.126,4.126,0,0,1-1.086-.156V1.383h.344a1.8,1.8,0,0,0,.848-.16A.973.973,0,0,0-4.5.648l.211-.563L-7.227-8.453h2.813ZM5.82.156A4.345,4.345,0,0,1,2.672-1a4.006,4.006,0,0,1-1.2-3.02v-.219a5.191,5.191,0,0,1,.48-2.289,3.516,3.516,0,0,1,1.4-1.535,4.233,4.233,0,0,1,2.188-.543A3.659,3.659,0,0,1,8.352-7.5,4.344,4.344,0,0,1,9.383-4.422V-3.4H4.148a1.9,1.9,0,0,0,.617,1.117A1.836,1.836,0,0,0,6-1.875,2.366,2.366,0,0,0,7.953-2.75l1.2,1.422A3.363,3.363,0,0,1,7.762-.246,4.713,4.713,0,0,1,5.82.156Zm-.3-6.734q-1.156,0-1.375,1.531H6.8v-.2a1.3,1.3,0,0,0-.32-.98A1.275,1.275,0,0,0,5.523-6.578Zm8.492,4.7a1.171,1.171,0,0,0,.859-.3,1.1,1.1,0,0,0,.3-.84h2.469a2.922,2.922,0,0,1-1,2.281,3.705,3.705,0,0,1-2.566.891A3.751,3.751,0,0,1,11.172-1a4.556,4.556,0,0,1-1.062-3.2v-.109a5.149,5.149,0,0,1,.473-2.262,3.441,3.441,0,0,1,1.363-1.508,4.065,4.065,0,0,1,2.109-.527,3.658,3.658,0,0,1,2.617.914,3.242,3.242,0,0,1,.969,2.477H15.172a1.445,1.445,0,0,0-.32-1.008,1.106,1.106,0,0,0-.859-.352q-1.023,0-1.2,1.3a9.206,9.206,0,0,0-.055,1.141,3.616,3.616,0,0,0,.3,1.766A1.055,1.055,0,0,0,14.016-1.875Zm7.8-8.68v2.1h1.391v1.828H21.82v3.867a.987.987,0,0,0,.172.664.922.922,0,0,0,.68.188,3.862,3.862,0,0,0,.656-.047V-.07a4.859,4.859,0,0,1-1.484.227,2.758,2.758,0,0,1-2.008-.641,2.626,2.626,0,0,1-.648-1.945v-4.2H18.109V-8.453h1.078v-2.1ZM23.68-4.3a4.989,4.989,0,0,1,.492-2.254,3.52,3.52,0,0,1,1.414-1.52,4.259,4.259,0,0,1,2.164-.531,3.887,3.887,0,0,1,2.992,1.176,4.512,4.512,0,0,1,1.094,3.2v.094A4.378,4.378,0,0,1,30.738-1,3.9,3.9,0,0,1,27.766.156a3.942,3.942,0,0,1-2.9-1.082,4.232,4.232,0,0,1-1.18-2.934Zm2.633.164a3.145,3.145,0,0,0,.367,1.719,1.223,1.223,0,0,0,1.086.547q1.406,0,1.438-2.164V-4.3q0-2.273-1.453-2.273-1.32,0-1.43,1.961Z" transform="translate(1040 10523)" fill="#fff"/>
      </g>
      <g id="Grupo_1088526" data-name="Grupo 1088526" transform="translate(0 16.271)">
        <rect id="Rectángulo_379843" data-name="Rectángulo 379843" width="105.848" height="31.061" rx="15.531" transform="translate(987 10564)" fill="#12263f"/>
        <path id="Trazado_838794" data-name="Trazado 838794" d="M-31.887-3.859V0h-2.742V-11.375h4.539a5.287,5.287,0,0,1,2.309.48,3.621,3.621,0,0,1,1.555,1.367,3.734,3.734,0,0,1,.551,2.012,3.291,3.291,0,0,1-1.191,2.66,4.943,4.943,0,0,1-3.27,1Zm0-2.117h1.8a1.7,1.7,0,0,0,1.215-.4A1.48,1.48,0,0,0-28.457-7.5a1.83,1.83,0,0,0-.43-1.273,1.522,1.522,0,0,0-1.172-.484h-1.828Zm12.664-.094-.867-.062a1.558,1.558,0,0,0-1.594.781V0h-2.633V-8.453h2.469l.086,1.086A2.039,2.039,0,0,1-19.91-8.609a2.567,2.567,0,0,1,.734.094Zm.336,1.766a4.989,4.989,0,0,1,.492-2.254,3.52,3.52,0,0,1,1.414-1.52,4.259,4.259,0,0,1,2.164-.531,3.887,3.887,0,0,1,2.992,1.176,4.512,4.512,0,0,1,1.094,3.2v.094A4.378,4.378,0,0,1-11.828-1,3.9,3.9,0,0,1-14.8.156,3.942,3.942,0,0,1-17.7-.926a4.232,4.232,0,0,1-1.18-2.934Zm2.633.164a3.145,3.145,0,0,0,.367,1.719,1.223,1.223,0,0,0,1.086.547q1.406,0,1.438-2.164V-4.3q0-2.273-1.453-2.273-1.32,0-1.43,1.961Zm6.375-.148a5.708,5.708,0,0,1,.422-2.266,3.4,3.4,0,0,1,1.211-1.52A3.192,3.192,0,0,1-6.41-8.609a2.538,2.538,0,0,1,2.063.891l.094-.734h2.391V-.32a3.564,3.564,0,0,1-.52,1.941,3.334,3.334,0,0,1-1.5,1.266,5.528,5.528,0,0,1-2.281.441,4.769,4.769,0,0,1-1.8-.352A3.251,3.251,0,0,1-9.3,2.063L-8.2.516a2.414,2.414,0,0,0,1.938.867,1.568,1.568,0,0,0,1.75-1.8V-.68A2.472,2.472,0,0,1-6.426.156a3.055,3.055,0,0,1-2.5-1.184A4.9,4.9,0,0,1-9.879-4.2Zm2.641.164A3.007,3.007,0,0,0-6.848-2.48a1.232,1.232,0,0,0,1.094.605,1.4,1.4,0,0,0,1.242-.57V-6a1.363,1.363,0,0,0-1.227-.578,1.241,1.241,0,0,0-1.1.629A3.429,3.429,0,0,0-7.238-4.125ZM4.746-6.07l-.867-.062a1.558,1.558,0,0,0-1.594.781V0H-.348V-8.453H2.121l.086,1.086A2.039,2.039,0,0,1,4.059-8.609a2.567,2.567,0,0,1,.734.094ZM10.223,0a2.973,2.973,0,0,1-.25-.758A2.448,2.448,0,0,1,7.941.156,3,3,0,0,1,5.91-.566a2.3,2.3,0,0,1-.836-1.816A2.364,2.364,0,0,1,6.09-4.461a5.174,5.174,0,0,1,2.953-.7h.813v-.448q0-1.17-1.008-1.17a.824.824,0,0,0-.937.926H5.277A2.36,2.36,0,0,1,6.32-7.845a4.383,4.383,0,0,1,2.66-.765,3.843,3.843,0,0,1,2.555.789A2.743,2.743,0,0,1,12.5-5.656v3.742a3.832,3.832,0,0,0,.359,1.781V0ZM8.574-1.719a1.469,1.469,0,0,0,.816-.211,1.322,1.322,0,0,0,.465-.477V-3.758H9.09q-1.375,0-1.375,1.234a.754.754,0,0,0,.242.582A.876.876,0,0,0,8.574-1.719Zm7.867-6.734.086.992a2.906,2.906,0,0,1,2.414-1.148,2.14,2.14,0,0,1,2.164,1.273A2.813,2.813,0,0,1,23.59-8.609q2.57,0,2.641,3.109V0H23.59V-5.336a1.611,1.611,0,0,0-.219-.945.931.931,0,0,0-.8-.3,1.247,1.247,0,0,0-1.164.7l.008.109V0H18.777V-5.32a1.694,1.694,0,0,0-.211-.961.929.929,0,0,0-.8-.3,1.263,1.263,0,0,0-1.156.7V0H13.973V-8.453ZM32.5,0a2.973,2.973,0,0,1-.25-.758,2.448,2.448,0,0,1-2.031.914,3,3,0,0,1-2.031-.723,2.3,2.3,0,0,1-.836-1.816,2.364,2.364,0,0,1,1.016-2.078,5.174,5.174,0,0,1,2.953-.7h.813v-.448q0-1.17-1.008-1.17a.824.824,0,0,0-.937.926H27.551a2.36,2.36,0,0,1,1.043-1.99,4.383,4.383,0,0,1,2.66-.765,3.843,3.843,0,0,1,2.555.789,2.743,2.743,0,0,1,.961,2.164v3.742a3.832,3.832,0,0,0,.359,1.781V0ZM30.848-1.719a1.469,1.469,0,0,0,.816-.211,1.322,1.322,0,0,0,.465-.477V-3.758h-.766q-1.375,0-1.375,1.234a.754.754,0,0,0,.242.582A.876.876,0,0,0,30.848-1.719Z" transform="translate(1040 10585)" fill="#fff"/>
      </g>
      <g id="Grupo_1088528" data-name="Grupo 1088528">
        <path id="Trazado_838791" data-name="Trazado 838791" d="M15.031,0H90.817a15.031,15.031,0,0,1,0,30.061H15.031A15.031,15.031,0,0,1,15.031,0Z" transform="translate(987 10455)" fill="#12263f"/>
        <path id="Trazado_838792" data-name="Trazado 838792" d="M-35.262-2.125H-39.02L-39.676,0h-2.93l4.172-11.375h2.578L-31.652,0H-34.6Zm-3.1-2.117h2.445l-1.227-3.945Zm10.992,2.367a1.171,1.171,0,0,0,.859-.3,1.1,1.1,0,0,0,.3-.84h2.469a2.922,2.922,0,0,1-1,2.281,3.705,3.705,0,0,1-2.566.891A3.751,3.751,0,0,1-30.215-1a4.556,4.556,0,0,1-1.062-3.2v-.109A5.149,5.149,0,0,1-30.8-6.574a3.441,3.441,0,0,1,1.363-1.508,4.065,4.065,0,0,1,2.109-.527,3.658,3.658,0,0,1,2.617.914,3.242,3.242,0,0,1,.969,2.477h-2.469a1.445,1.445,0,0,0-.32-1.008,1.106,1.106,0,0,0-.859-.352q-1.023,0-1.2,1.3a9.206,9.206,0,0,0-.055,1.141,3.616,3.616,0,0,0,.3,1.766A1.055,1.055,0,0,0-27.371-1.875Zm7.8-8.68v2.1h1.391v1.828h-1.391v3.867a.987.987,0,0,0,.172.664.922.922,0,0,0,.68.188,3.862,3.862,0,0,0,.656-.047V-.07a4.859,4.859,0,0,1-1.484.227,2.758,2.758,0,0,1-2.008-.641A2.626,2.626,0,0,1-22.2-2.43v-4.2h-1.078V-8.453H-22.2v-2.1ZM-14.363,0H-17V-8.453h2.641Zm-2.8-10.633a1.175,1.175,0,0,1,.406-.922,1.533,1.533,0,0,1,1.055-.359,1.533,1.533,0,0,1,1.055.359,1.175,1.175,0,0,1,.406.922,1.175,1.175,0,0,1-.406.922,1.533,1.533,0,0,1-1.055.359,1.533,1.533,0,0,1-1.055-.359A1.175,1.175,0,0,1-17.16-10.633Zm7.789,7.5,1.336-5.32h2.773L-8.02,0h-2.687l-2.758-8.453h2.781ZM-1.7,0H-4.34V-8.453H-1.7ZM-4.5-10.633a1.175,1.175,0,0,1,.406-.922,1.533,1.533,0,0,1,1.055-.359,1.533,1.533,0,0,1,1.055.359,1.175,1.175,0,0,1,.406.922,1.175,1.175,0,0,1-.406.922,1.533,1.533,0,0,1-1.055.359A1.533,1.533,0,0,1-4.09-9.711,1.175,1.175,0,0,1-4.5-10.633ZM-.41-4.289A5.164,5.164,0,0,1,.457-7.453,2.854,2.854,0,0,1,2.879-8.609a2.428,2.428,0,0,1,1.906.891V-12H7.426V0H5.059L4.926-.906A2.493,2.493,0,0,1,2.863.156,2.849,2.849,0,0,1,.473-1,5.327,5.327,0,0,1-.41-4.289Zm2.633.164q0,2.25,1.313,2.25a1.3,1.3,0,0,0,1.25-.734V-5.828a1.261,1.261,0,0,0-1.234-.75q-1.219,0-1.32,1.969ZM13.684,0a2.973,2.973,0,0,1-.25-.758A2.448,2.448,0,0,1,11.4.156,3,3,0,0,1,9.371-.566a2.3,2.3,0,0,1-.836-1.816A2.364,2.364,0,0,1,9.551-4.461a5.174,5.174,0,0,1,2.953-.7h.813v-.448q0-1.17-1.008-1.17a.824.824,0,0,0-.937.926H8.738a2.36,2.36,0,0,1,1.043-1.99,4.383,4.383,0,0,1,2.66-.765A3.843,3.843,0,0,1,15-7.82a2.743,2.743,0,0,1,.961,2.164v3.742a3.832,3.832,0,0,0,.359,1.781V0ZM12.035-1.719a1.469,1.469,0,0,0,.816-.211,1.322,1.322,0,0,0,.465-.477V-3.758h-.766q-1.375,0-1.375,1.234a.754.754,0,0,0,.242.582A.876.876,0,0,0,12.035-1.719Zm5.047-2.57a5.164,5.164,0,0,1,.867-3.164,2.854,2.854,0,0,1,2.422-1.156,2.428,2.428,0,0,1,1.906.891V-12h2.641V0H22.551l-.133-.906A2.493,2.493,0,0,1,20.355.156,2.849,2.849,0,0,1,17.965-1,5.327,5.327,0,0,1,17.082-4.289Zm2.633.164q0,2.25,1.313,2.25a1.3,1.3,0,0,0,1.25-.734V-5.828a1.261,1.261,0,0,0-1.234-.75q-1.219,0-1.32,1.969ZM30.5.156A4.345,4.345,0,0,1,27.355-1a4.006,4.006,0,0,1-1.2-3.02v-.219a5.191,5.191,0,0,1,.48-2.289,3.516,3.516,0,0,1,1.4-1.535,4.233,4.233,0,0,1,2.188-.543A3.659,3.659,0,0,1,33.035-7.5a4.344,4.344,0,0,1,1.031,3.082V-3.4H28.832a1.9,1.9,0,0,0,.617,1.117,1.836,1.836,0,0,0,1.234.406,2.366,2.366,0,0,0,1.953-.875l1.2,1.422A3.363,3.363,0,0,1,32.445-.246,4.713,4.713,0,0,1,30.5.156Zm-.3-6.734q-1.156,0-1.375,1.531h2.656v-.2a1.3,1.3,0,0,0-.32-.98A1.275,1.275,0,0,0,30.207-6.578Zm9.344,4.2a.608.608,0,0,0-.352-.539,5.348,5.348,0,0,0-1.336-.422,6.092,6.092,0,0,1-1.625-.574,2.722,2.722,0,0,1-.977-.863,2.061,2.061,0,0,1-.336-1.164,2.336,2.336,0,0,1,.961-1.918A3.958,3.958,0,0,1,38.4-8.609a4.386,4.386,0,0,1,2.688.758,2.37,2.37,0,0,1,1.016,1.992H39.465q0-1.016-1.07-1.016a1.061,1.061,0,0,0-.7.23.714.714,0,0,0-.281.574.655.655,0,0,0,.344.57,3.248,3.248,0,0,0,1.1.359,9.485,9.485,0,0,1,1.324.336A2.406,2.406,0,0,1,42.09-2.453,2.214,2.214,0,0,1,41.063-.57,4.505,4.505,0,0,1,38.4.156a4.6,4.6,0,0,1-1.937-.391A3.24,3.24,0,0,1,35.137-1.3a2.406,2.406,0,0,1-.477-1.414h2.461a1.017,1.017,0,0,0,.391.855,1.607,1.607,0,0,0,.961.27,1.264,1.264,0,0,0,.809-.219A.7.7,0,0,0,39.551-2.375Z" transform="translate(1040 10475)" fill="#fff"/>
      </g>
    </g>
  </g>
</svg>
