<svg xmlns="http://www.w3.org/2000/svg" xmlns:xlink="http://www.w3.org/1999/xlink" width="124" height="124" viewBox="0 0 124 124">
  <defs>
    <linearGradient id="linear-gradient" x1="0.936" y1="-0.078" x2="-0.19" y2="1.416" gradientUnits="objectBoundingBox">
      <stop offset="0" stop-color="#4f52ff"/>
      <stop offset="1" stop-color="#4042e2"/>
    </linearGradient>
    <linearGradient id="linear-gradient-2" x1="1.214" y1="-0.449" x2="-0.632" y2="2.003" xlink:href="#linear-gradient"/>
    <linearGradient id="linear-gradient-3" x1="0.932" y1="-2.907" x2="0.667" y2="-0.816" gradientUnits="objectBoundingBox">
      <stop offset="0" stop-color="#ff928e"/>
      <stop offset="1" stop-color="#fe7062"/>
    </linearGradient>
    <linearGradient id="linear-gradient-4" x1="-1.844" y1="3.468" x2="-2.135" y2="4.65" gradientUnits="objectBoundingBox">
      <stop offset="0" stop-color="#09005d"/>
      <stop offset="1" stop-color="#1a0f91"/>
    </linearGradient>
    <linearGradient id="linear-gradient-5" x1="-6.881" y1="10.137" x2="-7.203" y2="13.584" xlink:href="#linear-gradient-4"/>
    <linearGradient id="linear-gradient-6" x1="74.698" y1="-1.308" x2="71.861" y2="5.081" xlink:href="#linear-gradient-4"/>
    <linearGradient id="linear-gradient-7" x1="294.731" y1="-1.081" x2="295.738" y2="-1.081" gradientUnits="objectBoundingBox">
      <stop offset="0" stop-color="#febbba"/>
      <stop offset="1" stop-color="#ff928e"/>
    </linearGradient>
    <linearGradient id="linear-gradient-8" x1="94.278" y1="-0.073" x2="91.261" y2="0.782" xlink:href="#linear-gradient-4"/>
    <linearGradient id="linear-gradient-9" x1="185.542" y1="-3.175" x2="178.522" y2="4.39" xlink:href="#linear-gradient-4"/>
    <linearGradient id="linear-gradient-10" x1="343.595" y1="-0.682" x2="344.608" y2="-0.682" xlink:href="#linear-gradient-7"/>
    <linearGradient id="linear-gradient-11" x1="63.163" y1="-0.139" x2="61.145" y2="0.704" xlink:href="#linear-gradient-4"/>
    <linearGradient id="linear-gradient-12" x1="25.141" y1="-19.565" x2="24.1" y2="-18.887" xlink:href="#linear-gradient-3"/>
    <linearGradient id="linear-gradient-13" x1="56.86" y1="0.222" x2="57.854" y2="0.222" xlink:href="#linear-gradient-7"/>
    <linearGradient id="linear-gradient-14" x1="-70.451" y1="1.023" x2="-68.471" y2="3.707" xlink:href="#linear-gradient-7"/>
    <linearGradient id="linear-gradient-15" x1="409.363" y1="-0.657" x2="411.365" y2="-2.437" xlink:href="#linear-gradient-7"/>
    <linearGradient id="linear-gradient-16" x1="64.016" y1="-49.842" x2="61.398" y2="-48.116" xlink:href="#linear-gradient-3"/>
    <linearGradient id="linear-gradient-17" x1="45.312" y1="0.037" x2="46.314" y2="0.037" xlink:href="#linear-gradient-7"/>
    <linearGradient id="linear-gradient-18" x1="-0.103" y1="1.691" x2="0.844" y2="-0.028" xlink:href="#linear-gradient-7"/>
    <linearGradient id="linear-gradient-19" x1="33.139" y1="46.635" x2="32.815" y2="45.569" xlink:href="#linear-gradient-7"/>
    <linearGradient id="linear-gradient-20" x1="25.118" y1="34.693" x2="25.322" y2="35.876" xlink:href="#linear-gradient-4"/>
    <linearGradient id="linear-gradient-21" x1="106.614" y1="221.98" x2="105.667" y2="217.367" xlink:href="#linear-gradient-7"/>
    <linearGradient id="linear-gradient-22" x1="41.57" y1="-0.062" x2="42.084" y2="2.428" xlink:href="#linear-gradient-4"/>
    <linearGradient id="linear-gradient-23" x1="141.632" y1="0.5" x2="142.632" y2="0.5" xlink:href="#linear-gradient-7"/>
    <linearGradient id="linear-gradient-24" x1="9.972" y1="-0.407" x2="8.878" y2="0.795" xlink:href="#linear-gradient-7"/>
    <linearGradient id="linear-gradient-25" x1="-24.57" y1="1.893" x2="-25.182" y2="2.513" xlink:href="#linear-gradient-4"/>
    <linearGradient id="linear-gradient-26" x1="1.812" y1="-0.58" x2="0.988" y2="0.138" xlink:href="#linear-gradient-3"/>
    <linearGradient id="linear-gradient-27" x1="-115.065" y1="7.711" x2="-114.841" y2="6.801" xlink:href="#linear-gradient-7"/>
    <linearGradient id="linear-gradient-28" x1="-66.571" y1="5.644" x2="-65.362" y2="6.807" xlink:href="#linear-gradient-7"/>
    <linearGradient id="linear-gradient-29" x1="-76.74" y1="5.01" x2="-78.62" y2="6.915" xlink:href="#linear-gradient-4"/>
    <linearGradient id="linear-gradient-30" x1="-187.299" y1="18.446" x2="-183.923" y2="22.765" xlink:href="#linear-gradient-7"/>
    <linearGradient id="linear-gradient-31" x1="7.286" y1="1.272" x2="8.687" y2="0.135" xlink:href="#linear-gradient-7"/>
    <linearGradient id="linear-gradient-32" x1="16.645" y1="0.43" x2="17.64" y2="0.43" xlink:href="#linear-gradient-4"/>
    <linearGradient id="linear-gradient-33" x1="15.83" y1="0.377" x2="11.933" y2="0.708" xlink:href="#linear-gradient-7"/>
    <linearGradient id="linear-gradient-34" x1="15.631" y1="0.421" x2="16.624" y2="0.421" xlink:href="#linear-gradient-4"/>
    <linearGradient id="linear-gradient-35" x1="1.968" y1="-0.231" x2="0.935" y2="0.314" xlink:href="#linear-gradient-4"/>
    <linearGradient id="linear-gradient-36" x1="8.911" y1="0.789" x2="11.881" y2="-1.387" xlink:href="#linear-gradient-7"/>
    <linearGradient id="linear-gradient-37" x1="-9.604" y1="-1.469" x2="-10.014" y2="-0.35" xlink:href="#linear-gradient-4"/>
    <linearGradient id="linear-gradient-38" x1="-30.264" y1="-0.93" x2="-29.136" y2="-0.93" xlink:href="#linear-gradient-7"/>
    <linearGradient id="linear-gradient-39" x1="-4.436" y1="0.383" x2="-3.744" y2="-0.528" xlink:href="#linear-gradient-4"/>
    <linearGradient id="linear-gradient-40" x1="-8.486" y1="-1.105" x2="-9.728" y2="2.368" xlink:href="#linear-gradient-4"/>
    <linearGradient id="linear-gradient-41" x1="-8.81" y1="-1.332" x2="-7.877" y2="-1.332" xlink:href="#linear-gradient"/>
    <linearGradient id="linear-gradient-42" x1="-26.908" y1="-1.077" x2="-26.006" y2="-1.077" xlink:href="#linear-gradient-7"/>
    <linearGradient id="linear-gradient-43" x1="-3.986" y1="0.705" x2="-3.955" y2="-0.272" xlink:href="#linear-gradient-4"/>
    <linearGradient id="linear-gradient-44" x1="1.74" y1="-0.37" x2="-0.624" y2="1.26" xlink:href="#linear-gradient-3"/>
    <linearGradient id="linear-gradient-45" x1="-6.41" y1="0.002" x2="-5.417" y2="0.002" xlink:href="#linear-gradient-7"/>
    <linearGradient id="linear-gradient-46" x1="-0.88" y1="1.258" x2="0.452" y2="0.577" xlink:href="#linear-gradient-3"/>
    <linearGradient id="linear-gradient-47" x1="-15.914" y1="-0.516" x2="-14.795" y2="-0.516" xlink:href="#linear-gradient-7"/>
    <linearGradient id="linear-gradient-48" x1="-2.67" y1="1.827" x2="-0.422" y2="0.89" xlink:href="#linear-gradient-3"/>
    <linearGradient id="linear-gradient-49" x1="-4.698" y1="0.781" x2="-5.941" y2="7.598" xlink:href="#linear-gradient-7"/>
    <linearGradient id="linear-gradient-50" x1="-9.537" y1="-10.968" x2="-10.634" y2="-9.655" xlink:href="#linear-gradient-7"/>
    <linearGradient id="linear-gradient-51" x1="-11.662" y1="-10.689" x2="-10.387" y2="-10.689" xlink:href="#linear-gradient-4"/>
    <linearGradient id="linear-gradient-52" x1="-36.21" y1="-39.653" x2="-33.79" y2="-42.33" xlink:href="#linear-gradient-7"/>
    <linearGradient id="linear-gradient-53" x1="31.102" y1="22.046" x2="30.362" y2="24.483" xlink:href="#linear-gradient-4"/>
    <linearGradient id="linear-gradient-54" x1="23.832" y1="0.134" x2="23.431" y2="0.8" xlink:href="#linear-gradient-4"/>
  </defs>
  <g id="Grupo_1091222" data-name="Grupo 1091222" transform="translate(-266.001 -12195.477)">
    <g id="Grupo_159183" data-name="Grupo 159183" transform="translate(266.001 12195.477)">
      <path id="Uni칩n_12" data-name="Uni칩n 12" d="M62,0A62,62,0,1,1,0,62,62,62,0,0,1,62,0Z" fill="#755952"/>
    </g>
    <circle id="Elipse_6781" data-name="Elipse 6781" cx="54.5" cy="54.5" r="54.5" transform="translate(273 12203)" fill="#fff"/>
    <g id="svg02" transform="translate(271.866 12204)">
      <g id="Illustration" transform="translate(0 0)">
        <g id="Grupo_1084792" data-name="Grupo 1084792" transform="translate(0)">
          <g id="Grupo_1084763" data-name="Grupo 1084763">
            <g id="Grupo_1084761" data-name="Grupo 1084761">
              <circle id="Elipse_6702" data-name="Elipse 6702" cx="35.569" cy="35.569" r="35.569" transform="translate(0 50.301) rotate(-45)" fill="#bdd0fb"/>
              <g id="Grupo_1084758" data-name="Grupo 1084758" transform="translate(18.425 18.424)">
                <circle id="Elipse_6703" data-name="Elipse 6703" cx="30.356" cy="30.356" r="30.356" transform="translate(1.521 1.52)" fill="url(#linear-gradient)"/>
                <path id="Trazado_832771" data-name="Trazado 832771" d="M729.773,925.858a31.877,31.877,0,1,1,31.877-31.877A31.913,31.913,0,0,1,729.773,925.858Zm0-62.233a30.356,30.356,0,1,0,30.356,30.356A30.391,30.391,0,0,0,729.773,863.624Z" transform="translate(-697.896 -862.104)" fill="#fff"/>
              </g>
              <g id="Grupo_1084759" data-name="Grupo 1084759" transform="translate(30.275 30.274)">
                <circle id="Elipse_6704" data-name="Elipse 6704" cx="18.507" cy="18.507" r="18.507" transform="translate(1.521 1.52)" fill="url(#linear-gradient-2)"/>
                <path id="Trazado_832772" data-name="Trazado 832772" d="M1075.822,1260.063a20.027,20.027,0,1,1,20.027-20.027A20.05,20.05,0,0,1,1075.822,1260.063Zm0-37.014a16.986,16.986,0,1,0,16.986,16.986A17.005,17.005,0,0,0,1075.822,1223.049Z" transform="translate(-1055.795 -1220.008)" fill="#fff"/>
              </g>
              <g id="Grupo_1084760" data-name="Grupo 1084760" transform="translate(41.611 41.611)">
                <circle id="Elipse_6705" data-name="Elipse 6705" cx="7.17" cy="7.17" r="7.17" transform="translate(1.521 1.52)" fill="url(#linear-gradient-3)"/>
                <path id="Trazado_832773" data-name="Trazado 832773" d="M1406.891,1579.793a8.691,8.691,0,1,1,8.691-8.69A8.7,8.7,0,0,1,1406.891,1579.793Zm0-14.34a5.65,5.65,0,1,0,5.65,5.65A5.656,5.656,0,0,0,1406.891,1565.453Z" transform="translate(-1398.2 -1562.412)" fill="#fff"/>
              </g>
            </g>
            <g id="Grupo_1084762" data-name="Grupo 1084762" transform="translate(50.154 12.623)">
              <path id="Trazado_832774" data-name="Trazado 832774" d="M1850.6,802.6l.755.755-28.6,28.6L1822,831.2Z" transform="translate(-1816.511 -798.771)" fill="url(#linear-gradient-4)"/>
              <path id="Trazado_832775" data-name="Trazado 832775" d="M1662.247,1609.559c.433-.433,2.476,1.609,2.043,2.042l-7.576,5.956a.3.3,0,0,1-.422-.422Z" transform="translate(-1656.223 -1578.953)" fill="url(#linear-gradient-5)"/>
              <path id="Trazado_832776" data-name="Trazado 832776" d="M2473.984,825.905l3.847.382-5.281,5.282a8.165,8.165,0,0,1-6.581,2.352h0Z" transform="translate(-2439.158 -821.303)" fill="#91b3fa"/>
              <path id="Trazado_832777" data-name="Trazado 832777" d="M2450,690.742l-.382-3.847-5.282,5.282a8.166,8.166,0,0,0-2.351,6.581h0Z" transform="translate(-2415.933 -686.895)" fill="#91b3fa"/>
            </g>
          </g>
          <g id="Grupo_1084774" data-name="Grupo 1084774" transform="translate(12.677 5.022)">
            <g id="Grupo_1084768" data-name="Grupo 1084768" transform="translate(0 2.508)">
              <g id="Grupo_1084764" data-name="Grupo 1084764" opacity="0.3">
                <path id="Trazado_832778" data-name="Trazado 832778" d="M552.269,536.671a.275.275,0,0,1-.389,0c-.209-.209-.43-.412-.657-.6a.275.275,0,0,1-.036-.384l0,0a.275.275,0,0,1,.388-.033c.239.2.472.415.691.635a.275.275,0,0,1,.019.368Zm-2.215-1.459c-.251-.158-.511-.308-.773-.444a.275.275,0,1,1,.253-.488c.276.143.549.3.813.467a.275.275,0,0,1,.086.38.272.272,0,0,1-.019.027A.275.275,0,0,1,550.055,535.213Zm-2.1-1.019c-.279-.1-.566-.186-.852-.26a.275.275,0,0,1,.138-.533c.3.078.6.17.9.274a.275.275,0,1,1-.183.519Zm-2.276-.524c-.294-.034-.594-.055-.889-.063a.275.275,0,1,1,.015-.55c.311.009.626.031.936.066a.275.275,0,0,1-.062.547Zm-2.336,0c-.294.033-.59.078-.881.136a.275.275,0,1,1-.106-.54c.306-.06.618-.108.927-.143a.275.275,0,1,1,.061.547Zm-2.279.513c-.28.1-.559.207-.829.327a.275.275,0,0,1-.224-.5c.285-.127.578-.242.873-.344a.275.275,0,1,1,.18.52Zm-7.02,7.427a.275.275,0,0,1-.2-.336c.079-.3.171-.6.276-.9a.275.275,0,1,1,.519.184c-.1.279-.187.566-.262.852a.275.275,0,0,1-.336.2Zm4.913-6.422c-.251.157-.5.326-.735.5a.275.275,0,1,1-.33-.44c.249-.187.51-.365.774-.53a.275.275,0,1,1,.291.467Zm-4.108,4.163a.275.275,0,0,1-.117-.371c.144-.276.3-.55.469-.813a.275.275,0,1,1,.465.295c-.159.25-.309.51-.446.773a.275.275,0,0,1-.371.117Zm2.279-2.712c-.209.209-.413.429-.6.655a.275.275,0,0,1-.424-.351l0,0c.2-.238.415-.47.636-.69a.275.275,0,0,1,.408.368Z" transform="translate(-533.52 -533.056)" fill="#91b3fa"/>
                <path id="Trazado_832779" data-name="Trazado 832779" d="M524.788,820.2a.273.273,0,0,0,.06-.153c.01-.142.024-.285.04-.427a.275.275,0,1,0-.547-.063c-.017.149-.031.3-.042.449a.275.275,0,0,0,.488.193Z" transform="translate(-524.299 -809.831)" fill="#91b3fa"/>
              </g>
              <g id="Grupo_1084765" data-name="Grupo 1084765" transform="translate(2.412 11.016)" opacity="0.3">
                <path id="Trazado_832780" data-name="Trazado 832780" d="M597.935,1063.2a.276.276,0,0,0-.009-.357c-.095-.106-.189-.215-.28-.325a.275.275,0,0,0-.425.35c.1.116.195.231.294.343a.275.275,0,0,0,.389.021A.342.342,0,0,0,597.935,1063.2Z" transform="translate(-597.158 -1055.906)" fill="#91b3fa"/>
                <path id="Trazado_832781" data-name="Trazado 832781" d="M652.848,928.425a.275.275,0,0,1-.41-.367c.193-.216.38-.443.557-.678a.275.275,0,0,1,.439.332q-.116.153-.235.3C653.086,928.153,652.968,928.292,652.848,928.425Zm1.033-1.862a.275.275,0,0,1-.105-.375c.143-.254.277-.518.4-.782a.275.275,0,0,1,.5.228c-.127.279-.268.556-.418.823a.282.282,0,0,1-.026.039A.276.276,0,0,1,653.882,926.563Zm-2.108,2.909c-.234.2-.479.389-.729.567a.275.275,0,1,1-.319-.448c.238-.169.47-.35.692-.538a.275.275,0,0,1,.392.383A.309.309,0,0,1,651.774,929.471Zm3.086-5.057a.275.275,0,0,1-.185-.343c.083-.279.156-.565.216-.85a.275.275,0,0,1,.539.113c-.063.3-.139.6-.227.9a.275.275,0,0,1-.343.185Zm-5.093,6.407c-.271.142-.552.274-.835.393a.275.275,0,1,1-.213-.507c.269-.113.536-.238.793-.373a.275.275,0,1,1,.255.488Zm-2.254.878c-.3.079-.6.147-.9.2a.275.275,0,0,1-.1-.542c.286-.052.575-.116.856-.191a.275.275,0,1,1,.142.532Zm-2.392.365c-.307.013-.617.013-.923,0a.275.275,0,1,1,.023-.55c.291.012.586.012.877,0a.275.275,0,1,1,.023.55Zm-2.414-.165c-.3-.055-.605-.123-.9-.2a.275.275,0,1,1,.143-.531c.281.076.569.14.856.192a.275.275,0,0,1-.1.542Zm-2.32-.692c-.282-.119-.562-.253-.834-.4a.275.275,0,0,1,.257-.487c.258.136.524.262.792.376a.275.275,0,1,1-.215.507Zm-2.11-1.183c-.184-.131-.365-.27-.54-.411q-.1-.077-.188-.156a.272.272,0,0,1-.032-.388.275.275,0,0,1,.388-.032q.088.075.179.148c.166.135.339.266.514.391a.275.275,0,0,1,.064.384l-.01.014A.275.275,0,0,1,638.277,930.024Z" transform="translate(-636.116 -921.108)" fill="#91b3fa"/>
                <path id="Trazado_832782" data-name="Trazado 832782" d="M1170.586,866.653a.274.274,0,0,0,.061-.154c.01-.149.017-.3.022-.451a.275.275,0,1,0-.55-.015c0,.143-.011.287-.021.428a.275.275,0,0,0,.488.192Z" transform="translate(-1151.127 -865.765)" fill="#91b3fa"/>
              </g>
              <g id="Grupo_1084767" data-name="Grupo 1084767" transform="translate(2.628 2.675)">
                <path id="Trazado_832783" data-name="Trazado 832783" d="M619.815,619.519a.129.129,0,0,0-.11-.1l-1.553-.2a6.823,6.823,0,0,0-1.243-1.827l.384-1.516a.129.129,0,0,0-.054-.139l-1.57-1.03a.129.129,0,0,0-.149.006l-1.238.957a6.822,6.822,0,0,0-2.171-.411l-.8-1.345a.129.129,0,0,0-.137-.06l-1.839.382a.129.129,0,0,0-.1.11l-.2,1.553a6.816,6.816,0,0,0-1.827,1.243l-1.516-.385a.129.129,0,0,0-.139.054l-1.03,1.57a.129.129,0,0,0,.006.149l.957,1.238a6.816,6.816,0,0,0-.411,2.171l-1.345.8a.129.129,0,0,0-.06.137l.382,1.839a.129.129,0,0,0,.11.1l1.553.2a6.818,6.818,0,0,0,1.243,1.827l-.384,1.517a.129.129,0,0,0,.054.139l1.57,1.03a.129.129,0,0,0,.149-.006l1.238-.957a6.82,6.82,0,0,0,2.171.411l.8,1.345a.129.129,0,0,0,.137.06l1.838-.382a.129.129,0,0,0,.1-.11l.2-1.553a6.817,6.817,0,0,0,1.827-1.243l1.517.385a.129.129,0,0,0,.139-.054l1.03-1.57a.129.129,0,0,0-.006-.149l-.957-1.237a6.819,6.819,0,0,0,.411-2.171l1.345-.8a.129.129,0,0,0,.06-.137Z" transform="translate(-603.668 -613.851)" fill="#91b3fa"/>
                <g id="Grupo_1084766" data-name="Grupo 1084766" transform="translate(6.378 6.38)">
                  <path id="Trazado_832784" data-name="Trazado 832784" d="M799.485,809.81a1.886,1.886,0,1,1,.19-.2A1.911,1.911,0,0,1,799.485,809.81Zm-2.723-1.451a1.447,1.447,0,1,0,.467-1,1.478,1.478,0,0,0-.147.156A1.437,1.437,0,0,0,796.761,808.359Z" transform="translate(-796.32 -806.534)" fill="#bdd0fb"/>
                </g>
                <path id="Trazado_832785" data-name="Trazado 832785" d="M720.15,731.1a4.726,4.726,0,0,0,.281-.385h0q.042-.063.081-.128a4.674,4.674,0,0,0,.336-.663l0-.009.011-.027.021-.052a.11.11,0,1,0-.205-.079,4.426,4.426,0,0,1-4.191,2.833,4.393,4.393,0,0,1-2.36-.722,4.482,4.482,0,0,1-.367-.268,4.421,4.421,0,1,1,6.771-5.357.11.11,0,1,0,.2-.1,4.642,4.642,0,1,0-7.108,5.624,4.7,4.7,0,0,0,.386.282,4.642,4.642,0,0,0,6.145-.951Z" transform="translate(-708.323 -719.898)" fill="#bdd0fb"/>
              </g>
            </g>
            <g id="Grupo_1084773" data-name="Grupo 1084773" transform="translate(17.835)">
              <g id="Grupo_1084769" data-name="Grupo 1084769" opacity="0.3">
                <path id="Trazado_832786" data-name="Trazado 832786" d="M1423.8,541.136a.17.17,0,0,0,.008-.2c-.082-.119-.169-.237-.258-.35a.17.17,0,1,0-.268.209c.085.108.167.221.246.334a.17.17,0,0,0,.236.043A.166.166,0,0,0,1423.8,541.136Z" transform="translate(-1411.316 -537.762)" fill="#91b3fa"/>
                <path id="Trazado_832787" data-name="Trazado 832787" d="M1074.594,459.688a.17.17,0,0,1-.24,0,7.073,7.073,0,0,0-.531-.477l-.118-.093a.17.17,0,0,1-.03-.239.176.176,0,0,1,.239-.03l.123.1a7.415,7.415,0,0,1,.556.5.17.17,0,0,1,.012.227Zm-1.6-1.057a7.045,7.045,0,0,0-.766-.4.17.17,0,1,1,.137-.311,7.37,7.37,0,0,1,.8.415.17.17,0,0,1,.059.233l-.014.02A.17.17,0,0,1,1072.992,458.632Zm-1.577-.695a6.992,6.992,0,0,0-.841-.2.17.17,0,1,1,.056-.335,7.333,7.333,0,0,1,.882.205.17.17,0,0,1,.114.212.173.173,0,0,1-.031.058A.17.17,0,0,1,1071.416,457.937Zm-1.7-.286a7.013,7.013,0,0,0-.863.016.17.17,0,0,1-.027-.339,7.37,7.37,0,0,1,.9-.017.17.17,0,1,1-.015.34Zm-1.717.138a7.1,7.1,0,0,0-.833.225.17.17,0,1,1-.108-.322,7.423,7.423,0,0,1,.873-.236.17.17,0,0,1,.069.333Zm-1.632.55a6.98,6.98,0,0,0-.752.421.17.17,0,0,1-.184-.286,7.327,7.327,0,0,1,.789-.442.17.17,0,1,1,.147.306Zm-1.448.932a7,7,0,0,0-.626.594.17.17,0,0,1-.249-.232,7.375,7.375,0,0,1,.657-.622.17.17,0,0,1,.218.261Zm-1.87,2.054a.17.17,0,0,1-.066-.231,7.424,7.424,0,0,1,.417-.666l.069-.1a.17.17,0,1,1,.275.2l-.065.092a7.047,7.047,0,0,0-.4.636.189.189,0,0,1-.017.025A.17.17,0,0,1,1063.049,461.325Z" transform="translate(-1062.961 -457.305)" fill="#91b3fa"/>
              </g>
              <g id="Grupo_1084770" data-name="Grupo 1084770" transform="translate(4.738 7.374)" opacity="0.3">
                <path id="Trazado_832788" data-name="Trazado 832788" d="M1213.415,722.425a7.386,7.386,0,0,1-.61.648.17.17,0,0,1-.233-.248,7.018,7.018,0,0,0,.582-.618.17.17,0,0,1,.263.216Zm.293-.667a.17.17,0,0,1-.05-.235,7.113,7.113,0,0,0,.418-.739.17.17,0,0,1,.306.149,7.433,7.433,0,0,1-.438.775l-.011.015A.17.17,0,0,1,1213.707,721.758Zm-1.587,1.885a7.374,7.374,0,0,1-.748.482.17.17,0,0,1-.167-.3,7.062,7.062,0,0,0,.714-.459.17.17,0,0,1,.232.244A.158.158,0,0,1,1212.121,723.643Zm2.384-3.428a.17.17,0,0,1-.105-.216,7.012,7.012,0,0,0,.227-.818.17.17,0,1,1,.332.071,7.266,7.266,0,0,1-.238.858.173.173,0,0,1-.029.052A.17.17,0,0,1,1214.5,720.216Zm-3.933,4.3a7.409,7.409,0,0,1-.842.288.17.17,0,1,1-.09-.328,6.992,6.992,0,0,0,.8-.274.17.17,0,0,1,.2.264A.172.172,0,0,1,1210.572,724.512Zm-1.713.472a7.441,7.441,0,0,1-.887.078.17.17,0,0,1-.009-.34,7.107,7.107,0,0,0,.846-.074.17.17,0,0,1,.05.336Zm-1.777.048a7.363,7.363,0,0,1-.88-.137.17.17,0,0,1,.073-.332,6.957,6.957,0,0,0,.839.131.17.17,0,0,1-.032.339Z" transform="translate(-1206.068 -717.755)" fill="#91b3fa"/>
                <path id="Trazado_832789" data-name="Trazado 832789" d="M1468.647,680.723a.168.168,0,0,0,.037-.092c.013-.145.021-.291.025-.434a.17.17,0,0,0-.34-.009c0,.136-.012.276-.024.414a.17.17,0,0,0,.3.122Z" transform="translate(-1459.661 -680.023)" fill="#91b3fa"/>
              </g>
              <g id="Grupo_1084772" data-name="Grupo 1084772" transform="translate(0.868 1.779)">
                <path id="Trazado_832790" data-name="Trazado 832790" d="M1099.995,514.818a.086.086,0,0,0-.074-.068l-1.039-.133a4.56,4.56,0,0,0-.832-1.222l.257-1.015a.086.086,0,0,0-.036-.093l-1.051-.689a.086.086,0,0,0-.1,0l-.828.641a4.562,4.562,0,0,0-1.453-.275l-.536-.9a.086.086,0,0,0-.091-.04l-1.23.256a.086.086,0,0,0-.068.073l-.133,1.039a4.565,4.565,0,0,0-1.222.832l-1.015-.257a.086.086,0,0,0-.093.036l-.689,1.051a.086.086,0,0,0,0,.1l.641.828a4.556,4.556,0,0,0-.275,1.453l-.9.536a.086.086,0,0,0-.04.091l.256,1.23a.086.086,0,0,0,.073.068l1.039.133a4.564,4.564,0,0,0,.832,1.222l-.257,1.015a.086.086,0,0,0,.036.093l1.051.689a.086.086,0,0,0,.1,0l.828-.641a4.56,4.56,0,0,0,1.453.275l.536.9a.086.086,0,0,0,.091.04l1.23-.256a.086.086,0,0,0,.068-.073l.133-1.039a4.562,4.562,0,0,0,1.222-.832l1.015.257a.086.086,0,0,0,.093-.036l.689-1.051a.086.086,0,0,0,0-.1l-.641-.828a4.557,4.557,0,0,0,.275-1.453l.9-.536a.086.086,0,0,0,.04-.091Z" transform="translate(-1089.19 -511.025)" fill="#91b3fa"/>
                <g id="Grupo_1084771" data-name="Grupo 1084771" transform="translate(4.246 4.246)">
                  <path id="Trazado_832791" data-name="Trazado 832791" d="M1219.593,641.508a1.282,1.282,0,1,1,.13-.139A1.258,1.258,0,0,1,1219.593,641.508Zm-1.566-.307a.946.946,0,0,0,1.336.057h0a.946.946,0,0,0-1.28-1.393.968.968,0,0,0-.1.1A.947.947,0,0,0,1218.027,641.2Z" transform="translate(-1217.438 -639.276)" fill="#bdd0fb"/>
                </g>
                <path id="Trazado_832792" data-name="Trazado 832792" d="M1164.4,586.667q.1-.125.192-.263a3.21,3.21,0,0,0,.3-.579l.011-.027a.17.17,0,0,0-.052-.193.168.168,0,0,0-.046-.027.17.17,0,0,0-.22.1,2.886,2.886,0,0,1-.279.542h0l-.018.028a2.835,2.835,0,0,1-1.042.937,2.878,2.878,0,0,1-.725.262h-.006l-.019,0a2.843,2.843,0,0,1-2.152-.409,2.925,2.925,0,0,1-.238-.174,2.862,2.862,0,1,1,4.383-3.469.168.168,0,0,0,.046.058.17.17,0,0,0,.26-.206,3.2,3.2,0,1,0-4.9,3.88q.127.1.266.194A3.207,3.207,0,0,0,1164.4,586.667Z" transform="translate(-1156.405 -579.114)" fill="#bdd0fb"/>
              </g>
            </g>
          </g>
          <g id="Grupo_1084780" data-name="Grupo 1084780" transform="translate(11.399 45.526)">
            <path id="Trazado_832793" data-name="Trazado 832793" d="M805,3164.23s-.191,1.027-.29,2.043a.7.7,0,0,0,.663.766c1.355.07,4.252.207,5.293.17a.228.228,0,0,0,.2-.311.512.512,0,0,0-.259-.278l-4.767-2.247Z" transform="translate(-794.149 -3115.11)" fill="url(#linear-gradient-6)"/>
            <path id="Trazado_832794" data-name="Trazado 832794" d="M809.255,3140.731l.134,1.231a1.527,1.527,0,0,0,1.412-.035l-.334-1.374Z" transform="translate(-798.542 -3092.217)" fill="url(#linear-gradient-7)"/>
            <path id="Trazado_832795" data-name="Trazado 832795" d="M707.685,2446.739c-.066.321-.491,16.021,1.12,23.075a.239.239,0,0,1-.143.277,4.154,4.154,0,0,1-1.37.265.411.411,0,0,1-.405-.3,80.739,80.739,0,0,1-2.911-17.658c-.252-8.735,0-.3,0-.3l.248-5.4Z" transform="translate(-696.642 -2421.342)" fill="url(#linear-gradient-8)"/>
            <path id="Trazado_832796" data-name="Trazado 832796" d="M629.628,3178.84a7.393,7.393,0,0,0-.587,1.893.428.428,0,0,0,.372.516c.447.048,1.135.111,1.687.113a.426.426,0,0,0,.427-.472,3.6,3.6,0,0,0-.821-1.981Z" transform="translate(-624.286 -3129.237)" fill="url(#linear-gradient-9)"/>
            <path id="Trazado_832797" data-name="Trazado 832797" d="M639.839,3129.22l.323,1.863a1.2,1.2,0,0,0,1,.078l-.144-2Z" transform="translate(-634.735 -3081.201)" fill="url(#linear-gradient-10)"/>
            <path id="Trazado_832798" data-name="Trazado 832798" d="M600.789,2436.868c-1.452,8.272.1,20.481.643,22.873a.372.372,0,0,0,.3.285,2.493,2.493,0,0,0,1.074-.033.34.34,0,0,0,.248-.312c.094-1.929.071-13.774,1.395-18.443a1.064,1.064,0,0,1,.416-.583l2.5-1.741.218-2.851Z" transform="translate(-596.395 -2411.053)" fill="url(#linear-gradient-11)"/>
            <g id="Grupo_1084775" data-name="Grupo 1084775" transform="translate(3.941 3.937)">
              <path id="Trazado_832799" data-name="Trazado 832799" d="M614.082,1970.237a38.69,38.69,0,0,0-8.664,1,61.976,61.976,0,0,0-.362,15.408,12.924,12.924,0,0,0,6.783-.446c.558-2.986,3.108-11.38,3.108-11.38a13.554,13.554,0,0,0,5.045-1.548,8.822,8.822,0,0,1-1.709-3.664A13.811,13.811,0,0,1,614.082,1970.237Z" transform="translate(-604.731 -1963.975)" fill="url(#linear-gradient-12)"/>
              <path id="Trazado_832800" data-name="Trazado 832800" d="M1022.092,1799.889a.787.787,0,0,0-.913-.266c-.63,2.552-3.824,4.6-7.1,5.578a8.822,8.822,0,0,0,1.709,3.664A13.2,13.2,0,0,0,1022.092,1799.889Z" transform="translate(-1000.53 -1799.571)" fill="url(#linear-gradient-13)"/>
            </g>
            <g id="Grupo_1084776" data-name="Grupo 1084776" transform="translate(24.599)">
              <path id="Trazado_832801" data-name="Trazado 832801" d="M1229.473,1685.031c.041.135-.451.335-.734-.218a5.183,5.183,0,0,1,0-1.607,21.024,21.024,0,0,1,2.489-2.553.387.387,0,0,1,.043.538l-.8.814a3.812,3.812,0,0,1,.452.915,1.106,1.106,0,0,1-.118.812c-.141.248-.333.571-.514.823A1.091,1.091,0,0,1,1229.473,1685.031Z" transform="translate(-1228.668 -1680.653)" fill="url(#linear-gradient-14)"/>
              <path id="Trazado_832802" data-name="Trazado 832802" d="M1244.809,1737.5l-.725.6-.231.6.634.717a8.268,8.268,0,0,1,.39-1.461C1245.039,1737.7,1244.958,1737.578,1244.809,1737.5Z" transform="translate(-1243.35 -1735.618)" fill="url(#linear-gradient-15)"/>
            </g>
            <path id="Trazado_832803" data-name="Trazado 832803" d="M494.68,2022.839l-1.54-4s-3.868,2.574-4.531,5.879a9.09,9.09,0,0,1,3.332.927C492.239,2024.086,494.68,2022.839,494.68,2022.839Z" transform="translate(-488.512 -2007.643)" fill="url(#linear-gradient-16)"/>
            <path id="Trazado_832804" data-name="Trazado 832804" d="M495.186,2198.306s-4.338,2.4-5.774.3a1.636,1.636,0,0,1-.288-1.274,9.1,9.1,0,0,0-3.332-.927,4.57,4.57,0,0,0,.467,3.137c2.506,4.689,9.488-.167,9.488-.167Z" transform="translate(-485.695 -2179.33)" fill="url(#linear-gradient-17)"/>
            <path id="Trazado_832805" data-name="Trazado 832805" d="M722.735,1886.62l-1.345,3.773a.137.137,0,0,0,.061.165,3.078,3.078,0,0,0,3.194-.184.642.642,0,0,0,.3-.456l.455-3.273Z" transform="translate(-713.578 -1879.801)" fill="url(#linear-gradient-18)"/>
            <g id="Grupo_1084777" data-name="Grupo 1084777" transform="translate(6.685 1.372)">
              <path id="Trazado_832806" data-name="Trazado 832806" d="M751.026,1781.56s1.412,2.72,1.217,3.811-1.976,1-3.523.093l-1.059-2.932Z" transform="translate(-745.673 -1779.591)" fill="url(#linear-gradient-19)"/>
              <path id="Trazado_832807" data-name="Trazado 832807" d="M690.743,1726.539a.112.112,0,0,0,.05-.163,2.914,2.914,0,0,1-.392-.853s-.257-.168.661-.379,2.288-.538,2.582-1.315c.287-.758-.43-2.677-1.618-1.164a.112.112,0,0,1-.177,0,1.15,1.15,0,0,0-1.4-.468,1.054,1.054,0,0,0-.732,1.012.111.111,0,0,1-.133.112,1.286,1.286,0,0,0-1.508.686,1.034,1.034,0,0,0,.062,1.242.111.111,0,0,1-.049.184.669.669,0,0,0-.479.759c.032.708.824.653,1.049.623a.112.112,0,0,1,.1.036,3.8,3.8,0,0,0,1.992,1.249.112.112,0,0,0,.119-.147l-.4-1.188a.112.112,0,0,1,.062-.138Z" transform="translate(-687.613 -1722.101)" fill="url(#linear-gradient-20)"/>
              <path id="Trazado_832808" data-name="Trazado 832808" d="M754.864,1850.892s-1.017-.712-1.1-.121.914.865,1.409.649Z" transform="translate(-751.572 -1846.284)" fill="url(#linear-gradient-21)"/>
            </g>
            <g id="Grupo_1084779" data-name="Grupo 1084779" transform="translate(8.595 13.827)">
              <g id="Grupo_1084778" data-name="Grupo 1084778">
                <path id="Trazado_832809" data-name="Trazado 832809" d="M745.288,2107.22l2.363-8.253a.241.241,0,0,1,.2-.173c.428-.05,1.669-.19,3.1-.312a35.222,35.222,0,0,1,4.926-.164.242.242,0,0,1,.2.348,82.55,82.55,0,0,1-4.884,8.816.241.241,0,0,1-.195.1l-5.483-.051A.241.241,0,0,1,745.288,2107.22Z" transform="translate(-745.279 -2098.282)" fill="url(#linear-gradient-22)"/>
                <path id="Trazado_832810" data-name="Trazado 832810" d="M756.152,2225.852a6.007,6.007,0,0,1-.2-1.833c.133-.48.39-1.1,1.248-.96a12.557,12.557,0,0,1,1.869.5.491.491,0,0,1-.7.424l.4.313s-.058.5-.608.233l.376.415a.438.438,0,0,1-.641.147C757.494,2224.824,757.3,2226.015,756.152,2225.852Z" transform="translate(-755.571 -2218.907)" fill="url(#linear-gradient-23)"/>
              </g>
              <path id="Trazado_832811" data-name="Trazado 832811" d="M911.991,2158.5a.694.694,0,1,0,.694-.694A.694.694,0,0,0,911.991,2158.5Z" transform="translate(-906.471 -2155.838)" fill="#91b3fa"/>
              <path id="Trazado_832812" data-name="Trazado 832812" d="M819.845,2116.9l.481-1.632a.559.559,0,0,1,.42-.393,48.294,48.294,0,0,1,5.677-.382l0-.185a47.371,47.371,0,0,0-5.712.386.744.744,0,0,0-.56.521l-.481,1.632Z" transform="translate(-817.205 -2113.776)" fill="#bdd0fb"/>
            </g>
          </g>
          <g id="Grupo_1084791" data-name="Grupo 1084791" transform="translate(51.78 45.228)">
            <g id="Grupo_1084781" data-name="Grupo 1084781" transform="translate(32.024)">
              <path id="Trazado_832813" data-name="Trazado 832813" d="M2672.823,1819.447a.156.156,0,0,1,.289.031,2.578,2.578,0,0,0,1.191,1.7l.1.048a.362.362,0,0,0-.045-.327c-.221-.338.178-.8.178-.8a1.029,1.029,0,0,0,.335.663.99.99,0,0,1,.212,1.114c-.385,1.5-.962,3.475,1.285,4.921s5.411-2.728,5.411-2.728l-1.571,4.979s-2.424,1.789-5.243-.726-.951-6.175-.951-6.175S2671.867,1821.274,2672.823,1819.447Z" transform="translate(-2672.578 -1814.473)" fill="url(#linear-gradient-24)"/>
              <path id="Trazado_832814" data-name="Trazado 832814" d="M2931.563,1673.929s-.651-2.92,2.694-2.147c0,0,1.624-.265,1.706,1.267a1.426,1.426,0,0,1,.28,2.016s3.11-1.2,4.466,1.525.11,4.226-1.2,4.617a1.3,1.3,0,0,1,.557,1.73,3.021,3.021,0,0,1-4.535.586s-4.263.563-4.177-2.447c0,0-1.983-1.281.1-3.769S2931.563,1673.929,2931.563,1673.929Z" transform="translate(-2921.965 -1671.652)" fill="url(#linear-gradient-25)"/>
              <path id="Trazado_832815" data-name="Trazado 832815" d="M2880.682,1939.6a4.588,4.588,0,0,1,4.49,1.144,1.152,1.152,0,0,1,.332,1.149c-.5,1.841-1.819,7.279-.662,9.631,0,0-2.039,2.247-4.262.436,0,0-1-4.348-2.3-6.257-.9-1.318,1.438-4.949,2.031-5.826A.7.7,0,0,1,2880.682,1939.6Z" transform="translate(-2871.267 -1930.552)" fill="url(#linear-gradient-26)"/>
              <path id="Trazado_832816" data-name="Trazado 832816" d="M2974.115,1834.4a22.9,22.9,0,0,1,1.069,4.052,2.126,2.126,0,0,1-2.134-.344,31.231,31.231,0,0,0-.266-3.311Z" transform="translate(-2962.844 -1829.012)" fill="url(#linear-gradient-27)"/>
              <path id="Trazado_832817" data-name="Trazado 832817" d="M2926.268,1718.006s-2.6,3.638-1.046,4.7,3.4-1.529,3.4-1.529.6-1.991-.027-2.667S2926.268,1718.006,2926.268,1718.006Z" transform="translate(-2916.378 -1716.451)" fill="url(#linear-gradient-28)"/>
              <path id="Trazado_832818" data-name="Trazado 832818" d="M2967.534,1690.934s-1.194.283-1.362.823,1.694,1.042,2.215,1.066l.42,2.181s1.242-2.051.75-3.236S2967.534,1690.934,2967.534,1690.934Z" transform="translate(-2956.442 -1690.249)" fill="url(#linear-gradient-29)"/>
              <path id="Trazado_832819" data-name="Trazado 832819" d="M3027.3,1786.694s1.012-1.172,1.415-.408-.911,1.338-1.365.963Z" transform="translate(-3015.556 -1782.241)" fill="url(#linear-gradient-30)"/>
              <path id="Trazado_832820" data-name="Trazado 832820" d="M2859.055,2593.9c.008.2-.339,1.763-.528,2.6a1.375,1.375,0,0,0,.148.987l6.532,10.994a1.511,1.511,0,0,1,.171.428,9.436,9.436,0,0,1,.238,2.931l-.338.7,1.461-.332.318-3.925-.414-.252a1.969,1.969,0,0,1-.8-.931,56.109,56.109,0,0,1-2.435-6.867c-.43-2.023-2.676-3.666-2.676-3.666l.394-.933Z" transform="translate(-2852.338 -2563.365)" fill="url(#linear-gradient-31)"/>
              <path id="Trazado_832821" data-name="Trazado 832821" d="M3053.7,3022.127a8.915,8.915,0,0,1-.882-1.738c-.093-.487-.351-1.347-.838-1.088a28.573,28.573,0,0,0-.15,3.291c.079.924-1.045.895-1.045.895a1.047,1.047,0,0,0-.537.27.263.263,0,0,0,.177.443,6.346,6.346,0,0,0,1.566-.088.479.479,0,0,0,.386-.442l.162-2.723,1,1.257Z" transform="translate(-3037.676 -2974.636)" fill="url(#linear-gradient-32)"/>
              <path id="Trazado_832822" data-name="Trazado 832822" d="M2953.619,2639.059s.23,9.834.262,11.231-.221,4.492-1.621,5.417l.609.451a8.147,8.147,0,0,0,1.505-1.893,11.534,11.534,0,0,1,1.088-1.655l-.277-.568a1.246,1.246,0,0,1-.1-.8c.3-1.464,1.312-6.335,1.587-7.384a4.725,4.725,0,0,0-.782-4.276A1.605,1.605,0,0,0,2953.619,2639.059Z" transform="translate(-2943 -2606.773)" fill="url(#linear-gradient-33)"/>
              <path id="Trazado_832823" data-name="Trazado 832823" d="M2934.863,3053.219a.085.085,0,0,0,.087-.073,12.716,12.716,0,0,1,.4-1.983c.182-.39.776-2.03,0-2.169,0,0-1.929,2.819-2.3,3.2a.725.725,0,0,1-.837.133,1.4,1.4,0,0,0-.633.454.256.256,0,0,0,.2.411l1.3.012a.914.914,0,0,0,.857-.576,4.88,4.88,0,0,1,1.08-1.781l-.238,2.278a.087.087,0,0,0,.085.1Z" transform="translate(-2922.952 -3003.39)" fill="url(#linear-gradient-34)"/>
              <path id="Trazado_832824" data-name="Trazado 832824" d="M2858.129,2267.34a4.612,4.612,0,0,1-.157,2.471l-2.791,9.746a.3.3,0,0,0,.188.367,18.62,18.62,0,0,0,7.325.888.426.426,0,0,0,.388-.331l1.262-5.681c.661-2.968,1.4-6.168-1.847-8.1A6.674,6.674,0,0,1,2858.129,2267.34Z" transform="translate(-2849.124 -2246.995)" fill="url(#linear-gradient-35)"/>
              <path id="Trazado_832825" data-name="Trazado 832825" d="M3022.876,1983.853a12.918,12.918,0,0,1,3.963,6.245c.788,3.606-4.64,3.989-4.64,3.989a1.679,1.679,0,0,0-1.612-.529c-.875.293-.068-1.436.956-1.432s.549.814,2,.158c1.411-.639,2.282-2.615-1.317-5.61a1.629,1.629,0,0,1-.475-.647C3021.05,1984.267,3021.6,1983.114,3022.876,1983.853Z" transform="translate(-3008.705 -1973.297)" fill="url(#linear-gradient-36)"/>
            </g>
            <g id="Grupo_1084790" data-name="Grupo 1084790" transform="translate(0 8.944)">
              <g id="Grupo_1084784" data-name="Grupo 1084784" transform="translate(19.339 25.638)">
                <g id="Grupo_1084782" data-name="Grupo 1084782" transform="translate(5.853 2.917)">
                  <rect id="Rect치ngulo_379671" data-name="Rect치ngulo 379671" width="1.133" height="12.249" fill="#7d97f4"/>
                </g>
                <g id="Grupo_1084783" data-name="Grupo 1084783" transform="translate(1.459 14.664)">
                  <path id="Trazado_832826" data-name="Trazado 832826" d="M2343.443,3159.8h-9.92v-.656a.082.082,0,0,1,.082-.082h9.757a.082.082,0,0,1,.082.082Z" transform="translate(-2333.523 -3159.062)" fill="#7d97f4"/>
                </g>
                <path id="Trazado_832827" data-name="Trazado 832827" d="M2302.7,2718.615a1.3,1.3,0,0,1-1.294,1.294H2290.74a1.3,1.3,0,0,1-1.294-1.294v-1.17a1.3,1.3,0,0,1,1.294-1.294h10.667a1.3,1.3,0,0,1,1.294,1.294Z" transform="translate(-2289.445 -2716.15)" fill="#7d97f4"/>
              </g>
              <g id="Grupo_1084786" data-name="Grupo 1084786" transform="translate(8.976)">
                <path id="Trazado_832828" data-name="Trazado 832828" d="M2079.019,3053.423s-3.662,1.577-3.452,3.228c0,0,3.785-.726,4.463-1.808s.3-1.709.3-1.709Z" transform="translate(-2072.276 -3016.339)" fill="url(#linear-gradient-37)"/>
                <path id="Trazado_832829" data-name="Trazado 832829" d="M2161.148,3007.4l.186,1.607a.532.532,0,0,1-.336.565,1.388,1.388,0,0,1-.464.071.619.619,0,0,1-.6-.451l-.36-1.3Z" transform="translate(-2153.509 -2972.118)" fill="url(#linear-gradient-38)"/>
                <path id="Trazado_832830" data-name="Trazado 832830" d="M2111.971,2634.658s-6.735-.312-10.086,1.642.17,11.334.17,11.334a3.4,3.4,0,0,0,2.136-.485s-1.8-6.866,1.326-8.061a17.987,17.987,0,0,1,7.146-1.017l-.673-3.2Z" transform="translate(-2096.333 -2611.7)" fill="url(#linear-gradient-39)"/>
                <path id="Trazado_832831" data-name="Trazado 832831" d="M2058.454,3105.446c.766-.168,3.037-1.109,3.382-1.1s.833.529.833.529a.918.918,0,0,1-.162.688,6.359,6.359,0,0,1-3.311,1.386,2.459,2.459,0,0,1-2.1-.778A3,3,0,0,1,2058.454,3105.446Z" transform="translate(-2054.428 -3065.858)" fill="url(#linear-gradient-40)"/>
                <path id="Trazado_832832" data-name="Trazado 832832" d="M2049.625,3142.512a6.357,6.357,0,0,0,3.311-1.386,2.86,2.86,0,0,1-1.082.942,7.243,7.243,0,0,1-4.414.527c-.389-.151-.269-.514.087-.86A2.459,2.459,0,0,0,2049.625,3142.512Z" transform="translate(-2044.856 -3101.417)" fill="url(#linear-gradient-41)"/>
                <path id="Trazado_832833" data-name="Trazado 832833" d="M2189.11,3069.826a5.484,5.484,0,0,1-.9,1.077.609.609,0,0,1-.567.171,1.578,1.578,0,0,1-.406-.143.4.4,0,0,1-.153-.539l.784-1.427Z" transform="translate(-2180.064 -3031.646)" fill="url(#linear-gradient-42)"/>
                <path id="Trazado_832834" data-name="Trazado 832834" d="M2210.505,2618.13s.588,4.171-1.112,5.023-5.428,1.41-6.712,3.573-3.59,6.409-5.689,7.629a3.44,3.44,0,0,1-1.549-.979,79.983,79.983,0,0,1,3.531-8.141c.9-1.378,2.216-3.364,4.086-4.223.535-.246.577-.814.483-1.4l-.172-1.058Z" transform="translate(-2188.192 -2595.737)" fill="url(#linear-gradient-43)"/>
                <path id="Trazado_832835" data-name="Trazado 832835" d="M2159.856,2294.575c2.383.68,3.45-6.026,3.44-6.19l3.654,4.272s-2.177,3.831-5.464,4.238a3.878,3.878,0,0,1-2.133-.312A3.42,3.42,0,0,0,2159.856,2294.575Z" transform="translate(-2153.297 -2276.91)" fill="url(#linear-gradient-44)"/>
                <path id="Trazado_832836" data-name="Trazado 832836" d="M1978.589,2405.534a1.913,1.913,0,0,1,1.92.425,6.239,6.239,0,0,0,2.493,1.77,3.416,3.416,0,0,1-.5,2.009,5.314,5.314,0,0,1-2.341-2.371.446.446,0,0,0-.588-.2c-.22.106-.447.269-.461.489-.028.435-.546.461-.549.3a6.439,6.439,0,0,1,.4-1.02s-1.194.765-1.658,1.058a.684.684,0,0,1-.86-.191S1977.551,2405.961,1978.589,2405.534Z" transform="translate(-1976.443 -2390.064)" fill="url(#linear-gradient-45)"/>
                <path id="Trazado_832837" data-name="Trazado 832837" d="M2287.984,2187.447s-3.2-2.185-10.937,1.766a2.516,2.516,0,0,0-.423,2.148c.373,1.138,4.965,7.3,5.144,10.19a8.223,8.223,0,0,0,7.214.016S2290.348,2193.931,2287.984,2187.447Z" transform="translate(-2266.589 -2178.73)" fill="url(#linear-gradient-46)"/>
                <path id="Trazado_832838" data-name="Trazado 832838" d="M2347.577,2120.67l1.266,2.48a.706.706,0,0,1-.073.76,2.015,2.015,0,0,1-2.318.645,1.088,1.088,0,0,1-.741-.789l-.656-2.768Z" transform="translate(-2332.85 -2114.747)" fill="url(#linear-gradient-47)"/>
                <path id="Trazado_832839" data-name="Trazado 832839" d="M2584.273,2213.7c.217-1.507-3.767-4.429-3.767-4.429l1.4-4.23s7.6,5.425,6,9.854a3.1,3.1,0,0,1-.988,1.426A4.953,4.953,0,0,0,2584.273,2213.7Z" transform="translate(-2560.507 -2196.322)" fill="url(#linear-gradient-48)"/>
                <path id="Trazado_832840" data-name="Trazado 832840" d="M2427.768,2466.994s4.506,1.259,5.441-.113a.715.715,0,0,0,.116-.305,4.952,4.952,0,0,1,2.644,2.62c-2.139,1.683-6.265-.2-7.385-.769a.793.793,0,0,0-.594-.05,5.393,5.393,0,0,1-1.474.3c-.563-.031-1.167,2-2.126,1.489C2424.39,2470.163,2424.825,2466.687,2427.768,2466.994Z" transform="translate(-2409.558 -2449.201)" fill="url(#linear-gradient-49)"/>
                <g id="Grupo_1084785" data-name="Grupo 1084785" transform="translate(10.43)">
                  <path id="Trazado_832841" data-name="Trazado 832841" d="M2294.13,1995.2c-.04.035-1.709,2.95-2.559,4.437a.874.874,0,0,0,.415,1.237l.368.158a2.521,2.521,0,0,0,2.01.052l2.684-2.833S2295.033,1994.42,2294.13,1995.2Z" transform="translate(-2291.455 -1993.331)" fill="url(#linear-gradient-50)"/>
                  <path id="Trazado_832842" data-name="Trazado 832842" d="M2350.69,1945.931a.866.866,0,0,0,.417-1.222,1.221,1.221,0,0,0-1.331-.689.334.334,0,0,1-.354-.24.264.264,0,0,0-.234-.189.328.328,0,0,1-.259-.411,1,1,0,0,0-.5-1.192,1.589,1.589,0,0,0-2.242,1.061c-.266.781.879,1.388,1.611,1.512.556.094.827.736.926,1.038a.331.331,0,0,1-.039.284l-.816,1.24c.225.282.423.581.62.882.073-.079.137-.145.188-.191.354-.325.984-.157,1.244-.068a.328.328,0,0,0,.258-.019.864.864,0,0,0,.385-1.332A.334.334,0,0,1,2350.69,1945.931Z" transform="translate(-2344.341 -1941.782)" fill="url(#linear-gradient-51)"/>
                  <path id="Trazado_832843" data-name="Trazado 832843" d="M2407.86,2108.683s.521-1.341,1.115-1.266,1.036.687.271,1.323C2408.294,2109.53,2407.86,2108.683,2407.86,2108.683Z" transform="translate(-2404.006 -2101.93)" fill="url(#linear-gradient-52)"/>
                </g>
              </g>
              <g id="Grupo_1084787" data-name="Grupo 1084787" transform="translate(0.716 11.105)">
                <path id="Trazado_832844" data-name="Trazado 832844" d="M2030.766,2538.03h-.024l-10.527-.011a.471.471,0,0,1,0-.942l10.527.011a.471.471,0,0,1,.023.941Z" transform="translate(-2010.051 -2528.473)" fill="url(#linear-gradient-53)"/>
                <path id="Trazado_832845" data-name="Trazado 832845" d="M1727.673,2277.19h8.767a1.671,1.671,0,0,1,1.511.958l4.053,8.594H1731.11a1.016,1.016,0,0,1-.945-.642l-3.143-7.952A.7.7,0,0,1,1727.673,2277.19Z" transform="translate(-1726.973 -2277.19)" fill="url(#linear-gradient-54)"/>
                <path id="Trazado_832846" data-name="Trazado 832846" d="M1893.806,2384.637c.19.59.05,1.163-.313,1.28s-.812-.267-1-.857-.05-1.163.313-1.28S1893.617,2384.046,1893.806,2384.637Z" transform="translate(-1886.929 -2380.23)" fill="#91b3fa"/>
              </g>
              <g id="Grupo_1084789" data-name="Grupo 1084789" transform="translate(0 20.563)">
                <g id="Grupo_1084788" data-name="Grupo 1084788" transform="translate(2.396 0.942)">
                  <path id="Trazado_832847" data-name="Trazado 832847" d="M1778.145,2613.026a.455.455,0,0,1-.175-.035.423.423,0,0,1-.232-.563l9.278-20.88a.448.448,0,0,1,.581-.224.423.423,0,0,1,.232.563l-9.278,20.88A.444.444,0,0,1,1778.145,2613.026Z" transform="translate(-1777.702 -2591.289)" fill="#91b3fa"/>
                  <path id="Trazado_832848" data-name="Trazado 832848" d="M1822.874,2613.023a.443.443,0,0,1-.407-.259l-9.278-20.88a.424.424,0,0,1,.232-.563.448.448,0,0,1,.581.224l9.277,20.88a.423.423,0,0,1-.232.563A.454.454,0,0,1,1822.874,2613.023Z" transform="translate(-1811.98 -2591.286)" fill="#91b3fa"/>
                  <path id="Trazado_832849" data-name="Trazado 832849" d="M2645.534,2613.026a.455.455,0,0,1-.175-.035.423.423,0,0,1-.231-.563l9.277-20.88a.448.448,0,0,1,.581-.224.423.423,0,0,1,.231.563l-9.278,20.88A.444.444,0,0,1,2645.534,2613.026Z" transform="translate(-2616.374 -2591.289)" fill="#91b3fa"/>
                  <path id="Trazado_832850" data-name="Trazado 832850" d="M2690.256,2613.023a.443.443,0,0,1-.407-.259l-9.277-20.88a.423.423,0,0,1,.231-.563.448.448,0,0,1,.581.224l9.278,20.88a.424.424,0,0,1-.232.563A.455.455,0,0,1,2690.256,2613.023Z" transform="translate(-2650.644 -2591.286)" fill="#91b3fa"/>
                </g>
                <path id="Trazado_832851" data-name="Trazado 832851" d="M1748.429,2563.4a.508.508,0,0,0-.088-.386.4.4,0,0,0-.322-.17h-42.207a.47.47,0,0,0-.4.248.593.593,0,0,0-.031.515l.458,1.108a.639.639,0,0,0,.581.416h41.314a.5.5,0,0,0,.476-.439Z" transform="translate(-1705.332 -2562.844)" fill="#91b3fa"/>
              </g>
            </g>
          </g>
        </g>
      </g>
    </g>
  </g>
</svg>
