<svg xmlns="http://www.w3.org/2000/svg" xmlns:xlink="http://www.w3.org/1999/xlink" width="503" height="755" viewBox="0 0 503 755">
  <defs>
    <linearGradient id="linear-gradient" x1="0.5" x2="0.5" y2="1" gradientUnits="objectBoundingBox">
      <stop offset="0" stop-color="#eaf2e1"/>
      <stop offset="0.562" stop-color="#f8f8f8"/>
      <stop offset="1" stop-color="#e6ebfb"/>
    </linearGradient>
  </defs>
  <g id="Grupo_1091220" data-name="Grupo 1091220" transform="translate(-429.001 1174.14)">
    <rect id="Rectángulo_379847" data-name="Rectángulo 379847" width="503" height="755" rx="25" transform="translate(429.001 -1174.14)" fill="url(#linear-gradient)"/>
    <g id="Grupo_1088531" data-name="Grupo 1088531" transform="translate(-384 -11557)">
      <path id="Trazado_833966" data-name="Trazado 833966" d="M181.818,0C282.234,0,363.636,81.513,363.636,182.064s-81.4,182.064-181.818,182.064S0,282.615,0,182.064,81.4,0,181.818,0Z" transform="translate(863 10432.708)" fill="#c1cdf5"/>
      <ellipse id="Elipse_6731" data-name="Elipse 6731" cx="146.683" cy="146.437" rx="146.683" ry="146.437" transform="translate(896.415 10497.081)" fill="#cadeb4"/>
      <ellipse id="Elipse_6372" data-name="Elipse 6372" cx="125.061" cy="123.587" rx="125.061" ry="123.587" transform="translate(917.545 10545.239)" fill="#a7bb91"/>
      <circle id="Elipse_6373" data-name="Elipse 6373" cx="85.504" cy="85.504" r="85.504" transform="translate(956.858 10620.915)" fill="#f1ece6"/>
      <g id="Grupo_1084654" data-name="Grupo 1084654" transform="translate(1263 10789.956) rotate(180)">
        <rect id="Rectángulo_379584" data-name="Rectángulo 379584" width="17.199" height="336.118" transform="translate(8.354 0)" fill="#727997"/>
        <path id="Polígono_11" data-name="Polígono 11" d="M16.953,0,33.907,26.536H0Z" transform="translate(33.907 357.248) rotate(180)" fill="#727997"/>
      </g>
      <g id="Grupo_1088527" data-name="Grupo 1088527" transform="translate(-12)">
        <rect id="Rectángulo_379842" data-name="Rectángulo 379842" width="81.848" height="29.061" rx="14.531" transform="translate(1011 10687)" fill="#12263f"/>
        <path id="Trazado_838800" data-name="Trazado 838800" d="M3.6-3.859V0H.859V-11.375H5.4a5.287,5.287,0,0,1,2.309.48A3.621,3.621,0,0,1,9.262-9.527a3.734,3.734,0,0,1,.551,2.012,3.291,3.291,0,0,1-1.191,2.66,4.943,4.943,0,0,1-3.27,1Zm0-2.117H5.4a1.7,1.7,0,0,0,1.215-.4A1.48,1.48,0,0,0,7.031-7.5,1.83,1.83,0,0,0,6.6-8.773,1.522,1.522,0,0,0,5.43-9.258H3.6ZM13.93,0H11.289V-12H13.93Zm6.383,0a2.973,2.973,0,0,1-.25-.758,2.448,2.448,0,0,1-2.031.914A3,3,0,0,1,16-.566a2.3,2.3,0,0,1-.836-1.816A2.364,2.364,0,0,1,16.18-4.461a5.174,5.174,0,0,1,2.953-.7h.813v-.448q0-1.17-1.008-1.17A.824.824,0,0,0,18-5.855H15.367a2.36,2.36,0,0,1,1.043-1.99,4.383,4.383,0,0,1,2.66-.765,3.843,3.843,0,0,1,2.555.789,2.743,2.743,0,0,1,.961,2.164v3.742a3.832,3.832,0,0,0,.359,1.781V0ZM18.664-1.719a1.469,1.469,0,0,0,.816-.211,1.322,1.322,0,0,0,.465-.477V-3.758H19.18q-1.375,0-1.375,1.234a.754.754,0,0,0,.242.582A.876.876,0,0,0,18.664-1.719Zm7.8-6.734.086.992a2.867,2.867,0,0,1,2.414-1.148,2.412,2.412,0,0,1,1.973.789,3.757,3.757,0,0,1,.676,2.375V0H28.969V-5.336a1.426,1.426,0,0,0-.258-.941,1.193,1.193,0,0,0-.937-.3,1.256,1.256,0,0,0-1.148.609V0H23.992V-8.453Z" transform="translate(1036 10707)" fill="#fff"/>
      </g>
      <g id="Grupo_1088529" data-name="Grupo 1088529">
        <rect id="Rectángulo_379844" data-name="Rectángulo 379844" width="105.848" height="31.061" rx="15.531" transform="translate(987 10494.439)" fill="#12263f"/>
        <path id="Trazado_838798" data-name="Trazado 838798" d="M-28.656-3.859V0H-31.4V-11.375h4.539a5.287,5.287,0,0,1,2.309.48A3.621,3.621,0,0,1-23-9.527a3.734,3.734,0,0,1,.551,2.012,3.291,3.291,0,0,1-1.191,2.66,4.943,4.943,0,0,1-3.27,1Zm0-2.117h1.8a1.7,1.7,0,0,0,1.215-.4A1.48,1.48,0,0,0-25.227-7.5a1.83,1.83,0,0,0-.43-1.273,1.522,1.522,0,0,0-1.172-.484h-1.828Zm12.664-.094-.867-.062a1.558,1.558,0,0,0-1.594.781V0h-2.633V-8.453h2.469l.086,1.086A2.039,2.039,0,0,1-16.68-8.609a2.567,2.567,0,0,1,.734.094Zm.336,1.766a4.989,4.989,0,0,1,.492-2.254,3.52,3.52,0,0,1,1.414-1.52,4.259,4.259,0,0,1,2.164-.531A3.887,3.887,0,0,1-8.594-7.434,4.512,4.512,0,0,1-7.5-4.234v.094A4.378,4.378,0,0,1-8.6-1,3.9,3.9,0,0,1-11.57.156a3.942,3.942,0,0,1-2.9-1.082,4.232,4.232,0,0,1-1.18-2.934Zm2.633.164a3.145,3.145,0,0,0,.367,1.719,1.223,1.223,0,0,0,1.086.547q1.406,0,1.438-2.164V-4.3q0-2.273-1.453-2.273-1.32,0-1.43,1.961Zm9.945.453,1.406-4.766h2.82L-2.3,1.414l-.148.359A2.617,2.617,0,0,1-5.039,3.414a4.126,4.126,0,0,1-1.086-.156V1.383h.344a1.8,1.8,0,0,0,.848-.16A.973.973,0,0,0-4.5.648l.211-.563L-7.227-8.453h2.813ZM5.82.156A4.345,4.345,0,0,1,2.672-1a4.006,4.006,0,0,1-1.2-3.02v-.219a5.191,5.191,0,0,1,.48-2.289,3.516,3.516,0,0,1,1.4-1.535,4.233,4.233,0,0,1,2.188-.543A3.659,3.659,0,0,1,8.352-7.5,4.344,4.344,0,0,1,9.383-4.422V-3.4H4.148a1.9,1.9,0,0,0,.617,1.117A1.836,1.836,0,0,0,6-1.875,2.366,2.366,0,0,0,7.953-2.75l1.2,1.422A3.363,3.363,0,0,1,7.762-.246,4.713,4.713,0,0,1,5.82.156Zm-.3-6.734q-1.156,0-1.375,1.531H6.8v-.2a1.3,1.3,0,0,0-.32-.98A1.275,1.275,0,0,0,5.523-6.578Zm8.492,4.7a1.171,1.171,0,0,0,.859-.3,1.1,1.1,0,0,0,.3-.84h2.469a2.922,2.922,0,0,1-1,2.281,3.705,3.705,0,0,1-2.566.891A3.751,3.751,0,0,1,11.172-1a4.556,4.556,0,0,1-1.062-3.2v-.109a5.149,5.149,0,0,1,.473-2.262,3.441,3.441,0,0,1,1.363-1.508,4.065,4.065,0,0,1,2.109-.527,3.658,3.658,0,0,1,2.617.914,3.242,3.242,0,0,1,.969,2.477H15.172a1.445,1.445,0,0,0-.32-1.008,1.106,1.106,0,0,0-.859-.352q-1.023,0-1.2,1.3a9.206,9.206,0,0,0-.055,1.141,3.616,3.616,0,0,0,.3,1.766A1.055,1.055,0,0,0,14.016-1.875Zm7.8-8.68v2.1h1.391v1.828H21.82v3.867a.987.987,0,0,0,.172.664.922.922,0,0,0,.68.188,3.862,3.862,0,0,0,.656-.047V-.07a4.859,4.859,0,0,1-1.484.227,2.758,2.758,0,0,1-2.008-.641,2.626,2.626,0,0,1-.648-1.945v-4.2H18.109V-8.453h1.078v-2.1ZM23.68-4.3a4.989,4.989,0,0,1,.492-2.254,3.52,3.52,0,0,1,1.414-1.52,4.259,4.259,0,0,1,2.164-.531,3.887,3.887,0,0,1,2.992,1.176,4.512,4.512,0,0,1,1.094,3.2v.094A4.378,4.378,0,0,1,30.738-1,3.9,3.9,0,0,1,27.766.156a3.942,3.942,0,0,1-2.9-1.082,4.232,4.232,0,0,1-1.18-2.934Zm2.633.164a3.145,3.145,0,0,0,.367,1.719,1.223,1.223,0,0,0,1.086.547q1.406,0,1.438-2.164V-4.3q0-2.273-1.453-2.273-1.32,0-1.43,1.961Z" transform="translate(1040 10515)" fill="#fff"/>
      </g>
      <g id="Grupo_1088526" data-name="Grupo 1088526" transform="translate(0 16.271)">
        <rect id="Rectángulo_379843" data-name="Rectángulo 379843" width="105.848" height="31.061" rx="15.531" transform="translate(987 10564)" fill="#12263f"/>
        <path id="Trazado_838799" data-name="Trazado 838799" d="M-31.887-3.859V0h-2.742V-11.375h4.539a5.287,5.287,0,0,1,2.309.48,3.621,3.621,0,0,1,1.555,1.367,3.734,3.734,0,0,1,.551,2.012,3.291,3.291,0,0,1-1.191,2.66,4.943,4.943,0,0,1-3.27,1Zm0-2.117h1.8a1.7,1.7,0,0,0,1.215-.4A1.48,1.48,0,0,0-28.457-7.5a1.83,1.83,0,0,0-.43-1.273,1.522,1.522,0,0,0-1.172-.484h-1.828Zm12.664-.094-.867-.062a1.558,1.558,0,0,0-1.594.781V0h-2.633V-8.453h2.469l.086,1.086A2.039,2.039,0,0,1-19.91-8.609a2.567,2.567,0,0,1,.734.094Zm.336,1.766a4.989,4.989,0,0,1,.492-2.254,3.52,3.52,0,0,1,1.414-1.52,4.259,4.259,0,0,1,2.164-.531,3.887,3.887,0,0,1,2.992,1.176,4.512,4.512,0,0,1,1.094,3.2v.094A4.378,4.378,0,0,1-11.828-1,3.9,3.9,0,0,1-14.8.156,3.942,3.942,0,0,1-17.7-.926a4.232,4.232,0,0,1-1.18-2.934Zm2.633.164a3.145,3.145,0,0,0,.367,1.719,1.223,1.223,0,0,0,1.086.547q1.406,0,1.438-2.164V-4.3q0-2.273-1.453-2.273-1.32,0-1.43,1.961Zm6.375-.148a5.708,5.708,0,0,1,.422-2.266,3.4,3.4,0,0,1,1.211-1.52A3.192,3.192,0,0,1-6.41-8.609a2.538,2.538,0,0,1,2.063.891l.094-.734h2.391V-.32a3.564,3.564,0,0,1-.52,1.941,3.334,3.334,0,0,1-1.5,1.266,5.528,5.528,0,0,1-2.281.441,4.769,4.769,0,0,1-1.8-.352A3.251,3.251,0,0,1-9.3,2.063L-8.2.516a2.414,2.414,0,0,0,1.938.867,1.568,1.568,0,0,0,1.75-1.8V-.68A2.472,2.472,0,0,1-6.426.156a3.055,3.055,0,0,1-2.5-1.184A4.9,4.9,0,0,1-9.879-4.2Zm2.641.164A3.007,3.007,0,0,0-6.848-2.48a1.232,1.232,0,0,0,1.094.605,1.4,1.4,0,0,0,1.242-.57V-6a1.363,1.363,0,0,0-1.227-.578,1.241,1.241,0,0,0-1.1.629A3.429,3.429,0,0,0-7.238-4.125ZM4.746-6.07l-.867-.062a1.558,1.558,0,0,0-1.594.781V0H-.348V-8.453H2.121l.086,1.086A2.039,2.039,0,0,1,4.059-8.609a2.567,2.567,0,0,1,.734.094ZM10.223,0a2.973,2.973,0,0,1-.25-.758A2.448,2.448,0,0,1,7.941.156,3,3,0,0,1,5.91-.566a2.3,2.3,0,0,1-.836-1.816A2.364,2.364,0,0,1,6.09-4.461a5.174,5.174,0,0,1,2.953-.7h.813v-.448q0-1.17-1.008-1.17a.824.824,0,0,0-.937.926H5.277A2.36,2.36,0,0,1,6.32-7.845a4.383,4.383,0,0,1,2.66-.765,3.843,3.843,0,0,1,2.555.789A2.743,2.743,0,0,1,12.5-5.656v3.742a3.832,3.832,0,0,0,.359,1.781V0ZM8.574-1.719a1.469,1.469,0,0,0,.816-.211,1.322,1.322,0,0,0,.465-.477V-3.758H9.09q-1.375,0-1.375,1.234a.754.754,0,0,0,.242.582A.876.876,0,0,0,8.574-1.719Zm7.867-6.734.086.992a2.906,2.906,0,0,1,2.414-1.148,2.14,2.14,0,0,1,2.164,1.273A2.813,2.813,0,0,1,23.59-8.609q2.57,0,2.641,3.109V0H23.59V-5.336a1.611,1.611,0,0,0-.219-.945.931.931,0,0,0-.8-.3,1.247,1.247,0,0,0-1.164.7l.008.109V0H18.777V-5.32a1.694,1.694,0,0,0-.211-.961.929.929,0,0,0-.8-.3,1.263,1.263,0,0,0-1.156.7V0H13.973V-8.453ZM32.5,0a2.973,2.973,0,0,1-.25-.758,2.448,2.448,0,0,1-2.031.914,3,3,0,0,1-2.031-.723,2.3,2.3,0,0,1-.836-1.816,2.364,2.364,0,0,1,1.016-2.078,5.174,5.174,0,0,1,2.953-.7h.813v-.448q0-1.17-1.008-1.17a.824.824,0,0,0-.937.926H27.551a2.36,2.36,0,0,1,1.043-1.99,4.383,4.383,0,0,1,2.66-.765,3.843,3.843,0,0,1,2.555.789,2.743,2.743,0,0,1,.961,2.164v3.742a3.832,3.832,0,0,0,.359,1.781V0ZM30.848-1.719a1.469,1.469,0,0,0,.816-.211,1.322,1.322,0,0,0,.465-.477V-3.758h-.766q-1.375,0-1.375,1.234a.754.754,0,0,0,.242.582A.876.876,0,0,0,30.848-1.719Z" transform="translate(1040 10585)" fill="#fff"/>
      </g>
      <g id="Grupo_1088528" data-name="Grupo 1088528">
        <path id="Trazado_838796" data-name="Trazado 838796" d="M15.031,0H90.817a15.031,15.031,0,0,1,0,30.061H15.031A15.031,15.031,0,0,1,15.031,0Z" transform="translate(987 10455)" fill="#12263f"/>
        <path id="Trazado_838797" data-name="Trazado 838797" d="M-35.262-2.125H-39.02L-39.676,0h-2.93l4.172-11.375h2.578L-31.652,0H-34.6Zm-3.1-2.117h2.445l-1.227-3.945Zm10.992,2.367a1.171,1.171,0,0,0,.859-.3,1.1,1.1,0,0,0,.3-.84h2.469a2.922,2.922,0,0,1-1,2.281,3.705,3.705,0,0,1-2.566.891A3.751,3.751,0,0,1-30.215-1a4.556,4.556,0,0,1-1.062-3.2v-.109A5.149,5.149,0,0,1-30.8-6.574a3.441,3.441,0,0,1,1.363-1.508,4.065,4.065,0,0,1,2.109-.527,3.658,3.658,0,0,1,2.617.914,3.242,3.242,0,0,1,.969,2.477h-2.469a1.445,1.445,0,0,0-.32-1.008,1.106,1.106,0,0,0-.859-.352q-1.023,0-1.2,1.3a9.206,9.206,0,0,0-.055,1.141,3.616,3.616,0,0,0,.3,1.766A1.055,1.055,0,0,0-27.371-1.875Zm7.8-8.68v2.1h1.391v1.828h-1.391v3.867a.987.987,0,0,0,.172.664.922.922,0,0,0,.68.188,3.862,3.862,0,0,0,.656-.047V-.07a4.859,4.859,0,0,1-1.484.227,2.758,2.758,0,0,1-2.008-.641A2.626,2.626,0,0,1-22.2-2.43v-4.2h-1.078V-8.453H-22.2v-2.1ZM-14.363,0H-17V-8.453h2.641Zm-2.8-10.633a1.175,1.175,0,0,1,.406-.922,1.533,1.533,0,0,1,1.055-.359,1.533,1.533,0,0,1,1.055.359,1.175,1.175,0,0,1,.406.922,1.175,1.175,0,0,1-.406.922,1.533,1.533,0,0,1-1.055.359,1.533,1.533,0,0,1-1.055-.359A1.175,1.175,0,0,1-17.16-10.633Zm7.789,7.5,1.336-5.32h2.773L-8.02,0h-2.687l-2.758-8.453h2.781ZM-1.7,0H-4.34V-8.453H-1.7ZM-4.5-10.633a1.175,1.175,0,0,1,.406-.922,1.533,1.533,0,0,1,1.055-.359,1.533,1.533,0,0,1,1.055.359,1.175,1.175,0,0,1,.406.922,1.175,1.175,0,0,1-.406.922,1.533,1.533,0,0,1-1.055.359A1.533,1.533,0,0,1-4.09-9.711,1.175,1.175,0,0,1-4.5-10.633ZM-.41-4.289A5.164,5.164,0,0,1,.457-7.453,2.854,2.854,0,0,1,2.879-8.609a2.428,2.428,0,0,1,1.906.891V-12H7.426V0H5.059L4.926-.906A2.493,2.493,0,0,1,2.863.156,2.849,2.849,0,0,1,.473-1,5.327,5.327,0,0,1-.41-4.289Zm2.633.164q0,2.25,1.313,2.25a1.3,1.3,0,0,0,1.25-.734V-5.828a1.261,1.261,0,0,0-1.234-.75q-1.219,0-1.32,1.969ZM13.684,0a2.973,2.973,0,0,1-.25-.758A2.448,2.448,0,0,1,11.4.156,3,3,0,0,1,9.371-.566a2.3,2.3,0,0,1-.836-1.816A2.364,2.364,0,0,1,9.551-4.461a5.174,5.174,0,0,1,2.953-.7h.813v-.448q0-1.17-1.008-1.17a.824.824,0,0,0-.937.926H8.738a2.36,2.36,0,0,1,1.043-1.99,4.383,4.383,0,0,1,2.66-.765A3.843,3.843,0,0,1,15-7.82a2.743,2.743,0,0,1,.961,2.164v3.742a3.832,3.832,0,0,0,.359,1.781V0ZM12.035-1.719a1.469,1.469,0,0,0,.816-.211,1.322,1.322,0,0,0,.465-.477V-3.758h-.766q-1.375,0-1.375,1.234a.754.754,0,0,0,.242.582A.876.876,0,0,0,12.035-1.719Zm5.047-2.57a5.164,5.164,0,0,1,.867-3.164,2.854,2.854,0,0,1,2.422-1.156,2.428,2.428,0,0,1,1.906.891V-12h2.641V0H22.551l-.133-.906A2.493,2.493,0,0,1,20.355.156,2.849,2.849,0,0,1,17.965-1,5.327,5.327,0,0,1,17.082-4.289Zm2.633.164q0,2.25,1.313,2.25a1.3,1.3,0,0,0,1.25-.734V-5.828a1.261,1.261,0,0,0-1.234-.75q-1.219,0-1.32,1.969ZM30.5.156A4.345,4.345,0,0,1,27.355-1a4.006,4.006,0,0,1-1.2-3.02v-.219a5.191,5.191,0,0,1,.48-2.289,3.516,3.516,0,0,1,1.4-1.535,4.233,4.233,0,0,1,2.188-.543A3.659,3.659,0,0,1,33.035-7.5a4.344,4.344,0,0,1,1.031,3.082V-3.4H28.832a1.9,1.9,0,0,0,.617,1.117,1.836,1.836,0,0,0,1.234.406,2.366,2.366,0,0,0,1.953-.875l1.2,1.422A3.363,3.363,0,0,1,32.445-.246,4.713,4.713,0,0,1,30.5.156Zm-.3-6.734q-1.156,0-1.375,1.531h2.656v-.2a1.3,1.3,0,0,0-.32-.98A1.275,1.275,0,0,0,30.207-6.578Zm9.344,4.2a.608.608,0,0,0-.352-.539,5.348,5.348,0,0,0-1.336-.422,6.092,6.092,0,0,1-1.625-.574,2.722,2.722,0,0,1-.977-.863,2.061,2.061,0,0,1-.336-1.164,2.336,2.336,0,0,1,.961-1.918A3.958,3.958,0,0,1,38.4-8.609a4.386,4.386,0,0,1,2.688.758,2.37,2.37,0,0,1,1.016,1.992H39.465q0-1.016-1.07-1.016a1.061,1.061,0,0,0-.7.23.714.714,0,0,0-.281.574.655.655,0,0,0,.344.57,3.248,3.248,0,0,0,1.1.359,9.485,9.485,0,0,1,1.324.336A2.406,2.406,0,0,1,42.09-2.453,2.214,2.214,0,0,1,41.063-.57,4.505,4.505,0,0,1,38.4.156a4.6,4.6,0,0,1-1.937-.391A3.24,3.24,0,0,1,35.137-1.3a2.406,2.406,0,0,1-.477-1.414h2.461a1.017,1.017,0,0,0,.391.855,1.607,1.607,0,0,0,.961.27,1.264,1.264,0,0,0,.809-.219A.7.7,0,0,0,39.551-2.375Z" transform="translate(1040 10475)" fill="#fff"/>
      </g>
    </g>
    <g id="Grupo_1088189" data-name="Grupo 1088189" transform="translate(54.265 -4300.781)">
      <path id="Trazado_720216" data-name="Trazado 720216" d="M308.093,442.474s-95.864-95.947-36.332-153.315,106.586,17.107,139.126,11.62c41.189-6.945,59-111.442,120.576-111.542,70.06-.113,121.482,41.3,94.091,139.937-20.2,72.749,118.663,13.175,98.268,114.715Z" transform="translate(140.06 3360.253)" fill="#ebf2f9"/>
      <path id="Trazado_720217" data-name="Trazado 720217" d="M1002.186,1215.427c-13.032-2.1-22.871,2.468-32.332,1.155-7.543-1.047-11.475-8.679-21.614-10.841a42.162,42.162,0,0,0,6.564-4.5c2.609-2.513,6.357-7.538,0-7.737-4.574-.142-8.136,7.475-9.774,11.762a31.259,31.259,0,0,0-4.9-.006c2.093-6.744,6.174-19.8,7.172-22.307,1.358-3.413-4.347-14.791-11.072-2.021-4.716,8.957-1.513,19.306.82,24.688a37.6,37.6,0,0,0-5.241,1.244c-5.558-12.677-23.235-48.822-42.4-44.33-20.891,4.9,23.866,29.2,35.155,47.212-9.221,4.274-17.324,9.467-31.33,5.675-37.221-10.077-40.174,12.6-40.174,12.6l166.338.057A22.519,22.519,0,0,0,1002.186,1215.427Z" transform="translate(-344.948 2574.834)" fill="#acd29a"/>
      <g id="Grupo_1017813" data-name="Grupo 1017813" transform="translate(563.592 3556.028)">
        <path id="Trazado_720218" data-name="Trazado 720218" d="M1383.115,964.982c.172,1.6,2.437,1.543,5,1.16s1.9.29,5.5.22,4.8-1.3,4.957-1.82c.14-.462-1.606-.788-3.475-1.178-.234-.048-.47-.1-.707-.15-2.108-.462-3.544-1.98-5.377-3.287-1.737-1.237-2.907-6.91-2.907-6.91l-5.118-.03s1.608,5.129,2.444,6.914c.494,1.049-.031,2.4-.2,3.407A6.22,6.22,0,0,0,1383.115,964.982Z" transform="translate(-1334.717 -812.336)" fill="#ffb07b"/>
        <path id="Trazado_720219" data-name="Trazado 720219" d="M1396.957,1009.367c2.559-.384,1.9.289,5.5.22s4.8-1.3,4.957-1.82c.14-.461-1.605-.788-3.474-1.177l-.022.035a10.082,10.082,0,0,1-5.247,1.12c-2.423-.161-4.921-1.088-6.595-1.213a6.373,6.373,0,0,0-.113,1.675C1392.132,1009.808,1394.4,1009.75,1396.957,1009.367Z" transform="translate(-1343.564 -855.562)" fill="#365da4"/>
        <path id="Trazado_720220" data-name="Trazado 720220" d="M1184.426,957.912c.111,1.607,2.377,1.634,4.949,1.347s1.886.361,5.486.427,4.845-1.119,5.022-1.632c.157-.456-1.574-.848-3.428-1.308-.232-.057-.466-.117-.7-.177-2.09-.541-3.468-2.112-5.251-3.487-1.689-1.3-.3-6.7-.3-6.7l-3.883-1.833s-.535,5.567-.821,8.383a32.467,32.467,0,0,1-.9,3.315A6.366,6.366,0,0,0,1184.426,957.912Z" transform="translate(-1176.034 -805.521)" fill="#ffb07b"/>
        <path id="Trazado_720221" data-name="Trazado 720221" d="M1189.377,1008.264c2.572-.287,1.885.36,5.485.426s4.846-1.118,5.022-1.631c.157-.456-1.574-.848-3.428-1.307l-.022.034a10.086,10.086,0,0,1-5.286.922c-2.416-.253-4.877-1.273-6.542-1.461a6.29,6.29,0,0,0-.179,1.67C1184.539,1008.522,1186.8,1008.55,1189.377,1008.264Z" transform="translate(-1176.035 -854.525)" fill="#365da4"/>
        <path id="Trazado_720222" data-name="Trazado 720222" d="M1195.909,588.054s-1.076,5.207-2.153,31.617a85.317,85.317,0,0,0-3.446,10.869c-1.449,5.979-2.471,30.928-2.471,30.928a3.016,3.016,0,0,0,2.332.938,5.074,5.074,0,0,0,2.547-.542s10.074-32.677,14.978-45.363,7.776-30.8,7.776-30.8Z" transform="translate(-1178.795 -515.833)" fill="#2b478b"/>
        <path id="Trazado_720223" data-name="Trazado 720223" d="M1292.59,571.86s.794,5.257,8.927,30.407a85.218,85.218,0,0,0,.53,11.39c.712,6.112,8.944,30.172,8.944,30.172a5.051,5.051,0,0,0,2.733-.052,8.627,8.627,0,0,0,2.72-1.32s-3.157-34.389-2.948-47.989-3.369-31.588-3.369-31.588Z" transform="translate(-1263.359 -497.41)" fill="#2b478b"/>
        <path id="Trazado_720224" data-name="Trazado 720224" d="M1255.4,224.78a7.372,7.372,0,0,0-3.947-.961,1.867,1.867,0,0,1,.86-.357,6.179,6.179,0,0,0-2.232.465c-9.3-4.129-11.493,9.764-11.456,13.019s-.127,6.991-5.008,9.664c-9.6,5.261-2.241,15.65-2.241,15.65-1.728,4.96,4.671,11.037,4.671,11.037-.109-2.634,11.983-19.417,18.5-23.246,1.651-2.185,2.4-6.155,2.453-6.467a17.271,17.271,0,0,1-1.589,5.882C1261,244.815,1258.777,226.93,1255.4,224.78Z" transform="translate(-1211.765 -223.167)" fill="#c65447"/>
        <path id="Trazado_720225" data-name="Trazado 720225" d="M1319.329,314.15c.033.015-3.049,1.616-5.369.981-2.182-.594-3.608-3.424-3.577-3.43.924-.183,1.19-1.453,1.172-6.908l.416.082,6.771,1.341.251.049s-.159,2.21-.165,4.292c0,.441.006.875.021,1.281C1318.9,313.047,1319.03,314.009,1319.329,314.15Z" transform="translate(-1277.723 -289.062)" fill="#ffb07b"/>
        <path id="Trazado_720226" data-name="Trazado 720226" d="M1324.7,312.267c0,.44,0,.875.021,1.281-3.938-.159-6.209-4.662-7.066-6.637l6.958,1.015.253.049S1324.709,310.184,1324.7,312.267Z" transform="translate(-1283.598 -290.771)" fill="#ea8e50"/>
        <path id="Trazado_720227" data-name="Trazado 720227" d="M1303.911,240.81a20.652,20.652,0,0,1-2.554-6.036c-.353-1.987.659-9.35,8.058-8.289a10.05,10.05,0,0,1,4.169,1.576c1.607,1.085,3.926,3.427,1.333,9.852l-.673,2.171Z" transform="translate(-1270.388 -225.762)" fill="#c65447"/>
        <path id="Trazado_720228" data-name="Trazado 720228" d="M1321.923,261.528s-9.217-1.218-8.371-6.948.229-9.745,6.15-9.209,6.74,2.891,6.922,4.872S1324.342,261.7,1321.923,261.528Z" transform="translate(-1280.238 -241.053)" fill="#ffb07b"/>
        <path id="Trazado_720229" data-name="Trazado 720229" d="M1312.8,241.561s-3.52,6.345-7.532,6.763-5.534-.867-5.534-.867a11.063,11.063,0,0,0,4.542-5.931S1311.379,238.08,1312.8,241.561Z" transform="translate(-1269.127 -236.76)" fill="#c65447"/>
        <path id="Trazado_720230" data-name="Trazado 720230" d="M1363.87,246.789a8.212,8.212,0,0,1,1.9,3.307c.24,1.527,0,4.561.889,4.589,0,0,2.578-4.285.831-7.187C1365.636,244.421,1363.87,246.789,1363.87,246.789Z" transform="translate(-1320.903 -241.534)" fill="#c65447"/>
        <path id="Trazado_720231" data-name="Trazado 720231" d="M1254.6,536.53a14.4,14.4,0,0,0-11.84-7.488,13.452,13.452,0,0,0-8.579,3,2.259,2.259,0,0,1-3.629-1.284l-3.965-18.422a4.974,4.974,0,0,0-5.91-3.817l-64.158,13.808a4.861,4.861,0,0,0-3.73,5.775l13.793,64.088a5.044,5.044,0,0,0,3.406,3.747l-.843.239h2.49l.02,0a5.066,5.066,0,0,0,.922-.11l1.4-.3h0l16.466-3.544a3.108,3.108,0,0,0,1.7-5.075,13.343,13.343,0,1,1,22.349-3.538,2.121,2.121,0,0,0,.625,2.5l-.96.469h2.225a2.195,2.195,0,0,0,.514-.048l19.662-4.231a4.977,4.977,0,0,0,3.818-5.913l-3.94-18.309a2.331,2.331,0,0,1,2.859-2.748A13.357,13.357,0,0,0,1254.6,536.53Z" transform="translate(-1150.411 -453.436)" fill="#d86713"/>
        <path id="Trazado_720232" data-name="Trazado 720232" d="M1231,529.042a13.454,13.454,0,0,0-8.58,3,2.258,2.258,0,0,1-3.628-1.284l-3.965-18.422a4.975,4.975,0,0,0-5.911-3.817l-64.159,13.808a4.862,4.862,0,0,0-3.73,5.775l13.794,64.088a5.047,5.047,0,0,0,6,3.872l17.862-3.844a3.108,3.108,0,0,0,1.7-5.075,13.343,13.343,0,1,1,22.35-3.538,2.128,2.128,0,0,0,2.4,2.92l19.661-4.231a4.977,4.977,0,0,0,3.818-5.913l-3.94-18.309a2.331,2.331,0,0,1,2.86-2.748,13.357,13.357,0,0,0,15.31-18.8A14.4,14.4,0,0,0,1231,529.042Z" transform="translate(-1140.916 -453.436)" fill="#f1a34f"/>
        <path id="Trazado_720233" data-name="Trazado 720233" d="M1486.53,489.057s4,.656,5.05,3.258-.416,4.365-.979,4.359a2.514,2.514,0,0,1-2.149-1.772C1487.946,493.553,1486.53,489.057,1486.53,489.057Z" transform="translate(-1419.924 -437.815)" fill="#ffb07b"/>
        <path id="Trazado_720234" data-name="Trazado 720234" d="M1200.66,549.315s4.491-.006,6.108,2.649.334,4.845-.284,4.94a2.786,2.786,0,0,1-2.669-1.548C1203.02,553.972,1200.66,549.315,1200.66,549.315Z" transform="translate(-1189.146 -486.46)" fill="#ffb07b"/>
        <path id="Trazado_720235" data-name="Trazado 720235" d="M1232.934,372.192c-.4-.085-2.139-.29-4.355-.638-4.078-.64-9.764-1.767-11.672-3.527-.516-.478-1.721-3.107-2.971-6.121a57.2,57.2,0,0,0-1,15.686l-27.566,5.933c2.362-4.779,6.022-10.7,5.335-15.5-.254-1.778-1.228-4.217-1.593-6.958-.03-.236-.056-.471-.078-.71-3.866,3.182-8.332,6.694-8.439,7.4-.178,1.177,2.831,14.209,2.831,14.209-.747,1.721-3.993,1.359-3.993,1.359-3.043-2.172-7.517-14.483-7.158-17.21s11.45-18.27,14.135-21.984c2.652-3.67,12.334-3.579,12.568-3.577h0c7.7,4.623,8.394.781,8.394.781s6.947,1.321,8.142,3.372,6.428,17.615,6.8,18.163c.776,1.146,13.432,5.731,13.658,7.059S1234.07,372.433,1232.934,372.192Z" transform="translate(-1166.217 -317.929)" fill="#80bdcc"/>
        <path id="Trazado_720236" data-name="Trazado 720236" d="M1249.916,464.439,1240.3,466.5c2.394-4.766,5.54-10.7,4.852-15.465-.258-1.779-.833-3.885-1.112-6.637-.027-.265-.073-1.064-.073-1.064s6.806,5.357,6.926,11.154A58.137,58.137,0,0,1,1249.916,464.439Z" transform="translate(-1221.149 -400.902)" fill="#5f9aa8"/>
        <path id="Trazado_720237" data-name="Trazado 720237" d="M1403.427,441.573c-4.128-.641-9.885-1.768-11.816-3.528-.523-.478-1.741-3.11-3.009-6.128,0,0-.443-4.851.825-4.67s3.134,8.785,4.465,9.328C1395.083,437.063,1401.67,439.592,1403.427,441.573Z" transform="translate(-1340.807 -387.913)" fill="#5f9aa8"/>
      </g>
      <g id="man_2_" transform="translate(669.121 3606.648)">
        <g id="Grupo_1017814" data-name="Grupo 1017814" transform="translate(104.588 96.056)">
          <path id="Trazado_720238" data-name="Trazado 720238" d="M2465.965,1435.276c-.583,1.961-3.268,3.268-3.632,5.665a5.231,5.231,0,0,1-1.167,2.7H2452.8c.084-.461.45-.957,1.538-1.195,2.321-.508,3.2-3.325,3.055-5.938a34.258,34.258,0,0,1,.021-3.427c.075-1.5.2-2.673.2-2.673l4.938-1.161.519.667.5.64S2466.544,1433.315,2465.965,1435.276Z" transform="translate(-2410.094 -1343.488)" fill="#2c3a64"/>
          <path id="Trazado_720239" data-name="Trazado 720239" d="M2248.115,1470.455h-16.923a3.4,3.4,0,0,1,2.132-1.062c2.606-.423,7.114-1.935,8.12-5.262.033-.106.064-.217.088-.328.8-3.557,6.609,1.09,6.609,1.09s.018.142.043.384A18.189,18.189,0,0,1,2248.115,1470.455Z" transform="translate(-2231.193 -1370.3)" fill="#2c3a64"/>
          <path id="Trazado_720240" data-name="Trazado 720240" d="M2245.851,1008.383s.882,11.008,1.919,24.239c1.409,17.975,3.1,40.055,3.271,44.238.288,7.263,1.453,18.88,1.453,18.88s2.758,2.76,8.279,1.6a190.13,190.13,0,0,0,6.325-34.132c.02-.287.042-.577.064-.867,1.306-17.864,3.339-55.48,3.339-55.48Z" transform="translate(-2243.026 -1002.501)" fill="#35488b"/>
          <path id="Trazado_720241" data-name="Trazado 720241" d="M2245.851,1008.382s.882,11.008,1.919,24.24L2267.1,1063.2c.02-.288.042-.577.064-.867,1.306-17.865,3.339-55.481,3.339-55.481Z" transform="translate(-2243.026 -1002.499)" fill="#2c3a64"/>
          <path id="Trazado_720242" data-name="Trazado 720242" d="M2266.75,991.436s15.9,39.867,26.36,58.6S2306.834,1074,2306.834,1074s5.991-2.4,6.535-4.03c0,0-4-36.17-11-44.987-3.958-4.982-8.6-19.934-8.823-25.162s-1.416-15.576-1.416-15.576Z" transform="translate(-2259.897 -984.247)" fill="#35488b"/>
        </g>
        <path id="Trazado_720243" data-name="Trazado 720243" d="M2291.5,647.14a46.635,46.635,0,0,1-.731-6.65l8.069-6.5c-.3,8.941,5.43,13.241,5.43,13.241s-10.752,5.293-16.968,3.333A14.867,14.867,0,0,1,2291.5,647.14Z" transform="translate(-2171.897 -605.434)" fill="#935c2f"/>
        <path id="Trazado_720244" data-name="Trazado 720244" d="M2287.041,595.829s10.267,1.7,11.229-4.7,2.938-10.5-3.575-11.864-8.156.894-9,2.955S2284.4,595.22,2287.041,595.829Z" transform="translate(-2170.076 -560.919)" fill="#a16d3c"/>
        <g id="Grupo_1017815" data-name="Grupo 1017815" transform="translate(70.317 44.194)">
          <path id="Trazado_720245" data-name="Trazado 720245" d="M2063.964,720.041l-2.183-1.353a5.527,5.527,0,0,0-7.38-1.523s-1.843,1.176-.606,2.16.9.428,2.618,1.854,3.931,1.935,5.361,1.149l1.836-.173Z" transform="translate(-2053.368 -716.114)" fill="#a16d3c"/>
          <path id="Trazado_720246" data-name="Trazado 720246" d="M2093.907,719.487c.564-1.761.83-1.917.83-1.917s17.674,2.088,19.342,2.212,24.8-4.644,24.8-4.644l10.924,13.267s-32.212,1.215-36.428.82c-6.967-.653-19.6-7.139-19.6-7.139A5.158,5.158,0,0,1,2093.907,719.487Z" transform="translate(-2085.903 -715.138)" fill="#d3782f"/>
        </g>
        <path id="Trazado_720247" data-name="Trazado 720247" d="M2272.731,748.632c.033.684-1.38,1.436-1.991,1.712a42.935,42.935,0,0,1-13.764,3.972c-5.76.591-12.565-.7-14.9-.674a1,1,0,0,1-.654-.248c-.157-.125-.281-7.159-.157-16.027,0-.342,0-.717.031-1.059v-.123c.008-.924.024-1.862.043-2.81.059-2.591.157-5.253.267-7.9.17-3.9.4-7.729.721-11.123a64.2,64.2,0,0,1,1.3-8.793,21.446,21.446,0,0,1,6.722-10.737l2.146-1.9a10.189,10.189,0,0,0,6.692-.81c2.457-1.214,5.134-2.521,5.569-2.21,3.318,2.48,5.551,8.109,6.7,15.264a79.022,79.022,0,0,1,.9,12.623q-.01,2.579-.159,5.224a172.207,172.207,0,0,0,.341,22.4C2272.633,746.794,2272.712,747.883,2272.731,748.632Z" transform="translate(-2134.697 -650.539)" fill="#e69d43"/>
        <path id="Trazado_720248" data-name="Trazado 720248" d="M1782.016,498.074,1717.1,487.765a5.06,5.06,0,0,0-5.792,4.2l-2.874,18.093a21.3,21.3,0,0,0,.079,3.194l2.339.348a2.966,2.966,0,0,0,.406.06h0a3.092,3.092,0,0,0,1.307-.178,13.379,13.379,0,1,1-4.787,22.178,2.107,2.107,0,0,0-1.267-.6h0l-2.447-.368-3.049,22.072a4.99,4.99,0,0,0,4.146,5.712l18.545,2.945a2.337,2.337,0,0,1,1.534,3.668,13.393,13.393,0,0,0,12.031,21.122,14.444,14.444,0,0,0,11.288-8.359,13.49,13.49,0,0,0,.3-9.109,2.264,2.264,0,0,1,2.514-2.928l18.66,2.963a4.989,4.989,0,0,0,5.71-4.144l10.319-64.988A4.872,4.872,0,0,0,1782.016,498.074Z" transform="translate(-1698.552 -487.339)" fill="#4a75cb"/>
        <path id="Trazado_720249" data-name="Trazado 720249" d="M2265.527,768.313s-4.977,23.221-23.658,28.395c.058-2.592.157-5.253.268-7.9.167-3.9.4-7.73.721-11.123a6.193,6.193,0,0,1,.932-.4C2250.129,775.2,2265.527,768.313,2265.527,768.313Z" transform="translate(-2135.224 -713.872)" fill="#d3782f"/>
        <path id="Trazado_720250" data-name="Trazado 720250" d="M1736.106,579.978a13.48,13.48,0,0,0,.3-9.108,2.265,2.265,0,0,1,2.514-2.928l18.66,2.964a4.991,4.991,0,0,0,5.71-4.145l10.321-64.988a4.873,4.873,0,0,0-4.049-5.578l-64.917-10.31a5.061,5.061,0,0,0-5.792,4.2l-2.873,18.094a3.116,3.116,0,0,0,4.132,3.424,13.379,13.379,0,1,1-4.786,22.177,2.135,2.135,0,0,0-3.6,1.191l-3.164,19.916a4.992,4.992,0,0,0,4.146,5.712l18.546,2.945a2.336,2.336,0,0,1,1.534,3.668,13.393,13.393,0,0,0,12.029,21.122A14.437,14.437,0,0,0,1736.106,579.978Z" transform="translate(-1688.5 -485.822)" fill="#699dee"/>
        <g id="Grupo_1017816" data-name="Grupo 1017816" transform="translate(68.787 42.822)">
          <path id="Trazado_720251" data-name="Trazado 720251" d="M2057.632,800.105l-2.67-.441a6.59,6.59,0,0,0-8.346-1.933s-2.1,1.177-.713,2.278,1.021.495,2.947,2.086,4.435,2.228,6.065,1.45l2.081-.108Z" transform="translate(-2045.427 -779.834)" fill="#a16d3c"/>
          <path id="Trazado_720252" data-name="Trazado 720252" d="M2098.138,729.648c.083-1.964,1.131-2.173,1.131-2.173s20.22-1.337,21.962-1.676,17.849-13.68,17.849-13.68,6.226-5.6,10.591-3.708c3.791,1.641,4.977,4.879,5.168,7.856a8.652,8.652,0,0,1-5,8.371c-7.23,3.377-21.695,10.008-24.989,10.58-7.332,1.273-26.173-2.807-26.173-2.807A6.167,6.167,0,0,1,2098.138,729.648Z" transform="translate(-2087.975 -708.021)" fill="#e69d43"/>
        </g>
        <path id="Trazado_720253" data-name="Trazado 720253" d="M2278.525,561.751a5.99,5.99,0,0,1-1.45-7.89,15.87,15.87,0,0,0,7.934,0c4.657-1.087,8.822.453,9.368,2.083a3.79,3.79,0,0,1,1.992,3.442c.18,2.717-5.269,11.275-5.269,11.275s-1.163-1.449-.846-2.445,1.313-3.215.091-3.215-1.63,1.811-2.128,1.087.407-3.759-1.042-4.257S2280.156,562.667,2278.525,561.751Z" transform="translate(-2162.903 -540.455)" fill="#2c3a64"/>
      </g>
      <path id="Trazado_720254" data-name="Trazado 720254" d="M1179.711,1112.9l-18.351-83.319h5.052a2.182,2.182,0,0,0,2.176-2.177v-2.814a2.182,2.182,0,0,0-2.176-2.177h-64.078a2.183,2.183,0,0,0-2.177,2.177v2.814a2.183,2.183,0,0,0,2.177,2.177h6.5l-18.352,83.319a2.08,2.08,0,1,0,4.062.9l18.549-84.218h44l18.549,84.218a2.086,2.086,0,0,0,2.479,1.586h0A2.09,2.09,0,0,0,1179.711,1112.9Z" transform="translate(-536.572 2687.645)" fill="#c3e0f4"/>
      <g id="Grupo_1017817" data-name="Grupo 1017817" transform="translate(679.3 3748.822)">
        <path id="Trazado_720255" data-name="Trazado 720255" d="M2054.23,1224.245c-6.791-6.521-31.245,34.621-31.245,34.621S2061.023,1230.766,2054.23,1224.245Z" transform="translate(-1968.701 -1223.544)" fill="#acd29a"/>
        <path id="Trazado_720256" data-name="Trazado 720256" d="M1826.024,1325.043c-6.013-2.405-25.23,17.855-29.557,22.532a95.608,95.608,0,0,0-10.925-.8c-30.43-.544-44.232,13.238-44.232,13.238l84.885.288s-7.52-9.548-28.851-12.611c5.212-2.461,20.628-9.63,26.235-11.008C1830.371,1335.014,1832.815,1327.759,1826.024,1325.043Z" transform="translate(-1741.31 -1305.323)" fill="#acd29a"/>
      </g>
      <g id="Grupo_1017818" data-name="Grupo 1017818" transform="translate(643.188 3727.19)">
        <path id="Trazado_720257" data-name="Trazado 720257" d="M1704.745,1111.61h-18.321a3.116,3.116,0,0,0-2.733,4.616c1.107,2-2.789,19.366-11,19.819a13.379,13.379,0,0,1-11.658-21.067,2.135,2.135,0,0,0-1.741-3.369h-20.165a4.991,4.991,0,0,0-4.991,4.992s-1.828,21.643-3.382,20.867a13.311,13.311,0,0,0-5.275-1.386h-.017c-.225-.011-.452-.018-.679-.018s-3.547-.058-3.547-.058l-.5,26.747,2.883.031a16.668,16.668,0,0,0,7.236-1.417,2.265,2.265,0,0,1,3.286,2.025v18.894a4.988,4.988,0,0,0,4.988,4.987h65.8a4.873,4.873,0,0,0,4.873-4.874v-65.73A5.059,5.059,0,0,0,1704.745,1111.61Z" transform="translate(-1607.86 -1111.552)" fill="#d86713"/>
        <path id="Trazado_720258" data-name="Trazado 720258" d="M1564.326,1162.2a13.486,13.486,0,0,0,9.042-1.131,2.265,2.265,0,0,1,3.287,2.024v18.894a4.989,4.989,0,0,0,4.989,4.99h65.8a4.875,4.875,0,0,0,4.874-4.874v-65.73a5.061,5.061,0,0,0-5.061-5.061h-18.321a3.115,3.115,0,0,0-2.732,4.617,13.38,13.38,0,1,1-22.654-1.247,2.134,2.134,0,0,0-1.742-3.369h-20.164a4.99,4.99,0,0,0-4.991,4.99v18.776a2.337,2.337,0,0,1-3.383,2.091,13.393,13.393,0,0,0-18.972,15.193A14.441,14.441,0,0,0,1564.326,1162.2Z" transform="translate(-1553.924 -1111.311)" fill="#f1a34f"/>
      </g>
      <path id="Trazado_720259" data-name="Trazado 720259" d="M542.008,1363.014l11.826.087s-.412-2.861-8.372-3.6h0c-3.086-8.573-12.154-31.636-20.027-30.546-7.774,1.078,10.637,22.237,18.127,30.462a18.72,18.72,0,0,0-2.959.235c-1.8-3.593-5.382-8.671-11.124-8.439-6.11.245,2.214,5.826,7.946,9.253a14.12,14.12,0,0,0-4.471,2.483l8.919.065.162.089S542.027,1363.07,542.008,1363.014Z" transform="translate(-78.943 2440.214)" fill="#acd29a"/>
      <g id="Grupo_1017821" data-name="Grupo 1017821" transform="translate(442.91 3613.721)">
        <g id="Grupo_1017819" data-name="Grupo 1017819" transform="translate(10.182 60.375)">
          <path id="Trazado_720260" data-name="Trazado 720260" d="M829.988,1009.959l1.75,1.421s4.787-1.716,5.867,3.972c0,0,.288,2.424-1.248,2.429a30.585,30.585,0,0,0-3.077-.2c-2.174.064-3.977-1.083-4.3-2.848l-1.041-1.5Z" transform="translate(-777.759 -976.399)" fill="#ea8e50"/>
          <path id="Trazado_720261" data-name="Trazado 720261" d="M619.568,872.429a3.58,3.58,0,0,0,1.283-2.535s-16.166-13.235-17.805-14.313a199.421,199.421,0,0,1-18.588-17.724c-2.76-3.192-6.179-1.953-10.092-.831l-3.221.924c-3.89,1.116-4.9,6.557-1.71,9.2,8.99,7.446,23.944,15.821,26.741,17.581,6.946,4.37,20.543,9.562,20.543,9.562A8.6,8.6,0,0,0,619.568,872.429Z" transform="translate(-567.537 -835.82)" fill="#1e3d70"/>
        </g>
        <path id="Trazado_720262" data-name="Trazado 720262" d="M914.06,1447.01a12.186,12.186,0,0,0,9.935,1.386s4.847-1.1,5.909,1.313c0,0-7.434,3.776-9.314,4.809a22.455,22.455,0,0,0-3.943,2.957,1.949,1.949,0,0,1-2.823-.219c-.327-.4-.7-.881-1.112-1.436-1.146-1.553-3.817-6.57-3.817-6.57Z" transform="translate(-832.927 -1268.846)" fill="#233862"/>
        <path id="Trazado_720263" data-name="Trazado 720263" d="M691.826,1146.346s-2.389,5.508-7.9,4.5c0,0-11.253-9.293-18.971-18.946a42.9,42.9,0,0,1-5.9-9.213c-5.118-11.85-18.933-29.524-27.716-38.482l21.975-7.951s7.039,14.16,16.4,31.553C676.469,1120.334,684.425,1134.544,691.826,1146.346Z" transform="translate(-608.862 -969.539)" fill="#2b478b"/>
        <path id="Trazado_720264" data-name="Trazado 720264" d="M669.719,1107.8l-4.767,24.094a42.925,42.925,0,0,1-5.9-9.212c-5.119-11.851-18.933-29.526-27.716-38.484l21.975-7.949S660.355,1090.41,669.719,1107.8Z" transform="translate(-608.862 -969.54)" fill="#233862"/>
        <path id="Trazado_720265" data-name="Trazado 720265" d="M703.869,1453.137s-.24,4.4,5.089,4.981c0,0,3.045.016,3.054,2.814l-15.486.049a12.041,12.041,0,0,1-.559-3.547c-.084-1.854,1.8-6.706,1.8-6.706Z" transform="translate(-661.031 -1271.849)" fill="#233862"/>
        <path id="Trazado_720266" data-name="Trazado 720266" d="M618.545,1072.166s9.79,10.757,16,30.136c3.381,10.545-6.2,37.056-8.064,46.266,0,0-6.425.545-10.819-1.153,0,0-.333-19.025,2.236-33.687,1.438-8.206-12.89-17.552-19.151-32.38-4.259-10.087.922-9.915,7.29-10.158Z" transform="translate(-581.299 -965.454)" fill="#2b478b"/>
        <path id="Trazado_720267" data-name="Trazado 720267" d="M579.8,771.613c-5.447,3.075-16.6.239-16.6.239s4.528-5.177,2.471-13.515l4.276,2.172,4.594,2.333a38.252,38.252,0,0,1,.5,4.118c.052.681.1,1.442.132,2.273A14.293,14.293,0,0,1,579.8,771.613Z" transform="translate(-553.857 -712.894)" fill="#ffb07b"/>
        <path id="Trazado_720268" data-name="Trazado 720268" d="M582.585,863.728c0,.957-1.1,1.416-1.337,1.462-2.2.4-8.331,2.787-13.857,3.335a44.315,44.315,0,0,1-13.718-.928c-.629-.126-2.1-.524-2.209-1.126-.131-.657-18.306-37.051-4.177-52.685.332-.366,3.121.294,5.672.9a10.479,10.479,0,0,0,6.445-.526l2.392,1.258c2.937,1.637,8.495,7.453,9.145,12.015.33,2.321,1.657,4.039,2.041,6.08q.214,1.133.437,2.212.435,2.115.9,4.027c.831,3.451,1.708,6.422,2.569,8.988.917,2.725,1.816,4.992,2.619,6.888,1.042,2.458,1.922,4.3,2.472,5.7A7.022,7.022,0,0,1,582.585,863.728Z" transform="translate(-536.668 -757.572)" fill="#2a4e96"/>
        <path id="Trazado_720269" data-name="Trazado 720269" d="M605.1,913.066a71.413,71.413,0,0,1-34.541-35.3s20.845,7.689,25.987,9.692q.434,2.114.894,4.027c.831,3.452,1.708,6.422,2.57,8.989.917,2.725,1.816,4.992,2.619,6.887C603.671,909.821,604.551,911.659,605.1,913.066Z" transform="translate(-559.795 -809.308)" fill="#1e3d70"/>
        <path id="Trazado_720270" data-name="Trazado 720270" d="M740.938,600.589l-5.5-17.426a3.116,3.116,0,0,0-3.814-2.063h0c-.082.023-.162.051-.242.081l-1.927.643s-3.016,3.107-5.182,3.733c-6.656,1.926-12.974-1.622-15.4-8.111-2.7-7.218.432-15.144,7.688-17.432,2.482-.783,7.368.676,7.368.676l1.961-.652a2.128,2.128,0,0,0,1.416-2.68l-6.049-19.18a4.977,4.977,0,0,0-6.243-3.25l-17.86,5.633a2.331,2.331,0,0,1-3-2.59,13.357,13.357,0,0,0-20.143-13.489,14.4,14.4,0,0,0-6.349,12.488,13.447,13.447,0,0,0,3.788,8.262,2.259,2.259,0,0,1-.94,3.733l-17.971,5.668a4.974,4.974,0,0,0-3.248,6.241l19.738,62.589a4.861,4.861,0,0,0,6.1,3.174l62.521-19.717A5.048,5.048,0,0,0,740.938,600.589Z" transform="translate(-623.163 -522.539)" fill="#4a75cb"/>
        <path id="Trazado_720271" data-name="Trazado 720271" d="M657.786,540.259a13.444,13.444,0,0,0,3.788,8.262,2.259,2.259,0,0,1-.94,3.733l-17.971,5.668a4.976,4.976,0,0,0-3.249,6.242l19.739,62.589a4.862,4.862,0,0,0,6.1,3.174l62.52-19.717a5.047,5.047,0,0,0,3.3-6.331l-5.5-17.426a3.108,3.108,0,0,0-5.211-1.215,13.344,13.344,0,1,1-5.609-21.922,2.129,2.129,0,0,0,2.682-2.667l-6.049-19.18a4.976,4.976,0,0,0-6.243-3.25l-17.861,5.633a2.331,2.331,0,0,1-3-2.59,13.357,13.357,0,0,0-20.143-13.489A14.4,14.4,0,0,0,657.786,540.259Z" transform="translate(-615.193 -525.194)" fill="#699dee"/>
        <g id="Grupo_1017820" data-name="Grupo 1017820" transform="translate(7.323 61.523)">
          <path id="Trazado_720272" data-name="Trazado 720272" d="M822.837,1023.985l2.217.813a4.742,4.742,0,0,1,7.2,1.967s1,2.229-.583,2.714-1.007.028-3.232.77-4.416.207-5.256-1.383l-1.507-1.1Z" transform="translate(-769.842 -988.756)" fill="#ffb07b"/>
          <path id="Trazado_720273" data-name="Trazado 720273" d="M607.518,880.141c.82-2.139,1.194-3.107,1.194-3.107s-16.752-13.655-18.459-14.827c-1.163-.8-12.743-9.454-18.389-16.2a11.816,11.816,0,0,0-11.487-3.981l-3.516.737a5.23,5.23,0,0,0-2.332,9.089c9.277,7.953,24.924,17.177,27.841,19.1,7.243,4.764,23.262,11.438,23.262,11.438A4.13,4.13,0,0,0,607.518,880.141Z" transform="translate(-552.699 -841.776)" fill="#2a4e96"/>
        </g>
        <path id="Trazado_720274" data-name="Trazado 720274" d="M587.638,776.056c-5.356.3-8.839-4.121-8.839-4.121a42.534,42.534,0,0,0,3.742-2.329l4.594,2.333A38.178,38.178,0,0,1,587.638,776.056Z" transform="translate(-566.446 -721.991)" fill="#ea8e50"/>
        <path id="Trazado_720275" data-name="Trazado 720275" d="M568.851,717.3s-8.115,5.824-11.664.714-6.987-7.8-1.955-11.734,7.4-2.692,9-1.274S570.87,715.658,568.851,717.3Z" transform="translate(-545.377 -668.739)" fill="#ffb07b"/>
        <path id="Trazado_720276" data-name="Trazado 720276" d="M534.416,672.786a13.037,13.037,0,0,0-.946-3.346s-.509,2.11-4.364,1.818-9.967.379-12,4.773q-.195.42-.348.863a10.191,10.191,0,0,1-.457-2.434,7.5,7.5,0,0,0,0,4.257h0c-.011.069-.02.138-.031.207a8.6,8.6,0,0,0-1.565,2.956,2.68,2.68,0,0,1,1.441-1.281c-.017,3.419,1.369,6.76,3.8,7.756,3.559,1.455,3.53.345,7.109,2.719,0,0,.96-1.191.305-1.992s-3.128-1.964-1.746-3.128,1.891.145,2.4-.654-2.037-3.128,1.236-5.311S534.707,674.75,534.416,672.786Z" transform="translate(-514.702 -641.13)" fill="#233862"/>
      </g>
      <path id="Trazado_720277" data-name="Trazado 720277" d="M1454.033,1342.65s-4.1-6.066-10.527-5.578c-1.952.149-5.125.625-8.808,1.132-2.78-9.7-10.438-32.748-20.769-34.044-10.55-1.325,10.1,24.308,18.539,34.345-1.539.2-3.138.4-4.752.576-4.47-4.772-12.26-11.843-18.764-11.3-6.52.545,5.688,7.287,14.5,11.7-5.407.4-10.533.359-13.665-.851-7.673-2.967-14.723,4.024-14.723,4.024Z" transform="translate(-782.491 2460.235)" fill="#82b378"/>
    </g>
  </g>
</svg>
