<svg xmlns="http://www.w3.org/2000/svg" width="436.8" height="211.304" viewBox="0 0 436.8 211.304">
  <g id="svg01" transform="translate(-165.2 -253.7)">
    <path id="Trazado_717268" data-name="Trazado 717268" d="M922.5,917.8s59.025-93.477,93.825-99.919c24.322-4.508,48.3,39.266,48.3,39.266a31.423,31.423,0,0,1,27.843-6.331c16.864,4.049,107.335,96.162,107.335,96.162l-272.638-3.673Z" transform="translate(-651.926 -485.402)" fill="#9bc1f9"/>
    <path id="Trazado_717269" data-name="Trazado 717269" d="M497.187,935.087c56.464,10.95,141.175,109.409,205.7,109.409-35.7,3.339-320.184,1.656-320.184,1.656S440.737,924.123,497.187,935.087Z" transform="translate(-187.236 -585.977)" fill="#86b1f2"/>
    <path id="Trazado_717270" data-name="Trazado 717270" d="M1746.54,627,1733.6,730.982h25.88Z" transform="translate(-1350.167 -321.358)" fill="#3c8f7c"/>
    <path id="Trazado_717271" data-name="Trazado 717271" d="M1487.245,909.7,1476.1,999.378h25.867Z" transform="translate(-1128.496 -564.721)" fill="#3c8f7c"/>
    <g id="Grupo_1017097" data-name="Grupo 1017097" transform="translate(203.242 321.978)">
      <rect id="Rect치ngulo_375568" data-name="Rect치ngulo 375568" width="4.174" height="43.691" transform="translate(11.549 84.752)" fill="#355389"/>
      <path id="Trazado_717272" data-name="Trazado 717272" d="M452.236,744.4,438.6,848.382h27.272Z" transform="translate(-438.6 -744.4)" fill="#3c8f7c"/>
      <path id="Trazado_717273" data-name="Trazado 717273" d="M474.2,1192.1l19.438,15.737-.751-5.705L474.8,1187.5Z" transform="translate(-469.246 -1125.844)" fill="#50bfa5"/>
      <path id="Trazado_717274" data-name="Trazado 717274" d="M495.6,1032.524l11.911,3.84-.556-4.271-10.839-3.493Z" transform="translate(-487.669 -989.056)" fill="#50bfa5"/>
    </g>
    <g id="Grupo_1017098" data-name="Grupo 1017098" transform="translate(234.007 301.12)">
      <rect id="Rect치ngulo_375569" data-name="Rect치ngulo 375569" width="3.006" height="49.688" transform="translate(12.523 88.579)" fill="#355389"/>
      <path id="Trazado_717275" data-name="Trazado 717275" d="M674.519,594.5,659.7,694.781h29.624Z" transform="translate(-659.7 -594.5)" fill="#3c8f7c"/>
      <path id="Trazado_717276" data-name="Trazado 717276" d="M666.5,1203.816l26.576-7.9-.4-2.714-25.742,7.653Z" transform="translate(-665.554 -1109.894)" fill="#50bfa5"/>
      <path id="Trazado_717277" data-name="Trazado 717277" d="M700.1,992.559l17.616-5.232-.4-2.728-16.767,5Z" transform="translate(-694.478 -930.32)" fill="#50bfa5"/>
    </g>
    <path id="Trazado_717278" data-name="Trazado 717278" d="M382.7,1314.922s53.6-66.288,142.066-68.292c46.07-1.043,107.029,28.024,204.833,46.029,32.087,5.9,43.524,23.947,43.524,23.947Z" transform="translate(-187.236 -854.747)" fill="#96d9c9"/>
    <g id="Grupo_1017106" data-name="Grupo 1017106" transform="translate(172.548 411.197)">
      <g id="Grupo_1017101" data-name="Grupo 1017101" transform="translate(389.286)">
        <g id="Grupo_1017099" data-name="Grupo 1017099" transform="translate(0.426 2.671)">
          <path id="Trazado_717279" data-name="Trazado 717279" d="M3049.575,1404.8a22.611,22.611,0,0,0-2.143,1.893,85.067,85.067,0,0,0-12.773,13.942,96.12,96.12,0,0,0-15.278,32,.3.3,0,1,1-.57-.181,98.266,98.266,0,0,1,8.641-21.484c9.906-18.047,22.249-26.257,22.123-26.173Z" transform="translate(-3018.796 -1404.795)" fill="#466eb6"/>
        </g>
        <g id="Grupo_1017100" data-name="Grupo 1017100" transform="translate(0 4.714)">
          <path id="Trazado_717280" data-name="Trazado 717280" d="M3028.2,1419.62c-.835,6.373-3.673,12.091-5.649,18.032-5.259,15.9-6.123,28.01-6.6,29.345-.042.139-.194.112-.209-.027-.125-1.253,1.03-9.963,3.312-19.035,3.8-15.083,7.764-20.969,8.961-28.371.028-.153.208-.084.18.056Z" transform="translate(-3015.732 -1419.477)" fill="#466eb6"/>
        </g>
        <path id="Trazado_717281" data-name="Trazado 717281" d="M3192.969,1391.712a6.426,6.426,0,0,1,.807,2.3,4.916,4.916,0,0,1-.223,2.184,4.617,4.617,0,0,0,1.279-1.934,5.4,5.4,0,0,0,.1-3.618c-.571-1.419-1.823-1.74-2.142-1.155A2.881,2.881,0,0,0,3192.969,1391.712Z" transform="translate(-3168.01 -1388.707)" fill="#466eb6"/>
        <path id="Trazado_717282" data-name="Trazado 717282" d="M3132.01,1464.509a6.332,6.332,0,0,1,.571,2.379,5.175,5.175,0,0,1-.431,2.129,4.329,4.329,0,0,0,1.462-1.739,5.386,5.386,0,0,0,.458-3.563c-.417-1.475-1.628-1.976-2-1.433A2.894,2.894,0,0,0,3132.01,1464.509Z" transform="translate(-3115.665 -1451.429)" fill="#466eb6"/>
        <path id="Trazado_717283" data-name="Trazado 717283" d="M3047.733,1503.7a3.286,3.286,0,0,1,1.434.723,3.394,3.394,0,0,1,.85,1.28,4.118,4.118,0,0,0-.181-1.794,3.224,3.224,0,0,0-1.558-1.949c-.934-.4-1.726.181-1.628.682S3047.262,1503.482,3047.733,1503.7Z" transform="translate(-3042.341 -1485.658)" fill="#466eb6"/>
        <path id="Trazado_717284" data-name="Trazado 717284" d="M3039.834,1526.006a3.28,3.28,0,0,1,1.434.724,3.364,3.364,0,0,1,.85,1.28,4.145,4.145,0,0,0-.182-1.795,3.221,3.221,0,0,0-1.557-1.948c-.934-.4-1.727.181-1.628.682S3039.363,1525.783,3039.834,1526.006Z" transform="translate(-3035.542 -1504.856)" fill="#466eb6"/>
        <path id="Trazado_717285" data-name="Trazado 717285" d="M3202.874,1437.164a5.058,5.058,0,0,0-1.337-1.669,3.24,3.24,0,0,0-1.641-.627,3.326,3.326,0,0,1,1.877-.515,3.478,3.478,0,0,1,2.631,1.294c.792,1.1.555,2.449.014,2.532C3203.861,1438.291,3203.3,1437.72,3202.874,1437.164Z" transform="translate(-3174.27 -1427.563)" fill="#466eb6"/>
        <path id="Trazado_717286" data-name="Trazado 717286" d="M3164.974,1477.964a5.051,5.051,0,0,0-1.335-1.67,3.253,3.253,0,0,0-1.643-.626,3.333,3.333,0,0,1,1.878-.515,3.477,3.477,0,0,1,2.63,1.295c.793,1.1.556,2.448.014,2.532C3165.976,1479.09,3165.406,1478.506,3164.974,1477.964Z" transform="translate(-3141.644 -1462.685)" fill="#466eb6"/>
        <path id="Trazado_717287" data-name="Trazado 717287" d="M3095.526,1444.457a3.853,3.853,0,0,0-1.948.292,3.478,3.478,0,0,0-1.392,1.2,4.85,4.85,0,0,1,.752-2.073,3.638,3.638,0,0,1,2.449-1.726c1.238-.111,2.032.918,1.767,1.475A1.988,1.988,0,0,1,3095.526,1444.457Z" transform="translate(-3081.547 -1434.272)" fill="#466eb6"/>
        <path id="Trazado_717288" data-name="Trazado 717288" d="M3084.426,1475.758a3.852,3.852,0,0,0-1.947.292,3.46,3.46,0,0,0-1.393,1.2,4.843,4.843,0,0,1,.751-2.073,3.639,3.639,0,0,1,2.448-1.725c1.239-.112,2.032.918,1.768,1.475A1.991,1.991,0,0,1,3084.426,1475.758Z" transform="translate(-3071.991 -1461.218)" fill="#466eb6"/>
        <path id="Trazado_717289" data-name="Trazado 717289" d="M3116.773,1540.764a5.048,5.048,0,0,0-1.336-1.67,3.245,3.245,0,0,0-1.642-.626,3.335,3.335,0,0,1,1.879-.515,3.471,3.471,0,0,1,2.628,1.294c.793,1.1.557,2.449.014,2.532C3117.761,1541.891,3117.205,1541.32,3116.773,1540.764Z" transform="translate(-3100.15 -1516.748)" fill="#466eb6"/>
        <path id="Trazado_717290" data-name="Trazado 717290" d="M3230.424,1410.555a2.816,2.816,0,0,0-1.03-.834,1.97,1.97,0,0,0-1.1-.14,2.245,2.245,0,0,1,1.126-.612,2.1,2.1,0,0,1,1.795.4c.626.571.626,1.447.292,1.587S3230.757,1410.834,3230.424,1410.555Z" transform="translate(-3198.718 -1405.672)" fill="#466eb6"/>
        <path id="Trazado_717291" data-name="Trazado 717291" d="M3229.807,1386.909a3.783,3.783,0,0,1-.042,1.461,2.643,2.643,0,0,1-.571,1.113,2.193,2.193,0,0,0,1.1-.682,2.96,2.96,0,0,0,.806-1.92c-.013-.918-.611-1.461-.918-1.224A1.616,1.616,0,0,0,3229.807,1386.909Z" transform="translate(-3199.492 -1385.601)" fill="#466eb6"/>
      </g>
      <g id="Grupo_1017103" data-name="Grupo 1017103" transform="translate(352.236 35.482)">
        <g id="Grupo_1017102" data-name="Grupo 1017102" transform="translate(3.498 4.828)">
          <path id="Trazado_717292" data-name="Trazado 717292" d="M2774.6,1675.327a19.2,19.2,0,0,1,2.184,2.143,20.033,20.033,0,0,1,3.869,7.681c.056.195.07.375.223.487a.069.069,0,0,0,.11-.042c.1-.209.014-.389-.042-.612a19.474,19.474,0,0,0-2.295-5.343,11.6,11.6,0,0,0-4.035-4.341c-.014,0-.014.014-.014.028Z" transform="translate(-2774.599 -1675.299)" fill="#466eb6"/>
        </g>
        <path id="Trazado_717293" data-name="Trazado 717293" d="M2751.374,1674.847a4.064,4.064,0,0,1,1.768-.766,3.067,3.067,0,0,1,1.656.292,3.837,3.837,0,0,0-1.434-1.391,3.131,3.131,0,0,0-2.755-.209c-1.1.557-1.392,1.837-.946,2.185S2750.8,1675.112,2751.374,1674.847Z" transform="translate(-2749.463 -1668.099)" fill="#466eb6"/>
        <path id="Trazado_717294" data-name="Trazado 717294" d="M2774.106,1642.774a5.685,5.685,0,0,0-.418,2.142,4.234,4.234,0,0,0,.472,1.865,4.124,4.124,0,0,1-1.377-1.475,4.82,4.82,0,0,1-.542-3.159c.321-1.335,1.377-1.837,1.725-1.377A2.563,2.563,0,0,1,2774.106,1642.774Z" transform="translate(-2768.994 -1640.604)" fill="#466eb6"/>
      </g>
      <g id="Grupo_1017105" data-name="Grupo 1017105" transform="translate(0 19.546)">
        <g id="Grupo_1017104" data-name="Grupo 1017104" transform="translate(2.998 5.384)">
          <path id="Trazado_717295" data-name="Trazado 717295" d="M239.588,1564.869c10.992,3.923,20.5,12.008,29.652,19.87,6.164,5.3,5.649,6.3,6.943,7.179.209.14.473-.1.417-.362-.334-1.349-1.586-2.49-2.449-3.409a42.558,42.558,0,0,0-3.145-3.005c-2.324-2.018-4.745-3.91-7.138-5.8a112.451,112.451,0,0,0-15.194-10.548,53.554,53.554,0,0,0-9.058-4.021c-.07-.027-.083.083-.028.1Z" transform="translate(-239.553 -1564.767)" fill="#466eb6"/>
        </g>
        <path id="Trazado_717296" data-name="Trazado 717296" d="M296.753,1529.753a9.6,9.6,0,0,0-.849,3.576,7.675,7.675,0,0,0,.654,3.2,6.684,6.684,0,0,1-2.212-2.616,7.96,7.96,0,0,1-.682-5.357c.64-2.227,2.449-2.978,3.006-2.157C297.268,1527.193,297.059,1528.584,296.753,1529.753Z" transform="translate(-282.951 -1526.076)" fill="#466eb6"/>
        <path id="Trazado_717297" data-name="Trazado 717297" d="M363.053,1575.153a9.6,9.6,0,0,0-.849,3.576,7.676,7.676,0,0,0,.654,3.2,6.674,6.674,0,0,1-2.212-2.616,7.962,7.962,0,0,1-.682-5.357c.64-2.226,2.449-2.977,3.006-2.157C363.554,1572.593,363.345,1573.984,363.053,1575.153Z" transform="translate(-340.026 -1565.16)" fill="#466eb6"/>
        <path id="Trazado_717298" data-name="Trazado 717298" d="M429.153,1628.653a9.6,9.6,0,0,0-.849,3.576,7.676,7.676,0,0,0,.654,3.2,6.675,6.675,0,0,1-2.212-2.616,7.963,7.963,0,0,1-.682-5.357c.64-2.226,2.449-2.977,3.006-2.156C429.654,1626.093,429.445,1627.484,429.153,1628.653Z" transform="translate(-396.928 -1611.216)" fill="#466eb6"/>
        <path id="Trazado_717299" data-name="Trazado 717299" d="M264.438,1599.132a7.642,7.642,0,0,1,2.017-2.5,4.617,4.617,0,0,1,2.477-.933,5.049,5.049,0,0,0-2.839-.765,5.208,5.208,0,0,0-3.952,1.948c-1.2,1.656-.835,3.687-.014,3.813S263.8,1599.966,264.438,1599.132Z" transform="translate(-255.339 -1585.339)" fill="#466eb6"/>
        <path id="Trazado_717300" data-name="Trazado 717300" d="M333.438,1646.032a7.651,7.651,0,0,1,2.018-2.5,4.612,4.612,0,0,1,2.477-.932,5.044,5.044,0,0,0-2.839-.766,5.209,5.209,0,0,0-3.952,1.948c-1.2,1.655-.835,3.687-.014,3.812S332.784,1646.867,333.438,1646.032Z" transform="translate(-314.738 -1625.714)" fill="#466eb6"/>
        <path id="Trazado_717301" data-name="Trazado 717301" d="M219.981,1566a4.517,4.517,0,0,1,1.544-1.266,2.84,2.84,0,0,1,1.656-.208,3.465,3.465,0,0,0-1.7-.918,3.137,3.137,0,0,0-2.7.612c-.946.863-.946,2.185-.445,2.393S219.48,1566.43,219.981,1566Z" transform="translate(-218.006 -1558.315)" fill="#466eb6"/>
        <path id="Trazado_717302" data-name="Trazado 717302" d="M235.467,1530.435a5.714,5.714,0,0,0,.07,2.2,4.055,4.055,0,0,0,.863,1.669,3.561,3.561,0,0,1-1.642-1.029,4.5,4.5,0,0,1-1.211-2.895c.028-1.391.932-2.185,1.378-1.85A2.669,2.669,0,0,1,235.467,1530.435Z" transform="translate(-231.377 -1528.122)" fill="#466eb6"/>
      </g>
    </g>
    <path id="Trazado_717303" data-name="Trazado 717303" d="M600.358,1742.515H166.842c-.9,0-1.642-1.086-1.642-2.407h0c0-1.336.738-2.407,1.642-2.407H600.358c.9,0,1.642,1.085,1.642,2.407h0C602,1741.429,601.262,1742.515,600.358,1742.515Z" transform="translate(0 -1277.511)" fill="#3c8f7c"/>
    <g id="Grupo_1017109" data-name="Grupo 1017109" transform="translate(452.201 267.647)">
      <g id="Grupo_1017107" data-name="Grupo 1017107" transform="translate(40.807 116.723)">
        <path id="Trazado_717304" data-name="Trazado 717304" d="M2524.426,1268.605H2521.1l14.235-75.806,3.256.612Z" transform="translate(-2521.099 -1192.8)" fill="#184655"/>
        <path id="Trazado_717305" data-name="Trazado 717305" d="M2825.469,1268.605h3.938L2814.77,1192.8l-3.27.612Z" transform="translate(-2771.093 -1192.8)" fill="#184655"/>
      </g>
      <ellipse id="Elipse_5879" data-name="Elipse 5879" cx="49.452" cy="49.591" rx="49.452" ry="49.591" transform="translate(0 68.154) rotate(-43.562)" fill="#b75742"/>
      <ellipse id="Elipse_5880" data-name="Elipse 5880" cx="45.083" cy="45.25" rx="45.083" ry="45.25" transform="translate(6.163 68.276) rotate(-43.545)" fill="#f47458"/>
      <ellipse id="Elipse_5881" data-name="Elipse 5881" cx="37.833" cy="38.098" rx="37.833" ry="38.098" transform="translate(16.359 68.466) rotate(-43.566)" fill="#fcf5eb"/>
      <ellipse id="Elipse_5882" data-name="Elipse 5882" cx="28.413" cy="28.65" rx="28.413" ry="28.65" transform="translate(29.705 68.82) rotate(-43.549)" fill="#f47458"/>
      <path id="Trazado_717306" data-name="Trazado 717306" d="M2585.935,726.517a20.325,20.325,0,0,0,23.78,25.018,19.938,19.938,0,0,0,15.486-14.722,20.325,20.325,0,0,0-23.779-25.018A19.959,19.959,0,0,0,2585.935,726.517Z" transform="translate(-2535.555 -661.653)" fill="#fcf5eb"/>
      <path id="Trazado_717307" data-name="Trazado 717307" d="M2693.948,824.768a5.171,5.171,0,1,0,5.121-4.87A5.167,5.167,0,0,0,2693.948,824.768Z" transform="translate(-2629.083 -755.062)" fill="#b75742"/>
      <g id="Grupo_1017108" data-name="Grupo 1017108" transform="translate(23.679 31.024)">
        <path id="Trazado_717308" data-name="Trazado 717308" d="M2440.365,589.437l.279-3.354L2429.5,576.9l.473,4.884,10.924,8.989Z" transform="translate(-2425.115 -576.9)" fill="#184655"/>
        <path id="Trazado_717309" data-name="Trazado 717309" d="M2412.385,620.838l-3.242.918L2398,612.573l4.884-.473,10.924,8.989Z" transform="translate(-2397.998 -607.202)" fill="#12353d"/>
        <path id="Trazado_717310" data-name="Trazado 717310" d="M2532.962,693.624h0a.754.754,0,0,1-1.071.1L2500.5,667.869l.961-1.169,31.39,25.867A.741.741,0,0,1,2532.962,693.624Z" transform="translate(-2486.239 -654.205)" fill="#184655"/>
      </g>
    </g>
    <g id="Grupo_1017114" data-name="Grupo 1017114" transform="translate(232.852 253.7)">
      <g id="Grupo_1017112" data-name="Grupo 1017112" transform="translate(0 29.6)">
        <path id="Trazado_717311" data-name="Trazado 717311" d="M652.584,837.953c-.236-.682,3.1-1.238,3.27-1.934s-4.216-.751-4.369-1.364c-.292-1.127,4.814-.237,4.717-.765s-5.315-1.7-4.759-2.6,5.287,1.781,5.426,1.169-4.62-2.1-4.522-3.437c.042-.724,7.806,3.576,8.71,3.186s-.974-3.757-.25-4.258,2.769,6.846,3.27,7.1,10.978,6.234,14.707,7.18c.459-1.252,5.8-8.989,6.192-10.171,2.087,1.489,4.244,1.7,6.4,3.047-1.558,3.924-8.752,14.8-9.837,15.306-3.326,1.5-16.155-9.156-18.729-10.978s-4.035-1.238-5.774-1.809S652.834,838.635,652.584,837.953Z" transform="translate(-651.402 -777.625)" fill="#f7a491"/>
        <path id="Trazado_717312" data-name="Trazado 717312" d="M960.176,617.116A10.98,10.98,0,0,0,948,609.852a11.488,11.488,0,0,0-7.194-5.134c-5.747-1.225-13.511,1.044-13.288,7.11-2.226,4.077-2.31,9.921,1.1,13.024-1.183,5.5,3.952,10.8,10.645,10.6a11.8,11.8,0,0,0,11.173,5.775,25.838,25.838,0,0,1,2.936-.32c-.334-.056,7.083,5.621,13.372-3.117C973.158,628.873,968.65,618.062,960.176,617.116Z" transform="translate(-887.738 -585.201)" fill="#184655"/>
        <g id="Grupo_1017110" data-name="Grupo 1017110" transform="translate(22.193 81.283)">
          <path id="Trazado_717313" data-name="Trazado 717313" d="M869.54,1050.6c.195.083-2.518,3.576-5.162,6.053a22.523,22.523,0,0,0-4.815,9.294c-1.043,5.245-.181,31.182-1.085,33.033-7.82,7.653-13.483,26.841-15.069,32.685a6.138,6.138,0,0,1-1.809,2.964h0l.348,6.61,3.882,3.576s-.863-5.384.863-9.392c0,0,19.689-29.819,20.858-32.1,2.24-6.5,10.366-39.753,10.366-39.753l1.892-7.639C879.809,1055.943,869.568,1050.614,869.54,1050.6Z" transform="translate(-837.328 -1050.6)" fill="#f7a491"/>
          <path id="Trazado_717314" data-name="Trazado 717314" d="M810.9,1656.026s2.463,3.785,2.672,5.273,1.516,4.828,2.964,5.037c.334.042,5.969.46,5.927-.236-.028-.543-2.073-1.308-3.019-1.963-1.642-1.127-4.174-10.338-4.174-10.338S811.011,1654.844,810.9,1656.026Z" transform="translate(-810.9 -1569.868)" fill="#355389"/>
        </g>
        <path id="Trazado_717315" data-name="Trazado 717315" d="M1048.4,507.21s8.237-14.819,10.241-17.977,7.222-15.668,7.417-16.168-3.6-6.415-2.755-6.623,1.781,3.117,2.686,2.727,1.642-2.713,2.156-2.435,1.781.334,2.059.723,2.658,1,1.809,2.56-1.823,1.823-2.421,4.717-1.489,13.344-4.55,18.562-9.8,16.767-9.8,16.767Z" transform="translate(-993.16 -466.432)" fill="#f79c8d"/>
        <path id="Trazado_717316" data-name="Trazado 717316" d="M1089.625,1097.56s12.69,27.119,12.76,31.892c.069,4.091-2.212,27.022-1.572,46.112.028.7.891,1.6,2.17,2.185.71.333,4.174,1.865,4.174,1.865l.474,1.238-11.9-.849-.167-3.242s-4.731-28.566-4.258-36.65c.069-1.266.7-8.864.7-8.864l-14.3-27.62,9-11.827Z" transform="translate(-1018.383 -1004.784)" fill="#f7a491"/>
        <g id="Grupo_1017111" data-name="Grupo 1017111" transform="translate(31.794 35.805)">
          <path id="Trazado_717317" data-name="Trazado 717317" d="M954.5,1367.362Z" transform="translate(-944.12 -1277.803)" fill="#f47458"/>
          <path id="Trazado_717318" data-name="Trazado 717318" d="M908.41,736.761c.348-2.087,3.562-7.3,4.077-8.585,0,0-3.743-4.759-6.776-4.4,0,0-4.077,6.763-6.4,7s-10.478.584-11.911,1.447-7.5,10.185-7.5,10.185,5.455,5.566,7.653,5.566a23.531,23.531,0,0,1,1.628-2.8c.334,1.071,5.412,17.532,5.412,21.261l.042.028a10.67,10.67,0,0,0,15.348-1.976h0a83.9,83.9,0,0,1-.181-9.865C910.177,747.21,911.666,743.272,908.41,736.761Z" transform="translate(-879.9 -723.759)" fill="#3c8f7c"/>
          <path id="Trazado_717319" data-name="Trazado 717319" d="M990.464,1052.469,965.557,1016.5a23.329,23.329,0,0,1-4.633,1.475,47.142,47.142,0,0,1-10.756.459,2.33,2.33,0,0,1-.028.348c-.417,2.964-4.355,7.556-5.162,16.558-.918,10.213-.362,27.954-.055,29.122C961.494,1062.458,985.761,1057.394,990.464,1052.469Z" transform="translate(-935.488 -975.766)" fill="#f7cc7f"/>
        </g>
        <path id="Trazado_717320" data-name="Trazado 717320" d="M989.3,715.949a37.257,37.257,0,0,1,.7,6.581c-.181,1.865.668,7.861,4.453,7.875s.723-7.625.362-9.448a71.288,71.288,0,0,1-.445-7.458Z" transform="translate(-942.283 -679.122)" fill="#f7a491"/>
        <path id="Trazado_717321" data-name="Trazado 717321" d="M994.448,716.324c-.056-1.545-.084-2.825-.084-2.825l-5.065,2.463s.181.96.362,2.2A4.4,4.4,0,0,0,994.448,716.324Z" transform="translate(-942.283 -679.122)" fill="#f47458"/>
        <path id="Trazado_717322" data-name="Trazado 717322" d="M961.917,634.469a6.476,6.476,0,0,0-3.312,2.992c-1.169,2.268-1.6,8.613,3.047,11.09s7.764-2,7.513-6.039S967.65,633.175,961.917,634.469Z" transform="translate(-915.193 -610.916)" fill="#f7a491"/>
        <path id="Trazado_717323" data-name="Trazado 717323" d="M1032.274,670.185c-.306,1.016-1,1.684-1.572,1.517s-.779-1.127-.473-2.143,1-1.684,1.572-1.517S1032.58,669.183,1032.274,670.185Z" transform="translate(-977.396 -639.967)" fill="#f7a491"/>
        <path id="Trazado_717324" data-name="Trazado 717324" d="M949.836,688.942c.4,1.016.195,2.073-.473,2.365s-1.53-.292-1.934-1.308-.195-2.073.473-2.366S949.433,687.926,949.836,688.942Z" transform="translate(-906.062 -656.79)" fill="#f7a491"/>
        <path id="Trazado_717325" data-name="Trazado 717325" d="M1205.072,1708.268H1220.1c.557-.056.7-.5.5-.779-.4-.571-2.157-.988-4.119-1.893-3.451.362-10.978-2-11.535-2.8C1204.626,1704.386,1204.752,1708.2,1205.072,1708.268Z" transform="translate(-1127.764 -1530.767)" fill="#355389"/>
        <path id="Trazado_717326" data-name="Trazado 717326" d="M991.3,708.206l3.354-.306a1.476,1.476,0,0,1-1.433,1.475C991.425,709.6,991.3,708.206,991.3,708.206Z" transform="translate(-944.004 -674.301)" fill="#fff"/>
      </g>
      <path id="Trazado_717327" data-name="Trazado 717327" d="M878.5,253.7c6.749,2.685,13.441,5.5,20.12,8.362,1.934.835,3.868,1.684,5.8,2.532,1.837.793,3.7,1.544,5.469,2.491a25.333,25.333,0,0,1,9.072,8.209,25.877,25.877,0,0,1,2.8,5.538,13.169,13.169,0,0,0,1.406,3.353,7.936,7.936,0,0,0,2.894,2.212,30.554,30.554,0,0,1,2.991,1.753,25.333,25.333,0,0,1,8.168,9.114c1.962,3.7,2.755,7.862,3.785,11.869,1.92,7.472,3.771,14.958,5.44,22.486.125.543.236,1.085.362,1.642-2.407-7.1-4.675-14.234-6.874-21.4-.64-2.073-1.252-4.133-1.879-6.206a42.229,42.229,0,0,0-2.115-6.011,23.962,23.962,0,0,0-8.446-9.6c-2.018-1.308-4.439-2.073-6.011-3.98a11.171,11.171,0,0,1-1.865-3.938,22.6,22.6,0,0,0-2.518-5.3,23.7,23.7,0,0,0-7.945-7.681c-.7-.4-1.405-.779-2.143-1.127-1.878-.918-3.771-1.837-5.649-2.755q-10.749-5.2-21.331-10.756C879.516,254.229,879.015,253.964,878.5,253.7Z" transform="translate(-846.901 -253.7)" fill="#8f6545"/>
      <g id="Grupo_1017113" data-name="Grupo 1017113" transform="translate(33.756 1.322)">
        <path id="Trazado_717328" data-name="Trazado 717328" d="M962.32,342.748,894,263.2l.264.125,68,79.229Z" transform="translate(-894 -263.2)" fill="#787878"/>
      </g>
      <path id="Trazado_717329" data-name="Trazado 717329" d="M1185.552,465c-1,.07-2.546,1.322-2.185,1.656.418.376,2.338-.57,2.338-.57-1.795,1.489-1.906,1.976-1.336,2.087a10.171,10.171,0,0,0,2.157-.974c-.834,1.517-.834,2.115-.306,2.06.264-.028,1.238-1.461,1.238-1.461-.181,1.224-.111,1.767.32,1.2.237-.32.738-1.057.515-1.614a.5.5,0,0,0-.32-.334c-.125-.32-.195-.5-.654-.584-.209-.5-.362-.612-.961-.863A1.016,1.016,0,0,0,1185.552,465Z" transform="translate(-1109.301 -435.595)" fill="#f79c8d"/>
    </g>
  </g>
</svg>
