<svg xmlns="http://www.w3.org/2000/svg" xmlns:xlink="http://www.w3.org/1999/xlink" width="482.818" height="285.556" viewBox="0 0 482.818 285.556">
  <defs>
    <linearGradient id="linear-gradient" x1="1" y1="0.5" x2="0" y2="0.5" gradientUnits="objectBoundingBox">
      <stop offset="0" stop-color="#deae17"/>
      <stop offset="0.419" stop-color="#e6b418"/>
      <stop offset="1" stop-color="#ebb818"/>
    </linearGradient>
    <clipPath id="clip-path">
      <path id="Trazado_832343" data-name="Trazado 832343" d="M41.893,119.413l-.862-38.032q.048,2.167-.092,4.353l.862,38.032Q41.939,121.58,41.893,119.413Z" transform="translate(-40.938 -81.381)"/>
    </clipPath>
    <linearGradient id="linear-gradient-2" x1="1" y1="0.5" x2="0" y2="0.5" gradientUnits="objectBoundingBox">
      <stop offset="0" stop-color="#0093ff"/>
      <stop offset="0.096" stop-color="#2785c4"/>
      <stop offset="0.242" stop-color="#2394db"/>
      <stop offset="0.379" stop-color="#209de9"/>
      <stop offset="0.498" stop-color="#1fa0ee"/>
      <stop offset="1" stop-color="#2b79b2"/>
    </linearGradient>
  </defs>
  <g id="Grupo_1088478" data-name="Grupo 1088478" transform="translate(-218.008 -5933.356)">
    <g id="Grupo_1088477" data-name="Grupo 1088477" transform="translate(292.822 5964.806)">
      <g id="Grupo_1084228" data-name="Grupo 1084228" transform="translate(9.998)">
        <g id="Grupo_1084225" data-name="Grupo 1084225" transform="translate(0)">
          <path id="Trazado_832337" data-name="Trazado 832337" d="M254.081,54.287c-73.162-1.375-139.836,24.187-164.443,61.63L243.93,144.483Z" transform="translate(-89.638 -54.234)" fill="url(#linear-gradient)"/>
        </g>
        <g id="Grupo_1084226" data-name="Grupo 1084226" transform="translate(0 61.683)">
          <path id="Trazado_832338" data-name="Trazado 832338" d="M92.557,73.619l.862,38.035L247.711,140.22l-.862-38.035Z" transform="translate(-92.557 -73.619)" fill="#c09416"/>
        </g>
        <g id="Grupo_1084227" data-name="Grupo 1084227" transform="translate(154.292 0.053)">
          <path id="Trazado_832339" data-name="Trazado 832339" d="M89.367,144.447l.862,38.035,10.151-90.2-.862-38.035Z" transform="translate(-89.367 -54.251)" fill="#7e610f"/>
        </g>
      </g>
      <g id="Grupo_1084231" data-name="Grupo 1084231" transform="translate(164.29 0.053)">
        <g id="Grupo_1084229" data-name="Grupo 1084229" transform="translate(0)">
          <path id="Trazado_832340" data-name="Trazado 832340" d="M127.67,62.534a267.928,267.928,0,0,0-49.4-7.732c-4.627-.3-9.215-.468-13.813-.55L54.3,144.447,176.9,82.454C163.175,74.215,146.54,67.409,127.67,62.534Z" transform="translate(-54.301 -54.251)" fill="#2b8cd3"/>
        </g>
        <g id="Grupo_1084230" data-name="Grupo 1084230" transform="translate(0 28.203)">
          <path id="Trazado_832341" data-name="Trazado 832341" d="M54.03,125.107l.862,38.035,122.6-61.993-.862-38.035Z" transform="translate(-54.03 -63.114)" fill="#2b8cd3"/>
        </g>
      </g>
      <g id="Grupo_1084233" data-name="Grupo 1084233" transform="translate(328.441 86.383)">
        <g id="Grupo_1084232" data-name="Grupo 1084232" transform="translate(0)" clip-path="url(#clip-path)">
          <path id="Trazado_832342" data-name="Trazado 832342" d="M40.939,85.734l.862,38.032q.143-2.186.092-4.353l-.862-38.032q.053,2.167-.092,4.353" transform="translate(-40.942 -81.381)" fill="#73261d"/>
        </g>
      </g>
      <g id="Grupo_1084236" data-name="Grupo 1084236" transform="translate(164.29 28.256)">
        <g id="Grupo_1084234" data-name="Grupo 1084234" transform="translate(0)">
          <path id="Trazado_832344" data-name="Trazado 832344" d="M163.805,63.114,41.21,125.107l164.147.487C206.913,101.744,191.2,79.581,163.805,63.114Z" transform="translate(-41.21 -63.114)" fill="#2b8cd3"/>
        </g>
        <g id="Grupo_1084235" data-name="Grupo 1084235" transform="translate(0 61.993)">
          <path id="Trazado_832345" data-name="Trazado 832345" d="M40.972,82.6l.862,38.035,164.147.484-.862-38.032Z" transform="translate(-40.972 -82.596)" fill="#2b8cd3"/>
        </g>
      </g>
      <path id="Trazado_832346" data-name="Trazado 832346" d="M40.965,86.092c.022.92.08,1.836.153,2.752q.148,1.909.442,3.8c.038.239.092.477.134.716q.267,1.551.63,3.093c.089.382.188.764.286,1.146q.377,1.446.84,2.88c.1.3.178.592.28.888q.625,1.828,1.384,3.637c.108.255.229.506.34.757q.668,1.518,1.429,3.02c.178.353.36.706.547,1.056.585,1.1,1.2,2.189,1.861,3.271.076.124.146.255.223.379.786,1.27,1.642,2.527,2.533,3.771.226.315.458.63.69.945.84,1.136,1.712,2.262,2.638,3.376.1.118.188.239.286.356,1.184,1.41,2.453,2.8,3.768,4.165.232.242.465.487.7.729q1.947,1.981,4.076,3.9c.366.331.741.662,1.117.99.621.544,1.247,1.085,1.89,1.62.445.372.9.745,1.352,1.111q.983.792,2,1.575c.465.36.929.716,1.4,1.069.716.535,1.451,1.063,2.192,1.588.455.325.907.652,1.372.974.843.582,1.709,1.158,2.581,1.728.375.245.738.5,1.12.741,1.578,1.012,3.211,2,4.872,2.972.407.239.818.471,1.228.706q2.325,1.332,4.751,2.609c.181.1.353.194.535.286,1.772.92,3.593,1.814,5.441,2.692.455.216.916.43,1.375.643,1.763.815,3.551,1.617,5.378,2.39.143.06.283.124.43.188,1.951.818,3.949,1.607,5.973,2.377q.754.286,1.518.57c1.976.732,3.974,1.451,6.014,2.135l.274.1c2.119.71,4.283,1.381,6.472,2.037q.811.243,1.632.48c2.215.646,4.452,1.273,6.733,1.862s4.633,1.146,6.994,1.68c.691.156,1.387.305,2.081.455q2.692.587,5.435,1.12c.624.121,1.244.245,1.874.363q5.036.94,10.24,1.7c.531.08,1.06.156,1.594.232q5.184.73,10.52,1.273.959.1,1.928.191c2.889.277,5.8.525,8.751.719,2.931.191,5.855.331,8.77.436,1.273.045,2.539.057,3.809.086,1.534.035,3.071.083,4.6.092,1.289.009,2.571-.013,3.857-.019,1.505-.01,3.013-.006,4.512-.035,1.629-.035,3.246-.1,4.865-.159,1.05-.038,2.107-.06,3.153-.111,1.827-.086,3.64-.207,5.454-.328.834-.054,1.674-.092,2.5-.156q3.933-.291,7.825-.687c.493-.051.977-.115,1.47-.169,2.091-.223,4.178-.455,6.246-.722,1.063-.137,2.113-.3,3.169-.449,1.515-.213,3.029-.417,4.528-.652,1.1-.172,2.183-.369,3.274-.554,1.429-.242,2.864-.477,4.28-.738,1.445-.267,2.867-.563,4.3-.853,1.117-.226,2.243-.439,3.354-.678,1.47-.318,2.915-.662,4.366-1,1.037-.242,2.087-.471,3.115-.722q3.971-.978,7.844-2.068c.643-.181,1.27-.379,1.912-.566,1.925-.557,3.838-1.126,5.721-1.725.722-.229,1.429-.474,2.145-.71q3.484-1.145,6.864-2.374c.732-.267,1.47-.531,2.2-.805,2.765-1.041,5.489-2.119,8.14-3.249,1.079-.458,2.122-.942,3.182-1.413.986-.442,1.986-.872,2.956-1.324,1.06-.5,2.084-1.015,3.122-1.524.945-.465,1.906-.916,2.829-1.394,1.015-.522,1.992-1.066,2.985-1.6.91-.49,1.836-.971,2.727-1.47.964-.544,1.887-1.107,2.829-1.664.875-.515,1.766-1.021,2.619-1.55.923-.573,1.8-1.165,2.7-1.747.824-.535,1.667-1.063,2.473-1.607.885-.6,1.725-1.225,2.584-1.836.77-.55,1.566-1.095,2.313-1.655.831-.624,1.613-1.266,2.418-1.9.729-.576,1.48-1.142,2.186-1.728.78-.646,1.511-1.311,2.262-1.97.678-.6,1.381-1.177,2.033-1.779.741-.681,1.429-1.384,2.138-2.078.614-.6,1.251-1.187,1.842-1.795.681-.7,1.311-1.422,1.96-2.138.563-.617,1.155-1.228,1.7-1.855.63-.732,1.206-1.483,1.8-2.227.5-.624,1.031-1.241,1.508-1.871.579-.767,1.1-1.553,1.645-2.332.439-.627.907-1.244,1.321-1.877.528-.811,1-1.636,1.483-2.457.369-.617.77-1.228,1.114-1.852.487-.881.91-1.779,1.349-2.673.286-.579.608-1.152.875-1.734.455-1,.837-2,1.232-3.013.194-.5.426-.986.608-1.486q.821-2.272,1.441-4.585a52.917,52.917,0,0,0,1.626-10.1l.862,38.035a52.956,52.956,0,0,1-1.626,10.1q-.621,2.315-1.441,4.589c-.181.5-.41.99-.608,1.486-.395,1.009-.78,2.021-1.231,3.013-.274.6-.6,1.184-.894,1.776-.436.878-.85,1.763-1.33,2.628-.353.64-.764,1.263-1.142,1.9-.48.805-.939,1.62-1.457,2.415-.42.643-.894,1.266-1.336,1.9-.538.77-1.053,1.546-1.626,2.307-.484.64-1.021,1.263-1.531,1.9-.592.735-1.158,1.477-1.782,2.2-.544.633-1.139,1.247-1.709,1.871-.646.706-1.27,1.422-1.944,2.119-.6.617-1.247,1.216-1.874,1.827-.7.684-1.378,1.375-2.107,2.046-.665.611-1.375,1.206-2.065,1.807-.741.649-1.464,1.3-2.231,1.944-.716.592-1.476,1.165-2.215,1.75-.8.627-1.569,1.263-2.39,1.877-.757.566-1.559,1.117-2.339,1.674-.85.608-1.68,1.222-2.555,1.817-.811.55-1.664,1.082-2.5,1.623-.891.579-1.763,1.165-2.679,1.731-.859.531-1.753,1.041-2.632,1.559-.936.554-1.858,1.117-2.816,1.658-.894.5-1.823.983-2.737,1.476-.99.531-1.963,1.076-2.972,1.594-.932.477-1.9.936-2.851,1.4-1.031.506-2.049,1.021-3.1,1.515-.974.455-1.982.888-2.975,1.333-.977.439-1.938.888-2.934,1.314-.073.032-.156.061-.229.092-2.654,1.13-5.378,2.208-8.143,3.249-.725.274-1.461.535-2.192.8q-3.384,1.231-6.87,2.377c-.465.153-.907.325-1.371.474-.251.079-.515.153-.77.232-1.887.6-3.8,1.168-5.731,1.728-.636.185-1.26.382-1.9.563q-3.871,1.088-7.844,2.068l-.255.067c-.942.229-1.906.433-2.854.655-1.454.34-2.9.687-4.372,1-1.107.239-2.234.452-3.351.678-1.429.29-2.851.585-4.3.853-.169.032-.331.067-.5.1-1.251.229-2.52.426-3.78.64-1.091.185-2.173.382-3.274.554-1.5.235-3.017.439-4.531.652-1.056.149-2.1.312-3.169.449-.1.013-.188.029-.28.038-1.976.251-3.968.471-5.966.684-.493.054-.977.118-1.47.169q-3.809.387-7.669.678l-.156.01c-.83.06-1.674.1-2.507.156-1.811.121-3.624.242-5.448.328-1.047.051-2.1.073-3.153.111-1.454.054-2.9.121-4.363.156-.165,0-.334,0-.5,0-1.5.032-3.007.029-4.512.035-1.286.006-2.565.029-3.857.019-1.527-.013-3.064-.057-4.6-.092-1.158-.025-2.31-.032-3.468-.07-.111,0-.226-.013-.341-.016-2.915-.105-5.839-.245-8.77-.436-2.95-.194-5.861-.442-8.751-.719-.36-.035-.725-.054-1.082-.089-.286-.029-.56-.073-.843-.1q-5.336-.544-10.52-1.273c-.535-.076-1.063-.156-1.6-.232q-5.2-.764-10.24-1.7c-.181-.035-.372-.057-.554-.092-.445-.086-.875-.185-1.32-.27q-2.74-.534-5.429-1.117c-.7-.153-1.394-.3-2.084-.458-2.361-.535-4.7-1.088-6.994-1.68-2.281-.589-4.519-1.216-6.733-1.861-.547-.159-1.088-.318-1.632-.48-2.189-.656-4.353-1.33-6.472-2.037-.089-.029-.175-.064-.264-.092-2.043-.687-4.044-1.4-6.024-2.138q-.759-.282-1.515-.57c-2.024-.77-4.022-1.559-5.97-2.377l-.436-.191q-2.74-1.16-5.368-2.383c-.461-.213-.923-.426-1.381-.643-1.849-.875-3.672-1.769-5.441-2.692-.178-.092-.35-.191-.528-.283-1.623-.853-3.2-1.728-4.76-2.616-.41-.235-.818-.468-1.222-.7-1.664-.974-3.3-1.963-4.878-2.975-.048-.032-.1-.06-.15-.092-.328-.21-.633-.43-.955-.64-.875-.576-1.747-1.152-2.6-1.737-.461-.318-.91-.643-1.362-.967-.741-.528-1.48-1.06-2.2-1.6-.471-.35-.929-.706-1.391-1.063-.681-.525-1.352-1.05-2.011-1.585q-.683-.549-1.349-1.107-.964-.807-1.893-1.623c-.258-.226-.535-.449-.789-.675-.114-.1-.213-.21-.325-.312q-2.129-1.924-4.079-3.908c-.235-.242-.465-.484-.7-.726-1.317-1.371-2.584-2.756-3.771-4.168-.019-.022-.041-.045-.06-.07-.08-.1-.146-.191-.223-.286-.923-1.114-1.8-2.24-2.638-3.376-.232-.315-.461-.627-.687-.942-.891-1.244-1.744-2.5-2.533-3.771-.013-.022-.032-.045-.045-.067-.064-.1-.115-.21-.178-.312-.659-1.082-1.276-2.173-1.862-3.271-.188-.35-.366-.7-.547-1.056q-.764-1.5-1.429-3.02c-.083-.188-.185-.372-.264-.56-.029-.064-.048-.13-.076-.2q-.759-1.8-1.384-3.637c-.1-.293-.185-.589-.28-.885q-.463-1.437-.84-2.883c-.051-.2-.124-.4-.175-.6-.045-.181-.067-.366-.111-.547q-.363-1.542-.63-3.093c-.041-.239-.1-.474-.13-.713-.2-1.26-.34-2.527-.442-3.8-.01-.1-.029-.194-.035-.293q-.091-1.227-.118-2.457h0Z" transform="translate(-40.952 7.984)" fill="url(#linear-gradient-2)"/>
      <path id="Trazado_832347" data-name="Trazado 832347" d="M369.68,102.671l-164.147-.487L51.241,73.619a61.831,61.831,0,0,0-8.219,17.966c-10.628,39.763,27.28,76.535,89.114,92.506a267.841,267.841,0,0,0,49.418,7.732c89.757,5.849,173.267-29.542,186.5-79.052A52.638,52.638,0,0,0,369.68,102.671Z" transform="translate(-41.243 -11.936)" fill="#2b8cd3"/>
    </g>
    <path id="Trazado_839246" data-name="Trazado 839246" d="M7.014,5.672a2.314,2.314,0,0,1-.376,1.3,2.608,2.608,0,0,1-1.025.9,2.84,2.84,0,0,1,1.2.991,2.5,2.5,0,0,1,.42,1.422,2.611,2.611,0,0,1-.889,2.082,3.488,3.488,0,0,1-2.365.769A3.5,3.5,0,0,1,1.6,12.364a2.609,2.609,0,0,1-.892-2.078,2.529,2.529,0,0,1,.424-1.436,2.723,2.723,0,0,1,1.189-.978,2.593,2.593,0,0,1-1.015-.9,2.329,2.329,0,0,1-.373-1.3,2.589,2.589,0,0,1,.82-2.017A3.169,3.169,0,0,1,3.972,2.91a3.179,3.179,0,0,1,2.222.745A2.589,2.589,0,0,1,7.014,5.672ZM5.571,10.2A1.641,1.641,0,0,0,5.13,9.011a1.55,1.55,0,0,0-1.166-.455,1.533,1.533,0,0,0-1.159.451,1.653,1.653,0,0,0-.434,1.2A1.6,1.6,0,0,0,2.8,11.373a1.572,1.572,0,0,0,1.179.438,1.577,1.577,0,0,0,1.172-.424A1.606,1.606,0,0,0,5.571,10.2ZM5.359,5.733a1.545,1.545,0,0,0-.376-1.07,1.29,1.29,0,0,0-1.012-.42,1.3,1.3,0,0,0-1,.4A1.545,1.545,0,0,0,2.6,5.733,1.539,1.539,0,0,0,2.97,6.82a1.306,1.306,0,0,0,1.008.4,1.306,1.306,0,0,0,1.008-.4A1.539,1.539,0,0,0,5.359,5.733Zm9.611-.062a2.314,2.314,0,0,1-.376,1.3,2.608,2.608,0,0,1-1.025.9,2.84,2.84,0,0,1,1.2.991,2.5,2.5,0,0,1,.42,1.422,2.611,2.611,0,0,1-.889,2.082,3.488,3.488,0,0,1-2.365.769,3.5,3.5,0,0,1-2.375-.772,2.609,2.609,0,0,1-.892-2.078,2.529,2.529,0,0,1,.424-1.436,2.723,2.723,0,0,1,1.189-.978,2.593,2.593,0,0,1-1.015-.9,2.329,2.329,0,0,1-.373-1.3,2.589,2.589,0,0,1,.82-2.017,3.169,3.169,0,0,1,2.215-.745,3.179,3.179,0,0,1,2.222.745A2.589,2.589,0,0,1,14.971,5.672ZM13.528,10.2a1.641,1.641,0,0,0-.441-1.193,1.55,1.55,0,0,0-1.166-.455,1.533,1.533,0,0,0-1.159.451,1.653,1.653,0,0,0-.434,1.2,1.6,1.6,0,0,0,.427,1.169,1.572,1.572,0,0,0,1.179.438,1.577,1.577,0,0,0,1.172-.424A1.606,1.606,0,0,0,13.528,10.2Zm-.212-4.471a1.545,1.545,0,0,0-.376-1.07,1.29,1.29,0,0,0-1.012-.42,1.3,1.3,0,0,0-1,.4,1.545,1.545,0,0,0-.369,1.09,1.539,1.539,0,0,0,.373,1.087,1.306,1.306,0,0,0,1.008.4,1.306,1.306,0,0,0,1.008-.4A1.539,1.539,0,0,0,13.316,5.733Zm6.761-.772a2,2,0,0,1,.581-1.48,2.314,2.314,0,0,1,3.059,0A2.048,2.048,0,0,1,24.295,5v.492a1.984,1.984,0,0,1-.578,1.47,2.063,2.063,0,0,1-1.521.574,2.129,2.129,0,0,1-1.521-.564,1.991,1.991,0,0,1-.6-1.521Zm1.162.524a1.1,1.1,0,0,0,.263.764.89.89,0,0,0,.694.291.872.872,0,0,0,.684-.291,1.146,1.146,0,0,0,.26-.792v-.5a1.109,1.109,0,0,0-.263-.768.885.885,0,0,0-.694-.295.86.86,0,0,0-.687.3,1.162,1.162,0,0,0-.256.785Zm3.623,5.075a1.957,1.957,0,0,1,.595-1.483,2.318,2.318,0,0,1,3.039,0,2.023,2.023,0,0,1,.591,1.531v.485a2,2,0,0,1-.571,1.466,2.051,2.051,0,0,1-1.528.578,2.112,2.112,0,0,1-1.542-.571,2.012,2.012,0,0,1-.584-1.507Zm1.162.526a1.09,1.09,0,0,0,.27.762.9.9,0,0,0,.694.3.867.867,0,0,0,.687-.284,1.166,1.166,0,0,0,.25-.8v-.513a1.08,1.08,0,0,0-.267-.766.961.961,0,0,0-1.371,0,1.129,1.129,0,0,0-.263.793Zm-3.486,1.169-.854-.492,4.86-7.779.854.492ZM35.909,9.309V13H34.18V3.047h3.808a3.85,3.85,0,0,1,2.649.869,2.922,2.922,0,0,1,.981,2.3,2.825,2.825,0,0,1-.96,2.279,4.037,4.037,0,0,1-2.69.814Zm0-1.395h2.078A2.047,2.047,0,0,0,39.4,7.48a1.6,1.6,0,0,0,.485-1.254,1.721,1.721,0,0,0-.492-1.289,1.9,1.9,0,0,0-1.354-.5H35.909Zm10.227,5.223a3.437,3.437,0,0,1-2.56-.995,3.608,3.608,0,0,1-.981-2.649V9.288a4.438,4.438,0,0,1,.427-1.979,3.252,3.252,0,0,1,1.2-1.357,3.172,3.172,0,0,1,1.723-.485,2.9,2.9,0,0,1,2.334.964A4.076,4.076,0,0,1,49.1,9.158v.67H44.27a2.221,2.221,0,0,0,.612,1.449,1.837,1.837,0,0,0,1.35.533,2.249,2.249,0,0,0,1.859-.923l.9.854A2.99,2.99,0,0,1,47.8,12.771,3.713,3.713,0,0,1,46.136,13.137Zm-.2-6.337a1.4,1.4,0,0,0-1.1.479A2.48,2.48,0,0,0,44.3,8.611h3.165V8.488a2.019,2.019,0,0,0-.444-1.261A1.388,1.388,0,0,0,45.938,6.8Zm8.326.321a4.111,4.111,0,0,0-.677-.055,1.524,1.524,0,0,0-1.538.875V13H50.388V5.6h1.586l.041.827a1.872,1.872,0,0,1,1.668-.964,1.555,1.555,0,0,1,.588.1Zm5.2,3.869a.753.753,0,0,0-.366-.677A3.89,3.89,0,0,0,57.88,9.9a6.237,6.237,0,0,1-1.415-.451,1.889,1.889,0,0,1-1.244-1.743,1.969,1.969,0,0,1,.807-1.6,3.189,3.189,0,0,1,2.051-.643,3.318,3.318,0,0,1,2.143.656,2.082,2.082,0,0,1,.817,1.7H59.377a1.024,1.024,0,0,0-.355-.8,1.362,1.362,0,0,0-.943-.318,1.472,1.472,0,0,0-.892.253.8.8,0,0,0-.345.677.673.673,0,0,0,.321.595,4.418,4.418,0,0,0,1.3.427A6.148,6.148,0,0,1,60,9.175a2.173,2.173,0,0,1,.827.714,1.822,1.822,0,0,1,.27,1.012,1.927,1.927,0,0,1-.827,1.617,3.527,3.527,0,0,1-2.167.619,3.825,3.825,0,0,1-1.62-.328,2.666,2.666,0,0,1-1.107-.9,2.136,2.136,0,0,1-.4-1.237h1.613a1.17,1.17,0,0,0,.444.906,1.727,1.727,0,0,0,1.087.318,1.68,1.68,0,0,0,1-.25A.772.772,0,0,0,59.459,10.99Zm2.769-1.757a4.361,4.361,0,0,1,.431-1.958,3.145,3.145,0,0,1,1.21-1.34,3.409,3.409,0,0,1,1.791-.468,3.231,3.231,0,0,1,2.43.964A3.791,3.791,0,0,1,69.1,8.987l.007.39a4.4,4.4,0,0,1-.42,1.955,3.108,3.108,0,0,1-1.2,1.333,3.434,3.434,0,0,1-1.808.472,3.209,3.209,0,0,1-2.505-1.042,3.993,3.993,0,0,1-.94-2.779Zm1.661.144a2.98,2.98,0,0,0,.472,1.788,1.533,1.533,0,0,0,1.313.646,1.517,1.517,0,0,0,1.309-.656,3.292,3.292,0,0,0,.468-1.921,2.942,2.942,0,0,0-.482-1.777,1.624,1.624,0,0,0-2.6-.01A3.23,3.23,0,0,0,63.889,9.377ZM72.051,5.6l.048.854a2.659,2.659,0,0,1,2.153-.991q2.311,0,2.352,2.646V13H74.942V8.208a1.523,1.523,0,0,0-.3-1.042,1.28,1.28,0,0,0-.995-.338,1.6,1.6,0,0,0-1.5.909V13H70.485V5.6ZM82.715,13a2.564,2.564,0,0,1-.191-.69,2.794,2.794,0,0,1-3.76.191,2.034,2.034,0,0,1-.7-1.572,2.1,2.1,0,0,1,.878-1.815,4.257,4.257,0,0,1,2.512-.632h1.019V8a1.3,1.3,0,0,0-.321-.919,1.274,1.274,0,0,0-.978-.345,1.463,1.463,0,0,0-.93.284.878.878,0,0,0-.362.721H78.217a1.844,1.844,0,0,1,.4-1.138,2.687,2.687,0,0,1,1.1-.831,3.854,3.854,0,0,1,1.548-.3,3.1,3.1,0,0,1,2.071.653,2.328,2.328,0,0,1,.793,1.835v3.336a3.781,3.781,0,0,0,.28,1.593V13ZM80.89,11.8a1.89,1.89,0,0,0,.926-.239,1.6,1.6,0,0,0,.653-.643V9.527h-.9a2.449,2.449,0,0,0-1.388.321,1.041,1.041,0,0,0-.465.909.971.971,0,0,0,.318.762A1.231,1.231,0,0,0,80.89,11.8Zm9.126-.813a.753.753,0,0,0-.366-.677,3.89,3.89,0,0,0-1.213-.41,6.238,6.238,0,0,1-1.415-.451,1.889,1.889,0,0,1-1.244-1.743,1.969,1.969,0,0,1,.807-1.6,3.189,3.189,0,0,1,2.051-.643,3.318,3.318,0,0,1,2.143.656,2.082,2.082,0,0,1,.817,1.7H89.934a1.024,1.024,0,0,0-.355-.8,1.362,1.362,0,0,0-.943-.318,1.472,1.472,0,0,0-.892.253.8.8,0,0,0-.345.677.673.673,0,0,0,.321.595,4.418,4.418,0,0,0,1.3.427,6.148,6.148,0,0,1,1.535.513,2.173,2.173,0,0,1,.827.714,1.822,1.822,0,0,1,.27,1.012,1.927,1.927,0,0,1-.827,1.617,3.527,3.527,0,0,1-2.167.619,3.825,3.825,0,0,1-1.62-.328,2.666,2.666,0,0,1-1.107-.9,2.136,2.136,0,0,1-.4-1.237h1.613a1.171,1.171,0,0,0,.444.906,1.727,1.727,0,0,0,1.087.318,1.68,1.68,0,0,0,1-.25A.772.772,0,0,0,90.016,10.99ZM101,13a2.564,2.564,0,0,1-.191-.69,2.794,2.794,0,0,1-3.76.191,2.034,2.034,0,0,1-.7-1.572,2.1,2.1,0,0,1,.878-1.815,4.257,4.257,0,0,1,2.512-.632h1.019V8a1.3,1.3,0,0,0-.321-.919,1.274,1.274,0,0,0-.978-.345,1.463,1.463,0,0,0-.93.284.878.878,0,0,0-.362.721H96.5a1.844,1.844,0,0,1,.4-1.138A2.687,2.687,0,0,1,98,5.768a3.854,3.854,0,0,1,1.548-.3,3.1,3.1,0,0,1,2.071.653,2.328,2.328,0,0,1,.793,1.835v3.336a3.781,3.781,0,0,0,.28,1.593V13Zm-1.825-1.2a1.89,1.89,0,0,0,.926-.239,1.6,1.6,0,0,0,.653-.643V9.527h-.9a2.449,2.449,0,0,0-1.388.321,1.041,1.041,0,0,0-.465.909.971.971,0,0,0,.318.762A1.231,1.231,0,0,0,99.176,11.8ZM109.409,13h-1.661V2.5h1.661Zm6.228,0a2.564,2.564,0,0,1-.191-.69,2.794,2.794,0,0,1-3.76.191,2.034,2.034,0,0,1-.7-1.572,2.1,2.1,0,0,1,.878-1.815,4.257,4.257,0,0,1,2.512-.632h1.019V8a1.3,1.3,0,0,0-.321-.919,1.274,1.274,0,0,0-.978-.345,1.463,1.463,0,0,0-.93.284.878.878,0,0,0-.362.721h-1.661a1.844,1.844,0,0,1,.4-1.138,2.687,2.687,0,0,1,1.1-.831,3.854,3.854,0,0,1,1.548-.3,3.1,3.1,0,0,1,2.071.653,2.328,2.328,0,0,1,.793,1.835v3.336a3.781,3.781,0,0,0,.28,1.593V13Zm-1.825-1.2a1.89,1.89,0,0,0,.926-.239,1.6,1.6,0,0,0,.653-.643V9.527h-.9a2.449,2.449,0,0,0-1.388.321,1.041,1.041,0,0,0-.465.909.971.971,0,0,0,.318.762A1.231,1.231,0,0,0,113.812,11.8Zm9.126-.813a.753.753,0,0,0-.366-.677,3.89,3.89,0,0,0-1.213-.41,6.238,6.238,0,0,1-1.415-.451A1.889,1.889,0,0,1,118.7,7.709a1.969,1.969,0,0,1,.807-1.6,3.189,3.189,0,0,1,2.051-.643,3.318,3.318,0,0,1,2.143.656,2.082,2.082,0,0,1,.817,1.7h-1.661a1.024,1.024,0,0,0-.355-.8,1.362,1.362,0,0,0-.943-.318,1.472,1.472,0,0,0-.892.253.8.8,0,0,0-.345.677.673.673,0,0,0,.321.595,4.418,4.418,0,0,0,1.3.427,6.148,6.148,0,0,1,1.535.513,2.173,2.173,0,0,1,.827.714,1.822,1.822,0,0,1,.27,1.012,1.927,1.927,0,0,1-.827,1.617,3.527,3.527,0,0,1-2.167.619,3.825,3.825,0,0,1-1.62-.328,2.666,2.666,0,0,1-1.107-.9,2.136,2.136,0,0,1-.4-1.237h1.613a1.171,1.171,0,0,0,.444.906,1.727,1.727,0,0,0,1.087.318,1.68,1.68,0,0,0,1-.25A.772.772,0,0,0,122.938,10.99Zm6.255-1.75a4.371,4.371,0,0,1,.793-2.755,2.577,2.577,0,0,1,2.146-1.019,2.422,2.422,0,0,1,1.962.868l.1-.731h1.477v10.24H134V12.371a2.479,2.479,0,0,1-1.887.766,2.552,2.552,0,0,1-2.126-1.036A4.576,4.576,0,0,1,129.192,9.24Zm1.661.144a3.087,3.087,0,0,0,.448,1.781,1.427,1.427,0,0,0,1.241.646A1.574,1.574,0,0,0,134,10.97V7.606a1.575,1.575,0,0,0-1.449-.807,1.451,1.451,0,0,0-1.248.636A3.368,3.368,0,0,0,130.854,9.384Zm11.081,2.892a2.576,2.576,0,0,1-2.078.861,2.3,2.3,0,0,1-1.822-.7,3,3,0,0,1-.619-2.037V5.6h1.661v4.771q0,1.408,1.169,1.408a1.642,1.642,0,0,0,1.634-.868V5.6h1.661V13h-1.565Zm6.556.861a3.437,3.437,0,0,1-2.56-.995,3.608,3.608,0,0,1-.981-2.649V9.288a4.438,4.438,0,0,1,.427-1.979,3.252,3.252,0,0,1,1.2-1.357,3.172,3.172,0,0,1,1.723-.485,2.9,2.9,0,0,1,2.334.964,4.076,4.076,0,0,1,.824,2.728v.67h-4.833a2.221,2.221,0,0,0,.612,1.449,1.837,1.837,0,0,0,1.35.533,2.249,2.249,0,0,0,1.859-.923l.9.854a2.99,2.99,0,0,1-1.186,1.029A3.713,3.713,0,0,1,148.49,13.137Zm-.2-6.337a1.4,1.4,0,0,0-1.1.479,2.48,2.48,0,0,0-.537,1.333h3.165V8.488a2.019,2.019,0,0,0-.444-1.261A1.388,1.388,0,0,0,148.292,6.8ZM158,13h-1.661V2.5H158Zm5.065.137a3.437,3.437,0,0,1-2.56-.995,3.608,3.608,0,0,1-.981-2.649V9.288a4.438,4.438,0,0,1,.427-1.979,3.252,3.252,0,0,1,1.2-1.357,3.172,3.172,0,0,1,1.723-.485,2.9,2.9,0,0,1,2.334.964,4.076,4.076,0,0,1,.824,2.728v.67H161.2a2.221,2.221,0,0,0,.612,1.449,1.837,1.837,0,0,0,1.35.533,2.249,2.249,0,0,0,1.859-.923l.9.854a2.99,2.99,0,0,1-1.186,1.029A3.713,3.713,0,0,1,163.064,13.137Zm-.2-6.337a1.4,1.4,0,0,0-1.1.479,2.48,2.48,0,0,0-.537,1.333h3.165V8.488a2.019,2.019,0,0,0-.444-1.261A1.388,1.388,0,0,0,162.866,6.8Zm8.6,4.19a.753.753,0,0,0-.366-.677,3.89,3.89,0,0,0-1.213-.41,6.237,6.237,0,0,1-1.415-.451,1.889,1.889,0,0,1-1.244-1.743,1.969,1.969,0,0,1,.807-1.6,3.189,3.189,0,0,1,2.051-.643,3.318,3.318,0,0,1,2.143.656,2.082,2.082,0,0,1,.817,1.7h-1.661a1.024,1.024,0,0,0-.355-.8,1.362,1.362,0,0,0-.943-.318,1.472,1.472,0,0,0-.892.253.8.8,0,0,0-.345.677.673.673,0,0,0,.321.595,4.418,4.418,0,0,0,1.3.427A6.148,6.148,0,0,1,172,9.175a2.173,2.173,0,0,1,.827.714,1.822,1.822,0,0,1,.27,1.012,1.927,1.927,0,0,1-.827,1.617,3.527,3.527,0,0,1-2.167.619,3.825,3.825,0,0,1-1.62-.328,2.666,2.666,0,0,1-1.107-.9,2.136,2.136,0,0,1-.4-1.237h1.613a1.17,1.17,0,0,0,.444.906,1.727,1.727,0,0,0,1.087.318,1.68,1.68,0,0,0,1-.25A.772.772,0,0,0,171.466,10.99ZM.561,34.247a4.326,4.326,0,0,1,.81-2.751,2.6,2.6,0,0,1,2.15-1.029,2.436,2.436,0,0,1,1.989.882l.075-.745h1.5v7.171a2.981,2.981,0,0,1-.906,2.3,3.45,3.45,0,0,1-2.444.841,3.939,3.939,0,0,1-1.589-.338,2.824,2.824,0,0,1-1.179-.885l.786-1a2.374,2.374,0,0,0,1.887.909,1.835,1.835,0,0,0,1.306-.448,1.716,1.716,0,0,0,.479-1.316v-.5a2.446,2.446,0,0,1-1.914.8A2.594,2.594,0,0,1,1.384,37.1,4.466,4.466,0,0,1,.561,34.247Zm1.654.144a2.978,2.978,0,0,0,.455,1.753,1.462,1.462,0,0,0,1.261.639,1.6,1.6,0,0,0,1.49-.861V32.668a1.576,1.576,0,0,0-1.477-.841,1.467,1.467,0,0,0-1.275.649A3.334,3.334,0,0,0,2.215,34.391Zm11.054,2.885a2.576,2.576,0,0,1-2.078.861,2.3,2.3,0,0,1-1.822-.7A3,3,0,0,1,8.75,35.4V30.6h1.661v4.771q0,1.408,1.169,1.408a1.642,1.642,0,0,0,1.634-.868V30.6h1.661V38H13.31Zm7.444-1.285a.753.753,0,0,0-.366-.677,3.89,3.89,0,0,0-1.213-.41,6.237,6.237,0,0,1-1.415-.451,1.889,1.889,0,0,1-1.244-1.743,1.969,1.969,0,0,1,.807-1.6,3.189,3.189,0,0,1,2.051-.643,3.318,3.318,0,0,1,2.143.656,2.082,2.082,0,0,1,.817,1.7H20.631a1.024,1.024,0,0,0-.355-.8,1.362,1.362,0,0,0-.943-.318,1.472,1.472,0,0,0-.892.253.8.8,0,0,0-.345.677.673.673,0,0,0,.321.595,4.418,4.418,0,0,0,1.3.427,6.148,6.148,0,0,1,1.535.513,2.173,2.173,0,0,1,.827.714,1.822,1.822,0,0,1,.27,1.012,1.927,1.927,0,0,1-.827,1.617,3.527,3.527,0,0,1-2.167.619,3.825,3.825,0,0,1-1.62-.328,2.666,2.666,0,0,1-1.107-.9,2.136,2.136,0,0,1-.4-1.237h1.613a1.171,1.171,0,0,0,.444.906,1.727,1.727,0,0,0,1.087.318,1.68,1.68,0,0,0,1-.25A.772.772,0,0,0,20.713,35.99Zm5.161-7.185v1.8H27.18v1.23H25.874v4.129a.909.909,0,0,0,.167.612.777.777,0,0,0,.6.188,2.559,2.559,0,0,0,.581-.068v1.285a4.091,4.091,0,0,1-1.094.157q-1.914,0-1.914-2.112v-4.19H23V30.6h1.217v-1.8ZM32.867,38a2.564,2.564,0,0,1-.191-.69,2.794,2.794,0,0,1-3.76.191,2.034,2.034,0,0,1-.7-1.572,2.1,2.1,0,0,1,.878-1.815,4.257,4.257,0,0,1,2.512-.632h1.019V33a1.3,1.3,0,0,0-.321-.919,1.274,1.274,0,0,0-.978-.345,1.463,1.463,0,0,0-.93.284.878.878,0,0,0-.362.721H28.369a1.844,1.844,0,0,1,.4-1.138,2.687,2.687,0,0,1,1.1-.831,3.854,3.854,0,0,1,1.548-.3,3.1,3.1,0,0,1,2.071.653,2.328,2.328,0,0,1,.793,1.835v3.336a3.781,3.781,0,0,0,.28,1.593V38Zm-1.825-1.2a1.89,1.89,0,0,0,.926-.239,1.6,1.6,0,0,0,.653-.643V34.527h-.9a2.449,2.449,0,0,0-1.388.321,1.041,1.041,0,0,0-.465.909.971.971,0,0,0,.318.762A1.231,1.231,0,0,0,31.042,36.8ZM41.275,38H39.614V27.5h1.661ZM47.5,38a2.564,2.564,0,0,1-.191-.69,2.794,2.794,0,0,1-3.76.191,2.034,2.034,0,0,1-.7-1.572,2.1,2.1,0,0,1,.878-1.815,4.257,4.257,0,0,1,2.512-.632h1.019V33a1.3,1.3,0,0,0-.321-.919,1.274,1.274,0,0,0-.978-.345,1.463,1.463,0,0,0-.93.284.878.878,0,0,0-.362.721H43a1.844,1.844,0,0,1,.4-1.138,2.687,2.687,0,0,1,1.1-.831,3.854,3.854,0,0,1,1.548-.3,3.1,3.1,0,0,1,2.071.653,2.328,2.328,0,0,1,.793,1.835v3.336a3.781,3.781,0,0,0,.28,1.593V38Zm-1.825-1.2a1.89,1.89,0,0,0,.926-.239,1.6,1.6,0,0,0,.653-.643V34.527h-.9a2.449,2.449,0,0,0-1.388.321,1.041,1.041,0,0,0-.465.909.971.971,0,0,0,.318.762A1.231,1.231,0,0,0,45.678,36.8ZM54.8,35.99a.753.753,0,0,0-.366-.677,3.89,3.89,0,0,0-1.213-.41,6.237,6.237,0,0,1-1.415-.451,1.889,1.889,0,0,1-1.244-1.743,1.969,1.969,0,0,1,.807-1.6,3.189,3.189,0,0,1,2.051-.643,3.318,3.318,0,0,1,2.143.656,2.082,2.082,0,0,1,.817,1.7H54.722a1.024,1.024,0,0,0-.355-.8,1.362,1.362,0,0,0-.943-.318,1.472,1.472,0,0,0-.892.253.8.8,0,0,0-.345.677.673.673,0,0,0,.321.595,4.418,4.418,0,0,0,1.3.427,6.148,6.148,0,0,1,1.535.513,2.173,2.173,0,0,1,.827.714,1.822,1.822,0,0,1,.27,1.012,1.927,1.927,0,0,1-.827,1.617,3.527,3.527,0,0,1-2.167.619,3.825,3.825,0,0,1-1.62-.328,2.666,2.666,0,0,1-1.107-.9,2.136,2.136,0,0,1-.4-1.237h1.613a1.17,1.17,0,0,0,.444.906,1.727,1.727,0,0,0,1.087.318,1.68,1.68,0,0,0,1-.25A.772.772,0,0,0,54.8,35.99Zm13.043-1.613a4.4,4.4,0,0,1-.779,2.738,2.707,2.707,0,0,1-4.04.222v3.507H61.366V30.6H62.9l.068.752a2.44,2.44,0,0,1,1.989-.889,2.521,2.521,0,0,1,2.123,1.008,4.521,4.521,0,0,1,.769,2.8Zm-1.654-.144a3.085,3.085,0,0,0-.441-1.757,1.433,1.433,0,0,0-1.261-.649,1.529,1.529,0,0,0-1.463.841v3.281a1.543,1.543,0,0,0,1.477.861,1.432,1.432,0,0,0,1.241-.639A3.4,3.4,0,0,0,66.192,34.233Zm7.54,3.042a2.576,2.576,0,0,1-2.078.861,2.3,2.3,0,0,1-1.822-.7,3,3,0,0,1-.619-2.037V30.6h1.661v4.771q0,1.408,1.169,1.408a1.642,1.642,0,0,0,1.634-.868V30.6h1.661V38H73.773Zm6.556.861a3.437,3.437,0,0,1-2.56-.995,3.608,3.608,0,0,1-.981-2.649v-.205a4.438,4.438,0,0,1,.427-1.979,3.252,3.252,0,0,1,1.2-1.357,3.172,3.172,0,0,1,1.723-.485,2.9,2.9,0,0,1,2.334.964,4.076,4.076,0,0,1,.824,2.728v.67H78.422a2.221,2.221,0,0,0,.612,1.449,1.837,1.837,0,0,0,1.35.533,2.249,2.249,0,0,0,1.859-.923l.9.854a2.99,2.99,0,0,1-1.186,1.029A3.713,3.713,0,0,1,80.288,38.137Zm-.2-6.337a1.4,1.4,0,0,0-1.1.479,2.48,2.48,0,0,0-.537,1.333h3.165v-.123a2.019,2.019,0,0,0-.444-1.261A1.388,1.388,0,0,0,80.09,31.8Zm8.6,4.19a.753.753,0,0,0-.366-.677,3.89,3.89,0,0,0-1.213-.41,6.237,6.237,0,0,1-1.415-.451,1.889,1.889,0,0,1-1.244-1.743,1.969,1.969,0,0,1,.807-1.6,3.189,3.189,0,0,1,2.051-.643,3.318,3.318,0,0,1,2.143.656,2.082,2.082,0,0,1,.817,1.7H88.607a1.024,1.024,0,0,0-.355-.8,1.362,1.362,0,0,0-.943-.318,1.472,1.472,0,0,0-.892.253.8.8,0,0,0-.345.677.673.673,0,0,0,.321.595,4.418,4.418,0,0,0,1.3.427,6.148,6.148,0,0,1,1.535.513,2.173,2.173,0,0,1,.827.714,1.822,1.822,0,0,1,.27,1.012,1.927,1.927,0,0,1-.827,1.617,3.527,3.527,0,0,1-2.167.619,3.825,3.825,0,0,1-1.62-.328,2.666,2.666,0,0,1-1.107-.9,2.136,2.136,0,0,1-.4-1.237h1.613a1.171,1.171,0,0,0,.444.906,1.727,1.727,0,0,0,1.087.318,1.68,1.68,0,0,0,1-.25A.772.772,0,0,0,88.689,35.99Zm5.161-7.185v1.8h1.306v1.23H93.851v4.129a.909.909,0,0,0,.167.612.777.777,0,0,0,.6.188,2.559,2.559,0,0,0,.581-.068v1.285a4.091,4.091,0,0,1-1.094.157q-1.914,0-1.914-2.112v-4.19H90.973V30.6h1.217v-1.8ZM100.844,38a2.564,2.564,0,0,1-.191-.69,2.794,2.794,0,0,1-3.76.191,2.034,2.034,0,0,1-.7-1.572,2.1,2.1,0,0,1,.878-1.815,4.257,4.257,0,0,1,2.512-.632H100.6V33a1.3,1.3,0,0,0-.321-.919,1.274,1.274,0,0,0-.978-.345,1.463,1.463,0,0,0-.93.284.878.878,0,0,0-.362.721H96.346a1.844,1.844,0,0,1,.4-1.138,2.687,2.687,0,0,1,1.1-.831,3.854,3.854,0,0,1,1.548-.3,3.1,3.1,0,0,1,2.071.653,2.328,2.328,0,0,1,.793,1.835v3.336a3.781,3.781,0,0,0,.28,1.593V38Zm-1.825-1.2a1.89,1.89,0,0,0,.926-.239,1.6,1.6,0,0,0,.653-.643V34.527h-.9a2.449,2.449,0,0,0-1.388.321,1.041,1.041,0,0,0-.465.909.971.971,0,0,0,.318.762A1.231,1.231,0,0,0,99.019,36.8Zm9.126-.813a.753.753,0,0,0-.366-.677,3.89,3.89,0,0,0-1.213-.41,6.237,6.237,0,0,1-1.415-.451,1.889,1.889,0,0,1-1.244-1.743,1.969,1.969,0,0,1,.807-1.6,3.189,3.189,0,0,1,2.051-.643,3.318,3.318,0,0,1,2.143.656,2.082,2.082,0,0,1,.817,1.7h-1.661a1.024,1.024,0,0,0-.355-.8,1.362,1.362,0,0,0-.943-.318,1.472,1.472,0,0,0-.892.253.8.8,0,0,0-.345.677.673.673,0,0,0,.321.595,4.418,4.418,0,0,0,1.3.427,6.148,6.148,0,0,1,1.535.513,2.173,2.173,0,0,1,.827.714,1.822,1.822,0,0,1,.27,1.012,1.927,1.927,0,0,1-.827,1.617,3.527,3.527,0,0,1-2.167.619,3.825,3.825,0,0,1-1.62-.328,2.666,2.666,0,0,1-1.107-.9,2.136,2.136,0,0,1-.4-1.237h1.613a1.171,1.171,0,0,0,.444.906,1.727,1.727,0,0,0,1.087.318,1.68,1.68,0,0,0,1-.25A.772.772,0,0,0,108.145,35.99Zm6.255-1.743a4.4,4.4,0,0,1,.793-2.745,2.541,2.541,0,0,1,2.126-1.036,2.414,2.414,0,0,1,1.9.82V27.5h1.661V38h-1.5l-.082-.766a2.449,2.449,0,0,1-1.989.9,2.527,2.527,0,0,1-2.1-1.046A4.558,4.558,0,0,1,114.4,34.247Zm1.661.144a3.079,3.079,0,0,0,.434,1.76,1.408,1.408,0,0,0,1.234.632,1.569,1.569,0,0,0,1.49-.909V32.716a1.545,1.545,0,0,0-1.477-.889,1.419,1.419,0,0,0-1.244.639A3.429,3.429,0,0,0,116.061,34.391Zm9.81,3.746a3.437,3.437,0,0,1-2.56-.995,3.608,3.608,0,0,1-.981-2.649v-.205a4.438,4.438,0,0,1,.427-1.979,3.252,3.252,0,0,1,1.2-1.357,3.172,3.172,0,0,1,1.723-.485,2.9,2.9,0,0,1,2.334.964,4.076,4.076,0,0,1,.824,2.728v.67H124a2.221,2.221,0,0,0,.612,1.449,1.837,1.837,0,0,0,1.35.533,2.249,2.249,0,0,0,1.859-.923l.9.854a2.99,2.99,0,0,1-1.186,1.029A3.713,3.713,0,0,1,125.87,38.137Zm-.2-6.337a1.4,1.4,0,0,0-1.1.479,2.48,2.48,0,0,0-.537,1.333H127.2v-.123a2.019,2.019,0,0,0-.444-1.261A1.388,1.388,0,0,0,125.672,31.8Zm12.086,4.19a.753.753,0,0,0-.366-.677,3.89,3.89,0,0,0-1.213-.41,6.237,6.237,0,0,1-1.415-.451,1.889,1.889,0,0,1-1.244-1.743,1.969,1.969,0,0,1,.807-1.6,3.189,3.189,0,0,1,2.051-.643,3.318,3.318,0,0,1,2.143.656,2.082,2.082,0,0,1,.817,1.7h-1.661a1.024,1.024,0,0,0-.355-.8,1.362,1.362,0,0,0-.943-.318,1.472,1.472,0,0,0-.892.253.8.8,0,0,0-.345.677.673.673,0,0,0,.321.595,4.418,4.418,0,0,0,1.3.427,6.148,6.148,0,0,1,1.535.513,2.173,2.173,0,0,1,.827.714,1.822,1.822,0,0,1,.27,1.012,1.927,1.927,0,0,1-.827,1.617,3.527,3.527,0,0,1-2.167.619,3.825,3.825,0,0,1-1.62-.328,2.666,2.666,0,0,1-1.107-.9,2.136,2.136,0,0,1-.4-1.237h1.613a1.17,1.17,0,0,0,.444.906,1.727,1.727,0,0,0,1.087.318,1.68,1.68,0,0,0,1-.25A.772.772,0,0,0,137.758,35.99Zm2.769-1.757a4.361,4.361,0,0,1,.431-1.958,3.145,3.145,0,0,1,1.21-1.34,3.409,3.409,0,0,1,1.791-.468,3.231,3.231,0,0,1,2.43.964,3.791,3.791,0,0,1,1.008,2.557l.007.39a4.4,4.4,0,0,1-.42,1.955,3.108,3.108,0,0,1-1.2,1.333,3.434,3.434,0,0,1-1.808.472,3.208,3.208,0,0,1-2.505-1.042,3.993,3.993,0,0,1-.94-2.779Zm1.661.144a2.98,2.98,0,0,0,.472,1.788,1.533,1.533,0,0,0,1.313.646,1.517,1.517,0,0,0,1.309-.656,3.292,3.292,0,0,0,.468-1.921,2.942,2.942,0,0,0-.482-1.777,1.624,1.624,0,0,0-2.6-.01A3.23,3.23,0,0,0,142.188,34.377ZM150.575,38h-1.661V27.5h1.661Z" transform="translate(527.726 6178)" fill="#12263f"/>
    <path id="Trazado_839247" data-name="Trazado 839247" d="M7.438,13H.745V11.858L4.061,8.242A8.256,8.256,0,0,0,5.083,6.906a2.165,2.165,0,0,0,.3-1.077,1.636,1.636,0,0,0-.4-1.148A1.387,1.387,0,0,0,3.91,4.243a1.6,1.6,0,0,0-1.251.492,1.936,1.936,0,0,0-.444,1.347H.554A3.256,3.256,0,0,1,.967,4.445,2.848,2.848,0,0,1,2.15,3.313a3.764,3.764,0,0,1,1.774-.4,3.367,3.367,0,0,1,2.287.728,2.527,2.527,0,0,1,.837,2.013,3.416,3.416,0,0,1-.42,1.562A8.882,8.882,0,0,1,5.25,9.069l-2.434,2.6H7.438Zm7.957,0H8.7V11.858l3.315-3.616A8.256,8.256,0,0,0,13.04,6.906a2.165,2.165,0,0,0,.3-1.077,1.636,1.636,0,0,0-.4-1.148,1.387,1.387,0,0,0-1.077-.437,1.6,1.6,0,0,0-1.251.492,1.936,1.936,0,0,0-.444,1.347H8.511a3.256,3.256,0,0,1,.414-1.637,2.848,2.848,0,0,1,1.183-1.131,3.764,3.764,0,0,1,1.774-.4,3.367,3.367,0,0,1,2.287.728A2.527,2.527,0,0,1,15,5.651a3.416,3.416,0,0,1-.42,1.562,8.882,8.882,0,0,1-1.377,1.856l-2.434,2.6h4.621Zm4.683-8.039a2,2,0,0,1,.581-1.48,2.314,2.314,0,0,1,3.059,0A2.048,2.048,0,0,1,24.295,5v.492a1.984,1.984,0,0,1-.578,1.47,2.063,2.063,0,0,1-1.521.574,2.129,2.129,0,0,1-1.521-.564,1.991,1.991,0,0,1-.6-1.521Zm1.162.524a1.1,1.1,0,0,0,.263.764.89.89,0,0,0,.694.291.872.872,0,0,0,.684-.291,1.146,1.146,0,0,0,.26-.792v-.5a1.109,1.109,0,0,0-.263-.768.885.885,0,0,0-.694-.295.86.86,0,0,0-.687.3,1.162,1.162,0,0,0-.256.785Zm3.623,5.075a1.957,1.957,0,0,1,.595-1.483,2.318,2.318,0,0,1,3.039,0,2.023,2.023,0,0,1,.591,1.531v.485a2,2,0,0,1-.571,1.466,2.051,2.051,0,0,1-1.528.578,2.112,2.112,0,0,1-1.542-.571,2.012,2.012,0,0,1-.584-1.507Zm1.162.526a1.09,1.09,0,0,0,.27.762.9.9,0,0,0,.694.3.867.867,0,0,0,.687-.284,1.166,1.166,0,0,0,.25-.8v-.513a1.08,1.08,0,0,0-.267-.766.961.961,0,0,0-1.371,0,1.129,1.129,0,0,0-.263.793Zm-3.486,1.169-.854-.492,4.86-7.779.854.492ZM35.909,9.309V13H34.18V3.047h3.808a3.85,3.85,0,0,1,2.649.869,2.922,2.922,0,0,1,.981,2.3,2.825,2.825,0,0,1-.96,2.279,4.037,4.037,0,0,1-2.69.814Zm0-1.395h2.078A2.047,2.047,0,0,0,39.4,7.48a1.6,1.6,0,0,0,.485-1.254,1.721,1.721,0,0,0-.492-1.289,1.9,1.9,0,0,0-1.354-.5H35.909Zm10.227,5.223a3.437,3.437,0,0,1-2.56-.995,3.608,3.608,0,0,1-.981-2.649V9.288a4.438,4.438,0,0,1,.427-1.979,3.252,3.252,0,0,1,1.2-1.357,3.172,3.172,0,0,1,1.723-.485,2.9,2.9,0,0,1,2.334.964A4.076,4.076,0,0,1,49.1,9.158v.67H44.27a2.221,2.221,0,0,0,.612,1.449,1.837,1.837,0,0,0,1.35.533,2.249,2.249,0,0,0,1.859-.923l.9.854A2.99,2.99,0,0,1,47.8,12.771,3.713,3.713,0,0,1,46.136,13.137Zm-.2-6.337a1.4,1.4,0,0,0-1.1.479A2.48,2.48,0,0,0,44.3,8.611h3.165V8.488a2.019,2.019,0,0,0-.444-1.261A1.388,1.388,0,0,0,45.938,6.8Zm8.326.321a4.111,4.111,0,0,0-.677-.055,1.524,1.524,0,0,0-1.538.875V13H50.388V5.6h1.586l.041.827a1.872,1.872,0,0,1,1.668-.964,1.555,1.555,0,0,1,.588.1Zm5.2,3.869a.753.753,0,0,0-.366-.677A3.89,3.89,0,0,0,57.88,9.9a6.237,6.237,0,0,1-1.415-.451,1.889,1.889,0,0,1-1.244-1.743,1.969,1.969,0,0,1,.807-1.6,3.189,3.189,0,0,1,2.051-.643,3.318,3.318,0,0,1,2.143.656,2.082,2.082,0,0,1,.817,1.7H59.377a1.024,1.024,0,0,0-.355-.8,1.362,1.362,0,0,0-.943-.318,1.472,1.472,0,0,0-.892.253.8.8,0,0,0-.345.677.673.673,0,0,0,.321.595,4.418,4.418,0,0,0,1.3.427A6.148,6.148,0,0,1,60,9.175a2.173,2.173,0,0,1,.827.714,1.822,1.822,0,0,1,.27,1.012,1.927,1.927,0,0,1-.827,1.617,3.527,3.527,0,0,1-2.167.619,3.825,3.825,0,0,1-1.62-.328,2.666,2.666,0,0,1-1.107-.9,2.136,2.136,0,0,1-.4-1.237h1.613a1.17,1.17,0,0,0,.444.906,1.727,1.727,0,0,0,1.087.318,1.68,1.68,0,0,0,1-.25A.772.772,0,0,0,59.459,10.99Zm2.769-1.757a4.361,4.361,0,0,1,.431-1.958,3.145,3.145,0,0,1,1.21-1.34,3.409,3.409,0,0,1,1.791-.468,3.231,3.231,0,0,1,2.43.964A3.791,3.791,0,0,1,69.1,8.987l.007.39a4.4,4.4,0,0,1-.42,1.955,3.108,3.108,0,0,1-1.2,1.333,3.434,3.434,0,0,1-1.808.472,3.209,3.209,0,0,1-2.505-1.042,3.993,3.993,0,0,1-.94-2.779Zm1.661.144a2.98,2.98,0,0,0,.472,1.788,1.533,1.533,0,0,0,1.313.646,1.517,1.517,0,0,0,1.309-.656,3.292,3.292,0,0,0,.468-1.921,2.942,2.942,0,0,0-.482-1.777,1.624,1.624,0,0,0-2.6-.01A3.23,3.23,0,0,0,63.889,9.377ZM72.051,5.6l.048.854a2.659,2.659,0,0,1,2.153-.991q2.311,0,2.352,2.646V13H74.942V8.208a1.523,1.523,0,0,0-.3-1.042,1.28,1.28,0,0,0-.995-.338,1.6,1.6,0,0,0-1.5.909V13H70.485V5.6ZM82.715,13a2.564,2.564,0,0,1-.191-.69,2.794,2.794,0,0,1-3.76.191,2.034,2.034,0,0,1-.7-1.572,2.1,2.1,0,0,1,.878-1.815,4.257,4.257,0,0,1,2.512-.632h1.019V8a1.3,1.3,0,0,0-.321-.919,1.274,1.274,0,0,0-.978-.345,1.463,1.463,0,0,0-.93.284.878.878,0,0,0-.362.721H78.217a1.844,1.844,0,0,1,.4-1.138,2.687,2.687,0,0,1,1.1-.831,3.854,3.854,0,0,1,1.548-.3,3.1,3.1,0,0,1,2.071.653,2.328,2.328,0,0,1,.793,1.835v3.336a3.781,3.781,0,0,0,.28,1.593V13ZM80.89,11.8a1.89,1.89,0,0,0,.926-.239,1.6,1.6,0,0,0,.653-.643V9.527h-.9a2.449,2.449,0,0,0-1.388.321,1.041,1.041,0,0,0-.465.909.971.971,0,0,0,.318.762A1.231,1.231,0,0,0,80.89,11.8Zm9.126-.813a.753.753,0,0,0-.366-.677,3.89,3.89,0,0,0-1.213-.41,6.238,6.238,0,0,1-1.415-.451,1.889,1.889,0,0,1-1.244-1.743,1.969,1.969,0,0,1,.807-1.6,3.189,3.189,0,0,1,2.051-.643,3.318,3.318,0,0,1,2.143.656,2.082,2.082,0,0,1,.817,1.7H89.934a1.024,1.024,0,0,0-.355-.8,1.362,1.362,0,0,0-.943-.318,1.472,1.472,0,0,0-.892.253.8.8,0,0,0-.345.677.673.673,0,0,0,.321.595,4.418,4.418,0,0,0,1.3.427,6.148,6.148,0,0,1,1.535.513,2.173,2.173,0,0,1,.827.714,1.822,1.822,0,0,1,.27,1.012,1.927,1.927,0,0,1-.827,1.617,3.527,3.527,0,0,1-2.167.619,3.825,3.825,0,0,1-1.62-.328,2.666,2.666,0,0,1-1.107-.9,2.136,2.136,0,0,1-.4-1.237h1.613a1.171,1.171,0,0,0,.444.906,1.727,1.727,0,0,0,1.087.318,1.68,1.68,0,0,0,1-.25A.772.772,0,0,0,90.016,10.99Zm6.255-1.75a4.371,4.371,0,0,1,.793-2.755A2.577,2.577,0,0,1,99.21,5.467a2.422,2.422,0,0,1,1.962.868l.1-.731h1.477v10.24h-1.661V12.371a2.479,2.479,0,0,1-1.887.766A2.552,2.552,0,0,1,97.07,12.1,4.576,4.576,0,0,1,96.271,9.24Zm1.661.144a3.087,3.087,0,0,0,.448,1.781,1.427,1.427,0,0,0,1.241.646,1.574,1.574,0,0,0,1.463-.841V7.606A1.575,1.575,0,0,0,99.634,6.8a1.451,1.451,0,0,0-1.248.636A3.368,3.368,0,0,0,97.932,9.384Zm11.081,2.892a2.576,2.576,0,0,1-2.078.861,2.3,2.3,0,0,1-1.822-.7,3,3,0,0,1-.619-2.037V5.6h1.661v4.771q0,1.408,1.169,1.408a1.642,1.642,0,0,0,1.634-.868V5.6h1.661V13h-1.565Zm6.556.861a3.437,3.437,0,0,1-2.56-.995,3.608,3.608,0,0,1-.981-2.649V9.288a4.438,4.438,0,0,1,.427-1.979,3.252,3.252,0,0,1,1.2-1.357,3.172,3.172,0,0,1,1.723-.485,2.9,2.9,0,0,1,2.334.964,4.076,4.076,0,0,1,.824,2.728v.67H113.7a2.221,2.221,0,0,0,.612,1.449,1.837,1.837,0,0,0,1.35.533,2.249,2.249,0,0,0,1.859-.923l.9.854a2.99,2.99,0,0,1-1.186,1.029A3.713,3.713,0,0,1,115.568,13.137Zm-.2-6.337a1.4,1.4,0,0,0-1.1.479,2.48,2.48,0,0,0-.537,1.333h3.165V8.488a2.019,2.019,0,0,0-.444-1.261A1.388,1.388,0,0,0,115.37,6.8Zm14.417,2.577a4.4,4.4,0,0,1-.779,2.738,2.707,2.707,0,0,1-4.04.222v3.507h-1.661V5.6h1.531l.068.752a2.44,2.44,0,0,1,1.989-.889,2.521,2.521,0,0,1,2.123,1.008,4.521,4.521,0,0,1,.769,2.8Zm-1.654-.144a3.085,3.085,0,0,0-.441-1.757,1.433,1.433,0,0,0-1.261-.649,1.529,1.529,0,0,0-1.463.841v3.281a1.543,1.543,0,0,0,1.477.861,1.432,1.432,0,0,0,1.241-.639A3.4,3.4,0,0,0,128.133,9.233Zm6.932-2.112a4.111,4.111,0,0,0-.677-.055,1.524,1.524,0,0,0-1.538.875V13h-1.661V5.6h1.586l.041.827a1.872,1.872,0,0,1,1.668-.964,1.555,1.555,0,0,1,.588.1Zm4.177,6.016a3.437,3.437,0,0,1-2.56-.995,3.608,3.608,0,0,1-.981-2.649V9.288a4.438,4.438,0,0,1,.427-1.979,3.252,3.252,0,0,1,1.2-1.357,3.172,3.172,0,0,1,1.723-.485,2.9,2.9,0,0,1,2.334.964,4.076,4.076,0,0,1,.824,2.728v.67h-4.833a2.221,2.221,0,0,0,.612,1.449,1.837,1.837,0,0,0,1.35.533,2.249,2.249,0,0,0,1.859-.923l.9.854a2.99,2.99,0,0,1-1.186,1.029A3.713,3.713,0,0,1,139.241,13.137Zm-.2-6.337a1.4,1.4,0,0,0-1.1.479,2.48,2.48,0,0,0-.537,1.333h3.165V8.488a2.019,2.019,0,0,0-.444-1.261A1.388,1.388,0,0,0,139.043,6.8Zm4.895,6.2V6.834H142.81V5.6h1.128V5.1a2.959,2.959,0,0,1,.369-1.49,2.3,2.3,0,0,1,1.025-.937,3.691,3.691,0,0,1,1.593-.314,4.643,4.643,0,0,1,1.049.116q.5.116,1.042.294l-.253,1.374a5.288,5.288,0,0,0-1.723-.328,1.539,1.539,0,0,0-1.1.332,1.326,1.326,0,0,0-.342.995V5.6h1.456v1.23H145.6V13Zm5.865,0h-1.661V5.6H149.8Zm5.1.137a3.437,3.437,0,0,1-2.56-.995,3.608,3.608,0,0,1-.981-2.649V9.288a4.438,4.438,0,0,1,.427-1.979,3.252,3.252,0,0,1,1.2-1.357,3.172,3.172,0,0,1,1.723-.485,2.9,2.9,0,0,1,2.334.964,4.076,4.076,0,0,1,.824,2.728v.67h-4.833a2.221,2.221,0,0,0,.612,1.449,1.837,1.837,0,0,0,1.35.533,2.249,2.249,0,0,0,1.859-.923l.9.854a2.99,2.99,0,0,1-1.186,1.029A3.713,3.713,0,0,1,154.9,13.137ZM154.7,6.8a1.4,1.4,0,0,0-1.1.479,2.48,2.48,0,0,0-.537,1.333h3.165V8.488a2.019,2.019,0,0,0-.444-1.261A1.388,1.388,0,0,0,154.7,6.8Zm8.326.321a4.111,4.111,0,0,0-.677-.055,1.524,1.524,0,0,0-1.538.875V13h-1.661V5.6h1.586l.041.827a1.872,1.872,0,0,1,1.668-.964,1.555,1.555,0,0,1,.588.1Zm4.177,6.016a3.437,3.437,0,0,1-2.56-.995,3.608,3.608,0,0,1-.981-2.649V9.288a4.438,4.438,0,0,1,.427-1.979,3.252,3.252,0,0,1,1.2-1.357,3.172,3.172,0,0,1,1.723-.485,2.9,2.9,0,0,1,2.334.964,4.076,4.076,0,0,1,.824,2.728v.67h-4.833a2.221,2.221,0,0,0,.612,1.449,1.837,1.837,0,0,0,1.35.533,2.249,2.249,0,0,0,1.859-.923l.9.854a2.99,2.99,0,0,1-1.186,1.029A3.713,3.713,0,0,1,167.207,13.137Zm-.2-6.337a1.4,1.4,0,0,0-1.1.479,2.48,2.48,0,0,0-.537,1.333h3.165V8.488a2.019,2.019,0,0,0-.444-1.261A1.388,1.388,0,0,0,167.009,6.8Zm6-1.2.048.854a2.659,2.659,0,0,1,2.153-.991q2.311,0,2.352,2.646V13H175.9V8.208a1.523,1.523,0,0,0-.3-1.042,1.28,1.28,0,0,0-.995-.338,1.6,1.6,0,0,0-1.5.909V13h-1.661V5.6ZM184.5,13h-1.661V2.5H184.5ZM186,9.233a4.361,4.361,0,0,1,.431-1.958,3.145,3.145,0,0,1,1.21-1.34,3.409,3.409,0,0,1,1.791-.468,3.231,3.231,0,0,1,2.43.964,3.791,3.791,0,0,1,1.008,2.557l.007.39a4.4,4.4,0,0,1-.42,1.955,3.108,3.108,0,0,1-1.2,1.333,3.434,3.434,0,0,1-1.808.472,3.209,3.209,0,0,1-2.505-1.042A3.993,3.993,0,0,1,186,9.315Zm1.661.144a2.98,2.98,0,0,0,.472,1.788,1.533,1.533,0,0,0,1.313.646,1.517,1.517,0,0,0,1.309-.656,3.292,3.292,0,0,0,.468-1.921,2.942,2.942,0,0,0-.482-1.777,1.624,1.624,0,0,0-2.6-.01A3.23,3.23,0,0,0,187.66,9.377Zm10.767,1.613a.753.753,0,0,0-.366-.677,3.89,3.89,0,0,0-1.213-.41,6.237,6.237,0,0,1-1.415-.451,1.889,1.889,0,0,1-1.244-1.743,1.969,1.969,0,0,1,.807-1.6,3.189,3.189,0,0,1,2.051-.643,3.318,3.318,0,0,1,2.143.656,2.082,2.082,0,0,1,.817,1.7h-1.661a1.024,1.024,0,0,0-.355-.8,1.362,1.362,0,0,0-.943-.318,1.472,1.472,0,0,0-.892.253.8.8,0,0,0-.345.677.673.673,0,0,0,.321.595,4.418,4.418,0,0,0,1.3.427,6.148,6.148,0,0,1,1.535.513,2.173,2.173,0,0,1,.827.714,1.822,1.822,0,0,1,.27,1.012,1.927,1.927,0,0,1-.827,1.617,3.527,3.527,0,0,1-2.167.619,3.825,3.825,0,0,1-1.62-.328,2.666,2.666,0,0,1-1.107-.9,2.136,2.136,0,0,1-.4-1.237h1.613a1.17,1.17,0,0,0,.444.906,1.727,1.727,0,0,0,1.087.318,1.68,1.68,0,0,0,1-.25A.772.772,0,0,0,198.427,10.99ZM5.271,38a2.564,2.564,0,0,1-.191-.69,2.586,2.586,0,0,1-1.941.827A2.61,2.61,0,0,1,1.319,37.5a2.034,2.034,0,0,1-.7-1.572,2.1,2.1,0,0,1,.878-1.815,4.257,4.257,0,0,1,2.512-.632H5.024V33a1.3,1.3,0,0,0-.321-.919,1.274,1.274,0,0,0-.978-.345,1.463,1.463,0,0,0-.93.284.878.878,0,0,0-.362.721H.772a1.844,1.844,0,0,1,.4-1.138,2.687,2.687,0,0,1,1.1-.831,3.854,3.854,0,0,1,1.548-.3,3.1,3.1,0,0,1,2.071.653,2.328,2.328,0,0,1,.793,1.835v3.336a3.781,3.781,0,0,0,.28,1.593V38ZM3.445,36.8a1.89,1.89,0,0,0,.926-.239,1.6,1.6,0,0,0,.653-.643V34.527h-.9a2.449,2.449,0,0,0-1.388.321,1.041,1.041,0,0,0-.465.909.971.971,0,0,0,.318.762A1.231,1.231,0,0,0,3.445,36.8Zm6.542-6.2.048.772a2.662,2.662,0,0,1,2.133-.909A2.045,2.045,0,0,1,14.2,31.6a2.623,2.623,0,0,1,2.27-1.135,2.306,2.306,0,0,1,1.822.677,2.98,2.98,0,0,1,.612,2V38H17.24V33.188a1.471,1.471,0,0,0-.308-1.032,1.347,1.347,0,0,0-1.019-.328,1.383,1.383,0,0,0-.926.3,1.6,1.6,0,0,0-.5.8L14.492,38H12.831V33.133A1.185,1.185,0,0,0,11.5,31.827a1.462,1.462,0,0,0-1.415.813V38H8.422V30.6ZM25.026,38a2.564,2.564,0,0,1-.191-.69,2.794,2.794,0,0,1-3.76.191,2.034,2.034,0,0,1-.7-1.572,2.1,2.1,0,0,1,.878-1.815,4.257,4.257,0,0,1,2.512-.632H24.78V33a1.3,1.3,0,0,0-.321-.919,1.274,1.274,0,0,0-.978-.345,1.463,1.463,0,0,0-.93.284.878.878,0,0,0-.362.721H20.528a1.844,1.844,0,0,1,.4-1.138,2.687,2.687,0,0,1,1.1-.831,3.854,3.854,0,0,1,1.548-.3,3.1,3.1,0,0,1,2.071.653,2.328,2.328,0,0,1,.793,1.835v3.336a3.781,3.781,0,0,0,.28,1.593V38ZM23.2,36.8a1.89,1.89,0,0,0,.926-.239,1.6,1.6,0,0,0,.653-.643V34.527h-.9a2.449,2.449,0,0,0-1.388.321,1.041,1.041,0,0,0-.465.909.971.971,0,0,0,.318.762A1.231,1.231,0,0,0,23.2,36.8Zm6.521-6.2.048.854a2.659,2.659,0,0,1,2.153-.991q2.311,0,2.352,2.646V38H32.614V33.208a1.523,1.523,0,0,0-.3-1.042,1.28,1.28,0,0,0-.995-.338,1.6,1.6,0,0,0-1.5.909V38H28.157V30.6Zm9.5,7.533a3.437,3.437,0,0,1-2.56-.995,3.608,3.608,0,0,1-.981-2.649v-.205a4.438,4.438,0,0,1,.427-1.979,3.252,3.252,0,0,1,1.2-1.357,3.172,3.172,0,0,1,1.723-.485,2.9,2.9,0,0,1,2.334.964,4.076,4.076,0,0,1,.824,2.728v.67H37.358a2.221,2.221,0,0,0,.612,1.449,1.837,1.837,0,0,0,1.35.533,2.249,2.249,0,0,0,1.859-.923l.9.854a2.99,2.99,0,0,1-1.186,1.029A3.713,3.713,0,0,1,39.225,38.137Zm-.2-6.337a1.4,1.4,0,0,0-1.1.479,2.48,2.48,0,0,0-.537,1.333h3.165v-.123a2.019,2.019,0,0,0-.444-1.261A1.388,1.388,0,0,0,39.026,31.8Zm7.492,5.011a1.5,1.5,0,0,0,1.032-.362,1.238,1.238,0,0,0,.438-.9h1.565a2.44,2.44,0,0,1-.431,1.289,2.825,2.825,0,0,1-1.094.947,3.259,3.259,0,0,1-1.49.349,3.154,3.154,0,0,1-2.461-1,3.986,3.986,0,0,1-.909-2.775v-.171a3.919,3.919,0,0,1,.9-2.7,3.125,3.125,0,0,1,2.461-1.015,3.039,3.039,0,0,1,2.15.769,2.755,2.755,0,0,1,.872,2.02H47.988a1.521,1.521,0,0,0-.434-1.046,1.4,1.4,0,0,0-1.036-.41,1.462,1.462,0,0,0-1.244.584,2.982,2.982,0,0,0-.444,1.774v.267a3.032,3.032,0,0,0,.434,1.794A1.461,1.461,0,0,0,46.519,36.811Zm7.547,1.326a3.437,3.437,0,0,1-2.56-.995,3.608,3.608,0,0,1-.981-2.649v-.205a4.438,4.438,0,0,1,.427-1.979,3.252,3.252,0,0,1,1.2-1.357,3.172,3.172,0,0,1,1.723-.485,2.9,2.9,0,0,1,2.334.964,4.076,4.076,0,0,1,.824,2.728v.67H52.2a2.221,2.221,0,0,0,.612,1.449,1.837,1.837,0,0,0,1.35.533,2.249,2.249,0,0,0,1.859-.923l.9.854a2.99,2.99,0,0,1-1.186,1.029A3.713,3.713,0,0,1,54.065,38.137Zm-.2-6.337a1.4,1.4,0,0,0-1.1.479,2.48,2.48,0,0,0-.537,1.333h3.165v-.123a2.019,2.019,0,0,0-.444-1.261A1.388,1.388,0,0,0,53.867,31.8Zm8.326.321a4.111,4.111,0,0,0-.677-.055,1.524,1.524,0,0,0-1.538.875V38H58.317V30.6H59.9l.041.827a1.872,1.872,0,0,1,1.668-.964,1.555,1.555,0,0,1,.588.1Zm4.177,6.016a3.437,3.437,0,0,1-2.56-.995,3.608,3.608,0,0,1-.981-2.649v-.205a4.438,4.438,0,0,1,.427-1.979,3.252,3.252,0,0,1,1.2-1.357,3.172,3.172,0,0,1,1.723-.485,2.9,2.9,0,0,1,2.334.964,4.076,4.076,0,0,1,.824,2.728v.67H64.5a2.221,2.221,0,0,0,.612,1.449,1.837,1.837,0,0,0,1.35.533,2.249,2.249,0,0,0,1.859-.923l.9.854a2.99,2.99,0,0,1-1.186,1.029A3.713,3.713,0,0,1,66.37,38.137Zm-.2-6.337a1.4,1.4,0,0,0-1.1.479,2.48,2.48,0,0,0-.537,1.333H67.7v-.123a2.019,2.019,0,0,0-.444-1.261A1.388,1.388,0,0,0,66.172,31.8Zm8.6,4.19a.753.753,0,0,0-.366-.677,3.89,3.89,0,0,0-1.213-.41,6.237,6.237,0,0,1-1.415-.451,1.889,1.889,0,0,1-1.244-1.743,1.969,1.969,0,0,1,.807-1.6,3.189,3.189,0,0,1,2.051-.643,3.318,3.318,0,0,1,2.143.656,2.082,2.082,0,0,1,.817,1.7H74.689a1.024,1.024,0,0,0-.355-.8,1.362,1.362,0,0,0-.943-.318,1.472,1.472,0,0,0-.892.253.8.8,0,0,0-.345.677.673.673,0,0,0,.321.595,4.418,4.418,0,0,0,1.3.427,6.148,6.148,0,0,1,1.535.513,2.173,2.173,0,0,1,.827.714,1.822,1.822,0,0,1,.27,1.012,1.927,1.927,0,0,1-.827,1.617,3.527,3.527,0,0,1-2.167.619,3.825,3.825,0,0,1-1.62-.328,2.666,2.666,0,0,1-1.107-.9,2.136,2.136,0,0,1-.4-1.237H71.9a1.171,1.171,0,0,0,.444.906,1.727,1.727,0,0,0,1.087.318,1.68,1.68,0,0,0,1-.25A.772.772,0,0,0,74.771,35.99Z" transform="translate(217.726 5931)" fill="#12263f"/>
    <path id="Trazado_834651" data-name="Trazado 834651" d="M-3904.8-5640.866h94.691v84.268" transform="translate(4490.404 11714.944)" fill="none" stroke="#12263f" stroke-width="2" stroke-dasharray="5"/>
    <path id="Trazado_834652" data-name="Trazado 834652" d="M-4234-5714.2h213.948v28.586" transform="translate(4452.008 11706.392)" fill="none" stroke="#12263f" stroke-width="2" stroke-dasharray="5"/>
    <path id="Trazado_839248" data-name="Trazado 839248" d="M8.5,0A8.761,8.761,0,0,1,17,9a8.761,8.761,0,0,1-8.5,9A8.761,8.761,0,0,1,0,9,8.761,8.761,0,0,1,8.5,0Z" transform="translate(422.726 6010)" fill="#12263f"/>
    <path id="Trazado_839249" data-name="Trazado 839249" d="M8.5,0A8.761,8.761,0,0,1,17,9a8.761,8.761,0,0,1-8.5,9A8.761,8.761,0,0,1,0,9,8.761,8.761,0,0,1,8.5,0Z" transform="translate(567.726 6065)" fill="#12263f"/>
  </g>
</svg>
