<svg xmlns="http://www.w3.org/2000/svg" width="400" height="354.489" viewBox="0 0 400 354.489">
  <g id="svg53" transform="translate(-22.8 -30.6)">
    <g id="OBJECTS" transform="translate(22.8 30.6)">
      <g id="Grupo_1091687" data-name="Grupo 1091687">
        <g id="Grupo_1091662" data-name="Grupo 1091662" transform="translate(31.25 70.951)">
          <line id="Línea_4023" data-name="Línea 4023" y2="119.63" transform="translate(168.75 85.651)" fill="none" stroke="#bdbdbd" stroke-linecap="round" stroke-linejoin="round" stroke-miterlimit="10" stroke-width="1.825" stroke-dasharray="0 4.562"/>
          <line id="Línea_4024" data-name="Línea 4024" y2="28.169" transform="translate(168.75)" fill="none" stroke="#bdbdbd" stroke-linecap="round" stroke-linejoin="round" stroke-miterlimit="10" stroke-width="1.825" stroke-dasharray="0 4.562"/>
          <line id="Línea_4025" data-name="Línea 4025" x2="54.225" transform="translate(203.433 56.69)" fill="none" stroke="#bdbdbd" stroke-linecap="round" stroke-linejoin="round" stroke-miterlimit="10" stroke-width="1.825" stroke-dasharray="0 4.562"/>
          <line id="Línea_4026" data-name="Línea 4026" x2="54.313" transform="translate(78.433 56.69)" fill="none" stroke="#bdbdbd" stroke-linecap="round" stroke-linejoin="round" stroke-miterlimit="10" stroke-width="1.825" stroke-dasharray="0 4.562"/>
          <g id="Grupo_1091660" data-name="Grupo 1091660" transform="translate(249.736 61.356)">
            <line id="Línea_4027" data-name="Línea 4027" y2="54.049" transform="translate(44.102 88.82)" fill="none" stroke="#bdbdbd" stroke-linecap="round" stroke-linejoin="round" stroke-miterlimit="10" stroke-width="1.825" stroke-dasharray="0 4.562"/>
            <line id="Línea_4028" data-name="Línea 4028" y2="81.162" transform="translate(44.102)" fill="none" stroke="#bdbdbd" stroke-linecap="round" stroke-linejoin="round" stroke-miterlimit="10" stroke-width="1.825" stroke-dasharray="0 4.562"/>
            <line id="Línea_4029" data-name="Línea 4029" x2="87.236" transform="translate(0 84.331)" fill="none" stroke="#bdbdbd" stroke-linecap="round" stroke-linejoin="round" stroke-miterlimit="10" stroke-width="1.825" stroke-dasharray="0 4.562"/>
          </g>
          <g id="Grupo_1091661" data-name="Grupo 1091661" transform="translate(0 61.356)">
            <line id="Línea_4030" data-name="Línea 4030" y2="54.049" transform="translate(44.102 88.82)" fill="none" stroke="#bdbdbd" stroke-linecap="round" stroke-linejoin="round" stroke-miterlimit="10" stroke-width="1.825" stroke-dasharray="0 4.562"/>
            <line id="Línea_4031" data-name="Línea 4031" y2="81.162" transform="translate(44.102)" fill="none" stroke="#bdbdbd" stroke-linecap="round" stroke-linejoin="round" stroke-miterlimit="10" stroke-width="1.825" stroke-dasharray="0 4.562"/>
            <line id="Línea_4032" data-name="Línea 4032" x2="87.324" transform="translate(0 84.331)" fill="none" stroke="#bdbdbd" stroke-linecap="round" stroke-linejoin="round" stroke-miterlimit="10" stroke-width="1.825" stroke-dasharray="0 4.562"/>
          </g>
        </g>
        <path id="Trazado_839215" data-name="Trazado 839215" d="M27.817,0A27.817,27.817,0,1,1,0,27.817,27.817,27.817,0,0,1,27.817,0Z" transform="translate(285.768 305.723) rotate(-45)" fill="#d6d6d6"/>
        <path id="Trazado_839216" data-name="Trazado 839216" d="M23.856,0A23.856,23.856,0,1,1,0,23.856,23.856,23.856,0,0,1,23.856,0Z" transform="translate(301.232 281.866)" fill="#ffaa45"/>
        <path id="Trazado_839217" data-name="Trazado 839217" d="M19.806,0A19.806,19.806,0,1,1,0,19.806,19.806,19.806,0,0,1,19.806,0Z" transform="translate(305.282 285.915)" fill="#fafafa"/>
        <g id="Grupo_1091663" data-name="Grupo 1091663" transform="translate(317.518 295.684)">
          <path id="Trazado_838791" data-name="Trazado 838791" d="M396.155,371.077a4.577,4.577,0,1,1-4.577-4.577A4.546,4.546,0,0,1,396.155,371.077Z" transform="translate(-383.919 -366.497)" fill="#ffaa45"/>
          <path id="Trazado_838792" data-name="Trazado 838792" d="M396.528,388.007h-11a1.992,1.992,0,0,1-2.025-2.025h0a7.476,7.476,0,0,1,7.482-7.482h0a7.476,7.476,0,0,1,7.482,7.482h0A1.871,1.871,0,0,1,396.528,388.007Z" transform="translate(-383.5 -367.934)" fill="#ffaa45"/>
        </g>
        <path id="Trazado_838793" data-name="Trazado 838793" d="M411.882,431.337H363.818a7.251,7.251,0,0,1-7.218-7.218h0a7.251,7.251,0,0,1,7.218-7.218h48.063a7.251,7.251,0,0,1,7.218,7.218h0A7.251,7.251,0,0,1,411.882,431.337Z" transform="translate(-62.762 -76.847)" fill="#ffaa45"/>
        <g id="Grupo_1091664" data-name="Grupo 1091664" transform="translate(305.639 341.208)">
          <text id="NAME_SURNAME" data-name="NAME SURNAME" transform="translate(0 4)" fill="#fff" font-size="4" font-family="Montserrat-Bold, Montserrat" font-weight="700"><tspan x="0" y="0">NAME SURNAME</tspan></text>
          <text id="Position" transform="translate(8.455 9.932)" fill="#fff" font-size="4" font-family="Montserrat-Regular, Montserrat"><tspan x="0" y="0">Position</tspan></text>
        </g>
        <path id="Trazado_838794" data-name="Trazado 838794" d="M437.917,300.834a27.817,27.817,0,1,1,27.817-27.817A27.819,27.819,0,0,1,437.917,300.834Z" transform="translate(-69.167 -56.292)" fill="#d6d6d6"/>
        <path id="Trazado_839218" data-name="Trazado 839218" d="M23.856,0A23.856,23.856,0,1,1,0,23.856,23.856,23.856,0,0,1,23.856,0Z" transform="translate(340.037 234.424) rotate(-76.714)" fill="#ffaa45"/>
        <path id="Trazado_838795" data-name="Trazado 838795" d="M439.006,293.913a19.806,19.806,0,1,1,19.806-19.806A19.836,19.836,0,0,1,439.006,293.913Z" transform="translate(-70.256 -57.381)" fill="#fafafa"/>
        <g id="Grupo_1091665" data-name="Grupo 1091665" transform="translate(361.179 206.69)">
          <circle id="Elipse_6823" data-name="Elipse 6823" cx="4.577" cy="4.577" r="4.577" transform="translate(2.993)" fill="#ffaa45"/>
          <path id="Trazado_838796" data-name="Trazado 838796" d="M446.128,286.807h-11a1.992,1.992,0,0,1-2.025-2.025h0a7.476,7.476,0,0,1,7.482-7.482h0a7.476,7.476,0,0,1,7.482,7.482h0A1.871,1.871,0,0,1,446.128,286.807Z" transform="translate(-433.1 -266.825)" fill="#ffaa45"/>
        </g>
        <path id="Trazado_838797" data-name="Trazado 838797" d="M461.482,328.937H413.418a7.251,7.251,0,0,1-7.218-7.218h0a7.251,7.251,0,0,1,7.218-7.218h48.063a7.251,7.251,0,0,1,7.218,7.218h0A7.194,7.194,0,0,1,461.482,328.937Z" transform="translate(-68.7 -64.588)" fill="#ffaa45"/>
        <g id="Grupo_1091666" data-name="Grupo 1091666" transform="translate(349.29 251.304)">
          <text id="NAME_SURNAME-2" data-name="NAME SURNAME" transform="translate(0 4)" fill="#fff" font-size="4" font-family="Montserrat-Bold, Montserrat" font-weight="700"><tspan x="0" y="0">NAME SURNAME</tspan></text>
          <text id="Position-2" data-name="Position" transform="translate(8.455 9.932)" fill="#fff" font-size="4" font-family="Montserrat-Regular, Montserrat"><tspan x="0" y="0">Position</tspan></text>
        </g>
        <path id="Trazado_838798" data-name="Trazado 838798" d="M338.717,300.834a27.817,27.817,0,1,1,27.817-27.817A27.819,27.819,0,0,1,338.717,300.834Z" transform="translate(-57.291 -56.292)" fill="#d6d6d6"/>
        <path id="Trazado_839219" data-name="Trazado 839219" d="M23.856,0A23.856,23.856,0,1,1,0,23.856,23.856,23.856,0,0,1,23.856,0Z" transform="matrix(0.622, -0.783, 0.783, 0.622, 247.88, 220.491)" fill="#ffaa45"/>
        <path id="Trazado_838799" data-name="Trazado 838799" d="M339.806,293.913a19.806,19.806,0,1,1,19.806-19.806A19.836,19.836,0,0,1,339.806,293.913Z" transform="translate(-58.38 -57.381)" fill="#fafafa"/>
        <g id="Grupo_1091667" data-name="Grupo 1091667" transform="translate(273.944 206.687)">
          <path id="Trazado_838800" data-name="Trazado 838800" d="M346.555,269.977a4.577,4.577,0,1,1-4.577-4.577A4.546,4.546,0,0,1,346.555,269.977Z" transform="translate(-334.407 -265.397)" fill="#ffaa45"/>
          <path id="Trazado_838801" data-name="Trazado 838801" d="M347.028,286.807h-11A1.992,1.992,0,0,1,334,284.782h0a7.476,7.476,0,0,1,7.482-7.482h0a7.476,7.476,0,0,1,7.482,7.482h0A1.974,1.974,0,0,1,347.028,286.807Z" transform="translate(-334 -266.822)" fill="#ffaa45"/>
        </g>
        <path id="Trazado_838802" data-name="Trazado 838802" d="M362.282,328.937H314.218A7.251,7.251,0,0,1,307,321.718h0a7.251,7.251,0,0,1,7.218-7.218h48.063a7.251,7.251,0,0,1,7.218,7.218h0A7.194,7.194,0,0,1,362.282,328.937Z" transform="translate(-56.824 -64.588)" fill="#ffaa45"/>
        <g id="Grupo_1091668" data-name="Grupo 1091668" transform="translate(261.987 251.304)">
          <text id="NAME_SURNAME-3" data-name="NAME SURNAME" transform="translate(0 4)" fill="#fff" font-size="4" font-family="Montserrat-Bold, Montserrat" font-weight="700"><tspan x="0" y="0">NAME SURNAME</tspan></text>
          <text id="Position-3" data-name="Position" transform="translate(8.455 9.932)" fill="#fff" font-size="4" font-family="Montserrat-Regular, Montserrat"><tspan x="0" y="0">Position</tspan></text>
        </g>
        <path id="Trazado_838803" data-name="Trazado 838803" d="M104.117,401.934a27.817,27.817,0,1,1,27.817-27.817A27.819,27.819,0,0,1,104.117,401.934Z" transform="translate(-29.205 -68.395)" fill="#d6d6d6"/>
        <path id="Trazado_839220" data-name="Trazado 839220" d="M23.856,0A23.856,23.856,0,1,1,0,23.856,23.856,23.856,0,0,1,23.856,0Z" transform="translate(51.056 281.866)" fill="#ffaa45"/>
        <path id="Trazado_838804" data-name="Trazado 838804" d="M105.206,395.013a19.806,19.806,0,1,1,19.806-19.806A19.836,19.836,0,0,1,105.206,395.013Z" transform="translate(-30.294 -69.485)" fill="#fafafa"/>
        <g id="Grupo_1091669" data-name="Grupo 1091669" transform="translate(67.342 295.684)">
          <path id="Trazado_838805" data-name="Trazado 838805" d="M111.855,371.077a4.577,4.577,0,1,1-4.577-4.577A4.492,4.492,0,0,1,111.855,371.077Z" transform="translate(-99.707 -366.497)" fill="#ffaa45"/>
          <path id="Trazado_838806" data-name="Trazado 838806" d="M112.328,388.007h-11a1.992,1.992,0,0,1-2.025-2.025h0a7.476,7.476,0,0,1,7.482-7.482h0a7.476,7.476,0,0,1,7.482,7.482h0A1.871,1.871,0,0,1,112.328,388.007Z" transform="translate(-99.3 -367.934)" fill="#ffaa45"/>
        </g>
        <path id="Trazado_838807" data-name="Trazado 838807" d="M127.682,431.337H79.618a7.251,7.251,0,0,1-7.218-7.218h0a7.251,7.251,0,0,1,7.218-7.218h48.063a7.251,7.251,0,0,1,7.218,7.218h0A7.251,7.251,0,0,1,127.682,431.337Z" transform="translate(-28.738 -76.847)" fill="#ffaa45"/>
        <g id="Grupo_1091670" data-name="Grupo 1091670" transform="translate(55.436 341.423)">
          <text id="NAME_SURNAME-4" data-name="NAME SURNAME" transform="translate(0 4)" fill="#fff" font-size="4" font-family="Montserrat-Bold, Montserrat" font-weight="700"><tspan x="0" y="0">NAME SURNAME</tspan></text>
          <text id="Position-4" data-name="Position" transform="translate(8.455 9.932)" fill="#fff" font-size="4" font-family="Montserrat-Regular, Montserrat"><tspan x="0" y="0">Position</tspan></text>
        </g>
        <path id="Trazado_839221" data-name="Trazado 839221" d="M27.817,0A27.817,27.817,0,1,1,0,27.817,27.817,27.817,0,0,1,27.817,0Z" transform="translate(85.002 237.205) rotate(-76.532)" fill="#d6d6d6"/>
        <path id="Trazado_839222" data-name="Trazado 839222" d="M23.856,0A23.856,23.856,0,1,1,0,23.856,23.856,23.856,0,0,1,23.856,0Z" transform="translate(91.137 236.309) rotate(-80.706)" fill="#ffaa45"/>
        <path id="Trazado_839223" data-name="Trazado 839223" d="M19.806,0A19.806,19.806,0,1,1,0,19.806,19.806,19.806,0,0,1,19.806,0Z" transform="translate(95.787 232.983) rotate(-80.718)" fill="#fafafa"/>
        <g id="Grupo_1091671" data-name="Grupo 1091671" transform="translate(111.003 206.69)">
          <circle id="Elipse_6829" data-name="Elipse 6829" cx="4.577" cy="4.577" r="4.577" transform="translate(2.993)" fill="#ffaa45"/>
          <path id="Trazado_838808" data-name="Trazado 838808" d="M161.928,286.807h-11a1.992,1.992,0,0,1-2.025-2.025h0a7.476,7.476,0,0,1,7.482-7.482h0a7.476,7.476,0,0,1,7.482,7.482h0A1.871,1.871,0,0,1,161.928,286.807Z" transform="translate(-148.9 -266.825)" fill="#ffaa45"/>
        </g>
        <path id="Trazado_838809" data-name="Trazado 838809" d="M177.282,328.937H129.218A7.251,7.251,0,0,1,122,321.718h0a7.251,7.251,0,0,1,7.218-7.218h48.063a7.251,7.251,0,0,1,7.218,7.218h0A7.251,7.251,0,0,1,177.282,328.937Z" transform="translate(-34.676 -64.588)" fill="#ffaa45"/>
        <g id="Grupo_1091672" data-name="Grupo 1091672" transform="translate(99.087 251.304)">
          <text id="NAME_SURNAME-5" data-name="NAME SURNAME" transform="translate(0 4)" fill="#fff" font-size="4" font-family="Montserrat-Bold, Montserrat" font-weight="700"><tspan x="0" y="0">NAME SURNAME</tspan></text>
          <text id="Position-5" data-name="Position" transform="translate(8.455 9.932)" fill="#fff" font-size="4" font-family="Montserrat-Regular, Montserrat"><tspan x="0" y="0">Position</tspan></text>
        </g>
        <path id="Trazado_839224" data-name="Trazado 839224" d="M27.817,0A27.817,27.817,0,1,1,0,27.817,27.817,27.817,0,0,1,27.817,0Z" transform="translate(2.475 189.817) rotate(-2.011)" fill="#d6d6d6"/>
        <path id="Trazado_839225" data-name="Trazado 839225" d="M23.856,0A23.856,23.856,0,1,1,0,23.856,23.856,23.856,0,0,1,23.856,0Z" transform="translate(4.156 236.789) rotate(-81.651)" fill="#ffaa45"/>
        <path id="Trazado_839226" data-name="Trazado 839226" d="M19.806,0A19.806,19.806,0,1,1,0,19.806,19.806,19.806,0,0,1,19.806,0Z" transform="translate(11.444 196.831)" fill="#fafafa"/>
        <g id="Grupo_1091673" data-name="Grupo 1091673" transform="translate(23.768 206.69)">
          <circle id="Elipse_6833" data-name="Elipse 6833" cx="4.577" cy="4.577" r="4.577" transform="translate(2.905)" fill="#ffaa45"/>
          <path id="Trazado_838810" data-name="Trazado 838810" d="M62.74,286.807H51.825a1.992,1.992,0,0,1-2.025-2.025h0a7.476,7.476,0,0,1,7.482-7.482h0a7.476,7.476,0,0,1,7.482,7.482h0A1.992,1.992,0,0,1,62.74,286.807Z" transform="translate(-49.8 -266.825)" fill="#ffaa45"/>
        </g>
        <path id="Trazado_838811" data-name="Trazado 838811" d="M78.082,328.937H30.018a7.251,7.251,0,0,1-7.218-7.218h0a7.251,7.251,0,0,1,7.218-7.218H78.082a7.251,7.251,0,0,1,7.218,7.218h0A7.194,7.194,0,0,1,78.082,328.937Z" transform="translate(-22.8 -64.588)" fill="#ffaa45"/>
        <g id="Grupo_1091674" data-name="Grupo 1091674" transform="translate(11.783 251.304)">
          <text id="NAME_SURNAME-6" data-name="NAME SURNAME" transform="translate(0 4)" fill="#fff" font-size="4" font-family="Montserrat-Bold, Montserrat" font-weight="700"><tspan x="0" y="0">NAME SURNAME</tspan></text>
          <text id="Position-6" data-name="Position" transform="translate(8.455 9.932)" fill="#fff" font-size="4" font-family="Montserrat-Regular, Montserrat"><tspan x="0" y="0">Position</tspan></text>
        </g>
        <path id="Trazado_838812" data-name="Trazado 838812" d="M246.217,401.934a27.817,27.817,0,1,1,27.817-27.817A27.819,27.819,0,0,1,246.217,401.934Z" transform="translate(-46.217 -68.395)" fill="#d6d6d6"/>
        <path id="Trazado_839227" data-name="Trazado 839227" d="M23.856,0A23.856,23.856,0,1,1,0,23.856,23.856,23.856,0,0,1,23.856,0Z" transform="translate(176.144 281.866)" fill="#a008a5"/>
        <path id="Trazado_838813" data-name="Trazado 838813" d="M247.306,395.013a19.806,19.806,0,1,1,19.806-19.806A19.836,19.836,0,0,1,247.306,395.013Z" transform="translate(-47.306 -69.485)" fill="#fafafa"/>
        <g id="Grupo_1091675" data-name="Grupo 1091675" transform="translate(192.43 295.684)">
          <path id="Trazado_838814" data-name="Trazado 838814" d="M253.955,371.077a4.577,4.577,0,1,1-4.577-4.577A4.492,4.492,0,0,1,253.955,371.077Z" transform="translate(-241.807 -366.497)" fill="#a008a5"/>
          <path id="Trazado_838815" data-name="Trazado 838815" d="M254.428,388.007h-11a1.992,1.992,0,0,1-2.025-2.025h0a7.476,7.476,0,0,1,7.482-7.482h0a7.476,7.476,0,0,1,7.482,7.482h0A1.871,1.871,0,0,1,254.428,388.007Z" transform="translate(-241.4 -367.934)" fill="#a008a5"/>
        </g>
        <path id="Trazado_838816" data-name="Trazado 838816" d="M269.782,431.337H221.718a7.251,7.251,0,0,1-7.218-7.218h0a7.251,7.251,0,0,1,7.218-7.218h48.063A7.251,7.251,0,0,1,277,424.118h0A7.251,7.251,0,0,1,269.782,431.337Z" transform="translate(-45.75 -76.847)" fill="#a008a5"/>
        <g id="Grupo_1091676" data-name="Grupo 1091676" transform="translate(180.537 341.423)">
          <text id="NAME_SURNAME-7" data-name="NAME SURNAME" transform="translate(0 4)" fill="#fff" font-size="4" font-family="Montserrat-Bold, Montserrat" font-weight="700"><tspan x="0" y="0">NAME SURNAME</tspan></text>
          <text id="Position-7" data-name="Position" transform="translate(8.455 9.932)" fill="#fff" font-size="4" font-family="Montserrat-Regular, Montserrat"><tspan x="0" y="0">Position</tspan></text>
        </g>
        <path id="Trazado_838817" data-name="Trazado 838817" d="M246.217,300.834a27.817,27.817,0,1,1,27.817-27.817A27.819,27.819,0,0,1,246.217,300.834Z" transform="translate(-46.217 -56.292)" fill="#d6d6d6"/>
        <path id="Trazado_839228" data-name="Trazado 839228" d="M23.856,0A23.856,23.856,0,1,1,0,23.856,23.856,23.856,0,0,1,23.856,0Z" transform="translate(173.005 236.902) rotate(-81.872)" fill="#a008a5"/>
        <path id="Trazado_838818" data-name="Trazado 838818" d="M247.306,293.913a19.806,19.806,0,1,1,19.806-19.806A19.836,19.836,0,0,1,247.306,293.913Z" transform="translate(-47.306 -57.381)" fill="#fafafa"/>
        <g id="Grupo_1091677" data-name="Grupo 1091677" transform="translate(192.43 206.69)">
          <circle id="Elipse_6836" data-name="Elipse 6836" cx="4.577" cy="4.577" r="4.577" transform="translate(2.993)" fill="#a008a5"/>
          <path id="Trazado_838819" data-name="Trazado 838819" d="M254.428,286.807h-11a1.992,1.992,0,0,1-2.025-2.025h0a7.476,7.476,0,0,1,7.482-7.482h0a7.476,7.476,0,0,1,7.482,7.482h0A1.871,1.871,0,0,1,254.428,286.807Z" transform="translate(-241.4 -266.825)" fill="#a008a5"/>
        </g>
        <path id="Trazado_838820" data-name="Trazado 838820" d="M269.782,328.937H221.718a7.251,7.251,0,0,1-7.218-7.218h0a7.251,7.251,0,0,1,7.218-7.218h48.063A7.251,7.251,0,0,1,277,321.718h0A7.194,7.194,0,0,1,269.782,328.937Z" transform="translate(-45.75 -64.588)" fill="#a008a5"/>
        <g id="Grupo_1091678" data-name="Grupo 1091678" transform="translate(180.537 251.304)">
          <text id="NAME_SURNAME-8" data-name="NAME SURNAME" transform="translate(0 4)" fill="#fff" font-size="4" font-family="Montserrat-Bold, Montserrat" font-weight="700"><tspan x="0" y="0">NAME SURNAME</tspan></text>
          <text id="Position-8" data-name="Position" transform="translate(8.455 9.932)" fill="#fff" font-size="4" font-family="Montserrat-Regular, Montserrat"><tspan x="0" y="0">Position</tspan></text>
        </g>
        <path id="Trazado_839229" data-name="Trazado 839229" d="M27.817,0A27.817,27.817,0,1,1,0,27.817,27.817,27.817,0,0,1,27.817,0Z" transform="matrix(0.995, -0.099, 0.099, 0.995, 294.657, 102.696)" fill="#d6d6d6"/>
        <path id="Trazado_839230" data-name="Trazado 839230" d="M23.856,0A23.856,23.856,0,1,1,0,23.856,23.856,23.856,0,0,1,23.856,0Z" transform="translate(301.232 103.785)" fill="#ed1bed"/>
        <path id="Trazado_838821" data-name="Trazado 838821" d="M389.406,192.713a19.806,19.806,0,1,1,19.806-19.806A19.836,19.836,0,0,1,389.406,192.713Z" transform="translate(-64.318 -45.266)" fill="#fafafa"/>
        <g id="Grupo_1091679" data-name="Grupo 1091679" transform="translate(317.518 117.606)">
          <circle id="Elipse_6839" data-name="Elipse 6839" cx="4.577" cy="4.577" r="4.577" transform="translate(2.993)" fill="#d812b3"/>
          <path id="Trazado_838822" data-name="Trazado 838822" d="M396.528,185.707h-11a1.992,1.992,0,0,1-2.025-2.025h0a7.476,7.476,0,0,1,7.482-7.482h0a7.476,7.476,0,0,1,7.482,7.482h0A1.871,1.871,0,0,1,396.528,185.707Z" transform="translate(-383.5 -165.637)" fill="#d812b3"/>
        </g>
        <path id="Trazado_838823" data-name="Trazado 838823" d="M411.882,227.837H363.818a7.251,7.251,0,0,1-7.218-7.218h0a7.251,7.251,0,0,1,7.218-7.218h48.063a7.251,7.251,0,0,1,7.218,7.218h0A7.251,7.251,0,0,1,411.882,227.837Z" transform="translate(-62.762 -52.485)" fill="#d812b3"/>
        <g id="Grupo_1091680" data-name="Grupo 1091680" transform="translate(305.639 162.271)">
          <text id="NAME_SURNAME-9" data-name="NAME SURNAME" transform="translate(0 4)" fill="#fff" font-size="4" font-family="Montserrat-Bold, Montserrat" font-weight="700"><tspan x="0" y="0">NAME SURNAME</tspan></text>
          <text id="Position-9" data-name="Position" transform="translate(8.455 9.932)" fill="#fff" font-size="4" font-family="Montserrat-Regular, Montserrat"><tspan x="0" y="0">Position</tspan></text>
        </g>
        <path id="Trazado_838824" data-name="Trazado 838824" d="M246.217,199.634a27.817,27.817,0,1,1,27.817-27.817A27.819,27.819,0,0,1,246.217,199.634Z" transform="translate(-46.217 -44.176)" fill="#d6d6d6"/>
        <path id="Trazado_839231" data-name="Trazado 839231" d="M23.856,0A23.856,23.856,0,1,1,0,23.856,23.856,23.856,0,0,1,23.856,0Z" transform="translate(176.144 103.785)" fill="#ed1bed"/>
        <path id="Trazado_838825" data-name="Trazado 838825" d="M247.306,192.713a19.806,19.806,0,1,1,19.806-19.806A19.836,19.836,0,0,1,247.306,192.713Z" transform="translate(-47.306 -45.266)" fill="#fafafa"/>
        <g id="Grupo_1091681" data-name="Grupo 1091681" transform="translate(192.43 117.606)">
          <circle id="Elipse_6841" data-name="Elipse 6841" cx="4.577" cy="4.577" r="4.577" transform="translate(2.993)" fill="#d812b3"/>
          <path id="Trazado_838826" data-name="Trazado 838826" d="M254.428,185.707h-11a1.992,1.992,0,0,1-2.025-2.025h0a7.476,7.476,0,0,1,7.482-7.482h0a7.476,7.476,0,0,1,7.482,7.482h0A1.871,1.871,0,0,1,254.428,185.707Z" transform="translate(-241.4 -165.637)" fill="#d812b3"/>
        </g>
        <path id="Trazado_838827" data-name="Trazado 838827" d="M269.782,227.837H221.718a7.251,7.251,0,0,1-7.218-7.218h0a7.251,7.251,0,0,1,7.218-7.218h48.063A7.251,7.251,0,0,1,277,220.618h0A7.251,7.251,0,0,1,269.782,227.837Z" transform="translate(-45.75 -52.485)" fill="#d812b3"/>
        <g id="Grupo_1091682" data-name="Grupo 1091682" transform="translate(180.537 162.271)">
          <text id="NAME_SURNAME-10" data-name="NAME SURNAME" transform="translate(0 4)" fill="#fff" font-size="4" font-family="Montserrat-Bold, Montserrat" font-weight="700"><tspan x="0" y="0">NAME SURNAME</tspan></text>
          <text id="Position-10" data-name="Position" transform="translate(8.455 9.932)" fill="#fff" font-size="4" font-family="Montserrat-Regular, Montserrat"><tspan x="0" y="0">Position</tspan></text>
        </g>
        <path id="Trazado_838828" data-name="Trazado 838828" d="M104.117,199.634a27.817,27.817,0,1,1,27.817-27.817A27.819,27.819,0,0,1,104.117,199.634Z" transform="translate(-29.205 -44.176)" fill="#d6d6d6"/>
        <path id="Trazado_839232" data-name="Trazado 839232" d="M23.856,0A23.856,23.856,0,1,1,0,23.856,23.856,23.856,0,0,1,23.856,0Z" transform="translate(51.056 103.785)" fill="#ed1bed"/>
        <path id="Trazado_838829" data-name="Trazado 838829" d="M105.206,192.713a19.806,19.806,0,1,1,19.806-19.806A19.836,19.836,0,0,1,105.206,192.713Z" transform="translate(-30.294 -45.266)" fill="#fafafa"/>
        <g id="Grupo_1091683" data-name="Grupo 1091683" transform="translate(67.342 117.606)">
          <circle id="Elipse_6843" data-name="Elipse 6843" cx="4.577" cy="4.577" r="4.577" transform="translate(2.993)" fill="#d812b3"/>
          <path id="Trazado_838830" data-name="Trazado 838830" d="M112.328,185.707h-11a1.992,1.992,0,0,1-2.025-2.025h0a7.476,7.476,0,0,1,7.482-7.482h0a7.476,7.476,0,0,1,7.482,7.482h0A1.871,1.871,0,0,1,112.328,185.707Z" transform="translate(-99.3 -165.637)" fill="#d812b3"/>
        </g>
        <path id="Trazado_838831" data-name="Trazado 838831" d="M127.682,227.837H79.618a7.251,7.251,0,0,1-7.218-7.218h0a7.251,7.251,0,0,1,7.218-7.218h48.063a7.251,7.251,0,0,1,7.218,7.218h0A7.251,7.251,0,0,1,127.682,227.837Z" transform="translate(-28.738 -52.485)" fill="#d812b3"/>
        <g id="Grupo_1091684" data-name="Grupo 1091684" transform="translate(55.435 162.271)">
          <text id="NAME_SURNAME-11" data-name="NAME SURNAME" transform="translate(0 4)" fill="#fff" font-size="4" font-family="Montserrat-Bold, Montserrat" font-weight="700"><tspan x="0" y="0">NAME SURNAME</tspan></text>
          <text id="Position-11" data-name="Position" transform="translate(8.455 9.932)" fill="#fff" font-size="4" font-family="Montserrat-Regular, Montserrat"><tspan x="0" y="0">Position</tspan></text>
        </g>
        <path id="Trazado_838832" data-name="Trazado 838832" d="M245.4,98.206a33.8,33.8,0,1,1,33.8-33.8A33.812,33.812,0,0,1,245.4,98.206Z" transform="translate(-45.403 -30.6)" fill="#d6d6d6"/>
        <path id="Trazado_839233" data-name="Trazado 839233" d="M29.842,0A29.842,29.842,0,1,1,0,29.842,29.842,29.842,0,0,1,29.842,0Z" transform="translate(170.158 3.961)" fill="#ed1bed"/>
        <path id="Trazado_838833" data-name="Trazado 838833" d="M246.492,91.285a25.792,25.792,0,1,1,25.792-25.792A25.772,25.772,0,0,1,246.492,91.285Z" transform="translate(-46.492 -31.689)" fill="#fafafa"/>
        <g id="Grupo_1091685" data-name="Grupo 1091685" transform="translate(187.852 17.518)">
          <circle id="Elipse_6845" data-name="Elipse 6845" cx="7.482" cy="7.482" r="7.482" transform="translate(4.665)" fill="#d812b3"/>
          <path id="Trazado_838834" data-name="Trazado 838834" d="M257.239,85.4H239.457a3.249,3.249,0,0,1-3.257-3.257h0A12.172,12.172,0,0,1,248.348,70h0A12.172,12.172,0,0,1,260.5,82.148h0A3.25,3.25,0,0,1,257.239,85.4Z" transform="translate(-236.2 -52.835)" fill="#d812b3"/>
        </g>
        <path id="Trazado_838835" data-name="Trazado 838835" d="M269.878,130.449h-48.5a8.265,8.265,0,0,1-8.275-8.275h0a8.265,8.265,0,0,1,8.275-8.275h48.5a8.265,8.265,0,0,1,8.275,8.275h0A8.265,8.265,0,0,1,269.878,130.449Z" transform="translate(-45.582 -40.573)" fill="#d812b3"/>
        <g id="Grupo_1091686" data-name="Grupo 1091686" transform="translate(177.307 75.128)">
          <text id="NAME_SURNAME-12" data-name="NAME SURNAME" transform="translate(0 4)" fill="#fff" font-size="4" font-family="Montserrat-Bold, Montserrat" font-weight="700"><tspan x="0" y="0">NAME SURNAME</tspan></text>
          <text id="Position-12" data-name="Position" transform="translate(9.858 9.932)" fill="#fff" font-size="4" font-family="Montserrat-Regular, Montserrat"><tspan x="0" y="0">Position</tspan></text>
        </g>
      </g>
    </g>
  </g>
</svg>
